<svg xmlns="http://www.w3.org/2000/svg" viewBox="0 0 174.01 100.22"><defs><style>.cls-1{fill:#de195a;}.cls-2{fill:#e5477b;}.cls-3{fill:#e85e8b;}.cls-4{fill:#eb759c;}.cls-5{fill:#e1306a;}.cls-6{fill:#402a6f;}.cls-7{fill:#796a9a;}.cls-8{fill:#8c7fa9;}.cls-9{fill:#533f7d;}</style></defs><g id="Layer_2" data-name="Layer 2"><g id="TV"><path class="cls-1" d="M6,26.16s-4.22.95-4.22,4.76S43.42,69.45,52.14,62.37,88.49,27.93,88.22,25.75s.54-5.58-3.68-5.58S6,26.16,6,26.16Z"/><path class="cls-1" d="M42.88,98.11s5,2.18,7.56,2.11S56,97.3,56,97.3L44.58,92.94Z"/><path class="cls-1" d="M84.68,18.55A10.29,10.29,0,0,1,89,27.18c-.21,5.72-4.5.56-4.5.56l-1.78-7.25Z"/><path class="cls-2" d="M5.17,24.73S.55,27.56,0,34.42s5.14-.36,5.14-.36Z"/><path class="cls-3" d="M50.5,95.73c0,3.14-2.35,4.69-5.24,3.43l-40-17.48a9.51,9.51,0,0,1-5.24-8V34.42c0-3.15,2.33-4.63,5.18-3.29L45.33,50a9.84,9.84,0,0,1,5.17,8.15Z"/><path class="cls-4" d="M84.89,24.08c2.43-2,2.06-4.67-.82-5.93L44.07.68a10.57,10.57,0,0,0-9.74,1.23L4.54,25.18c-2.48,1.93-2.18,4.61.67,5.95L45.33,50a9.88,9.88,0,0,0,9.59-1.2Z"/><path class="cls-5" d="M50.5,95.73c0,3.14,2,4.13,4.51,2.19l29.42-23a13.27,13.27,0,0,0,4.51-9.24V26.38c0-3.14-2-4.08-4.41-2.07L54.91,48.79a13.86,13.86,0,0,0-4.41,9.36Z"/><ellipse cx="45.77" cy="23.2" rx="6.43" ry="4.59"/><ellipse cx="16.07" cy="53.76" rx="4.46" ry="6.43" transform="matrix(0.87, -0.5, 0.5, 0.87, -24.73, 15.24)"/><ellipse cx="32.41" cy="78.27" rx="4.46" ry="6.43" transform="translate(-34.79 26.69) rotate(-30)"/><ellipse cx="62.1" cy="57.67" rx="6.32" ry="3.48" transform="translate(-17.56 86.6) rotate(-62.84)"/><ellipse cx="79.05" cy="42.46" rx="6.32" ry="3.48" transform="translate(5.19 93.42) rotate(-62.84)"/><ellipse cx="78.95" cy="65.94" rx="6.32" ry="3.48" transform="translate(-15.76 106.09) rotate(-62.84)"/><ellipse cx="60.98" cy="80.95" rx="6.32" ry="3.48" transform="translate(-38.88 98.26) rotate(-62.84)"/><polygon class="cls-6" points="112.9 28.07 116.71 65.64 128.15 62.1 139.04 46.58 112.9 28.07"/><path class="cls-6" d="M173,39.76a10.28,10.28,0,0,1-.39,9.65c-3,4.9-4.2-1.69-4.2-1.69l2-7.2Z"/><path class="cls-6" d="M100.45,6.6s-5.41.23-9.18,6,4.66,2.17,4.66,2.17Z"/><path class="cls-6" d="M97.84,89.06s3.29,4.32,5.58,5.51,6.24.12,6.24.12l-7.82-9.33Z"/><path class="cls-7" d="M105.66,90.68c-1.52,2.75-4.33,2.95-6.24.45L72.92,56.45a9.51,9.51,0,0,1-.7-9.54l19-34.33c1.52-2.75,4.27-2.92,6.11-.36l25.94,36a9.87,9.87,0,0,1,.57,9.64Z"/><path class="cls-8" d="M170.49,44.7c3.09-.57,4.06-3.09,2.15-5.59L146.15,4.43A10.63,10.63,0,0,0,137,.78L99.69,6.68c-3.11.5-4.15,3-2.31,5.54l25.94,36a9.88,9.88,0,0,0,9,3.6Z"/><path class="cls-9" d="M105.66,90.68c-1.52,2.75-.23,4.59,2.87,4.1l36.91-5.87a13.31,13.31,0,0,0,8.42-5.9l19-34.33c1.52-2.75.24-4.53-2.85-4l-37.78,7.05a13.78,13.78,0,0,0-8.39,6Z"/><ellipse cx="121.54" cy="18.41" rx="4.59" ry="6.43" transform="translate(46.49 115.76) rotate(-60.98)"/><ellipse cx="148.79" cy="29.9" rx="4.59" ry="6.43" transform="translate(50.47 145.51) rotate(-60.98)"/><ellipse cx="96.02" cy="31.39" rx="4.46" ry="6.43" transform="matrix(1, -0.02, 0.02, 1, -0.52, 1.65)"/><ellipse cx="98.56" cy="52.29" rx="4.46" ry="6.43" transform="matrix(1, -0.02, 0.02, 1, -0.88, 1.7)"/><ellipse cx="101" cy="73.15" rx="4.46" ry="6.43" transform="translate(-1.24 1.75) rotate(-0.98)"/><ellipse cx="137.62" cy="60.33" rx="6.32" ry="3.48" transform="translate(-10.29 86.82) rotate(-33.82)"/><ellipse cx="130.07" cy="72.49" rx="6.32" ry="3.48" transform="translate(-18.34 84.67) rotate(-33.82)"/><ellipse cx="123.94" cy="84.16" rx="6.32" ry="3.48" transform="translate(-25.87 83.24) rotate(-33.82)"/><ellipse cx="158.17" cy="56.55" rx="6.32" ry="3.48" transform="matrix(0.83, -0.56, 0.56, 0.83, -4.71, 97.62)"/><ellipse cx="150.61" cy="68.71" rx="6.32" ry="3.48" transform="translate(-12.75 95.47) rotate(-33.82)"/><ellipse cx="144.49" cy="80.37" rx="6.32" ry="3.48" transform="translate(-20.28 94.04) rotate(-33.82)"/></g></g></svg>