<svg xmlns="http://www.w3.org/2000/svg" viewBox="0 0 570.85 671.4"><defs><style>.cls-1{isolation:isolate;}.cls-2{fill:#e6311e;}.cls-3{fill:#e7e6e6;}.cls-4,.cls-7{fill:#fff;}.cls-5{fill:#e7267a;}.cls-6{fill:#914959;opacity:0.15;mix-blend-mode:multiply;}.cls-7{opacity:0.21;mix-blend-mode:screen;}</style></defs><g class="cls-1"><g id="Layer_2" data-name="Layer 2"><g id="Layer_1-2" data-name="Layer 1"><polygon class="cls-2" points="0 186.55 63.96 1.37 116.26 148 0 186.55"/><polygon class="cls-3" points="106.92 11.13 128.62 120.21 24.43 176.32 77.83 0 106.92 11.13"/><path class="cls-4" d="M380.35,67,332.61,47S169.19,69,24.43,176.32C137.87,144.81,380.35,67,380.35,67Z"/><polygon class="cls-5" points="410.99 57.75 570.85 556.07 179.71 671.4 0 186.55 410.99 57.75"/><polygon class="cls-6" points="43.67 171.01 215.89 659.16 255.97 646.25 84.09 160.06 43.67 171.01"/><circle class="cls-7" cx="299.18" cy="301.26" r="79.61"/><rect class="cls-7" x="224.48" y="412.25" width="229.25" height="32.28" rx="11.78" transform="translate(791.01 735.47) rotate(162.56)"/><rect class="cls-7" x="290.58" y="454.89" width="123.85" height="32.28" rx="11.78" transform="translate(829.96 814.77) rotate(162.56)"/></g></g></g></svg>