<svg width="415" height="384" viewBox="0 0 415 384" fill="none" xmlns="http://www.w3.org/2000/svg">
    <path
        d="M408.984 150.82C410.438 144.586 410.358 135.436 405.832 122.239C402.195 111.47 394.112 102.888 382.474 96.977C382.151 90.7425 381.019 84.1842 379.322 77.4639C373.18 54.1454 353.459 45.8058 342.144 42.891C338.831 34.4704 330.829 24.1876 314.503 17.5483C308.28 15.0384 301.41 13.7429 293.894 13.7429C289.287 13.7429 284.438 14.2287 279.427 15.2003C273.284 6.6178 263.02 1.51688 250.008 0.950109C248.957 0.869142 247.987 0.869141 247.017 0.869141C235.702 0.869141 227.539 4.02685 221.882 8.15617C216.144 4.35072 207.657 0.950109 195.857 0.950109C193.109 0.950109 190.281 1.11204 187.371 1.51688C169.833 3.78395 159.326 10.1803 153.426 15.4432C148.334 13.9048 141.06 12.3665 132.655 12.3665C119.885 12.3665 108.166 15.848 97.6593 22.6493C97.0936 22.6493 96.447 22.6493 95.8812 22.6493C73.6553 22.6493 54.1773 32.5272 46.2568 47.83C42.7007 54.7122 41.2459 61.1086 40.8418 66.2905C29.2035 69.0433 17.3228 76.4923 11.4228 91.0664C6.08858 104.264 7.54337 114.466 11.2612 121.591C3.9064 129.769 -2.31686 141.995 1.07765 156.245C4.71461 171.467 14.1707 180.616 20.3132 185.231C21.8488 197.457 27.9912 214.379 44.2363 220.937C50.702 223.609 57.4102 224.905 64.1992 224.905C68.1595 224.905 71.7156 224.419 74.706 223.771C81.1717 232.597 94.0223 245.551 115.521 248.952C124.169 250.328 131.766 251.057 138.07 251.057C142.03 251.057 145.263 250.814 147.93 250.328C153.588 254.62 163.448 260.125 176.864 260.125C177.188 260.125 177.592 260.125 177.915 260.125C185.593 269.032 204.424 293.484 208.546 322.632L214.366 363.52C214.446 364.249 214.608 364.897 214.85 365.625C217.113 372.103 225.357 383.114 241.683 383.114C245.482 383.114 249.523 382.548 253.645 381.333C261.727 378.985 272.719 374.775 275.143 364.573C276.275 359.553 274.739 355.1 272.557 351.942C268.435 341.821 260.757 320.77 256.554 301.742C261.484 303.929 267.142 305.386 273.284 305.386C275.467 305.386 277.649 305.224 279.75 304.819C285.165 303.929 295.025 302.228 301.733 297.856C302.461 297.856 303.188 297.856 303.997 297.856C312.968 297.856 326.465 296.156 339.558 287.897C354.025 278.829 360.572 266.117 363.4 258.506C372.21 254.782 388.212 245.713 392.496 228.71C393.87 223.366 393.951 218.751 393.304 214.865C400.982 209.278 409.388 199.805 412.863 184.016C416.419 166.932 413.267 156.731 408.984 150.82ZM282.579 43.8626C283.387 39.8143 283.468 34.3085 282.74 28.9647C291.631 26.9405 302.218 26.1308 311.594 29.9363C319.757 33.2559 325.818 37.952 329.132 43.3768C331.557 47.4252 331.718 50.5019 331.718 50.5019C331.718 52.769 333.496 54.6312 335.678 54.8741C336.729 54.9551 361.541 57.4651 367.361 79.569C373.18 101.673 368.25 114.547 367.684 115.923C367.118 116.814 364.208 121.348 359.278 124.587C358.874 124.83 358.47 125.072 358.147 125.315C357.985 125.396 357.904 125.477 357.743 125.558C357.5 125.72 357.177 125.882 356.935 125.963C356.773 126.044 356.611 126.125 356.45 126.206C356.046 126.368 355.722 126.53 355.318 126.692C351.924 128.068 348.287 128.392 344.569 127.825C344.407 127.825 344.246 127.744 344.084 127.744C343.841 127.663 343.518 127.663 343.276 127.582C343.114 127.582 342.952 127.502 342.71 127.421C342.468 127.34 342.225 127.259 341.902 127.259C341.498 127.178 341.094 127.016 340.689 126.854C340.528 126.773 340.285 126.692 340.124 126.692C339.8 126.611 339.558 126.449 339.235 126.368C339.073 126.287 338.831 126.206 338.669 126.125C338.346 125.963 338.022 125.882 337.699 125.72C337.537 125.639 337.376 125.558 337.214 125.477C336.729 125.234 336.244 124.992 335.759 124.749C333.9 123.777 331.637 124.263 330.344 125.963C317.979 141.833 298.177 133.007 297.369 132.602C295.672 131.793 293.651 132.198 292.358 133.574C291.712 134.222 277.325 149.12 264.313 139.161C262.535 137.784 259.949 138.027 258.413 139.647C254.453 143.938 249.927 145.314 244.512 143.938C243.057 143.614 241.683 143.047 240.471 142.48C240.309 141.833 240.148 141.266 239.905 140.699C239.824 140.537 239.824 140.375 239.743 140.213C239.582 139.808 239.42 139.404 239.259 138.999C239.178 138.837 239.097 138.675 239.097 138.513C238.935 138.108 238.693 137.622 238.531 137.218C238.45 137.137 238.45 137.056 238.369 136.975C238.127 136.489 237.885 135.922 237.561 135.436C236.915 134.303 236.187 133.25 235.541 132.279C235.056 131.631 234.571 130.983 234.005 130.416C235.217 130.173 236.511 129.769 237.885 129.364C240.713 128.392 243.865 126.935 246.937 124.668C247.26 124.425 247.583 124.182 247.906 123.939C247.987 123.858 247.987 123.858 248.068 123.777C248.391 123.534 248.634 123.291 248.957 123.048C249.038 123.048 249.038 122.967 249.119 122.967C249.765 122.401 250.493 121.753 251.139 121.105C251.22 121.024 251.301 120.943 251.301 120.943C251.543 120.7 251.867 120.376 252.109 120.134C252.19 120.053 252.271 119.972 252.352 119.891C252.998 119.162 253.564 118.433 254.21 117.624C254.291 117.543 254.372 117.462 254.372 117.381C254.615 117.057 254.857 116.733 255.1 116.409C255.18 116.328 255.261 116.166 255.342 116.085C255.584 115.761 255.827 115.356 256.069 114.952C256.15 114.871 256.15 114.79 256.231 114.709C256.473 114.223 256.797 113.818 257.039 113.332C257.12 113.251 257.12 113.089 257.201 113.008C257.443 112.604 257.605 112.28 257.847 111.875C257.928 111.713 258.009 111.551 258.09 111.389C258.252 110.984 258.494 110.579 258.656 110.175C258.736 110.013 258.817 109.932 258.817 109.77C259.06 109.203 259.302 108.717 259.545 108.15C259.545 108.069 259.626 107.988 259.626 107.827C259.787 107.341 260.03 106.855 260.191 106.369C260.272 106.207 260.353 105.964 260.353 105.802C260.515 105.398 260.676 104.912 260.757 104.507C260.838 104.345 260.838 104.102 260.919 103.94C261.08 103.292 261.323 102.645 261.484 101.997C266.415 83.4555 263.101 72.363 259.787 66.5334C267.304 62.647 280.235 55.0361 282.579 43.8626ZM360.976 164.422C361.784 166.204 363.643 167.256 365.582 166.932C366.633 166.851 373.422 166.932 375.119 180.616C376.493 192.194 372.048 198.429 368.33 201.586C367.765 201.505 367.118 201.505 366.552 201.505C358.228 201.505 348.772 211.545 344.973 220.047C337.942 216.646 333.092 218.104 327.758 219.723C327.111 219.966 326.384 220.128 325.657 220.371C319.433 222.152 315.473 228.872 313.21 233.892C308.523 231.301 300.683 229.196 289.045 232.354C278.295 235.269 273.204 239.236 270.86 242.637C266.415 241.179 259.221 240.369 248.876 244.013C242.168 246.361 237.804 251.219 236.187 258.101C236.187 258.182 236.187 258.182 236.187 258.263C231.257 257.939 224.549 256.401 216.144 252.353C212.507 250.571 209.516 247.738 207.092 244.499C211.618 240.45 214.77 235.673 216.386 230.33C220.75 216.241 213.557 201.748 208.87 194.299C217.518 190.899 233.197 182.721 238.854 166.123C240.632 160.941 241.441 156.245 241.521 152.115C243.785 152.763 246.048 153.087 248.23 153.087C253.241 153.087 257.928 151.387 262.05 148.067C275.224 155.597 289.125 148.229 296.48 141.59C306.017 144.99 322.828 146.529 334.87 133.898C339.639 135.922 344.003 136.732 347.883 136.732C350.792 136.732 353.54 136.246 356.046 135.517C359.198 136.246 363.077 138.432 365.825 144.1C369.866 152.52 363.077 158.431 362.269 159.079C360.733 160.455 360.167 162.641 360.976 164.422ZM379.484 227.901C375.766 242.718 355.399 248.79 355.156 248.871C353.54 249.357 352.409 250.652 352.085 252.272C352.085 252.434 348.852 268.141 333.254 277.857C317.494 287.735 300.36 285.144 300.198 285.144C298.905 284.901 297.612 285.306 296.642 286.116C296.076 286.602 295.672 287.168 295.429 287.735C294.621 288.383 291.146 290.569 279.023 292.593C262.293 295.346 249.523 279.234 249.28 278.91C249.2 278.748 249.038 278.667 248.957 278.505C246.856 276.319 244.593 271.056 244.269 265.712C244.269 265.55 244.269 265.388 244.269 265.307C244.269 264.983 244.269 264.579 244.269 264.255C244.269 264.174 244.269 264.093 244.269 264.012C244.269 263.688 244.269 263.364 244.269 263.04C244.269 262.959 244.269 262.878 244.269 262.716C244.269 262.312 244.35 261.988 244.431 261.583C244.431 261.502 244.431 261.421 244.431 261.34C244.512 260.935 244.593 260.53 244.674 260.206C244.754 259.721 244.916 259.235 245.078 258.83C245.239 258.425 245.401 257.939 245.643 257.534C246.856 255.105 248.876 253.405 251.705 252.353C262.05 248.79 267.789 250.733 269.728 251.705C270.052 251.867 270.294 252.029 270.456 252.11L270.536 252.191L270.456 252.11L271.021 251.381L273.284 248.709L277.649 248.061C277.649 248.061 277.649 248.871 277.649 248.547C277.649 248.466 277.81 247.98 278.376 247.333C279.508 245.956 282.74 243.284 291.388 240.855C301.572 238.102 307.391 240.369 310.058 242.151C310.462 242.394 310.785 242.637 311.028 242.879C311.109 242.96 311.19 242.96 311.19 243.041C311.19 243.041 311.19 243.041 311.27 243.041C311.351 243.122 311.351 243.122 311.432 243.203C311.513 243.284 311.513 243.284 311.513 243.284L311.594 243.365L311.675 243.446C312.644 244.823 314.261 245.47 315.958 245.147C317.655 244.904 318.948 243.527 319.433 241.908C319.514 241.584 319.676 241.179 319.757 240.774V240.693C319.918 240.289 319.999 239.884 320.161 239.56C321.858 234.945 324.929 229.439 328 228.548C328.809 228.305 329.536 228.063 330.263 227.901C336.244 226.119 338.426 225.472 345.054 230.087C346.428 231.058 348.125 231.139 349.58 230.411C350.146 230.087 350.63 229.763 350.954 229.277C351.439 228.71 351.762 227.982 351.843 227.253C351.843 227.01 351.924 226.767 351.924 226.524C351.924 224.743 353.459 221.747 355.641 218.751C355.803 218.508 356.046 218.266 356.207 217.942C356.288 217.861 356.288 217.78 356.369 217.699C356.53 217.537 356.611 217.375 356.773 217.132C356.854 217.051 356.935 216.97 357.015 216.889C357.177 216.727 357.258 216.565 357.419 216.403C357.5 216.322 357.581 216.241 357.662 216.16C357.824 215.998 357.985 215.837 358.066 215.675C358.147 215.594 358.228 215.513 358.309 215.432C358.47 215.27 358.632 215.027 358.874 214.865C358.955 214.784 358.955 214.784 359.036 214.703C359.278 214.46 359.44 214.217 359.682 214.055C359.763 213.974 359.763 213.974 359.844 213.893C360.006 213.731 360.167 213.569 360.329 213.407C360.41 213.327 360.491 213.246 360.572 213.165C360.733 213.003 360.895 212.922 360.976 212.76C361.056 212.679 361.137 212.598 361.218 212.517C361.38 212.436 361.541 212.274 361.622 212.193C361.703 212.112 361.784 212.031 361.865 212.031C362.026 211.869 362.188 211.788 362.35 211.707C362.43 211.626 362.511 211.626 362.511 211.545C362.754 211.383 362.915 211.221 363.158 211.14L363.239 211.059C363.4 210.978 363.562 210.817 363.804 210.736C363.885 210.736 363.966 210.655 364.047 210.655C364.208 210.574 364.289 210.493 364.451 210.493C364.532 210.493 364.613 210.412 364.693 210.412C364.855 210.331 364.936 210.331 365.098 210.25C365.178 210.25 365.259 210.169 365.34 210.169C365.502 210.169 365.582 210.088 365.744 210.088C365.825 210.088 365.906 210.088 365.906 210.088C366.067 210.088 366.31 210.007 366.471 210.007C366.714 210.007 367.037 210.007 367.28 210.007C367.361 210.007 367.441 210.007 367.522 210.007C367.765 210.007 368.007 210.007 368.25 210.088C368.33 210.088 368.411 210.088 368.492 210.088C369.139 210.169 369.785 210.25 370.432 210.412C373.26 211.14 376.089 212.598 377.948 214.865C380.292 218.346 380.777 222.557 379.484 227.901ZM179.289 249.114C178.4 249.195 177.43 249.195 176.622 249.195C160.215 249.195 150.436 238.183 150.436 238.183C150.436 238.183 147.769 240.127 137.908 240.127C132.978 240.127 126.189 239.641 117.137 238.183C89.8196 233.811 79.3936 210.817 79.3936 210.817C79.3936 210.817 73.332 213.974 64.1184 213.974C59.5116 213.974 54.0965 213.165 48.2774 210.817C30.7391 203.691 30.7391 179.077 30.7391 179.077C30.7391 179.077 15.9488 171.952 11.5844 153.735C7.22008 135.517 26.3748 122.643 26.3748 122.643C26.3748 122.643 13.2817 115.518 21.4447 95.1957C28.8802 76.8971 47.8733 76.0065 51.4294 76.0065C51.8335 76.0065 52.076 76.0065 52.076 76.0065C52.076 76.0065 49.3281 65.5618 55.8746 52.8499C61.2088 42.4862 76.2416 33.5798 95.8004 33.5798C97.4168 33.5798 99.0333 33.6608 100.731 33.7417C111.641 25.726 122.956 23.297 132.574 23.297C146.395 23.297 156.497 28.236 156.497 28.236C156.497 28.236 163.61 15.6051 188.745 12.3665C191.251 12.0426 193.594 11.8807 195.777 11.8807C215.497 11.8807 222.609 23.8638 222.609 23.8638C222.609 23.8638 226.65 11.7997 246.937 11.7997C247.745 11.7997 248.553 11.7997 249.442 11.8807C263.828 12.5284 270.941 19.4915 273.527 27.9121C273.608 28.236 273.688 28.5599 273.85 28.9647C274.577 33.5798 274.658 38.6807 273.931 42.0813C272.072 50.9067 256.878 58.2747 251.22 60.3799C249.684 60.9466 248.553 62.2421 248.311 63.8615C248.068 65.4808 248.715 67.0192 250.008 67.9098C250.735 68.5575 258.979 76.4923 252.837 99.4869C245.805 125.801 223.498 122.239 222.609 122.077C220.427 121.672 218.245 122.967 217.598 125.153C216.952 127.34 218.083 129.607 220.104 130.416C220.912 130.74 238.935 138.594 230.449 163.289C224.145 181.668 200.949 187.66 200.707 187.741C199.252 188.065 198.04 189.198 197.635 190.575C197.151 192.032 197.474 193.571 198.363 194.704C198.524 194.866 212.587 212.436 207.9 227.658C205.071 236.726 196.019 243.608 180.825 248.061C180.34 248.385 179.774 248.709 179.289 249.114ZM262.939 357.61C262.939 357.61 270.941 364.897 250.574 370.726C247.179 371.698 244.189 372.103 241.602 372.103C228.59 372.103 225.034 361.982 225.034 361.982L219.215 321.094C214.931 291.217 197.151 266.36 187.856 255.186C192.382 253.567 196.423 251.705 199.979 249.681C203.212 253.891 207.253 257.777 212.264 260.287C220.508 264.336 228.348 266.603 235.622 267.089C236.268 274.052 239.097 280.853 242.572 284.496C242.572 284.496 242.653 284.577 242.653 284.658C244.835 314.211 262.939 357.61 262.939 357.61ZM402.033 181.749C398.8 196.647 389.991 204.42 383.363 208.307C381.747 206.606 379.888 205.311 377.867 204.339C381.666 199.562 385.222 191.627 383.767 179.644C382.717 171.224 379.888 165.151 375.2 161.589C374.392 160.941 373.584 160.455 372.856 160.05C375.766 155.111 377.382 148.229 373.745 140.456C371.563 135.922 368.734 132.764 365.744 130.659C371.967 125.963 375.281 120.214 375.362 120.134C375.443 120.053 375.443 119.972 375.523 119.891C375.685 119.567 377.625 115.275 378.514 107.422C385.626 111.146 392.496 116.976 395.486 125.882C403.164 148.31 395.486 153.654 395.486 153.654C395.486 153.654 407.529 156.488 402.033 181.749Z"
        fill="#41256B" />
</svg>