<svg xmlns="http://www.w3.org/2000/svg" xmlns:xlink="http://www.w3.org/1999/xlink" viewBox="0 0 1475.28 1569.08"><defs><style>.cls-1,.cls-18{fill:none;}.cls-2{isolation:isolate;}.cls-11,.cls-3{fill:#dfc8a8;}.cls-3{opacity:0.75;mix-blend-mode:multiply;}.cls-4{fill:#64bdd1;}.cls-14,.cls-5,.cls-8{fill:#fff;}.cls-5{opacity:0.4;}.cls-5,.cls-8{mix-blend-mode:screen;}.cls-6{fill:url(#radial-gradient);}.cls-7{fill:#ff5c5c;}.cls-8{opacity:0.2;}.cls-9{fill:#f4e7bb;}.cls-10{clip-path:url(#clip-path);}.cls-12{fill:#81d693;}.cls-13{fill:#fac444;}.cls-15{fill:#dd1b24;}.cls-16{fill:url(#radial-gradient-2);}.cls-17{fill:#fde739;}.cls-18{stroke:#fac444;stroke-linecap:round;stroke-width:8.57px;}.cls-19{fill:url(#radial-gradient-3);}.cls-20{fill:url(#radial-gradient-4);}.cls-21{fill:url(#radial-gradient-5);}.cls-22{fill:#ee8f25;}.cls-23{fill:url(#radial-gradient-6);}.cls-24{fill:url(#radial-gradient-7);}.cls-25{fill:url(#radial-gradient-8);}.cls-26{fill:url(#radial-gradient-9);}</style><radialGradient id="radial-gradient" cx="719.57" cy="447.11" r="132.9" gradientUnits="userSpaceOnUse"><stop offset="0" stop-color="#e20000"/><stop offset="0.37" stop-color="#e00000"/><stop offset="0.52" stop-color="#d90000"/><stop offset="0.63" stop-color="#cd0000"/><stop offset="0.72" stop-color="#b00"/><stop offset="0.8" stop-color="#a50000"/><stop offset="0.87" stop-color="#8a0000"/><stop offset="0.87" stop-color="#800"/></radialGradient><clipPath id="clip-path"><path class="cls-1" d="M187.78,1197.55H1292.93s-94.46,138.54-255,201.51-418.76,85-601.38,0S187.78,1197.55,187.78,1197.55Z"/></clipPath><radialGradient id="radial-gradient-2" cx="759.4" cy="1022" r="140.27" gradientUnits="userSpaceOnUse"><stop offset="0" stop-color="#fde739"/><stop offset="0.92" stop-color="#fac444"/></radialGradient><radialGradient id="radial-gradient-3" cx="969.52" cy="794.75" r="156.08" gradientTransform="matrix(0.65, 0.73, -0.71, 0.68, 865.11, -464.19)" xlink:href="#radial-gradient-2"/><radialGradient id="radial-gradient-4" cx="974.13" cy="675.83" r="73.93" gradientTransform="matrix(0.65, 0.73, -0.71, 0.68, 865.11, -464.19)" gradientUnits="userSpaceOnUse"><stop offset="0" stop-color="#fde739"/><stop offset="0.92" stop-color="#f5af42"/></radialGradient><radialGradient id="radial-gradient-5" cx="810.28" cy="697.21" r="81.35" xlink:href="#radial-gradient-4"/><radialGradient id="radial-gradient-6" cx="1275.34" cy="738.42" r="202.23" gradientTransform="matrix(0.54, -0.81, -0.84, -0.52, 868.65, 2135.91)" gradientUnits="userSpaceOnUse"><stop offset="0" stop-color="#96c066"/><stop offset="0.06" stop-color="#aecf89"/><stop offset="0.13" stop-color="#c7ddad"/><stop offset="0.21" stop-color="#dbeacb"/><stop offset="0.29" stop-color="#ebf3e2"/><stop offset="0.38" stop-color="#f6faf2"/><stop offset="0.48" stop-color="#fdfefc"/><stop offset="0.61" stop-color="#fff"/></radialGradient><radialGradient id="radial-gradient-7" cx="1434.32" cy="740.77" r="224.92" gradientTransform="matrix(0.54, -0.81, -0.84, -0.52, 655.41, 2160.48)" xlink:href="#radial-gradient-6"/><radialGradient id="radial-gradient-8" cx="1021.92" cy="790.3" r="29.43" gradientTransform="matrix(-0.75, -0.64, -0.66, 0.72, 2270.01, 772.08)" gradientUnits="userSpaceOnUse"><stop offset="0" stop-color="#f5af42"/><stop offset="1"/></radialGradient><radialGradient id="radial-gradient-9" cx="1042.94" cy="630.14" r="32.73" gradientTransform="matrix(-0.75, -0.64, -0.66, 0.72, 2058.47, 794.18)" xlink:href="#radial-gradient-8"/></defs><g class="cls-2"><g id="Layer_2" data-name="Layer 2"><g id="Layer_2-2" data-name="Layer 2"><ellipse class="cls-3" cx="716.54" cy="1354.98" rx="196" ry="28.34"/><circle class="cls-4" cx="740.73" cy="731.52" r="718.8"/><path class="cls-5" d="M314.18,150.21c133.07,102.27,363,279.13,368.68,284.8,8.08,8-2.7,11.72-15.07,2.22-7.79-6-230.46-147.07-394.74-252.59C265.12,179.55,304.59,142.84,314.18,150.21Z"/><path class="cls-5" d="M365.28,120S687.24,407.1,699,418.9c12.15,12.19,4.68,14.2-11.73-.9-15.69-14.42-341.11-287-342-290S365.28,120,365.28,120Z"/><path class="cls-5" d="M719.28,416l-130-136S700.28,418,719.28,416Z"/><path class="cls-5" d="M679.87,457,514.68,367S662.37,464.71,679.87,457Z"/><circle class="cls-6" cx="746.28" cy="486" r="64"/><ellipse class="cls-7" cx="716.44" cy="443.05" rx="10.21" ry="6.59" transform="translate(-125.91 447.98) rotate(-32.07)"/><ellipse class="cls-7" cx="701.63" cy="457.27" rx="6.05" ry="3.9" transform="translate(-117.84 630.06) rotate(-45)"/><path class="cls-5" d="M484.46,420.37a53.87,53.87,0,0,0-12.07,1.4,78.43,78.43,0,0,0-147.08,0,53.89,53.89,0,1,0-12.07,106.41H484.46a53.91,53.91,0,0,0,0-107.81Z"/><path class="cls-5" d="M1265.34,784.78a58.22,58.22,0,0,0-13,1.51,84.69,84.69,0,0,0-158.82,0,58.19,58.19,0,1,0-13,114.89h184.88a58.2,58.2,0,1,0,0-116.4Z"/><path class="cls-5" d="M1144.59,403.27a36.5,36.5,0,0,0-8.15,1,52.92,52.92,0,0,0-99.25,0,36.36,36.36,0,1,0-8.14,71.8h115.54a36.38,36.38,0,0,0,0-72.75Z"/><path class="cls-5" d="M317.1,815.53a36.41,36.41,0,0,0-8.14,1,52.92,52.92,0,0,0-99.25,0,36.36,36.36,0,1,0-8.15,71.8H317.1a36.38,36.38,0,1,0,0-72.75Z"/><path class="cls-8" d="M893.64,628.59a58.22,58.22,0,0,0-13,1.52,84.69,84.69,0,0,0-158.82,0,58.19,58.19,0,1,0-13,114.89H893.64a58.21,58.21,0,0,0,0-116.41Z"/><path class="cls-9" d="M1292.89,1197.56s-94.1,138.06-254.16,201.18c-.28.09-.56.23-.84.33-4.83,1.9-9.81,3.76-14.83,5.58a762,762,0,0,1-80.15,24c-13.72,3.35-27.82,6.37-42.14,9.12-148.71,28.61-327.61,24.88-464.28-38.7-182.62-85-248.72-201.51-248.72-201.51Z"/><g class="cls-10"><path class="cls-11" d="M1311.82,1309c0,72.23-251.5,260-560.45,260S193,1381.27,193,1309s250.45-93,559.4-93S1311.82,1236.81,1311.82,1309Z"/></g><path class="cls-12" d="M737.64,0C330.89,0,0,330.89,0,737.64c0,240,115.2,453.54,293.18,588.33a734.85,734.85,0,0,0,444.46,149.31c406.74,0,737.64-330.9,737.64-737.64S1144.38,0,737.64,0Zm0,1449.56a708.59,708.59,0,0,1-401.26-124.15C148.92,1197.1,25.71,981.49,25.71,737.64c0-392.56,319.37-711.93,711.93-711.93s711.92,319.37,711.92,711.93S1130.2,1449.56,737.64,1449.56Z"/><ellipse class="cls-3" cx="781.08" cy="1349.1" rx="196" ry="28.34"/><path class="cls-13" d="M864.29,1037.18c19.72,0,40-6.19,60.75-18.56l-14.39-24.07c-23.48,14-45.66,17.94-65.89,11.59-39.37-12.33-60.56-58.35-60.78-58.83l-25.54,11.55c1.08,2.36,26.72,58,77.92,74a92.58,92.58,0,0,0,27.93,4.3"/><path class="cls-13" d="M905.36,995.64a33.42,33.42,0,1,0,33.41-33.44,33.41,33.41,0,0,0-33.41,33.44"/><path class="cls-13" d="M902.57,1000.08s-6.13-21.28,0-33.26,17,.64,13.55,4.28,16-15.17,22.65-15.17,16.82,3,14,9.34c2.25-1.94,3.54-3.62,7.8-1.73,8.91,4,10.07,12.84,8.82,14.46l-1.27,1.66s2.22-2.83,6.12,6.67-2.08,19.94-8.56,29l-63.14-15.3"/><path class="cls-14" d="M902.57,1000.08s9.65,18.2,18.16,23.67-7.92,20.09-16.88,12.94-16.1-24.49-14.62-30.15,9.86-8.74,13.34-6.46"/><path class="cls-15" d="M897.61,1000.08s9.37,26.93,22,34.14a16.64,16.64,0,0,1-7.86,4.17s-18.89-17.73-20.54-35.23c1.61-2.57,6.41-3.08,6.41-3.08"/><path class="cls-13" d="M484.28,877.58a105.17,105.17,0,0,1,9.84-9.51c21.88-18.71,114.3-105.86,133-159.52,18.6-53.22-6.37-106.6-59.39-126.91a82.56,82.56,0,0,0-62.69,1.11,78.09,78.09,0,0,0-42.47,44.41,65.41,65.41,0,0,0,2.14,51,69.37,69.37,0,0,0,38.17,35.42c29.22,11.2,61.69-2.86,72.42-31.35,9-23.9-3.67-51-28.17-60.39a40.42,40.42,0,0,0-30.66.56,38.1,38.1,0,0,0-20.77,21.72c-6.5,17.28,2.68,36.9,20.38,43.7a10.89,10.89,0,0,0,14.17-6.12,11.08,11.08,0,0,0-6.56-14.08,12.2,12.2,0,0,1-7.29-15.56,17.2,17.2,0,0,1,9.34-9.78,18.12,18.12,0,0,1,13.8-.24c13.09,5,19.84,19.49,15,32.25-6.53,17.35-26.31,25.92-44.11,19.11a46.62,46.62,0,0,1-25.75-23.9,44.2,44.2,0,0,1-1.45-34.42,57.14,57.14,0,0,1,31.06-32.48,60.27,60.27,0,0,1,45.8-.79c41.32,15.82,60.69,57.55,46.11,99.25-15.78,45.17-99.7,127.25-126.86,150.47a128.72,128.72,0,0,0-12.6,12.31"/><path class="cls-13" d="M513.48,1092.94a151.61,151.61,0,0,1-63.09-23.84c-32.7-21.87-50-48.77-51.45-79.92-3.14-67.9,72-129.73,75.21-132.3l17.52,13.91c-1,.85-71.88,61.45-69.26,117.38,1.09,23.26,14.89,43.92,41,61.41,74.69,50,177.07-2.39,178.11-2.92l10.89,20.8c-3.62,1.89-69.61,35.61-139,25.48"/><path class="cls-16" d="M770.59,864.42s50.87,185.41-34.14,279.33c-64.64,71.41-128.37,32.56-142.14-30.06s131.11-110.88,131.11-278.57c36.88,42.6,45.17,29.3,45.17,29.3"/><path class="cls-13" d="M565.46,980.81C626.34,879.29,706.56,920.19,710,922c0,0,14.73,7.89,20.61-12.6,3.35-11.66-7.34-12.1-7.34-12.1-1.05-.56-106.88-55.84-181.79,69.11l24,14.41"/><path class="cls-13" d="M803.5,1333.54c9.27-65-1.4-117.31-31.74-155.37-40.85-51.28-102.06-56.94-104.65-57.15L664.78,1149l1.16-14-1.21,14c.53,0,52.21,5.13,85.34,47,25.18,31.79,33.79,76.77,25.7,133.66l27.73,4"/><path class="cls-13" d="M562.92,1186.72c1.34,0,2.71,0,4-.11,43.77-2.41,70.75-43.72,71.9-45.47L615.27,1126l11.8,7.56-11.78-7.6c-.22.31-20.61,31.17-50,32.69-19.91,1.17-40.95-11.74-62.15-38l-21.79,17.63c26,32.12,53.43,48.39,81.59,48.39"/><path class="cls-13" d="M570.3,1011.29a33.43,33.43,0,1,0-43.78,17.81,33.42,33.42,0,0,0,43.78-17.81"/><path class="cls-13" d="M573.17,1000.1s-1.18,30.16-11.49,38.79-15.4-7.17-10.82-9.2-20.62,7.76-26.78,5.17-14.32-9.28-9.29-14.08c-2.83,1-4.69,2-7.85-1.41-6.68-7.15-4.29-15.73-2.52-16.78l1.81-1s-3.11,1.71-3-8.51,9.66-17.58,19.18-23.48"/><path class="cls-14" d="M568.29,980.63S553.8,966,544.08,963.17s1.76-21.49,12.4-17.24,22.49,18.79,22.7,24.65-6.9,11.22-10.89,10"/><path class="cls-15" d="M573.08,979.18s-16.81-23.09-31-26.35a16.52,16.52,0,0,1,6.31-6.25s23.2,11.52,29.85,27.8c-.81,2.93-5.21,4.8-5.21,4.8"/><path class="cls-13" d="M771.12,1329.13A37.65,37.65,0,1,0,802,1285.78a37.68,37.68,0,0,0-30.91,43.35"/><path class="cls-13" d="M809.9,1294.32a10.92,10.92,0,1,0,19.17,10.48l14.7-26.94a10.92,10.92,0,0,0-19.17-10.45l-14.7,26.91"/><path class="cls-13" d="M826,1300.94a10.93,10.93,0,0,0,12.67,17.82l25-17.81a10.91,10.91,0,1,0-12.65-17.77l-25,17.76"/><path class="cls-13" d="M836.86,1315.19a10.92,10.92,0,1,0,3.54,21.56l30.29-5a10.91,10.91,0,1,0-3.54-21.54l-30.29,4.93"/><path class="cls-13" d="M520.73,1140.12A37.65,37.65,0,1,0,495.47,1187a37.62,37.62,0,0,0,25.26-46.87"/><path class="cls-13" d="M486.61,1179.49a10.92,10.92,0,1,0-20.33-8l-11.22,28.56a10.92,10.92,0,1,0,20.32,8l11.23-28.56"/><path class="cls-13" d="M469.76,1175A10.91,10.91,0,1,0,455,1158.89l-22.59,20.73a10.92,10.92,0,1,0,14.78,16.07L469.76,1175"/><path class="cls-13" d="M457.24,1162.15a10.92,10.92,0,1,0-6.18-20.94l-29.42,8.69a10.93,10.93,0,1,0,6.18,21l29.42-8.71"/><path class="cls-17" d="M545.79,465.23a17,17,0,0,0-1.69.49,23.8,23.8,0,1,0,16.3,43.52s20.64-16.25,35-11.37S569.67,459.85,545.79,465.23Z"/><path class="cls-17" d="M855.45,371.31c-.19-.24-.37-.44-.55-.63a15.38,15.38,0,0,0-3.38-3.45c-4.76-3.43-9.76-2.28-11.19,2.57s1.27,11.56,6,15c0,0,9.72,5.95,11.81,12.78S862.83,380.43,855.45,371.31Z"/><path class="cls-17" d="M804.5,346.48a8.32,8.32,0,0,0-.8-.52,15.49,15.49,0,0,0-4.78-2.74c-6.43-2.22-12.17.95-12.83,7.06s4,12.88,10.43,15.1c0,0,12.9,3.3,16.87,10.41S815.29,354.3,804.5,346.48Z"/><line class="cls-18" x1="463.49" y1="491.12" x2="288.87" y2="491.12"/><line class="cls-18" x1="234.54" y1="491.12" x2="172.45" y2="491.12"/><line class="cls-18" x1="370.36" y1="618.56" x2="228.72" y2="618.56"/><line class="cls-18" x1="440.21" y1="761.17" x2="329.61" y2="761.17"/><ellipse class="cls-3" cx="1051.61" cy="1243.72" rx="15.77" ry="2.28"/><ellipse class="cls-3" cx="1039.11" cy="1254.1" rx="18.25" ry="2.64"/><ellipse class="cls-3" cx="463.07" cy="1353.44" rx="24.38" ry="3.53"/><ellipse class="cls-3" cx="636.32" cy="1420.07" rx="30.34" ry="4.39"/><ellipse class="cls-3" cx="472.37" cy="1244.66" rx="15.08" ry="2.18"/><ellipse class="cls-3" cx="444.63" cy="1337.07" rx="15.19" ry="2.2"/><path class="cls-19" d="M922.76,593.5s30.75-1.32,46.28,11.16,41.59,30.8,36.9,50.44,22.8,76.47-31.45,125.62c-15.22,13.79-36.32,25.46-80.1,70.95-16.33,17-12.45,13.41-8.86,31.92,6.13,31.49-28.36,21.43-36.81,9.45s6.12,10.11-14.12,29c-19.78,18.43-82.14.36-99.72-29.36s-32.24-46.7,8.46-118.07a1413.58,1413.58,0,0,1,83.11-128.36Z"/><path d="M844.32,891.35s-12.93-6.62-43.94-38.33c-14-14.34-17.77-21.43-20.47-32.44-4.79-19.47-53.5,8-36.37,14.4C827.22,866.28,804.79,917.53,844.32,891.35Z"/><path class="cls-20" d="M962,760.71c-21.59-24.51-24.61-60.19-7.52-88.8,20.78-34.76,64.69-45.7,97.89-24.38a71.45,71.45,0,0,1,15,12.93C1089,685,1092,720.65,1074.9,749.25a71.66,71.66,0,0,1-44.27,33.25A67.92,67.92,0,0,1,977,773.62a70.6,70.6,0,0,1-9-6.84A73.42,73.42,0,0,1,962,760.71Z"/><path class="cls-21" d="M835,660.19c-14-15.86-20.09-37.39-19-59a83.87,83.87,0,0,1,26-56.47c28.59-27,71.18-28.76,101-3.85a77.87,77.87,0,0,1,8.69,8.27,83.25,83.25,0,0,1-5.47,114.51c-28.57,27-71.77,29.33-101.59,4.43-3.05-2.53-6.75-4.59-9.44-7.65Z"/><path class="cls-22" d="M976.74,756.45C953.35,738,949.51,703.93,965,678c17.29-28.93,53.6-37.82,81.24-20.07a58.28,58.28,0,0,1,7.38,5.82c22,19.77,26.72,53,11.2,79A59.73,59.73,0,0,1,1028,770.41c-15.39,3.82-30.8.78-44.18-7.82a33.58,33.58,0,0,1-7.06-6.13Z"/><path class="cls-22" d="M853.6,657.06c25.48,20.84,60.83,20,85-2.83,27-25.49,29-68.74,4.79-96.58a67.1,67.1,0,0,0-7.59-7.31c-25.24-21.08-61.16-19.74-85.36,3.14A69.86,69.86,0,0,0,828.76,601a68.78,68.78,0,0,0,17,49c2.32,2.66,5.51,4.51,7.8,7.11Z"/><ellipse class="cls-23" cx="1014.87" cy="710.44" rx="56.5" ry="54.21" transform="translate(198.28 1642.03) rotate(-83.76)"/><ellipse class="cls-24" cx="894.55" cy="603.8" rx="62.84" ry="60.29" transform="translate(197.04 1427.38) rotate(-83.76)"/><path class="cls-22" d="M1108.33,663.49a24.45,24.45,0,0,1,3-19,39.07,39.07,0,0,0,5.92-24,38.08,38.08,0,0,0-9.34-22.43,24.34,24.34,0,0,1,1.53-33.39,22,22,0,0,1,32.06,1.3,85.3,85.3,0,0,1,21,50.38,87.67,87.67,0,0,1-13.31,53.86c-6.91,10.95-21,14.06-31.44,7a23.22,23.22,0,0,1-9.45-13.68"/><path class="cls-17" d="M1118,660.8a26.68,26.68,0,0,1,1.93-18.69,41.45,41.45,0,0,0,4.21-23.52,44.24,44.24,0,0,0-8.8-22.58c-7.57-9.83-7.51-24.6.12-33s20-7.26,27.52,2.57a99.29,99.29,0,0,1,19.79,50.71c1.93,19-1.35,37.28-9.48,52.8-5.54,10.56-17.49,13.09-26.71,5.63A26,26,0,0,1,1118,660.8"/><path class="cls-22" d="M931.47,496a24.6,24.6,0,0,0,19.88-5.58A39.57,39.57,0,0,1,976.23,481a38.78,38.78,0,0,1,24.89,8.3c11.12,8.66,26.95,6.23,35.36-5.42s6.23-28.11-4.88-36.76a87.16,87.16,0,0,0-55.9-18.67,88.82,88.82,0,0,0-55.85,21.21,27.08,27.08,0,0,0-4,37A24.67,24.67,0,0,0,931.47,496"/><path class="cls-17" d="M933.27,484.67A26.71,26.71,0,0,0,953,480.41,41.68,41.68,0,0,1,977.51,473a45,45,0,0,1,25,7.67c11.28,7.64,27,6,35.09-3.74s5.54-23.77-5.73-31.41a101,101,0,0,0-56.12-17.25c-20.45-.14-39.51,5.63-55.13,16.69-10.64,7.53-12,21.57-3.09,31.37a27.3,27.3,0,0,0,15.75,8.36"/><ellipse cx="1005.03" cy="685.14" rx="28.63" ry="27.47" transform="translate(214.65 1609.69) rotate(-83.76)"/><ellipse class="cls-25" cx="1005.03" cy="685.14" rx="20.25" ry="19.43" transform="matrix(0.11, -0.99, 0.99, 0.11, 214.65, 1609.69)"/><ellipse class="cls-14" cx="1001.26" cy="666.67" rx="7.02" ry="5.62" transform="translate(-185.13 468.07) rotate(-24.15)"/><ellipse cx="886.93" cy="578.21" rx="31.84" ry="30.55" transform="translate(215.69 1397) rotate(-83.76)"/><ellipse class="cls-26" cx="886.93" cy="578.21" rx="22.52" ry="21.61" transform="translate(215.69 1397) rotate(-83.76)"/><ellipse class="cls-14" cx="882.74" cy="557.67" rx="7.8" ry="6.25" transform="translate(-150.91 410.03) rotate(-24.15)"/></g></g></g></svg>