<svg width="328" height="235" viewBox="0 0 328 235" fill="none" xmlns="http://www.w3.org/2000/svg">
    <path
        d="M164.276 235C183.589 235 201.064 223.525 208.882 206.084L211.181 200.576L216.699 203.33C221.298 206.084 226.356 207.461 231.414 208.379C234.174 208.838 237.393 209.297 240.152 209.297C264.064 209.297 284.298 192.314 288.437 168.906L288.896 165.234L292.115 164.316C308.67 159.727 321.546 146.875 326.145 130.352C333.502 104.189 318.327 77.5684 292.115 70.2246L288.896 69.3066L288.437 65.6348C287.517 60.5859 285.677 55.5371 283.378 50.9473C274.641 35.3418 258.086 25.7031 240.152 25.7031C231.874 25.7031 223.597 27.998 216.699 31.6699L211.181 34.4238L208.882 28.916C203.823 17.9004 195.086 9.17969 183.589 4.13086C177.611 1.37695 170.714 0 164.276 0C144.502 0 127.027 11.4746 119.21 29.375L116.451 35.3418L110.932 33.0469C105.874 29.834 99.8958 27.998 93.9177 27.0801C91.1585 26.6211 88.3994 26.1621 85.6403 26.1621C61.7278 26.1621 41.4941 43.1445 37.3554 67.0117V70.2246L34.1365 71.1426C19.4211 75.7324 7.46483 87.666 2.40642 102.354C-1.73228 114.746 -0.35271 128.057 5.16556 139.531C10.6838 151.006 21.2605 159.727 33.6766 163.857L36.8956 164.775L37.3554 167.988C38.2752 173.955 40.5744 179.463 43.3336 184.971C52.0708 199.658 68.1658 208.838 85.6403 208.838C94.3775 208.838 103.115 206.543 110.472 201.953L115.531 199.658L118.75 204.707C123.808 215.723 132.546 224.902 143.582 229.951C150.48 233.164 157.378 235 164.276 235Z"
        fill="#82D2FF" />
</svg>