<svg width="232" height="174" viewBox="0 0 232 174" fill="none" xmlns="http://www.w3.org/2000/svg">
    <path
        d="M94.1579 135C105.228 135 115.244 128.408 119.725 118.389L121.043 115.225L124.206 116.807C126.841 118.389 129.741 119.18 132.64 119.707C134.221 119.971 136.066 120.234 137.648 120.234C151.354 120.234 162.951 110.479 165.323 97.0313L165.587 94.9219L167.432 94.3945C176.921 91.7578 184.301 84.375 186.937 74.8828C191.154 59.8535 182.456 44.5605 167.432 40.3418L165.587 39.8145L165.323 37.7051C164.796 34.8047 163.742 31.9043 162.424 29.2676C157.416 20.3027 147.927 14.7656 137.648 14.7656C132.904 14.7656 128.159 16.084 124.206 18.1934L121.043 19.7754L119.725 16.6113C116.825 10.2832 111.818 5.27344 105.228 2.37305C101.802 0.791016 97.848 0 94.1579 0C82.8242 0 72.8083 6.5918 68.3275 16.875L66.7461 20.3027L63.5832 18.9844C60.6838 17.1387 57.2573 16.084 53.8309 15.5566C52.2494 15.293 50.6679 15.0293 49.0865 15.0293C35.3806 15.0293 23.7832 24.7852 21.411 38.4961V40.3418L19.566 40.8691C11.1316 43.5059 4.27862 50.3613 1.37929 58.7988C-0.99289 65.918 -0.202163 73.5645 2.96075 80.1562C6.12365 86.748 12.1859 91.7578 19.3024 94.1309L21.1475 94.6582L21.411 96.5039C21.9382 99.9316 23.2561 103.096 24.8375 106.26C29.8455 114.697 39.0706 119.971 49.0865 119.971C54.0944 119.971 59.1024 118.652 63.3196 116.016L66.2189 114.697L68.0639 117.598C70.9633 123.926 75.9712 129.199 82.297 132.1C86.2507 133.945 90.2043 135 94.1579 135Z"
        fill="#82D2FF" />
    <path
        d="M210.037 31C212.628 31 214.972 29.4863 216.021 27.1855L216.329 26.459L217.069 26.8223C217.686 27.1855 218.365 27.3672 219.043 27.4883C219.414 27.5488 219.845 27.6094 220.215 27.6094C223.423 27.6094 226.138 25.3691 226.693 22.2813L226.754 21.7969L227.186 21.6758C229.407 21.0703 231.134 19.375 231.751 17.1953C232.738 13.7441 230.702 10.2324 227.186 9.26367L226.754 9.14258L226.693 8.6582C226.569 7.99219 226.323 7.32617 226.014 6.7207C224.842 4.66211 222.621 3.39062 220.215 3.39062C219.105 3.39062 217.995 3.69336 217.069 4.17773L216.329 4.54102L216.021 3.81445C215.342 2.36133 214.17 1.21094 212.628 0.544922C211.826 0.181641 210.901 0 210.037 0C207.384 0 205.04 1.51367 203.992 3.875L203.621 4.66211L202.881 4.35938C202.203 3.93555 201.401 3.69336 200.599 3.57227C200.229 3.51172 199.858 3.45117 199.488 3.45117C196.281 3.45117 193.566 5.69141 193.011 8.83984V9.26367L192.579 9.38477C190.605 9.99023 189.001 11.5645 188.323 13.502C187.768 15.1367 187.953 16.8926 188.693 18.4062C189.433 19.9199 190.852 21.0703 192.518 21.6152L192.949 21.7363L193.011 22.1602C193.134 22.9473 193.443 23.6738 193.813 24.4004C194.985 26.3379 197.144 27.5488 199.488 27.5488C200.66 27.5488 201.832 27.2461 202.819 26.6406L203.498 26.3379L203.93 27.0039C204.608 28.457 205.78 29.668 207.261 30.334C208.186 30.7578 209.112 31 210.037 31Z"
        fill="#82D2FF" />
</svg>