<svg width="232" height="174" viewBox="0 0 232 174" fill="none" xmlns="http://www.w3.org/2000/svg">
    <path
        d="M94.1579 135C105.228 135 115.244 128.408 119.725 118.389L121.043 115.225L124.206 116.807C126.841 118.389 129.741 119.18 132.64 119.707C134.221 119.971 136.066 120.234 137.648 120.234C151.354 120.234 162.951 110.479 165.323 97.0313L165.587 94.9219L167.432 94.3945C176.921 91.7578 184.301 84.375 186.937 74.8828C191.154 59.8535 182.456 44.5605 167.432 40.3418L165.587 39.8145L165.323 37.7051C164.796 34.8047 163.742 31.9043 162.424 29.2676C157.416 20.3027 147.927 14.7656 137.648 14.7656C132.904 14.7656 128.159 16.084 124.206 18.1934L121.043 19.7754L119.725 16.6113C116.825 10.2832 111.818 5.27344 105.228 2.37305C101.802 0.791016 97.848 0 94.1579 0C82.8242 0 72.8083 6.5918 68.3275 16.875L66.7461 20.3027L63.5832 18.9844C60.6838 17.1387 57.2573 16.084 53.8309 15.5566C52.2494 15.293 50.6679 15.0293 49.0865 15.0293C35.3806 15.0293 23.7832 24.7852 21.411 38.4961V40.3418L19.566 40.8691C11.1316 43.5059 4.27862 50.3613 1.37929 58.7988C-0.99289 65.918 -0.202163 73.5645 2.96075 80.1562C6.12365 86.748 12.1859 91.7578 19.3024 94.1309L21.1475 94.6582L21.411 96.5039C21.9382 99.9316 23.2561 103.096 24.8375 106.26C29.8455 114.697 39.0706 119.971 49.0865 119.971C54.0944 119.971 59.1024 118.652 63.3196 116.016L66.2189 114.697L68.0639 117.598C70.9633 123.926 75.9712 129.199 82.297 132.1C86.2507 133.945 90.2043 135 94.1579 135Z"
        fill="#82D2FF" />
    <path
        d="M22.037 174C24.6279 174 26.972 172.486 28.0207 170.186L28.3291 169.459L29.0694 169.822C29.6863 170.186 30.3648 170.367 31.0434 170.488C31.4135 170.549 31.8453 170.609 32.2155 170.609C35.4232 170.609 38.1375 168.369 38.6927 165.281L38.7544 164.797L39.1862 164.676C41.407 164.07 43.1342 162.375 43.7511 160.195C44.7381 156.744 42.7024 153.232 39.1862 152.264L38.7544 152.143L38.6927 151.658C38.5693 150.992 38.3226 150.326 38.0141 149.721C36.8421 147.662 34.6213 146.391 32.2155 146.391C31.1051 146.391 29.9947 146.693 29.0694 147.178L28.3291 147.541L28.0207 146.814C27.3421 145.361 26.1701 144.211 24.6279 143.545C23.8259 143.182 22.9006 143 22.037 143C19.3844 143 17.0402 144.514 15.9915 146.875L15.6214 147.662L14.8812 147.359C14.2026 146.936 13.4007 146.693 12.5987 146.572C12.2286 146.512 11.8585 146.451 11.4883 146.451C8.28056 146.451 5.56629 148.691 5.0111 151.84V152.264L4.57928 152.385C2.60527 152.99 1.00138 154.564 0.322813 156.502C-0.232378 158.137 -0.0473148 159.893 0.69294 161.406C1.4332 162.92 2.85202 164.07 4.51759 164.615L4.94941 164.736L5.0111 165.16C5.13447 165.947 5.44291 166.674 5.81304 167.4C6.98511 169.338 9.14419 170.549 11.4883 170.549C12.6604 170.549 13.8325 170.246 14.8195 169.641L15.498 169.338L15.9299 170.004C16.6084 171.457 17.7805 172.668 19.261 173.334C20.1863 173.758 21.1116 174 22.037 174Z"
        fill="#82D2FF" />
</svg>