<svg width="97" height="128" viewBox="0 0 97 128" fill="none" xmlns="http://www.w3.org/2000/svg">
    <path d="M1.8686 97.9893L1.79077 101.881L53.549 127.799L53.6268 124.141L1.8686 97.9893Z" fill="#877E74" />
    <path d="M53.549 127.799L92.9319 108.108V104.45L53.6268 124.141C53.6268 124.141 53.6268 127.644 53.549 127.799Z"
        fill="#CCBFAE" />
    <path
        d="M14.2432 68.0261C13.9319 68.1818 0 75.4201 0 75.4201L53.5484 102.039L96.2781 80.6349L79.2329 71.762C79.3107 71.8399 15.2551 67.5591 14.2432 68.0261Z"
        fill="#F0E9D5" />
    <path d="M8.17236 10.7408L56.5838 34.9465L72.6172 26.9298L23.9722 2.33496L8.17236 10.7408Z" fill="#F0E9D5" />
    <path d="M56.5833 34.9478L56.6611 89.1967L72.6945 81.2578L72.6166 26.9312L56.5833 34.9478Z" fill="#E9DFBE" />
    <path d="M8.17268 10.7415L8.09485 64.9903L56.662 89.196L56.5841 34.9472L8.17268 10.7415Z" fill="#99927E" />
    <path d="M12.064 18.1355V57.8298L52.6144 78.2217L52.6922 38.2161L12.064 18.1355Z" fill="#333333" />
    <path d="M72.6955 77.2087L96.1229 59.93V20.0022L72.6177 26.9292L72.6955 77.2087Z" fill="#CAC2A2" />
    <path d="M26.5404 3.58027L56.1165 0L96.1221 20.0028L72.6169 26.9298L26.5404 3.58027Z" fill="#DCD7C3" />
    <path d="M0 75.418V97.3666L53.6262 124.141V102.036L0 75.418Z" fill="#99927E" />
    <path d="M53.6265 124.141L96.434 102.893V80.7112L53.6265 102.115C53.6265 102.037 53.6265 124.375 53.6265 124.141Z"
        fill="#E9DFBE" />
    <path d="M27.942 97.0559V101.181L47.9448 111.066V107.096L27.942 97.0559Z" fill="#696141" />
    <path d="M27.942 97.0559V101.181L31.2888 98.7682L27.942 97.0559Z" fill="#3A351F" />
</svg>