<svg width="265" height="238" viewBox="0 0 265 238" fill="none" xmlns="http://www.w3.org/2000/svg">
    <path
        d="M166.623 237.194C167.512 237.194 168.401 237.194 169.29 237.113C169.775 236.709 170.26 236.385 170.906 236.223C186.101 231.77 195.153 224.887 197.981 215.819C202.669 200.516 188.606 183.027 188.444 182.866C187.475 181.732 187.232 180.113 187.717 178.736C188.202 177.279 189.333 176.226 190.788 175.902C191.031 175.821 214.226 169.911 220.531 151.45C228.936 126.755 210.913 118.902 210.185 118.578C208.084 117.687 207.033 115.42 207.68 113.315C208.326 111.129 210.428 109.833 212.691 110.238C213.58 110.4 235.967 113.882 242.918 87.6484C249.061 64.6537 240.817 56.719 240.089 56.0712C238.796 55.0996 238.15 53.5613 238.392 52.0229C238.635 50.4036 239.766 49.1081 241.302 48.5413C247.04 46.4362 262.234 39.0682 264.012 30.2428C264.74 26.8422 264.659 21.7412 263.932 17.1261C263.851 16.8022 263.77 16.4784 263.608 16.1545C262.234 11.7013 259.567 7.65298 255.284 4.73817C255.203 4.6572 255.122 4.6572 255.041 4.57623C254.718 4.33333 254.314 4.09043 253.91 3.9285C253.748 3.84753 253.587 3.76656 253.425 3.68559C253.263 3.60463 253.021 3.44269 252.778 3.36173C252.536 3.28076 252.293 3.11882 252.051 3.03786C251.808 2.95689 251.566 2.79496 251.323 2.71399C251.081 2.63302 250.758 2.47109 250.515 2.39012C250.354 2.30916 250.192 2.22819 250.03 2.22819C249.626 2.06625 249.222 1.90432 248.818 1.82335C248.656 1.74239 248.576 1.74238 248.414 1.66142C248.091 1.58045 247.687 1.41852 247.363 1.33755C247.202 1.33755 247.121 1.25658 246.959 1.25658C246.474 1.17562 245.989 1.01368 245.504 0.932717C245.343 0.932717 245.262 0.851748 245.1 0.851748C244.615 0.770781 244.211 0.689815 243.726 0.608848C243.645 0.608848 243.565 0.608849 243.403 0.527882C242.837 0.446915 242.271 0.365947 241.706 0.365947C241.544 0.365947 241.382 0.365947 241.302 0.365947C240.736 0.28498 240.089 0.28498 239.524 0.204013C238.715 0.204013 237.988 0.123047 237.261 0.123047C236.937 0.123047 236.533 0.123047 236.21 0.123047C235.967 0.123047 235.644 0.123047 235.402 0.123047C235.078 0.123047 234.674 0.123046 234.351 0.204013C234.109 0.204013 233.866 0.204014 233.543 0.284981C233.219 0.284981 232.896 0.365947 232.573 0.365947C232.33 0.365947 232.088 0.446913 231.846 0.446913C231.522 0.446913 231.199 0.527881 230.876 0.608848C230.633 0.608848 230.472 0.689816 230.229 0.689816C229.825 0.770783 229.502 0.851748 229.098 0.851748C228.936 0.851748 228.774 0.932717 228.693 0.932717C228.209 1.01368 227.724 1.17562 227.239 1.25658C227.077 1.25658 226.996 1.33755 226.915 1.33755C226.592 1.41852 226.269 1.49949 225.946 1.58045C225.784 1.66142 225.622 1.66142 225.461 1.74239C225.218 1.82335 224.976 1.90432 224.652 1.98529C224.491 2.06625 224.329 2.14722 224.167 2.14722C223.925 2.22819 223.683 2.30916 223.521 2.39012C223.359 2.47109 223.198 2.55206 223.036 2.63302C222.794 2.71399 222.632 2.79496 222.389 2.87592C222.228 2.95689 222.066 3.03786 221.904 3.11883C221.743 3.19979 221.5 3.28076 221.339 3.36173C221.177 3.44269 221.015 3.52366 220.854 3.60463C220.692 3.68559 220.531 3.76656 220.369 3.9285C220.207 4.00946 220.046 4.09043 219.965 4.1714C219.803 4.25236 219.641 4.33333 219.48 4.49526C219.318 4.57623 219.237 4.6572 219.076 4.73817C218.914 4.81913 218.752 4.9001 218.672 5.06204C218.51 5.143 218.429 5.22397 218.348 5.30493C218.187 5.3859 218.106 5.46687 217.944 5.6288C217.863 5.70977 217.702 5.79074 217.621 5.87171C217.459 5.95267 217.378 6.1146 217.217 6.19557C217.136 6.27654 216.974 6.3575 216.894 6.43847C216.813 6.51944 216.651 6.68137 216.57 6.76234C216.489 6.84331 216.409 6.92427 216.328 7.00524C216.247 7.08621 216.085 7.24814 216.005 7.32911C215.924 7.41007 215.843 7.49104 215.762 7.57201C215.681 7.65298 215.6 7.81491 215.52 7.89588C215.439 7.97685 215.358 8.05781 215.277 8.13878C215.196 8.21974 215.115 8.30071 215.035 8.46265C214.954 8.54361 214.873 8.62458 214.873 8.70555C214.792 8.78652 214.711 8.86748 214.631 9.02941C214.55 9.11038 214.55 9.19135 214.469 9.27232C214.388 9.35328 214.307 9.43425 214.226 9.59619C214.146 9.67715 214.146 9.75812 214.065 9.75812C213.984 9.83908 213.903 9.92005 213.903 10.001C213.903 10.082 213.822 10.082 213.822 10.163C213.742 10.2439 213.742 10.3249 213.661 10.4059C213.661 10.4868 213.58 10.4868 213.58 10.5678C213.499 10.6488 213.499 10.7297 213.418 10.8107L213.337 10.8917C213.257 10.9726 213.257 11.0536 213.176 11.1346V11.2155C213.095 11.2965 213.095 11.3775 213.014 11.4584C212.852 11.7823 212.772 12.0252 212.772 12.0252C212.772 12.0252 212.691 11.8633 212.448 11.5394C212.368 11.4584 212.368 11.3775 212.287 11.2965C212.287 11.2965 212.287 11.2155 212.206 11.2155C212.125 11.1346 212.125 11.0536 212.044 10.9726L211.963 10.8917C211.883 10.8107 211.802 10.7297 211.721 10.6488L211.64 10.5678C211.559 10.4868 211.479 10.4059 211.398 10.2439L211.317 10.163C211.236 10.082 211.155 9.92005 210.994 9.83908C210.751 9.59618 210.428 9.27232 210.105 8.94845L210.024 8.86748C209.943 8.78652 209.781 8.62458 209.7 8.54361C209.62 8.46265 209.539 8.38168 209.458 8.30072C209.377 8.21975 209.216 8.05781 209.054 7.97685C208.973 7.89588 208.892 7.81491 208.811 7.73394C208.65 7.65298 208.569 7.49104 208.407 7.41007C208.326 7.32911 208.165 7.24814 208.084 7.16718C207.922 7.08621 207.842 6.92427 207.68 6.84331C207.599 6.76234 207.437 6.68137 207.357 6.6004C207.195 6.51944 207.033 6.35751 206.953 6.27654C206.791 6.19557 206.71 6.1146 206.548 6.03364C206.387 5.95267 206.225 5.79073 206.063 5.70977C205.902 5.6288 205.821 5.54784 205.659 5.46687C205.498 5.3859 205.336 5.22397 205.174 5.143C205.013 5.06203 204.851 4.98106 204.69 4.9001C204.528 4.81913 204.366 4.6572 204.205 4.57623C204.043 4.49526 203.8 4.33333 203.639 4.25236C203.316 4.09043 203.073 3.9285 202.75 3.76656C202.507 3.68559 202.265 3.52366 202.103 3.44269C201.942 3.36173 201.78 3.28076 201.538 3.19979C201.295 3.11883 201.133 3.03786 200.891 2.87592C200.729 2.79496 200.487 2.71399 200.325 2.63302C200.083 2.55206 199.84 2.47109 199.679 2.39012C199.436 2.30916 199.274 2.22819 199.032 2.14722C198.79 2.06625 198.547 1.98529 198.305 1.90432C198.062 1.82335 197.901 1.74239 197.658 1.74239C197.416 1.66142 197.173 1.58045 196.85 1.49949C196.607 1.41852 196.446 1.41852 196.203 1.33755C195.961 1.25658 195.638 1.17562 195.314 1.17562C195.072 1.09465 194.829 1.09465 194.668 1.01368C194.344 0.932716 194.021 0.932715 193.698 0.851748C193.455 0.851748 193.294 0.770782 193.051 0.770782C192.647 0.689815 192.324 0.689815 191.92 0.608848C191.758 0.608848 191.516 0.527882 191.354 0.527882C190.222 0.365948 189.01 0.284981 187.717 0.284981C187.555 0.284981 187.394 0.284981 187.232 0.284981C186.747 0.284981 186.262 0.284981 185.777 0.284981C185.616 0.284981 185.454 0.284981 185.292 0.284981C184.807 0.284981 184.323 0.28498 183.838 0.365947C183.676 0.365947 183.433 0.365947 183.272 0.365947C182.787 0.365947 182.221 0.446913 181.736 0.446913C181.575 0.446913 181.413 0.446915 181.251 0.527882C180.524 0.608849 179.797 0.689815 179.069 0.770782C153.934 4.09043 146.821 16.6403 146.821 16.6403C146.821 16.6403 146.256 16.3974 145.205 15.9116C145.205 15.9116 145.205 15.9116 145.124 15.9116C145.043 15.9116 144.882 15.8306 144.801 15.7497H144.72C144.639 15.6687 144.478 15.6687 144.397 15.5877H144.316C143.912 15.4258 143.508 15.2639 143.023 15.1019H142.942C142.78 15.021 142.699 15.021 142.538 14.94C142.457 14.94 142.376 14.859 142.295 14.859C142.215 14.7781 142.053 14.7781 141.891 14.6971C141.81 14.6971 141.73 14.6161 141.649 14.6161C141.487 14.6161 141.406 14.5352 141.245 14.5352C141.164 14.5352 141.083 14.4542 140.921 14.4542C140.76 14.4542 140.679 14.3732 140.517 14.3732C140.436 14.3732 140.275 14.2923 140.194 14.2923C140.032 14.2923 139.952 14.2113 139.79 14.2113C139.547 14.1303 139.305 14.0494 139.062 14.0494C138.982 14.0494 138.82 13.9684 138.739 13.9684C138.578 13.9684 138.416 13.8874 138.254 13.8874C138.093 13.8874 138.012 13.8065 137.85 13.8065C137.689 13.8065 137.527 13.7255 137.365 13.7255C137.204 13.7255 137.123 13.6445 136.961 13.6445C136.799 13.6445 136.638 13.5636 136.476 13.5636C136.315 13.5636 136.234 13.4826 136.072 13.4826C135.91 13.4826 135.749 13.4016 135.506 13.4016C135.345 13.4016 135.264 13.3207 135.102 13.3207C134.86 13.2397 134.617 13.2397 134.294 13.1587C134.213 13.1587 134.132 13.1587 134.052 13.0778C133.809 12.9968 133.486 12.9968 133.243 12.9158C133.163 12.9158 133.001 12.8349 132.92 12.8349C132.678 12.8349 132.516 12.7539 132.273 12.7539C132.112 12.7539 132.031 12.6729 131.869 12.6729C131.627 12.6729 131.465 12.592 131.223 12.592C131.061 12.592 130.9 12.511 130.819 12.511C130.576 12.511 130.415 12.43 130.172 12.43C130.01 12.43 129.93 12.43 129.768 12.3491C129.526 12.3491 129.283 12.2681 128.96 12.2681C128.879 12.2681 128.798 12.2681 128.637 12.2681C128.313 12.2681 127.909 12.1871 127.505 12.1871C127.424 12.1871 127.343 12.1871 127.182 12.1871C126.939 12.1871 126.616 12.1062 126.374 12.1062C126.212 12.1062 126.131 12.1062 125.969 12.1062C125.727 12.1062 125.485 12.1062 125.242 12.1062C125.08 12.1062 124.919 12.1062 124.757 12.1062C124.515 12.1062 124.272 12.1062 124.03 12.1062C123.868 12.1062 123.706 12.1062 123.626 12.1062C123.383 12.1062 123.06 12.1062 122.817 12.1062C122.737 12.1062 122.575 12.1062 122.494 12.1062C122.009 12.1062 121.443 12.1062 120.878 12.1062C120.797 12.1062 120.635 12.1062 120.554 12.1062C119.989 12.1062 119.423 12.1871 118.938 12.1871C118.857 12.1871 118.857 12.1871 118.776 12.1871C118.211 12.1871 117.726 12.2681 117.16 12.3491C117.079 12.3491 116.998 12.3491 116.917 12.3491C116.352 12.43 115.786 12.511 115.22 12.511C115.139 12.511 114.978 12.511 114.897 12.592C113.685 12.7539 112.553 12.9968 111.341 13.2397C111.26 13.2397 111.098 13.3207 111.017 13.3207C110.452 13.4826 109.805 13.5636 109.239 13.7255C109.159 13.7255 109.078 13.8065 108.997 13.8065C108.431 13.9684 107.785 14.1303 107.219 14.2923H107.138C106.491 14.4542 105.926 14.6971 105.279 14.859C105.198 14.859 105.037 14.94 104.956 14.94C104.309 15.1829 103.744 15.3448 103.097 15.5877C103.016 15.5877 102.935 15.6687 102.935 15.6687C102.37 15.9116 101.723 16.1545 101.157 16.3974C101.076 16.3974 100.996 16.4784 100.996 16.4784C100.349 16.7213 99.7833 17.0451 99.1367 17.369C99.0559 17.45 98.8942 17.45 98.8134 17.5309C98.1668 17.8548 97.5203 18.1787 96.9545 18.5026C96.9545 18.5026 96.8737 18.5026 96.8737 18.5835C96.2271 18.9074 95.6614 19.3122 95.0148 19.6361C94.934 19.7171 94.8532 19.7171 94.7723 19.798C94.1258 20.2029 93.56 20.5267 92.9135 20.9316C92.8326 21.0125 92.671 21.0935 92.5902 21.1745C91.9436 21.5793 91.297 22.0651 90.7313 22.4699C89.9231 22.389 89.1957 22.389 88.3874 22.308C88.2258 22.308 87.9833 22.308 87.8217 22.308C87.256 22.308 86.6902 22.308 86.1244 22.308C85.882 22.308 85.5587 22.308 85.3162 22.308C84.9929 22.308 84.6697 22.308 84.2656 22.308C83.9423 22.308 83.6998 22.308 83.3765 22.308C83.0532 22.308 82.7299 22.308 82.4067 22.389C82.0834 22.389 81.8409 22.389 81.5176 22.4699C81.1943 22.4699 80.8711 22.5509 80.5478 22.5509C80.2245 22.5509 79.982 22.6319 79.6587 22.6319C79.3354 22.6319 79.0122 22.7128 78.6889 22.7128C78.3656 22.7128 78.1231 22.7938 77.7998 22.7938C77.4766 22.7938 77.1533 22.8748 76.9108 22.8748C76.5875 22.9557 76.2642 22.9557 75.9409 23.0367C75.456 23.1177 74.8903 23.1986 74.4053 23.2796C74.082 23.3606 73.7588 23.3606 73.5163 23.4415C73.2738 23.5225 72.9506 23.5225 72.7081 23.6035C72.3848 23.6844 72.1423 23.7654 71.819 23.7654C71.5766 23.8464 71.2533 23.9273 71.0108 23.9273C70.7684 24.0083 70.4451 24.0893 70.2026 24.1702C69.9602 24.2512 69.7177 24.3322 69.3944 24.4131C69.1519 24.4941 68.8287 24.5751 68.5862 24.656C68.3437 24.737 68.1013 24.818 67.8588 24.899C67.6163 24.9799 67.2931 25.0609 67.0506 25.1418C66.8081 25.2228 66.5657 25.3038 66.3232 25.3848C66.0807 25.4657 65.7574 25.5467 65.515 25.7086C65.2725 25.7896 65.03 25.8706 64.7876 25.9515C64.5451 26.0325 64.3027 26.1944 63.9794 26.2754C63.7369 26.3564 63.4944 26.4373 63.3328 26.5993C63.0903 26.6802 62.8479 26.8422 62.6054 26.9231C62.3629 27.0041 62.2013 27.0851 61.9588 27.247C61.7164 27.328 61.4739 27.4899 61.2314 27.5709C60.989 27.6518 60.8273 27.7328 60.5849 27.8947C60.3424 28.0567 60.0999 28.1376 59.8575 28.2996C59.6958 28.3805 59.4534 28.4615 59.2917 28.6234C59.0493 28.7854 58.726 28.9473 58.4835 29.1092C58.3219 29.1902 58.1602 29.2712 57.9986 29.3521C57.5945 29.595 57.2712 29.8379 56.8671 29.9999C56.7863 30.0808 56.6246 30.1618 56.5438 30.2428C56.2205 30.4857 55.8972 30.6476 55.5739 30.8905C55.4123 30.9715 55.2507 31.1334 55.1698 31.2144C54.9274 31.3763 54.6849 31.5382 54.4424 31.7002C54.2808 31.7811 54.1192 31.9431 53.9575 32.024C53.715 32.186 53.5534 32.3479 53.3109 32.5098C53.1493 32.6718 52.9876 32.7527 52.826 32.9147C52.6644 33.0766 52.4219 33.2386 52.2603 33.4005C52.0986 33.5624 51.937 33.6434 51.7753 33.8053C51.6137 33.9673 51.452 34.1292 51.2904 34.2911C51.1288 34.4531 50.9671 34.534 50.8863 34.696C50.7246 34.8579 50.563 35.0198 50.4014 35.1818C50.2397 35.3437 50.1589 35.5056 49.9972 35.5866C49.8356 35.7485 49.674 35.9105 49.5123 36.0724C49.3507 36.2343 49.2699 36.3963 49.1082 36.4772C48.9466 36.6392 48.7849 36.8011 48.7041 36.963C48.5425 37.125 48.4616 37.2869 48.3 37.4488C48.1384 37.6108 48.0575 37.7727 47.8959 37.9346C47.8151 38.0966 47.6534 38.2585 47.5726 38.4204C47.411 38.5824 47.3301 38.7443 47.1685 38.9872C47.0877 39.1491 46.926 39.3111 46.8452 39.392C46.6836 39.554 46.6028 39.7969 46.4411 39.9588C46.3603 40.1207 46.2795 40.2017 46.1986 40.3636C46.037 40.6065 45.8754 40.9304 45.7945 41.1733C45.7945 41.2543 45.7137 41.3352 45.7137 41.3352C44.2589 44.2501 43.2082 47.0029 42.5617 49.5939C41.7535 52.5897 41.4302 55.2616 41.3494 57.5287C41.3494 57.8525 41.3494 58.1764 41.3494 58.5003C41.3494 62.2247 41.9151 64.4918 41.9151 64.4918H41.8343H41.7535H41.6726C41.5918 64.4918 41.511 64.4918 41.4302 64.4918C41.1877 64.4918 40.8644 64.4918 40.4603 64.4918C40.4603 64.4918 40.4603 64.4918 40.3795 64.4918C40.2179 64.4918 40.0562 64.4918 39.8137 64.4918C39.7329 64.4918 39.7329 64.4918 39.6521 64.4918C39.4905 64.4918 39.3288 64.4918 39.1672 64.4918C39.0864 64.4918 39.0055 64.4918 38.9247 64.4918C38.7631 64.4918 38.6014 64.4918 38.4398 64.5728C38.359 64.5728 38.2781 64.5728 38.1165 64.5728C37.9549 64.5728 37.7932 64.5728 37.5508 64.6537C37.4699 64.6537 37.3083 64.6537 37.2275 64.6537C37.0658 64.6537 36.8234 64.7347 36.6617 64.7347C36.5809 64.7347 36.4193 64.7347 36.3384 64.8157C36.096 64.8157 35.9343 64.8966 35.6919 64.8966C35.611 64.8966 35.4494 64.8967 35.3686 64.9776C35.1261 65.0586 34.8836 65.0586 34.6412 65.1395C34.5603 65.1395 34.4795 65.1395 34.3179 65.2205C33.9946 65.3015 33.6713 65.3824 33.348 65.4634H33.2672C32.8631 65.5444 32.5398 65.6254 32.1357 65.7063C32.0549 65.7063 32.0549 65.7063 31.9741 65.7063C31.6508 65.7873 31.3275 65.8683 31.0042 66.0302C30.9234 66.0302 30.7617 66.1112 30.6809 66.1112C30.4385 66.1921 30.1152 66.2731 29.8727 66.354C29.7111 66.435 29.5494 66.435 29.4686 66.516C29.2261 66.597 28.9837 66.6779 28.6604 66.7589C28.4987 66.8399 28.3371 66.8399 28.1755 66.9208C27.933 67.0018 27.6905 67.0828 27.4481 67.2447C27.2864 67.3257 27.1248 67.4066 26.9631 67.4876C26.7207 67.5686 26.4782 67.7305 26.2357 67.8115C26.0741 67.8924 25.9125 67.9734 25.7508 68.0544C25.5083 68.2163 25.2659 68.2973 25.0234 68.4592C24.8618 68.5402 24.7001 68.6211 24.5385 68.7021C24.296 68.864 23.9727 69.026 23.7303 69.1879C23.5686 69.2689 23.407 69.3498 23.3262 69.4308C23.0029 69.5927 22.6796 69.8356 22.4371 69.9976C22.3563 70.0785 22.1947 70.1595 22.1138 70.1595C21.7097 70.4024 21.3056 70.7263 20.9015 71.0501L20.8207 71.1311C20.4974 71.374 20.0933 71.6979 19.77 71.9408C19.6084 72.0217 19.5276 72.1837 19.3659 72.2646C19.1235 72.5075 18.881 72.7504 18.5577 72.9933C18.3961 73.1553 18.2344 73.2362 18.1536 73.3982C17.9111 73.6411 17.6687 73.884 17.4262 74.1269C17.2646 74.2888 17.1029 74.4508 16.9413 74.6127C16.6988 74.8556 16.5372 75.0985 16.2947 75.3414C16.1331 75.5033 15.9714 75.6653 15.8906 75.9082C15.6481 76.1511 15.4865 76.394 15.3248 76.6369C15.1632 76.7988 15.0016 77.0417 14.9207 77.2036C14.7591 77.4465 14.5166 77.7704 14.355 78.0133C14.1933 78.2562 14.1125 78.4181 13.9509 78.661C13.7892 78.9849 13.5468 79.2278 13.3851 79.5517C13.3043 79.7946 13.1427 79.9565 13.0618 80.1994C12.9002 80.5233 12.6577 80.9281 12.4961 81.252C12.4153 81.4139 12.3345 81.6568 12.1728 81.8188C11.9303 82.3046 11.6879 82.8713 11.4454 83.4381C11.4454 83.5191 11.3646 83.5191 11.3646 83.6C9.99063 87.0006 9.18242 90.0774 8.85913 92.8303C7.80845 101.413 11.203 106.433 13.7084 109.024C15.0824 110.4 16.2947 111.048 16.2947 111.048C16.2947 111.048 -2.85999 123.841 1.50437 142.139C2.39341 145.864 3.76738 149.102 5.30299 151.936C10.7988 161.976 19.0426 166.591 20.4974 167.401C20.6591 167.482 20.7399 167.482 20.7399 167.482C20.7399 167.482 20.7399 189.181 35.1261 197.763C36.096 198.33 37.1466 198.816 38.1973 199.302C38.8439 199.545 39.4905 199.788 40.137 200.031C40.2987 200.112 40.5411 200.192 40.7028 200.192C41.1877 200.354 41.6726 200.516 42.1576 200.678C42.3192 200.759 42.5617 200.759 42.7233 200.84C44.0165 201.164 45.2288 201.488 46.4411 201.731C46.6028 201.731 46.7644 201.812 46.926 201.812C47.411 201.893 47.8151 201.974 48.2192 202.055C48.3808 202.055 48.5425 202.136 48.7041 202.136C49.8356 202.298 50.9671 202.379 52.0986 202.46C52.2603 202.46 52.4219 202.46 52.5835 202.46C52.9876 202.46 53.3918 202.46 53.7959 202.46C53.9575 202.46 54.1191 202.46 54.2808 202.46C55.3315 202.46 56.3013 202.379 57.2712 202.298C57.4328 202.298 57.5945 202.298 57.6753 202.298C57.9986 202.298 58.3219 202.217 58.726 202.217C58.8876 202.217 58.9684 202.217 59.1301 202.136C59.5342 202.055 60.0191 202.055 60.4232 201.974H60.504C60.9081 201.893 61.3123 201.812 61.7164 201.731C61.878 201.731 61.9588 201.65 62.1205 201.65C62.3629 201.569 62.6862 201.569 62.9287 201.488C63.0095 201.488 63.1712 201.407 63.252 201.407C63.5753 201.326 63.8985 201.245 64.2218 201.164C64.3027 201.164 64.3027 201.164 64.3835 201.164C64.7068 201.083 64.9492 201.002 65.2725 200.921C65.3533 200.921 65.515 200.84 65.5958 200.84C65.7574 200.759 65.9999 200.759 66.1615 200.678C66.2424 200.678 66.3232 200.597 66.4848 200.597C66.7273 200.516 66.8889 200.435 67.1314 200.354C67.2122 200.354 67.293 200.273 67.3739 200.273C67.5355 200.192 67.6972 200.112 67.8588 200.112C67.9396 200.112 68.0204 200.031 68.1013 200.031C68.1821 199.95 68.3437 199.95 68.4245 199.869C68.5054 199.869 68.5862 199.788 68.667 199.788C68.7478 199.707 68.8287 199.707 68.9095 199.707C68.9903 199.626 69.0711 199.626 69.1519 199.626C69.2328 199.626 69.2328 199.545 69.3136 199.545C69.3944 199.545 69.3944 199.464 69.4752 199.464C69.4752 199.464 69.4752 199.464 69.556 199.464C69.6369 199.383 69.7177 199.383 69.7177 199.383C69.7177 199.383 72.8697 206.427 80.3861 213.471C86.4477 219.139 95.2573 224.806 107.461 226.75C108.27 226.912 108.997 226.993 109.805 227.074C109.967 227.074 110.048 227.074 110.209 227.154C111.664 227.397 113.119 227.559 114.493 227.721C114.574 227.721 114.735 227.721 114.816 227.802C116.109 227.964 117.402 228.126 118.615 228.207C118.776 228.207 118.857 228.207 119.019 228.207C119.585 228.288 120.15 228.288 120.716 228.369C121.282 228.45 121.767 228.45 122.332 228.45C122.494 228.45 122.656 228.45 122.737 228.45C123.221 228.45 123.626 228.531 124.111 228.531C124.191 228.531 124.272 228.531 124.353 228.531C124.757 228.531 125.161 228.531 125.565 228.612C125.727 228.612 125.889 228.612 126.05 228.612C126.454 228.612 126.778 228.612 127.101 228.612C127.263 228.612 127.343 228.612 127.505 228.612C127.828 228.612 128.152 228.612 128.475 228.612C128.637 228.612 128.798 228.612 128.879 228.612C129.202 228.612 129.526 228.612 129.768 228.612C129.93 228.612 130.01 228.612 130.091 228.612C130.415 228.612 130.657 228.612 130.98 228.612C131.142 228.612 131.223 228.612 131.384 228.612C131.627 228.612 131.95 228.612 132.193 228.531C132.273 228.531 132.435 228.531 132.516 228.531C132.758 228.531 133.001 228.531 133.243 228.45C133.324 228.45 133.486 228.45 133.567 228.45C133.809 228.45 134.052 228.369 134.294 228.369C134.375 228.369 134.456 228.369 134.536 228.369C134.779 228.369 134.941 228.288 135.183 228.288C135.264 228.288 135.345 228.288 135.426 228.288C135.668 228.288 135.83 228.207 136.072 228.207C136.153 228.207 136.153 228.207 136.234 228.207C136.395 228.207 136.638 228.126 136.8 228.126C136.88 228.126 136.961 228.126 136.961 228.126C137.123 228.126 137.284 228.045 137.527 228.045H137.608C137.769 228.045 137.931 227.964 138.093 227.964C138.173 227.964 138.173 227.964 138.254 227.964C138.578 227.883 138.901 227.802 139.143 227.721H139.224C139.467 227.64 139.709 227.559 139.871 227.478C139.871 227.478 139.871 227.478 139.952 227.478C140.113 227.397 140.275 227.316 140.436 227.235C140.76 227.074 140.921 226.993 140.921 226.993C140.436 226.183 150.216 237.194 166.623 237.194Z"
        fill="#FFEC00" />
    <path
        d="M71.0113 201.811C69.4757 198.329 68.1018 194.281 67.4552 189.828C66.647 184.403 67.7785 180.112 70.6881 176.954C72.8702 174.606 75.4565 173.715 75.4565 173.715L79.4168 172.501L76.6688 169.343C76.588 169.262 68.0209 159.384 67.536 141.814C67.2936 132.503 70.4456 127.645 73.2743 125.216C75.0524 124.244 92.7523 115.257 108.997 125.216C119.504 131.693 120.151 143.434 120.151 143.919C120.232 145.377 121.444 146.591 122.98 146.51C124.434 146.429 125.647 145.215 125.566 143.677C125.566 143.029 124.838 128.617 111.826 120.601C99.218 112.828 86.2058 114.771 78.2045 117.362C76.1839 114.447 71.4963 105.703 76.6688 95.0154C81.1949 85.6232 90.4085 85.4613 94.9345 86.028C95.0961 86.109 95.3386 86.109 95.5003 86.109C96.7126 86.2709 97.44 86.5138 97.6016 86.5138L101.562 87.6474C102.693 88.538 104.31 88.4571 105.28 87.4045C105.845 86.7568 119.585 71.9398 134.375 84.1658C135.507 85.1374 137.204 84.9755 138.174 83.8419C139.144 82.7084 138.982 81.0081 137.851 80.0365C122.899 67.6485 107.381 77.0407 101.319 83.761L101.239 83.8419L100.834 82.8703C100.754 82.7894 96.3893 71.7779 100.834 61.9809C105.199 52.3458 117.403 50.4026 121.363 51.2122L124.192 51.86L124.434 49.9977C124.758 49.8358 125 49.5929 125.162 49.269C125.404 48.8642 131.789 40.2007 148.923 42.1439C164.926 44.0062 164.603 51.5361 164.603 51.779C164.441 53.2364 165.492 54.6129 167.027 54.7748C168.482 54.9367 169.856 53.8842 170.018 52.3458C170.098 51.779 171.149 39.2291 149.57 36.8001C140.679 35.7475 134.214 37.2859 129.607 39.3911C133.244 35.3427 137.851 32.0231 140.437 30.4037C147.792 25.6267 160.723 25.3838 160.885 25.3838C162.34 25.3838 163.552 24.1693 163.552 22.6309C163.552 21.1735 162.34 19.959 160.885 19.959C160.319 19.959 146.337 20.2019 137.608 25.7886C132.597 29.0273 124.758 34.9379 121.121 42.3868C119.181 37.124 113.685 29.9179 102.451 29.0273C86.125 27.8128 80.9524 37.4479 80.7099 37.8527C80.0633 39.1482 80.5483 40.7675 81.8414 41.4962C83.1346 42.1439 84.751 41.6581 85.4784 40.3627C85.4784 40.2817 89.1962 33.4805 102.047 34.4521C113.523 35.3427 116.11 44.1681 116.514 45.7875C109.644 46.5971 100.188 50.3216 95.9852 59.7138C94.2879 63.4383 93.6414 67.2437 93.5605 70.7253C90.4085 66.2721 85.5592 62.4667 78.3661 61.9809C61.2319 60.7664 56.7059 72.5875 56.5443 73.0733C56.0594 74.4498 56.7059 75.9881 58.1607 76.5549C59.5347 77.0407 61.0703 76.393 61.6361 74.9356C61.6361 74.8546 64.9497 66.434 78.0428 67.4056C87.2565 68.0534 90.9743 75.8262 92.3482 80.3604H92.2674C85.3167 80.3604 76.6688 82.9513 72.062 92.5864C68.5867 99.8734 68.7483 106.432 70.0415 111.452C66.0812 109.508 60.9087 108.213 54.847 109.185C39.8143 111.695 38.9252 122.22 38.9252 122.625C38.8444 124.083 39.9759 125.378 41.4307 125.459C42.8855 125.54 44.1786 124.406 44.2594 122.949C44.2594 122.868 44.8252 116.31 55.7361 114.447C63.2525 113.152 69.1524 116.634 72.3853 119.225C71.3346 119.872 70.2031 120.763 69.0716 121.896C65.9196 125.054 62.121 131.046 62.4443 141.814C62.6867 151.206 65.0306 158.574 67.4552 163.756C61.7977 160.518 53.1498 157.603 43.3704 161.651C41.9964 162.218 41.3499 163.756 41.9156 165.133C42.4814 166.509 44.017 167.157 45.3909 166.59C56.221 162.056 65.7579 168.614 68.9908 171.286C64.8689 174.606 61.0703 180.759 62.4443 190.395C62.9292 193.957 63.8182 197.277 64.9497 200.272C67.9401 199.463 69.6374 198.572 69.6374 198.572C69.6374 198.572 69.8798 199.949 71.0113 201.811Z"
        fill="#41256B" />
</svg>