<svg xmlns="http://www.w3.org/2000/svg" viewBox="0 0 156.95 116.08"><defs><style>.cls-1{isolation:isolate;}.cls-2{fill:#37383a;}.cls-3{fill:#414244;}.cls-4{fill:#4a4c4e;}.cls-5{fill:#5b5c5f;}.cls-6{fill:#75777b;}.cls-7{fill:#e20613;}.cls-8{fill:#009ee2;}.cls-9{fill:#f8b133;}.cls-10{fill:#2dab66;}.cls-11{fill:#1d1d1b;opacity:0.1;mix-blend-mode:overlay;}</style></defs><g class="cls-1"><g id="Layer_2" data-name="Layer 2"><g id="Layer_1-2" data-name="Layer 1"><rect class="cls-2" x="63.23" y="6.08" width="11.09" height="11.75" rx="5.54" transform="matrix(0.99, -0.16, 0.16, 0.99, -1.03, 11.44)"/><path class="cls-3" d="M101.43,8.13l-68.94,9.7s-4.24-2.74-14.71-.11-12,13.8-12,13.8S.92,35.45,1.63,43.78C.68,54.12.1,91.89.1,91.89s-2.16,20.76,14,24S40.46,76.53,40.46,76.53s4.14,4.79,13.45,3.24S64.5,72.53,64.5,72.53l23.39-3.89s7.09,5.11,14.67,3.85a18,18,0,0,0,11.33-6.82l13.68,19.38s7.7,12.87,23.1,7.75-2.34-48.91-2.34-48.91l-6.62-14.38A20.88,20.88,0,0,0,138,16.59c-4.42-6.53-8.25-8.12-8.25-8.12s-4.06-7-11-7S102.78,2.86,101.43,8.13Z"/><circle class="cls-2" cx="29.31" cy="47.83" r="27.44"/><circle class="cls-3" cx="28.31" cy="41.81" r="27.44"/><path class="cls-4" d="M5,60.36s-4.72,43.89,11.51,41.1,20.55-27,20.55-27-3.91,37.82-22.73,36S4.75,68.46,5,60.36Z"/><path class="cls-4" d="M141.2,37.72s18.67,40,2.41,42.62-28.18-18.9-28.18-18.9S131.36,96,148.57,88.11,144.07,45.3,141.2,37.72Z"/><circle class="cls-5" cx="28.31" cy="41.81" r="20.75"/><circle class="cls-2" cx="115.4" cy="33.52" r="27.44"/><circle class="cls-3" cx="114.4" cy="27.51" r="27.44"/><circle class="cls-5" cx="114.4" cy="27.51" r="20.75"/><circle class="cls-6" cx="113.97" cy="24.89" r="18.3"/><circle class="cls-6" cx="27.87" cy="39.19" r="18.3"/><circle class="cls-2" cx="52.73" cy="69.41" r="12.92"/><circle class="cls-3" cx="52.26" cy="66.58" r="12.92"/><circle class="cls-5" cx="52.26" cy="66.58" r="9.77"/><circle class="cls-2" cx="113.04" cy="18.83" r="6.12"/><circle class="cls-3" cx="112.82" cy="17.49" r="6.12"/><circle class="cls-7" cx="112.82" cy="17.49" r="4.63"/><circle class="cls-2" cx="116.03" cy="36.82" r="6.12"/><circle class="cls-3" cx="115.81" cy="35.48" r="6.12"/><circle class="cls-8" cx="115.81" cy="35.48" r="4.63"/><circle class="cls-2" cx="103.96" cy="29.77" r="6.12"/><circle class="cls-3" cx="103.74" cy="28.43" r="6.12"/><circle class="cls-9" cx="103.74" cy="28.43" r="4.63"/><circle class="cls-2" cx="125.06" cy="25.57" r="6.12"/><circle class="cls-3" cx="124.84" cy="24.23" r="6.12"/><circle class="cls-10" cx="124.84" cy="24.23" r="4.63"/><circle class="cls-5" cx="76.29" cy="62.58" r="3.67"/><circle class="cls-2" cx="100.79" cy="61.42" r="12.92"/><circle class="cls-3" cx="100.32" cy="58.59" r="12.92"/><circle class="cls-5" cx="100.32" cy="58.59" r="9.77"/><rect class="cls-2" x="24.22" y="28.59" width="7.9" height="24.79" rx="3.95" transform="translate(-6.34 5.17) rotate(-9.44)"/><rect class="cls-2" x="24.22" y="28.59" width="7.9" height="24.79" rx="3.95" transform="translate(63.98 6.48) rotate(80.56)"/><polygon class="cls-11" points="55.49 15.85 1.49 70.29 1.39 99.75 82.12 12.05 55.49 15.85"/><path class="cls-11" d="M108.93.6,40.57,73.78s1.88,8,13.06,8.75C62.88,73.07,126,2.65,126,2.65S120.6-1.52,108.93.6Z"/><path class="cls-11" d="M140.81,19.05,93,71.76a14,14,0,0,0,7.26,2.84c4.29.34,10.33-4.18,13.59-8.93l3.89,5.52,27.91-33-3.27-7.11S141.75,20.8,140.81,19.05Z"/><path class="cls-11" d="M29.3,15.65,1.63,43.78S0,21,29.3,15.65Z"/><path class="cls-11" d="M151.27,52,124.4,80.56s7,11.29,13,12.37c4.91-5.12,19.13-19.06,19.13-19.06S152.92,56.8,151.27,52Z"/><rect class="cls-3" x="23.94" y="26.95" width="7.9" height="24.79" rx="3.95" transform="translate(-6.07 5.11) rotate(-9.44)"/><rect class="cls-3" x="23.94" y="26.95" width="7.9" height="24.79" rx="3.95" transform="translate(62.13 5.37) rotate(80.56)"/></g></g></g></svg>