<svg xmlns="http://www.w3.org/2000/svg" viewBox="0 0 82.1 190.82"><defs><style>.cls-1{fill:#c9edf2;}.cls-2{fill:#aadde3;}.cls-3{fill:#56821b;}.cls-4{fill:#6aa122;}.cls-5{fill:#95cc4b;}.cls-6{fill:#83ba3a;}.cls-7{fill:#de1414;}.cls-8{fill:#f03f3f;}.cls-9{fill:#c40018;}.cls-10{fill:#b00016;}.cls-11{fill:#f99;}.cls-12{fill:#ffc321;}.cls-13{fill:#ffe396;}.cls-14{fill:#f792a5;}.cls-15{fill:#fa788f;}.cls-16{fill:#efb878;}.cls-17{fill:#df9f60;}.cls-18{fill:#663a2c;}.cls-19{fill:#7d4836;}.cls-20{fill:#c49685;}.cls-21{fill:#c17f4a;}.cls-22{fill:#f6cc8c;}.cls-23{fill:#f9d9af;}.cls-24{fill:#def7fa;}.cls-25{fill:#f3f9fa;}</style></defs><g id="Layer_2" data-name="Layer 2"><g id="Layer_1-2" data-name="Layer 1"><path class="cls-1" d="M42.06,15.51A41.33,41.33,0,0,0,31.5,19.33c-3.25,1.89-6.05,4.85-6.91,8.5a12.64,12.64,0,0,0,14-.17C42.64,24.76,43.27,20.35,42.06,15.51Z"/><path class="cls-2" d="M39.39,20.86a4.91,4.91,0,0,1-.3,2.21,5,5,0,0,1-1.22,1.86,6,6,0,0,1-4.73.95,27.32,27.32,0,0,0-4.92-.66,10.26,10.26,0,0,0,4.29-2.57c.84-1,1.26-2.28,2-3.33s2.15-1.88,3.34-1.36A3.17,3.17,0,0,1,39,19.19,3.22,3.22,0,0,1,39.39,20.86Z"/><path class="cls-3" d="M48.87,8.78c-.21-.46.67-1.06,1-1.37A12.85,12.85,0,0,1,52,5.46,8.72,8.72,0,0,1,56.75,4c-.53,0-1.48,2.23-1.85,2.62a7.83,7.83,0,0,1-3.54,2c-.4.12-2,.61-2.35.32A.35.35,0,0,1,48.87,8.78Z"/><path class="cls-4" d="M57.6,6.05A18.38,18.38,0,0,0,48.45,9a2.2,2.2,0,0,0,.63.66,2.17,2.17,0,0,0,.85.34,11.5,11.5,0,0,0,4.6-.12A4.74,4.74,0,0,0,57.6,6.05Z"/><path class="cls-4" d="M48.65,11.09a12.14,12.14,0,0,1-1.3-4.72A11.63,11.63,0,0,1,49.44.44c.78,1.87,1.73,3.43,1.84,5.46a6,6,0,0,1-2.63,5.19Z"/><path class="cls-5" d="M55,3.34A5.92,5.92,0,0,0,52.48,4a5.72,5.72,0,0,0-1.94,1.65,15.8,15.8,0,0,0-2.34,4.52c1.16-.2,2.66.1,3.57-.66a7.18,7.18,0,0,0,1.81-3.15C54.06,5.24,53.92,4,55,3.34Z"/><path class="cls-6" d="M49.54,11.05A9.13,9.13,0,0,1,46.2,7.8a6.11,6.11,0,0,1-.31-4A17.93,17.93,0,0,1,47.37,0,5.62,5.62,0,0,0,48,3.79C48.53,5,49.25,6,49.7,7.22A4.88,4.88,0,0,1,50,9.15,4.82,4.82,0,0,1,49.54,11.05Z"/><path class="cls-7" d="M49.24,8.9c-1.93-.78-3.48-2.48-5.54-2.83-2.3-.4-4.61,1.08-5.86,3a16.26,16.26,0,0,0-2,6.66c-.33,2.45-.58,4.92-.75,7.39C35,25.23,35,27.67,36.64,29c1.27,1,3.1,1,4.73.82a22,22,0,0,0,9.2-3.51,22.1,22.1,0,0,0,6.77-7.17,10.11,10.11,0,0,0,1.38-3.8,5,5,0,0,0-1.06-3.8C55.68,9.32,52.06,10,49.24,8.9Z"/><path class="cls-8" d="M41.6,23.52a21.05,21.05,0,0,0,6.32-3.07,8.53,8.53,0,0,0,2.53-2.58,3.94,3.94,0,0,0,.32-3.49c-.71-1.54-2.47-2.23-3.71-3.36S45.2,8.58,43.81,8.09A3.81,3.81,0,0,0,40,9.19a9.06,9.06,0,0,0-2,3.66,31.6,31.6,0,0,0-1.36,6c-.21,1.63-.17,3.58,1.17,4.53a4.53,4.53,0,0,0,3.81.14Z"/><path class="cls-9" d="M36.52,24.52a13.1,13.1,0,0,0,11.55-1.18,13.09,13.09,0,0,0,4.2-4.24,13.23,13.23,0,0,0,1.88-5.66,1.9,1.9,0,0,1,1.14-.56,1.88,1.88,0,0,1,1.25.27,2.87,2.87,0,0,1,.73,1,2.83,2.83,0,0,1,.21,1.22,5.76,5.76,0,0,1-.73,2.36c-2,3.93-5.75,6.66-9.56,8.89a15.33,15.33,0,0,1-4.42,1.95,6.13,6.13,0,0,1-2.41.13,5.93,5.93,0,0,1-2.27-.8C36.74,27,36.06,26.06,36.52,24.52Z"/><path class="cls-10" d="M41.27,9.53c-.12-.26-.11-1,.27-1.11a.34.34,0,0,1,.2,0,.31.31,0,0,1,.13.17C42,8.93,41.52,9.41,41.27,9.53Z"/><path class="cls-11" d="M41.21,9.64c-.11-.26-.11-1,.27-1.11a.34.34,0,0,1,.2,0,.31.31,0,0,1,.13.17C41.91,9,41.46,9.53,41.21,9.64Z"/><path class="cls-12" d="M41.31,9.41c-.08-.21-.08-.82.21-.87a.23.23,0,0,1,.16,0,.32.32,0,0,1,.1.13C41.86,8.94,41.51,9.32,41.31,9.41Z"/><path class="cls-13" d="M41.42,9.15c0-.11,0-.47.12-.5a.15.15,0,0,1,.09,0,.16.16,0,0,1,.06.08C41.73,8.87,41.53,9.09,41.42,9.15Z"/><path class="cls-10" d="M43.33,13c-.11-.26-.11-1,.27-1.11a.34.34,0,0,1,.2,0,.31.31,0,0,1,.13.17C44.06,12.37,43.58,12.86,43.33,13Z"/><path class="cls-11" d="M43.27,13.08c-.11-.26-.11-1,.27-1.11a.34.34,0,0,1,.2,0,.31.31,0,0,1,.13.17C44,12.48,43.52,13,43.27,13.08Z"/><path class="cls-12" d="M43.37,12.85c-.08-.2-.08-.82.21-.87a.23.23,0,0,1,.16,0,.28.28,0,0,1,.11.13C43.92,12.38,43.57,12.76,43.37,12.85Z"/><path class="cls-13" d="M43.48,12.58c0-.11,0-.47.12-.5l.09,0a.11.11,0,0,1,.06.07C43.8,12.31,43.59,12.53,43.48,12.58Z"/><path class="cls-10" d="M47,11.69c-.13-.3-.13-1.21.31-1.28a.34.34,0,0,1,.24.05.36.36,0,0,1,.15.19C47.8,11,47.28,11.56,47,11.69Z"/><path class="cls-11" d="M46.93,11.82c-.13-.3-.13-1.21.31-1.28a.37.37,0,0,1,.23.05.4.4,0,0,1,.15.19C47.74,11.15,47.22,11.69,46.93,11.82Z"/><path class="cls-12" d="M47.06,11.55c-.1-.23-.1-.94.24-1a.28.28,0,0,1,.18,0,.29.29,0,0,1,.12.15C47.68,11,47.27,11.45,47.06,11.55Z"/><path class="cls-13" d="M47.17,11.25c-.06-.14-.06-.55.14-.58h0l.06,0s0,0,0,0,0,0,0,0S47.3,11.15,47.17,11.25Z"/><path class="cls-10" d="M49.81,14.54c-.14-.31-.14-1.25.32-1.33a.34.34,0,0,1,.24,0,.39.39,0,0,1,.16.2C50.65,13.82,50.11,14.41,49.81,14.54Z"/><path class="cls-11" d="M49.74,14.68c-.14-.32-.14-1.26.32-1.34a.37.37,0,0,1,.41.25C50.58,14,50.06,14.54,49.74,14.68Z"/><path class="cls-12" d="M49.86,14.4c-.1-.24-.1-1,.26-1a.33.33,0,0,1,.19,0,.31.31,0,0,1,.12.16C50.52,13.84,50.06,14.29,49.86,14.4Z"/><path class="cls-13" d="M50,14.08c-.06-.14-.06-.57.15-.6a.14.14,0,0,1,.11,0,.16.16,0,0,1,.07.09C50.37,13.75,50.13,14,50,14.08Z"/><path class="cls-10" d="M53.22,14.25c-.11-.26-.11-1,.27-1.09a.28.28,0,0,1,.2,0,.29.29,0,0,1,.13.16C53.91,13.66,53.47,14.15,53.22,14.25Z"/><path class="cls-11" d="M53.17,14.35c-.11-.25-.11-1,.26-1.09a.29.29,0,0,1,.2.05.34.34,0,0,1,.13.16C53.86,13.77,53.41,14.25,53.17,14.35Z"/><path class="cls-12" d="M53.27,14.15c-.09-.2-.09-.8.21-.85a.2.2,0,0,1,.15,0,.2.2,0,0,1,.1.12C53.81,13.67,53.46,14,53.27,14.15Z"/><path class="cls-13" d="M53.37,13.87c0-.12,0-.47.12-.5a.16.16,0,0,1,.09,0,.11.11,0,0,1,.06.07C53.68,13.6,53.48,13.82,53.37,13.87Z"/><path class="cls-10" d="M55.37,16.61c-.13-.3-.13-1.21.31-1.28a.37.37,0,0,1,.23.05.42.42,0,0,1,.16.19C56.18,15.92,55.66,16.48,55.37,16.61Z"/><path class="cls-11" d="M55.3,16.74c-.13-.3-.13-1.21.31-1.29a.4.4,0,0,1,.24.05.43.43,0,0,1,.15.2C56.11,16,55.59,16.61,55.3,16.74Z"/><path class="cls-12" d="M55.42,16.47c-.1-.23-.1-.94.25-1a.28.28,0,0,1,.18,0,.29.29,0,0,1,.12.15C56.06,15.93,55.65,16.37,55.42,16.47Z"/><path class="cls-13" d="M55.54,16.15c-.06-.13-.06-.54.14-.58a.23.23,0,0,1,.11,0,.22.22,0,0,1,.07.09A.49.49,0,0,1,55.54,16.15Z"/><path class="cls-10" d="M53.06,22.37c-.09-.21-.09-.83.21-.88a.3.3,0,0,1,.16,0,.28.28,0,0,1,.11.13C53.65,21.89,53.3,22.28,53.06,22.37Z"/><path class="cls-11" d="M53.06,22.45c-.09-.2-.09-.82.22-.87a.23.23,0,0,1,.16,0,.26.26,0,0,1,.1.13C53.61,22,53.25,22.37,53.06,22.45Z"/><path class="cls-12" d="M53.13,22.27c-.06-.16-.06-.64.17-.68a.16.16,0,0,1,.13,0,.2.2,0,0,1,.08.1C53.57,21.9,53.29,22.2,53.13,22.27Z"/><path class="cls-13" d="M53.22,22.06c0-.09,0-.37.09-.4a.1.1,0,0,1,.07,0,.1.1,0,0,1,0,.06C53.47,21.85,53.31,22,53.22,22.06Z"/><path class="cls-10" d="M51.14,18.94c-.09-.21-.09-.86.22-.92a.25.25,0,0,1,.17,0,.26.26,0,0,1,.11.14C51.72,18.45,51.35,18.85,51.14,18.94Z"/><path class="cls-11" d="M51.06,19c-.09-.21-.09-.86.23-.91a.23.23,0,0,1,.16,0,.24.24,0,0,1,.11.13C51.67,18.54,51.3,18.94,51.06,19Z"/><path class="cls-12" d="M51.18,18.84c-.07-.17-.07-.67.17-.71a.16.16,0,0,1,.13,0,.22.22,0,0,1,.09.1C51.63,18.45,51.34,18.77,51.18,18.84Z"/><path class="cls-13" d="M51.26,18.62c0-.09,0-.39.11-.41l.07,0a.15.15,0,0,1,.05.06C51.53,18.4,51.36,18.58,51.26,18.62Z"/><path class="cls-10" d="M49.06,24.31c-.13-.31-.13-1.23.31-1.3a.34.34,0,0,1,.24,0,.33.33,0,0,1,.16.19C49.83,23.61,49.3,24.15,49.06,24.31Z"/><path class="cls-11" d="M48.94,24.44c-.13-.31-.13-1.23.32-1.3a.42.42,0,0,1,.24.05.36.36,0,0,1,.15.19C49.76,23.74,49.24,24.31,48.94,24.44Z"/><path class="cls-12" d="M49.06,24.15c-.1-.24-.1-1,.25-1a.28.28,0,0,1,.18,0,.37.37,0,0,1,.13.15C49.71,23.62,49.29,24.07,49.06,24.15Z"/><path class="cls-13" d="M49.19,23.86c-.06-.14-.06-.56.14-.59a.23.23,0,0,1,.11,0,.27.27,0,0,1,.07.08C49.56,23.54,49.32,23.8,49.19,23.86Z"/><path class="cls-10" d="M47.56,20.25c-.14-.33-.14-1.31.34-1.39a.36.36,0,0,1,.25.06.37.37,0,0,1,.17.2C48.44,19.5,47.87,20.15,47.56,20.25Z"/><path class="cls-11" d="M47.49,20.39c-.14-.33-.14-1.31.34-1.39a.36.36,0,0,1,.25.06.41.41,0,0,1,.17.2C48.37,19.64,47.8,20.25,47.49,20.39Z"/><path class="cls-12" d="M47.62,20.15c-.11-.25-.11-1,.26-1.09a.29.29,0,0,1,.2.05.29.29,0,0,1,.13.16C48.3,19.51,47.86,20,47.62,20.15Z"/><path class="cls-13" d="M47.75,19.77c-.06-.15-.06-.59.15-.63a.17.17,0,0,1,.12,0,.23.23,0,0,1,.07.1C48.15,19.43,47.89,19.7,47.75,19.77Z"/><path class="cls-10" d="M45.3,25.91c-.11-.25-.11-1,.27-1.1a.34.34,0,0,1,.2,0,.31.31,0,0,1,.13.17C46,25.32,45.55,25.8,45.3,25.91Z"/><path class="cls-11" d="M45.24,26c-.11-.25-.11-1,.27-1.1a.34.34,0,0,1,.2,0,.31.31,0,0,1,.13.17C45.94,25.43,45.49,25.91,45.24,26Z"/><path class="cls-12" d="M45.34,25.8c-.08-.21-.08-.82.21-.87a.24.24,0,0,1,.16,0,.22.22,0,0,1,.11.12C45.89,25.33,45.54,25.71,45.34,25.8Z"/><path class="cls-13" d="M45.45,25.53c0-.12,0-.47.12-.5a.15.15,0,0,1,.09,0,.13.13,0,0,1,.06.07C45.76,25.26,45.56,25.48,45.45,25.53Z"/><path class="cls-10" d="M45.31,16.56c-.09-.23-.09-.91.24-1a.25.25,0,0,1,.17,0,.24.24,0,0,1,.12.14C45.92,16,45.53,16.46,45.31,16.56Z"/><path class="cls-11" d="M45.26,16.65c-.09-.22-.09-.91.24-1a.31.31,0,0,1,.18,0,.26.26,0,0,1,.11.14C45.87,16.15,45.48,16.56,45.26,16.65Z"/><path class="cls-12" d="M45.35,16.45c-.07-.17-.07-.71.19-.75a.35.35,0,0,1,.14,0,.31.31,0,0,1,.09.11C45.83,16,45.53,16.38,45.35,16.45Z"/><path class="cls-13" d="M45.45,16.22c0-.1,0-.41.1-.44h0l0,0,0,0s0,0,0,0S45.54,16.15,45.45,16.22Z"/><path class="cls-10" d="M43.16,22c-.12-.27-.12-1.08.27-1.15a.31.31,0,0,1,.21.05.39.39,0,0,1,.14.17C43.88,21.37,43.41,21.87,43.16,22Z"/><path class="cls-11" d="M43.06,22.15c-.12-.26-.12-1.07.28-1.14a.32.32,0,0,1,.21,0,.37.37,0,0,1,.13.17C43.82,21.48,43.36,22,43.06,22.15Z"/><path class="cls-12" d="M43.2,21.86c-.09-.2-.09-.83.22-.89a.21.21,0,0,1,.16,0,.26.26,0,0,1,.11.14C43.77,21.38,43.41,21.78,43.2,21.86Z"/><path class="cls-13" d="M43.31,21.59c0-.12,0-.48.13-.52a.16.16,0,0,1,.09,0,.11.11,0,0,1,.06.07C43.64,21.31,43.43,21.54,43.31,21.59Z"/><path class="cls-10" d="M40.91,27.09c-.13-.3-.13-1.22.32-1.3a.35.35,0,0,1,.24.06.36.36,0,0,1,.15.19C41.73,26.39,41.21,27,40.91,27.09Z"/><path class="cls-11" d="M40.85,27.22c-.14-.3-.13-1.22.31-1.3a.4.4,0,0,1,.24,0,.43.43,0,0,1,.15.2C41.67,26.52,41.14,27.09,40.85,27.22Z"/><path class="cls-12" d="M41,27c-.1-.24-.1-.95.24-1a.33.33,0,0,1,.19,0,.38.38,0,0,1,.12.16C41.61,26.4,41.2,26.85,41,27Z"/><path class="cls-13" d="M41.06,26.64c-.06-.14-.06-.55.14-.59a.22.22,0,0,1,.11,0,.22.22,0,0,1,.07.09C41.46,26.32,41.22,26.58,41.06,26.64Z"/><path class="cls-10" d="M41.17,17.83c-.12-.29-.12-1.16.3-1.23a.33.33,0,0,1,.22,0,.34.34,0,0,1,.15.18C42,17.15,41.45,17.7,41.17,17.83Z"/><path class="cls-11" d="M41.11,18c-.13-.29-.13-1.16.3-1.23a.33.33,0,0,1,.22.05.38.38,0,0,1,.15.18C41.88,17.29,41.38,17.83,41.11,18Z"/><path class="cls-12" d="M41.22,17.7c-.1-.23-.1-.91.24-1a.25.25,0,0,1,.17,0,.33.33,0,0,1,.11.15C41.83,17.15,41.44,17.6,41.22,17.7Z"/><path class="cls-13" d="M41.34,17.4c-.06-.13-.06-.52.13-.55a.12.12,0,0,1,.1,0,.18.18,0,0,1,.07.08C41.69,17.15,41.46,17.35,41.34,17.4Z"/><path class="cls-10" d="M39.29,22.59c-.1-.23-.1-.94.25-1a.28.28,0,0,1,.18,0,.35.35,0,0,1,.12.15C39.93,22.05,39.52,22.49,39.29,22.59Z"/><path class="cls-11" d="M39.24,22.69c-.1-.23-.1-.94.25-1a.28.28,0,0,1,.18,0,.35.35,0,0,1,.12.15C39.87,22.15,39.47,22.59,39.24,22.69Z"/><path class="cls-12" d="M39.34,22.49c-.08-.19-.08-.74.19-.79a.23.23,0,0,1,.14,0,.2.2,0,0,1,.09.11C39.83,22.06,39.51,22.41,39.34,22.49Z"/><path class="cls-13" d="M39.43,22.25c0-.11,0-.43.11-.46a.11.11,0,0,1,.08,0,.13.13,0,0,1,.06.07C39.72,22,39.53,22.2,39.43,22.25Z"/><path class="cls-10" d="M37.62,27.87c-.11-.25-.11-1,.25-1.06a.31.31,0,0,1,.19,0,.4.4,0,0,1,.13.16C38.28,27.3,37.85,27.76,37.62,27.87Z"/><path class="cls-11" d="M37.56,28c-.1-.24-.1-1,.26-1A.27.27,0,0,1,38,27a.32.32,0,0,1,.13.15C38.23,27.4,37.8,27.87,37.56,28Z"/><path class="cls-12" d="M37.66,27.76c-.08-.2-.08-.78.2-.83A.2.2,0,0,1,38,27a.2.2,0,0,1,.1.12C38.18,27.31,37.85,27.67,37.66,27.76Z"/><path class="cls-13" d="M37.76,27.5c0-.11,0-.44.12-.47h.06L38,27a.1.1,0,0,1,0,.05.14.14,0,0,1,0,.06A.6.6,0,0,1,37.76,27.5Z"/><path class="cls-10" d="M38.8,14.71c-.11-.25-.11-1,.26-1.09a.29.29,0,0,1,.2.05.34.34,0,0,1,.13.16C39.48,14.15,39.06,14.6,38.8,14.71Z"/><path class="cls-11" d="M38.74,14.82c-.11-.25-.11-1,.26-1.09a.29.29,0,0,1,.2,0,.29.29,0,0,1,.13.16C39.43,14.23,39,14.71,38.74,14.82Z"/><path class="cls-12" d="M38.84,14.6c-.08-.2-.08-.8.21-.86a.26.26,0,0,1,.15,0,.26.26,0,0,1,.1.13C39.38,14.15,39.06,14.51,38.84,14.6Z"/><path class="cls-13" d="M38.94,14.34c0-.12,0-.47.12-.5l.09,0a.16.16,0,0,1,.06.08C39.26,14.07,39.06,14.29,38.94,14.34Z"/><path class="cls-10" d="M37.47,19.41c-.1-.24-.1-.95.25-1a.28.28,0,0,1,.18,0,.35.35,0,0,1,.12.15C38.11,18.86,37.7,19.31,37.47,19.41Z"/><path class="cls-11" d="M37.42,19.51c-.1-.24-.1-1,.24-1a.28.28,0,0,1,.18,0,.37.37,0,0,1,.13.15C38.06,19,37.65,19.41,37.42,19.51Z"/><path class="cls-12" d="M37.51,19.3c-.07-.18-.07-.74.2-.79a.23.23,0,0,1,.14,0,.2.2,0,0,1,.09.11C38.06,18.88,37.69,19.22,37.51,19.3Z"/><path class="cls-13" d="M37.61,19.06c0-.11,0-.43.11-.45a.11.11,0,0,1,.08,0,.13.13,0,0,1,.06.07C37.9,18.81,37.71,19,37.61,19.06Z"/><path class="cls-14" d="M13.33,73.25C23,75,33.08,75.11,42.58,72.59S61,64.77,67,57a36.83,36.83,0,0,0,5.9-11.1,37.07,37.07,0,0,0-69,18.92,36.16,36.16,0,0,0,.31,4.77A12.1,12.1,0,0,0,6.16,71,22.87,22.87,0,0,0,13.33,73.25Z"/><path class="cls-15" d="M72.91,45.91A36.83,36.83,0,0,1,67,57c-6,7.76-14.93,13-24.43,15.58S23,75,13.33,73.25A22.56,22.56,0,0,1,6.2,71a12.1,12.1,0,0,1-1.94-1.4A37.07,37.07,0,1,0,72.91,45.91Z"/><path class="cls-15" d="M51.74,87.05c7.86-1,16.48-2,21.29-8.26,9.64-12.6-.58-34.75-2.22-36.08-11.3-9.15-36.9-11.86-43.24-10.38S9.56,46.86,6.38,52.55a5.22,5.22,0,0,0,4,1.15,5.28,5.28,0,0,0,3.57-2.15,33.16,33.16,0,0,0,1.43-3.22c.61-1.24,1.78-2.41,3.26-2a2.78,2.78,0,0,1,1.22.75,2.86,2.86,0,0,1,.69,1.25,7,7,0,0,1-.66,4.52,10,10,0,0,0-1,3.93,4.61,4.61,0,0,0,2.63,4,4.62,4.62,0,0,0,2.46.43,4.7,4.7,0,0,0,2.32-.92C27.83,59.15,28.85,57,30.82,57a3,3,0,0,1,1.08.3,2.8,2.8,0,0,1,.87.7,6.69,6.69,0,0,1,1.39,3.58c.35,2.24-.45,5.68.35,7.8,1.07,2.84,5.34,3.53,7.19,2.22,3.52-2.47,2.39-6.88,2.54-9.31.25-4.2,2.26-4.07,5.28-9.45a1.14,1.14,0,0,1,.52-.5,1.22,1.22,0,0,1,.73-.08c2.55.62,2.35,4.45,3.76,6.66.79,1.23,3.26,2.07,5.31,1.44a3,3,0,0,1,2.21.14,3,3,0,0,1,1.52,1.62C66.56,71,61.88,83.37,51.74,87.05Z"/><path class="cls-16" d="M38.51,188.36,2.82,77.75h76.4L43.54,188.36A2.65,2.65,0,0,1,41,190.2a2.65,2.65,0,0,1-2.51-1.84Z"/><path class="cls-17" d="M79.22,77.75H2.82l2.9,9a228.91,228.91,0,0,0,47.17,1.4,8,8,0,0,1,3.65.53c4.62,1.9,3.83,6.6,2.79,10.36a417.39,417.39,0,0,1-15.78,46.31c-1.88,4.59-4.3,9.61-9,11.29a9.24,9.24,0,0,1-6.35-.07l10.55,32.58a2.36,2.36,0,0,0,.86,1.2,2.39,2.39,0,0,0,1.41.47,2.43,2.43,0,0,0,2.27-1.67Z"/><path class="cls-18" d="M28.28,33c2.33.6,4.48,1.94,6.88,2,1.45.06,2.94-.33,4.34,0a19,19,0,0,1,3,1.57c2.7,1.31,6,.73,8.72-.44s5.28-2.91,8.09-4a13,13,0,0,1,3.85-.83,36.72,36.72,0,0,0-21.42-6.55c-14.34,0-23.37,6.3-28.64,12.52a32.33,32.33,0,0,1,5-3.06A15.31,15.31,0,0,1,28.28,33Z"/><path class="cls-19" d="M63.21,31.46a13,13,0,0,0-3.85.83c-2.81,1-5.33,2.78-8.09,4s-6,1.75-8.72.44a19,19,0,0,0-3-1.57c-1.4-.38-2.89,0-4.34,0-2.4-.11-4.55-1.45-6.88-2a15.28,15.28,0,0,0-10.17,1.26,32.33,32.33,0,0,0-5,3.06,34.22,34.22,0,0,0-3.64,5.15c-1.61,2.8-4.29,9.8-1.85,11.91,1.77,1.52,4.07-.41,5.5-3.61s1.87-6.32,5-5.83c3.9.63-.13,5.86.1,8.22a7.91,7.91,0,0,0,3.33,6c2,1.25,5,.95,6.38-1,.56-.84.81-1.93,1.61-2.57,1.29-1,4.09-1.07,4.93.35s.13,3.3,0,5-1.18,9.32,4.06,9.32c4,0,4.58-3.12,4.45-6.45-.06-1.43-.55-3.39-.1-4.78s1.87-2.33,2.79-3.48C47.05,54,47.33,52,48.11,50.05c1.45-3.57,4.71-1.86,5.67,1.26.85,2.75-.22,6.28,3.6,7a3.53,3.53,0,0,0,4.15-2.11,3.5,3.5,0,0,0,.23-1.66c-.24-2-.84-3.79.22-5.75s3.91,1.34,6.15.57c6.13-2.13,4,5.6,8.2,3.91C78.64,52.3,74.74,39.53,63.21,31.46Z"/><path class="cls-20" d="M20.06,40.9a7.76,7.76,0,0,1,2.76,1.58,2.33,2.33,0,0,0,1.24.74,1.75,1.75,0,0,0,1.08-.45c1.44-1.08,2.94-3,2.4-4.91a4.55,4.55,0,0,0-1.11-1.77A4.6,4.6,0,0,0,24.64,35c-3.94-1.41-8.94,1.37-10.07,5.39a1.47,1.47,0,0,0,0,1,1.43,1.43,0,0,0,.6.73c1.28.61,2.32-1.1,3.48-1.29A3,3,0,0,1,20.06,40.9Z"/><path class="cls-18" d="M49.31,47.37a5.33,5.33,0,0,0-3.2,2.78,11.59,11.59,0,0,0-.9,2.4c-.5,1.57-1.76,2.71-2.78,4a6.66,6.66,0,0,0-1.54,4.38,29.67,29.67,0,0,0,.34,3.64,7.08,7.08,0,0,1-.14,2c-.34,1.77-3.3,2.62-4.43,1.18-.37-.46-1,.19-.65.65a3.54,3.54,0,0,0,4.31.56c1.86-1,2.07-3.1,2-5.07a23.23,23.23,0,0,1-.11-4.17c.25-1.79,1.89-3.12,3-4.46a9.49,9.49,0,0,0,1.48-3.13c.56-1.8,1.74-2.85,2.9-4.24a.3.3,0,0,0,.12-.17.24.24,0,0,0,0-.2.23.23,0,0,0-.17-.13A.24.24,0,0,0,49.31,47.37Z"/><path class="cls-18" d="M75.47,51.87c-1.07-.07-2.19-2.1-2.88-2.92a3.17,3.17,0,0,0-2.12-1,25.6,25.6,0,0,0-3.5-.13c-1.52,0-2.51-1.21-4-1.21a4,4,0,0,0-1.88,1A3.84,3.84,0,0,0,60,49.34a17.8,17.8,0,0,0-.09,2.73v1.5c0,1.25-.07,6-3.9,2.71-.09-.08-.26,0-.18.14a2.59,2.59,0,0,0,3,1.19c2.1-.89,2.21-2.74,2.13-4.79s.15-6.22,3.44-5a9.9,9.9,0,0,0,4.32.54c3.11-.17,3.89,1.58,5.25,3.7.39.6.84.6,1.46.68A.44.44,0,1,0,75.47,51.87Z"/><path class="cls-18" d="M35.58,55.89c-.51-1.4-3-2.72-4.44-2.51a6.06,6.06,0,0,0-3.37,1.23c-1.36,1.34-2.43,4.46-5.13,3.11-.43-.21-.81.43-.38.65a3.29,3.29,0,0,0,1.84.47,3.35,3.35,0,0,0,1.8-.63,15.67,15.67,0,0,0,2.16-2.37c1.63-1.93,5.83-2,7.2.17C35.38,56.15,35.64,56.06,35.58,55.89Z"/><path class="cls-18" d="M16.44,43.44c-3.77.46-4.19,5.15-5.18,8,0,.15.17.27.28.16,1.38-1.52,1.52-3.45,2.52-5.23a3.66,3.66,0,0,1,3.5-1.94c2.24,0,2.85,1.79,2.84,3.63,0,.07.1.1.13,0C21.87,45.27,19.06,43.15,16.44,43.44Z"/><path class="cls-20" d="M20.83,55.85A7.28,7.28,0,0,1,20,53a7.38,7.38,0,0,1,.35-2.91s0-.06-.07,0a5.81,5.81,0,0,0,.15,6l.07.07a.25.25,0,0,0,.09,0h.1l.09,0,.07-.07a.36.36,0,0,0,0-.09v-.1A.36.36,0,0,0,20.83,55.85Z"/><path class="cls-20" d="M36.26,65.68c-.51-2.2,0-4.29-.08-6.5a.1.1,0,0,0-.19,0,23,23,0,0,0-.43,3.41,8.19,8.19,0,0,0,.15,3.27.26.26,0,0,0,.14.15.28.28,0,0,0,.22,0,.31.31,0,0,0,.16-.14A.26.26,0,0,0,36.26,65.68Z"/><path class="cls-20" d="M57.25,56.15C55.42,55,55.32,52.48,55,50.54c0-.09-.18-.07-.17,0,.18,2.13.15,4.84,2.15,6.14C57.27,56.92,57.59,56.38,57.25,56.15Z"/><path class="cls-20" d="M50.8,45.89c-3.85-1-5.39,4.16-7.06,6.39-.21.28.22.6.45.33a25.6,25.6,0,0,0,2.19-4.06c1-1.75,2.72-2,4.42-2.53C50.86,46,50.86,45.9,50.8,45.89Z"/><path class="cls-20" d="M9.2,51.87a2.89,2.89,0,0,1-.36-.67,3.58,3.58,0,0,0-.16-.56A2,2,0,0,1,8.4,50V48.08a.08.08,0,0,0,0,0l0,0-.05,0s0,0,0,0A7.79,7.79,0,0,0,7.75,50a5.6,5.6,0,0,0,0,2.08c.11.46.61,1.32,1.2,1.16S9.48,52.29,9.2,51.87Z"/><path class="cls-20" d="M64.32,45.74a4.45,4.45,0,0,0-4.83,2.75s.06.08.09,0a4.44,4.44,0,0,1,2-1.92,4.48,4.48,0,0,1,2.72-.42h.09l.08,0,.07-.06,0-.09a.28.28,0,0,0,0-.09.2.2,0,0,0,0-.08l-.07-.05Z"/><path class="cls-21" d="M36.93,183.48l.75,2.31,2.86-2.08,5.69-4.16.11.13,1.48-4.59-1.08.83-6.61-7.68-4.81-5.58c4.37-3.33,8.65-6.75,12.88-10.27q2.5,3,5,5.92l.94-2.92-3.88-4.75c.74-.62,1.49-1.24,2.22-1.87l5.24-4.47,2.19-6.79c-3.32-4-6.58-8-9.75-12.14q5.87-4.82,11.67-9.7l3.62,4.66,1.1-3.39-2.49-3.17,4.85-4.14,1.41-4.39q-4,3.2-7.9,6.41-5.13-6.59-10.23-13.19l12.3-9.62q3.81,4.5,7.68,9c.13.16.26.31.4.46l1-3q-3.48-4-6.92-8.11c3.27-2.58,6.54-5.18,9.78-7.8l1.69,1.81L79,78.57l-.65-.71.1-.08H74.93l.06.06c-3.26,2.54-6.51,5.11-9.75,7.68q-3.27-3.87-6.5-7.74H55.2q3.93,4.73,7.91,9.43l-5.77,4.57-6.4,5.06L42.06,85.28l6.6-5.34q1.35-1.11,2.73-2.19h-3.8Q44,80.47,40.47,83.2c-1.38-1.8-2.74-3.62-4.1-5.45H33.52c1.71,2.3,3.42,4.59,5.1,6.9q-5.46,4.23-10.85,8.53Q24.92,89,22,84.79l-2.65-3.64c1.25-1.11,2.48-2.23,3.73-3.35h-4L17.73,79l-.88-1.19h-3l2,2.82q-4.74,4.16-9.52,8.28l.91,2.81q5.1-4.39,10.14-8.88c2.76,4,5.45,8.06,8.13,12.13q-2.84,2.27-5.66,4.54-3.9,3.15-7.77,6.33c-.16-.19-.31-.38-.47-.56L13.14,110q4.34,5.1,8.64,10.23c-1.4,1.18-2.8,2.38-4.19,3.58L18.3,126c1.61-1.39,3.21-2.78,4.83-4.15,2.72,3.28,5.42,6.58,8,9.92,1,1.32,2.1,2.62,3.15,3.93-3.35,2.89-6.74,5.73-10.13,8.56l.59,1.84c3.55-3,7.11-6,10.72-8.93,3.62,4.5,7.31,9,11,13.36q-6.33,5.33-12.85,10.36L27,153.25l2.08,6.43,2.41,2.83-1.21.9.76,2.36c.67-.48,1.33-1,2-1.46q2.38,2.82,4.79,5.62,3.27,3.87,6.59,7.72l-4.75,3.67C38.87,182,37.9,182.75,36.93,183.48Zm23.26-70q-5.85,4.81-11.61,9.75-3.09-4-6-8.2c-1.36-1.93-2.7-3.88-4-5.83q5.72-4.56,11.48-9.06,5,6.74,10.13,13.37Zm-20-26.71q4.28,5.88,8.63,11.71-5.73,4.48-11.4,9-4.05-6-8-12ZM14.06,108.05l7-5.74,6.14-5q3.93,6,7.94,12-3.42,2.73-6.8,5.48c-1.72,1.39-3.42,2.81-5.12,4.23C20.13,115.39,17.06,111.72,14.06,108.05Zm19.55,23q-4.59-5.16-9-10.44c1.66-1.41,3.34-2.8,5-4.18Q33,113.7,36.31,111l1.44,2.12q4.19,6.13,8.65,12c-2,1.7-4,3.41-5.86,5.14q-2.13,1.89-4.28,3.76c-.91-1-1.78-1.94-2.67-2.93Zm3.93,4.46c1.2-1,2.41-1.94,3.63-2.9,2.27-1.79,4.53-3.61,6.78-5.43q5.1,6.66,10.51,13.12L51,146.73c-.75.65-1.52,1.3-2.28,1.94q-5.52-6.6-11.2-13.12Z"/><path class="cls-16" d="M20.48,84.3c-.86-1.24-1.74-2.47-2.62-3.69l3.2-2.86h-4l-.79.7-.51-.7h-3l1.63,2.32q-3.92,3.44-7.84,6.83l4,.13c1.8-1.58,3.6-3.15,5.39-4.74l3.4,5,3.28.11C21.93,86.37,21.21,85.33,20.48,84.3Z"/><path class="cls-22" d="M6,87.46l.91,2.81L10.58,87l-4-.13Z"/><path class="cls-16" d="M58.7,113q-2.88,2.37-5.7,4.75-.72,2.42-1.5,4.81,4.44-3.67,8.87-7.4l4.79,6.16,1.1-3.39c-1.22-1.56-2.44-3.11-3.65-4.67q3.54-3,7.11-6.07L71.09,103Q66,107,61,111.16l-4.59-5.93c-.29,1.2-.58,2.39-.88,3.58Z"/><path class="cls-16" d="M77.21,77.75H73q-4.61,3.6-9.19,7.25l-6.09-7.25H54.13c2.49,3,5,6,7.5,8.93l-5.07,4a6,6,0,0,1,1,1.89c1.81-1.41,3.63-2.83,5.43-4.25q3.84,4.52,7.69,9c.52.61,1.06,1.22,1.59,1.83l1-3-.41-.47q-3.87-4.5-7.71-9,4.92-3.87,9.79-7.79L77.84,82l.85-2.63C78.21,78.82,77.71,78.29,77.21,77.75Z"/><path class="cls-16" d="M38.67,86.31,39.89,88l3.2.1-2.54-3.28,6.59-5.35c.7-.57,1.41-1.13,2.12-1.69H45.43c-2.17,1.64-4.33,3.3-6.48,5-1.25-1.64-2.49-3.3-3.72-5H32.37C34,79.88,35.55,82,37.1,84.15l-4.58,3.58,4.23.14Z"/><path class="cls-22" d="M55.86,91.26l-6.4,5-6.4-8.19-3.2-.1q3.66,5,7.41,10l-11.4,9q-4-6-8-12l8.88-7.2-4.23-.14q-3.14,2.48-6.26,5c-1.2-1.77-2.4-3.52-3.61-5.27l-3.28-.11C21,89.61,22.53,92,24.1,94.35L18.44,98.9q-3.48,2.82-7,5.65l2.37,7.37q3.27,3.84,6.5,7.7l-3.14,2.69.7,2.19c1.27-1.09,2.52-2.18,3.79-3.26q4.08,4.92,8.06,9.93c1,1.32,2.1,2.62,3.15,3.93-3,2.59-6,5.14-9.1,7.69l.6,1.83q4.8-4.06,9.67-8.05,4,5,8.14,9.89c.44-.91.86-1.83,1.26-2.75C41,140.79,38.55,137.87,36,135c1.2-1,2.41-1.94,3.62-2.89q3.42-2.7,6.79-5.43c.83,1.08,1.67,2.17,2.52,3.25.39-1.09.78-2.19,1.16-3.29-.48-.6-1-1.21-1.42-1.82l2.79-2.3q.78-2.4,1.5-4.81-3,2.49-5.9,5c-2.05-2.7-4.05-5.42-6-8.2-1.36-1.93-2.7-3.88-4-5.83q5.7-4.56,11.48-9.06,3.44,4.59,6.94,9.13c.3-1.19.59-2.38.88-3.58L50.77,97.9l6.86-5.38a6,6,0,0,0-1-1.89Zm-43.3,16.3,7-5.74c2-1.67,4.09-3.32,6.13-5,2.64,4,5.27,8,8,12q-3.42,2.73-6.8,5.48c-1.72,1.4-3.42,2.82-5.12,4.24Q17.12,113.08,12.56,107.56Zm32.32,17.12q-2.94,2.55-5.85,5.14-2.13,1.89-4.28,3.76l-2.64-3c-3.05-3.43-6.05-6.91-9-10.43l5-4.18q3.33-2.73,6.7-5.42c.48.7,1,1.41,1.43,2.12Q40.42,118.79,44.88,124.68Z"/><path class="cls-16" d="M57,139.85l-7.46,6.42-2.28,1.95c-1.24-1.49-2.49-3-3.73-4.45-.4.92-.82,1.84-1.26,2.75q1.44,1.74,2.89,3.47-6.33,5.31-12.85,10.36l-2.76-3.2a9.55,9.55,0,0,1-1.07,0l1.45,4.49.28.33-.14.11.76,2.37.91-.67,4.8,5.62,6.56,7.75-4.74,3.67-1.81,1.33.76,2.34,1.78-1.3c1.91-1.37,3.8-2.76,5.7-4.15l1.3,1.52,1-3.08L47,177.4l.13-.09,1.43-4.43-3.28,2.53-6.6-7.68-4.83-5.58q6.56-5,12.89-10.26,3.11,3.66,6.22,7.31l.93-2.88c-1.68-2.06-3.36-4.13-5.06-6.18L51,148.26l7.5-6.4,1.53-4.71-.85.72q-4.62-5.55-9.07-11.22c-.38,1.1-.77,2.2-1.16,3.29C51.58,133.31,54.24,136.59,57,139.85Z"/><path class="cls-22" d="M29.51,157.15l-1.71-2,.64,2A9.55,9.55,0,0,0,29.51,157.15Z"/><path class="cls-21" d="M57.5,84.79c-18.88.69-38,1-56.42-3.08a4.64,4.64,0,0,0,2.7,1.65c5.9,1.26,17.13,2.76,37.21,2.86,8.55,0,15.48-.19,21.1-.56a10.75,10.75,0,0,0,1.22-1.39A39.08,39.08,0,0,1,57.5,84.79Z"/><path class="cls-16" d="M57.5,84.79a39.08,39.08,0,0,0,5.81-.52,8.83,8.83,0,0,0,1.36-2.64,9.27,9.27,0,0,0-.16-5.75c-5.75.48-13.41.81-23.47.77C21.15,76.55,10.65,75,5.77,74a4.85,4.85,0,0,0-2.89.29,4.77,4.77,0,0,0-1.8,7.41C19.52,85.74,38.62,85.48,57.5,84.79Z"/><path class="cls-17" d="M64.67,81.63a8.71,8.71,0,0,1-1.36,2.64A15.53,15.53,0,0,0,65,83.9,10.63,10.63,0,0,0,71,79.76a7,7,0,0,0,1-4.71c-2,.29-4.54.58-7.58.83A9.27,9.27,0,0,1,64.67,81.63Z"/><path class="cls-21" d="M81.69,77.05a4.73,4.73,0,0,0-2.18-2.28,4.68,4.68,0,0,0-3.12-.43c-1.12.22-2.54.47-4.29.72A7,7,0,0,1,71,79.77,10.63,10.63,0,0,1,65,83.91a15.53,15.53,0,0,1-1.64.37,10.12,10.12,0,0,1-1.22,1.39,124.59,124.59,0,0,0,16.21-2,4.77,4.77,0,0,0,3.79-4.55A4.76,4.76,0,0,0,81.69,77.05Z"/><path class="cls-22" d="M8.39,75.74c-1.75-.36-4-.6-4.94.91a3,3,0,0,0-.19,2.06A2.93,2.93,0,0,0,4.45,80.4a8.32,8.32,0,0,0,4,1.39A179.16,179.16,0,0,0,52,83.71a11.47,11.47,0,0,0,5.07-1.22c1.11-.66,2.37-2.14,1.31-3.41a2.47,2.47,0,0,0-1.28-.73c-2.41-.57-5.09-.28-7.56-.29h-8C30.43,78,19.25,78,8.39,75.74Z"/><path class="cls-23" d="M32.15,89.43c-4.68,2.76-8.42,6.25-12.55,9.72-.15.13.07.34.22.22a61.38,61.38,0,0,0,5.81-4.43c2-2,4.68-3.17,7-4.65A.48.48,0,0,0,32.8,90a.49.49,0,0,0,0-.34.58.58,0,0,0-.26-.23A.5.5,0,0,0,32.15,89.43Z"/><path class="cls-23" d="M44.37,100.15a205.19,205.19,0,0,1-16.46,13.72c-.24.17,0,.56.24.4a79.28,79.28,0,0,0,17-13.34.56.56,0,0,0,0-.78.59.59,0,0,0-.39-.16A.55.55,0,0,0,44.37,100.15Z"/><path class="cls-23" d="M51.48,119.49a47.51,47.51,0,0,0-7.74,6.77,26.07,26.07,0,0,1-4.89,4,20.13,20.13,0,0,0-3.65,3.67.23.23,0,0,0-.06.16.24.24,0,0,0,.07.16.23.23,0,0,0,.16.06.25.25,0,0,0,.16-.06c2.43-2.34,5.41-3.76,7.86-6,1.21-1.11,2.25-2.41,3.44-3.55,1.62-1.53,3.45-2.83,5.21-4.19C52.61,120,52.06,119.06,51.48,119.49Z"/><path class="cls-23" d="M39.64,78.85c-4.5-.06-9,.33-13.52.16-4.78-.18-9.64-1.31-14.41-1a.13.13,0,0,0-.06,0,.14.14,0,0,0,0,.07.14.14,0,0,0,0,.06l.06,0c4.19,1.65,9,1.63,13.48,1.85a72,72,0,0,0,14.6-.31C40.27,79.65,40.13,78.86,39.64,78.85Z"/><path class="cls-24" d="M61.94,30.48c-2.12-.38-4.24.62-6.07,1.76s-3.6,2.48-5.71,2.94c-4.07.89-8.16-1.78-12.33-1.51-1.7.11-3.43.7-5.08.26a17.88,17.88,0,0,1-3.32-1.69,10.28,10.28,0,0,0-8,0A38.17,38.17,0,0,0,13.52,37c.22-2.33,2.65-5.47,4.38-7,2.27-2.09,4.69-4.17,7.64-5.09,3.45-1.08,7.17-.42,10.78-.2a43.53,43.53,0,0,0,14-1.47,11.39,11.39,0,0,0,5.53-3A8.71,8.71,0,0,0,58,17.14a8.85,8.85,0,0,0,.66-3.67,13.42,13.42,0,0,1,5.23,8.27,11.31,11.31,0,0,1-1.9,8.74Z"/><path class="cls-2" d="M61.52,28.55a32.79,32.79,0,0,1-5.59,3.24c-2.71,1.34-5.57,2.71-8.59,2.63s-5.61-1.51-8.5-1.82c-1.88-.2-3.82.08-5.66-.36-1.51-.37-2.87-1.2-4.36-1.65a12,12,0,0,0-9,1.32,30.54,30.54,0,0,0-6.26,4.82.51.51,0,0,1-.06.29,38.17,38.17,0,0,1,7.91-4.79,10.28,10.28,0,0,1,8,0,17.88,17.88,0,0,0,3.32,1.69c1.65.44,3.38-.15,5.08-.26,4.17-.27,8.26,2.4,12.33,1.51,2.11-.46,3.89-1.8,5.71-2.94s3.95-2.14,6.07-1.76a11.28,11.28,0,0,0,1.86-4.17A13,13,0,0,1,61.52,28.55Z"/><path class="cls-1" d="M28.82,30.59c1.49.45,2.85,1.28,4.36,1.65,1.84.44,3.78.16,5.66.36,2.89.31,5.6,1.73,8.5,1.82s5.88-1.29,8.59-2.63a32.79,32.79,0,0,0,5.59-3.24,13.06,13.06,0,0,0,2.28-2.24,12.83,12.83,0,0,0,.06-4.54,13.42,13.42,0,0,0-5.23-8.27,8.93,8.93,0,0,1-2.76,6.75,12.74,12.74,0,0,1-1.46,1.2l.86-.15a2.11,2.11,0,0,1,1,0c.91.26,1.12,1.48.92,2.41a11.49,11.49,0,0,1-1.6,3.44l-.93,1.51a12.64,12.64,0,0,1-2.5,3.26,8.79,8.79,0,0,1-6.33,1.75A25.69,25.69,0,0,1,39.31,32l-4.18-1.45A5.73,5.73,0,0,1,32.4,29a15,15,0,0,0-1.06-1.54c-.46-.43-1.32-.55-1.64,0a2.54,2.54,0,0,0-.21.66c-.37,1.08-1.84,1.15-3,1.19a15,15,0,0,0-7.83,2.8,36.09,36.09,0,0,0-5,4.23.79.79,0,0,1-.08.42,30.54,30.54,0,0,1,6.26-4.82A12,12,0,0,1,28.82,30.59Z"/><path class="cls-2" d="M58.72,19.29c0,2.38.23,4.83-.46,7.11A9.18,9.18,0,0,1,55,31.15a17.33,17.33,0,0,0,4.84-2.66,5.46,5.46,0,0,0,1.37-2.77,14.25,14.25,0,0,0-.32-7.47,1.5,1.5,0,0,0-.55-.86,1.05,1.05,0,0,0-.74,0,1,1,0,0,0-.55.49A2.76,2.76,0,0,0,58.72,19.29Z"/><path class="cls-25" d="M28.06,25.74a1,1,0,0,1,0,.63,1,1,0,0,1-.37.51,3.08,3.08,0,0,1-1.21.43,20.88,20.88,0,0,0-5.68,2.1,14.35,14.35,0,0,1,5.55-3.89,2.33,2.33,0,0,1,.91-.21.88.88,0,0,1,.45.11A1.07,1.07,0,0,1,28.06,25.74Z"/><path class="cls-24" d="M33.13,19.45a7.9,7.9,0,0,0-3.91,3.39,3.42,3.42,0,0,0,1.42-.16A3.48,3.48,0,0,0,31.9,22a3.61,3.61,0,0,0,.87-1.14A3.71,3.71,0,0,0,33.13,19.45Z"/><path class="cls-25" d="M46.06,29.51a7,7,0,0,0-2.91-.89l-6.52-1c-.71-.11-1.54,0-2.21-.17a.86.86,0,0,1-.7-.79.77.77,0,0,1,.18-.45.81.81,0,0,1,.4-.28c1.35-.55,3.61-.16,5,0a21.61,21.61,0,0,0,6.11.46,22.06,22.06,0,0,0,4.28-1.24c.74-.25,3-1.25,3.64-.62,1.82,1.66-3.38,5.12-4.54,5.59a2.46,2.46,0,0,1-1.36.21A4.54,4.54,0,0,1,46.06,29.51Z"/></g></g></svg>