<svg xmlns="http://www.w3.org/2000/svg" viewBox="0 0 64.05 184.72"><defs><style>.cls-1{fill:#f6daaf;}.cls-2{fill:#df9f60;}.cls-3{fill:#e8b375;}.cls-4{fill:#c17f4a;}.cls-5{fill:#b0672c;}.cls-6{fill:#d667c7;}.cls-7{fill:#c2e8ff;}.cls-8{fill:#c746b6;}.cls-9{fill:#a3deff;}.cls-10{fill:#82d2ff;}.cls-11{fill:#eb7fdd;}.cls-12{fill:#def3ff;}.cls-13{fill:#ffa3f4;}</style></defs><g id="Layer_2" data-name="Layer 2"><g id="Layer_1-2" data-name="Layer 1"><path class="cls-1" d="M31.46,179.91a10,10,0,0,1-10-10V114.49a10,10,0,0,1,20.09,0V170a10,10,0,0,1-10.09,10Z"/><path class="cls-2" d="M32.68,179.91a10,10,0,0,1-10-10V114.49a9.95,9.95,0,0,1,2.58-7.64,9.83,9.83,0,0,1,3.34-2.4,10,10,0,0,1,14,10V170a10,10,0,0,1-9.92,10Z"/><path class="cls-3" d="M32.11,179.91c-5.18,0-9.39-4.46-9.39-10V114.49c0-5.5,4.21-10,9.39-10a9.8,9.8,0,0,1,3.69.85,9.74,9.74,0,0,1,5.09,5.41,9.77,9.77,0,0,1,.62,3.74V170a9.68,9.68,0,0,1-9.4,10Z"/><path class="cls-1" d="M24.48,182.47a8.21,8.21,0,0,1,.33-8.66,28.9,28.9,0,0,0,4.28-21.28v-.12c-.85-5,.44-15.62,1.2-20,.54-3.09-.5-6-1.59-9.19a37.1,37.1,0,0,1-1.49-5,18.91,18.91,0,0,1,6.25-17.89l.41.49a18.33,18.33,0,0,0-6,17.28A37.74,37.74,0,0,0,29.34,123c1.08,3.08,2.19,6.26,1.62,9.51-.75,4.3-2,14.79-1.2,19.74v.12a29.56,29.56,0,0,1-4.37,21.74,7.62,7.62,0,0,0-.33,8Z"/><path class="cls-1" d="M32.54,184.72c-2.48-3.61-4.59-7.48-3.29-11.26a32.88,32.88,0,0,1,3-5.65c1.52-2.48,3.09-5,3.51-6.93a10.32,10.32,0,0,0-.67-6.25,23.22,23.22,0,0,1-1-3.94,51.56,51.56,0,0,1-.27-10.24l.73-18.31c.28-7.12.61-15.2,4.08-22.06l.57.29c-3.41,6.74-3.73,14.74-4,21.79l-.73,18.31a51.11,51.11,0,0,0,.26,10.12,22,22,0,0,0,1,3.83,10.91,10.91,0,0,1,.69,6.6c-.45,2-2.05,4.61-3.6,7.12a32.49,32.49,0,0,0-3,5.53c-1.2,3.51.84,7.21,3.22,10.69Z"/><path class="cls-1" d="M20.24,175.32l-.63-.11A25.8,25.8,0,0,1,23.9,165c.18-.26.36-.51.55-.76a11.14,11.14,0,0,0,2.06-3.74,7.1,7.1,0,0,0-1.74-5.93,21.67,21.67,0,0,0-5.13-4.11L20,150a21.94,21.94,0,0,1,5.27,4.23A7.65,7.65,0,0,1,27,157.24a7.87,7.87,0,0,1,.18,3.48,11.45,11.45,0,0,1-2.17,4l-.54.75A25,25,0,0,0,20.24,175.32Z"/><path class="cls-1" d="M38.75,148.18a2,2,0,0,1-.68-.12c-1.08-.41-1.58-1.63-1.47-3.63a223.32,223.32,0,0,1,5.29-38.18l.62.15a223.06,223.06,0,0,0-5.28,38.06c-.08,1.69.28,2.7,1.07,3,.94.35,1.79-.47,2.69-1.32a8.35,8.35,0,0,1,.88-.8,5.1,5.1,0,0,1,4.28-.8,5.05,5.05,0,0,1,2,1,5.12,5.12,0,0,1,1.36,1.77l-.6.23a4.49,4.49,0,0,0-4.85-2.5,4.46,4.46,0,0,0-1.78.75c-.28.22-.56.49-.84.76A4.33,4.33,0,0,1,38.75,148.18Z"/><path class="cls-1" d="M20,150.83l-.18-.61c6.78-2,6-8.55,5.36-13.85A25.28,25.28,0,0,1,24.9,132a18.52,18.52,0,0,0-1.09-7.23A18.46,18.46,0,0,0,20,118.57l.46-.44a19,19,0,0,1,5.09,13.94,24.94,24.94,0,0,0,.3,4.23C26.45,141.54,27.31,148.72,20,150.83Z"/><path class="cls-1" d="M36.11,184.23c-.3-1-.65-1.95-1-2.83-.84-2.18-1.57-4.06-1.07-6.85a18.72,18.72,0,0,1,4.41-9.3c1.58-1.63,2.19-6.62,2.68-10.62.43-3.53.68-5.39,1.32-5.86a.69.69,0,0,1,.3-.14.78.78,0,0,1,.34,0c.74.27,1.16,1.89,1.85,4.73.5,2.08,1.18,4.92,1.89,5.18a17.75,17.75,0,0,1,4.92,3l-.4.5a17.47,17.47,0,0,0-4.73-3c-1-.34-1.54-2.45-2.31-5.63-.37-1.58-1-4.21-1.45-4.29-.48.35-.81,3.06-1.1,5.44-.5,4.1-1.12,9.21-2.86,11a18.23,18.23,0,0,0-4.23,9c-.47,2.61.2,4.33,1,6.51.34.89.69,1.81,1,2.88Z"/><path class="cls-4" d="M21.42,133.68H42.65v6.12H21.42Z"/><path class="cls-5" d="M41.56,133.68h1.09v6.12H41.56Z"/><path class="cls-3" d="M21.43,133.68h1.22v6.12H21.43Z"/><path class="cls-6" d="M58.23,25A26.95,26.95,0,0,0,44,3.09,25.8,25.8,0,0,0,32,0,26.78,26.78,0,0,0,5.83,25L.43,114a12.51,12.51,0,0,0,5.9,3.22c3.11.48,6.14.87,9.13,1.18l2.21.22a153.09,153.09,0,0,0,28.72,0l2.21-.22c3-.31,6-.7,9.13-1.18a10.33,10.33,0,0,0,1.31-.39A13.07,13.07,0,0,0,63.63,114Z"/><path class="cls-7" d="M6.33,117.26A12.51,12.51,0,0,1,.43,114c-.14,2.29-.27,4.58-.41,6.87-.32,5.36,3.9,11.31,9.32,12.46,1.94.3,3.86.57,5.74.79.13-4.91.25-10.2.38-15.72C12.47,118.13,9.44,117.72,6.33,117.26Z"/><path class="cls-7" d="M17.67,118.66c-.12,5.55-.23,10.85-.34,15.74a136.3,136.3,0,0,0,29.4,0c-.11-4.89-.22-10.19-.34-15.74A153.09,153.09,0,0,1,17.67,118.66Z"/><path class="cls-8" d="M32,12.63c-7.6.1-13.93,7-14.43,17.93-.72,17.08-1.43,56.2-2.14,87.88l2.21.22c.62-30.66,1.24-68.8,1.86-85.39C20,22.71,25.45,17.08,32,17c6.58.1,12.06,5.73,12.5,16.29.62,16.59,1.24,54.73,1.86,85.39l2.21-.22c-.71-31.68-1.42-70.8-2.14-87.88C46,19.6,39.63,12.72,32,12.63Z"/><path class="cls-9" d="M46.39,118.66c.12,5.55.23,10.85.34,15.74l2.25-.24c-.13-4.91-.25-10.2-.38-15.72Z"/><path class="cls-10" d="M15.46,118.44c-.13,5.52-.25,10.81-.38,15.72l2.25.24c.11-4.89.22-10.19.34-15.74Z"/><path class="cls-7" d="M58.79,122.72a34.21,34.21,0,0,0,.25-5.81,10.33,10.33,0,0,1-1.31.39c-3.11.48-6.14.87-9.13,1.18.13,5.52.25,10.81.38,15.72,1.29-.15,2.62-.35,4-.54C56.5,131.28,58.23,126.91,58.79,122.72Z"/><path class="cls-10" d="M64,120.91q-.21-3.43-.41-6.87A13.07,13.07,0,0,1,59,116.87a35.27,35.27,0,0,1-.25,5.81c-.56,4.23-2.29,8.6-5.86,10.94.6-.09,1.18-.15,1.79-.25C60.15,132.22,64.37,126.27,64,120.91Z"/><path class="cls-8" d="M58.23,25A26.95,26.95,0,0,0,44,3.09a40.3,40.3,0,0,1,9,14c3.31,9.3,1.92,19.51,1.63,29.38s1.83,38.67,1.5,43.14c-.68,9.13,2.52,18.21,2.84,27.29a13.07,13.07,0,0,0,4.59-2.83Z"/><path class="cls-11" d="M31.38,8.48c6.25,0,0-4.65,10.8-4.3C34.83-.12,25,1.61,18.34,7S8.74,18.78,7.73,28.41a219.26,219.26,0,0,0-1.31,26c0,1.26.8,3,2,2.55a1.53,1.53,0,0,0,.69-.52,1.5,1.5,0,0,0,.31-.81c0-7.51,0-15,.78-21s2.22-12.51,5.23-17.74S25.34,8.48,31.38,8.48Z"/><path class="cls-12" d="M11.21,130.43a2.13,2.13,0,0,0,.7-1.43,40.79,40.79,0,0,0,.64-5.17c.07-1.21,0-2.66-1.08-3.28a4.11,4.11,0,0,0-2.1-.33,11.29,11.29,0,0,1-3.9-.69c-.88-.33-1.74-1.36-2.73-.89-1.27.59-.55,2.31-.26,3.33A16.19,16.19,0,0,0,5,127.45a7.75,7.75,0,0,0,5,3.16A1.9,1.9,0,0,0,11.21,130.43Z"/><path class="cls-13" d="M11,21.1A26.16,26.16,0,0,1,29.5,5.63a2.47,2.47,0,0,0,1.18-.47.79.79,0,0,0,.19-.25.74.74,0,0,0,.08-.3.78.78,0,0,0,0-.3A.92.92,0,0,0,30.75,4,1.15,1.15,0,0,0,30,3.9,23.77,23.77,0,0,0,8.73,23.44C9.91,23.54,10.6,22.2,11,21.1Z"/></g></g></svg>