<svg width="129" height="189" viewBox="0 0 129 189" fill="none" xmlns="http://www.w3.org/2000/svg">
<path d="M125.033 57.8235C125.033 57.8235 127.572 29.5107 127.99 27.175C128.409 24.8392 105.24 22.7735 100.569 24.2316C99.5694 24.7987 97.9087 56.1088 98.0167 56.7164C98.1247 57.3104 125.033 57.8235 125.033 57.8235Z" fill="#FFBA05"/>
<path d="M101.069 48.183C100.799 49.0876 104.337 49.4656 103.932 48.4935C101.744 47.4944 102.393 44.5915 102.784 40.9731C103.162 37.3547 101.177 40.028 101.069 48.183Z" fill="white"/>
<path d="M102.743 35.6812C102.405 34.034 103.634 27.4452 106.401 26.9727C110.479 26.2841 118.094 28.2283 118.202 27.2157C118.31 26.2031 111.492 25.771 103.593 26.1626C101.973 26.2436 102.054 36.5453 102.743 35.6812Z" fill="white"/>
<path d="M124.103 54.8123C124.157 52.6115 126.546 30.415 126.735 28.6463C126.924 26.8776 120.862 26.3105 119.796 25.946C118.729 25.5814 118.729 35.8696 116.92 37.7193C115.111 39.569 112.086 40.7707 111.249 41.4458C110.412 42.1208 115.408 41.5538 113.855 42.4854C112.302 43.417 116.474 44.2946 112.964 45.9688C109.453 47.643 108.238 48.0075 107.01 49.1551C105.781 50.3028 102.892 53.3946 107.037 53.6647C111.168 53.9482 124.103 54.8123 124.103 54.8123Z" fill="#EF9005"/>
<path d="M128.544 55.3122C128.544 55.3122 129.665 58.3231 127.991 60.8479C125.844 82.4504 118.189 160.017 118.675 163.649C117.135 161.529 113.571 161.313 111.411 158.91C105.484 156.857 97.7338 156.533 92.1846 157.303C89.7138 159.261 86.0279 158.707 85.2988 159.895C89.1198 151.7 93.5078 79.615 95.3035 58.7956C93.4943 55.2852 95.5465 53.53 95.506 53.206C102.243 47.5488 128.544 55.3122 128.544 55.3122Z" fill="#EFDACA"/>
<path opacity="0.5" d="M125.088 57.8239C125.021 57.7024 124.845 57.5674 124.575 57.4324C121.457 55.8527 105.889 53.5034 98.3149 55.4747C98.6524 56.7573 97.4373 90.3492 96.4516 92.6174C95.466 94.8857 95.9791 111.641 94.5344 115.125C93.0763 118.608 94.5614 122.591 93.4543 125.183C92.3472 127.775 91.9151 141.034 91.4156 142.587C90.916 144.139 91.186 144.679 90.6325 146.826C90.0654 148.973 90.1869 151.781 89.5118 154.158C88.8368 156.547 95.358 154.617 95.9251 154.684C96.5056 154.752 90.8215 153.536 95.1555 152.564C99.4895 151.592 114.26 155.386 111.587 155.602C108.914 155.818 111.951 156.831 114.544 158.978C117.136 161.124 116.272 156.034 116.137 152.713C116.002 149.391 116.596 138.442 117.082 132.393C117.568 126.344 118.297 115.746 119.485 111.547C120.673 107.348 120.16 97.5455 120.943 93.3195C121.727 89.08 121.767 84.0845 122.645 79.0079C123.522 73.9313 123.374 69.0842 123.752 65.6548" fill="#FFBA05"/>
<path d="M102.703 57.985C102.001 56.2838 100.705 66.8825 100.435 74.2678C100.165 81.6532 99.5441 94.7092 99.058 98.2331C98.572 101.757 97.9779 110.222 97.3298 114.327C96.6818 118.431 95.9257 120.565 95.9122 123.63C95.8987 126.694 94.3595 138.036 93.9815 142.518C93.6034 147.001 93.5764 148.189 93.4684 149.201C93.3604 150.214 94.8591 149.863 96.4927 150.214C98.1264 150.565 95.6827 148.513 95.6556 144.327C95.6286 140.155 97.2488 126.6 97.8699 122.752C98.491 118.904 99.1931 109.52 99.1931 109.52C99.1931 109.52 100.813 93.9261 101.205 88.35C101.596 82.7738 101.88 74.7809 102.042 72.2426C102.204 69.7043 101.907 70.0959 103.257 62.4C104.607 54.7041 102.703 57.985 102.703 57.985Z" fill="white"/>
<path opacity="0.5" d="M123.413 57.8239C121.739 56.8788 114.556 56.3522 112.342 56.4602C110.114 56.5682 112.072 85.8666 110.033 94.5751C107.995 103.284 110.6 98.045 108.022 108.482C105.456 118.918 105.969 120.431 104.714 128.964C103.458 137.497 103.026 141.452 102.918 145.611C102.81 149.769 102.148 151.147 102.148 151.147C102.148 151.147 109.021 152.146 110.965 153.037C112.909 153.928 114.961 154.657 113.449 155.265C111.937 155.872 115.231 157.668 115.231 157.668C115.231 157.668 114.097 155.589 117.716 115.57C121.334 75.5514 122.252 78.8863 121.942 73.0671C121.645 67.248 124.656 58.1344 123.413 57.8239Z" fill="#EF9005"/>
<path d="M89.9024 44.079C89.9024 44.079 86.527 10.4601 86.5 7.63828C86.473 4.81645 58.9568 7.58427 53.8397 10.3251C52.8001 11.2162 57.8632 48.1294 58.1197 48.818C58.3627 49.4931 89.9024 44.079 89.9024 44.079Z" fill="#48B729"/>
<path d="M59.7528 38.1787C59.6448 39.2994 63.8572 38.9483 63.1552 37.8952C60.3738 37.2201 60.4818 33.6827 60.1308 29.3622C59.7798 25.0687 58.0516 28.6331 59.7528 38.1787Z" fill="white"/>
<path d="M58.916 23.2192C58.1599 21.3695 58.1059 13.4035 61.2382 12.2289C65.8423 10.5142 75.1718 11.0813 75.0638 9.87963C74.9693 8.67799 66.9089 9.69061 57.7818 11.9049C55.9051 12.3774 58.3084 24.3803 58.916 23.2192Z" fill="white"/>
<path d="M88.1357 40.771C87.7036 38.1922 85.5299 11.7426 85.3544 9.6364C85.1789 7.53016 77.969 8.23224 76.6459 8.04322C75.3227 7.8542 77.618 19.8706 75.9168 22.4224C74.2156 24.9877 70.9482 27.0669 70.1246 28.039C69.301 29.0111 74.9987 27.2289 73.4055 28.6736C71.8123 30.1183 76.8619 30.1993 73.149 32.9266C69.436 35.6539 68.0859 36.3695 66.9113 37.9762C65.7366 39.5828 63.0498 43.8358 67.9509 43.2418C72.8519 42.6477 88.1357 40.771 88.1357 40.771Z" fill="#489829"/>
<path d="M93.4266 40.3528C93.4266 40.3528 95.4114 43.6201 94.0207 46.9415C96.343 72.6485 104.754 164.905 106.145 169.036C103.877 166.903 99.6644 167.456 96.5995 165.121C89.2142 164.054 80.1006 165.404 73.7954 167.537C71.3516 170.386 66.9231 170.548 66.3425 172.101C68.9753 161.678 57.9716 76.5504 55.4063 51.8291C52.5034 48.1432 54.5152 45.6319 54.3802 45.2538C60.9824 37.1799 93.4266 40.3528 93.4266 40.3528Z" fill="#EFDACA"/>
<path opacity="0.5" d="M89.9567 44.0654C89.8486 43.9439 89.6056 43.8224 89.2681 43.7279C85.2716 42.5803 66.5855 43.3228 58.1875 47.3193C58.8626 48.737 64.9653 88.229 64.3172 91.1048C63.6691 93.9672 68.0166 113.409 67.112 117.811C66.1939 122.212 68.8132 126.519 68.0976 129.787C67.3821 133.054 69.8528 148.635 69.6098 150.566C69.3668 152.496 69.8123 153.063 69.6368 155.683C69.4613 158.302 70.2174 161.569 69.9744 164.499C69.7178 167.429 76.9007 163.73 77.5757 163.676C78.2508 163.622 71.365 163.487 76.2121 161.38C81.0591 159.274 99.1512 160.395 96.0729 161.245C92.9945 162.096 96.7749 162.596 100.272 164.513C103.769 166.43 101.635 160.678 100.717 156.844C99.7993 153.009 98.0576 140.075 97.2745 132.906C96.4914 125.736 94.9657 113.193 95.4248 108.036C95.8838 102.878 93.089 91.5504 93.0485 86.4198C93.008 81.2892 91.9549 75.4565 91.8334 69.3403C91.7119 63.2241 90.4697 57.594 90.1322 53.503" fill="#48B729"/>
<path d="M63.8588 49.2637C62.6572 47.441 63.5078 60.1055 64.8444 68.787C66.1811 77.4685 68.3818 92.8467 68.5978 97.0727C68.8274 101.299 70.0155 111.303 70.1775 116.245C70.3395 121.186 69.9345 123.846 70.5961 127.424C71.2577 131.002 72.0137 144.585 72.5673 149.904C73.1344 155.21 73.3639 156.615 73.4719 157.816C73.5664 159.018 75.2406 158.275 77.2388 158.316C79.2236 158.356 75.9157 156.507 74.9571 151.632C73.9985 146.758 72.8508 130.584 72.7158 125.953C72.5808 121.322 71.2982 110.21 71.2982 110.21C71.2982 110.21 69.705 91.6451 68.9219 85.0428C68.1253 78.4406 66.6806 69.057 66.3026 66.0597C65.938 63.0623 65.668 63.5889 65.5195 54.2998C65.371 45.0107 63.8588 49.2637 63.8588 49.2637Z" fill="white"/>
<path opacity="0.5" d="M88.0006 44.4434C85.8269 43.7143 77.3344 44.7134 74.7691 45.321C72.2038 45.9286 81.0338 79.7094 80.6018 90.3352C80.1697 100.961 82.0329 94.2506 81.3714 107.023C80.7098 119.796 81.6549 121.429 82.0869 131.677C82.5325 141.925 82.9105 146.637 83.7206 151.524C84.5307 156.398 84.0582 158.153 84.0582 158.153C84.0582 158.153 92.2941 157.775 94.7649 158.383C97.2357 158.991 99.7875 159.382 98.1673 160.422C96.5336 161.461 100.787 162.825 100.787 162.825C100.787 162.825 98.9909 160.651 94.2788 113.126C89.5533 65.6003 91.376 69.2728 89.7153 62.549C88.0546 55.8252 89.5128 44.5244 88.0006 44.4434Z" fill="#489829"/>
<path d="M47.3603 40.7035C47.3603 40.7035 36.6266 3.81729 36.0055 0.671424C35.3979 -2.48794 5.20843 6.30157 0.0508403 10.433C-0.921272 11.6482 12.3643 51.8558 12.7963 52.5714C13.2284 53.287 47.3603 40.7035 47.3603 40.7035Z" fill="#DD3C57"/>
<path d="M16.1852 39.3261C12.9313 39.1371 12.3237 35.1676 11.0411 30.4151C9.75845 25.6625 8.57031 30.0235 12.4318 40.3387" fill="white"/>
<path d="M8.4214 23.8C7.19276 21.8828 5.49156 12.9853 8.74544 11.0411C13.5385 8.17873 24.0832 6.88259 23.7187 5.54593C23.3541 4.20928 14.5511 7.0176 4.80298 11.3921C2.80475 12.2967 7.97585 25.2177 8.4214 23.8Z" fill="white"/>
<path d="M44.6986 37.3688C43.686 34.5875 35.7741 5.46461 35.1395 3.14234C34.5049 0.820074 26.593 3.08833 25.0673 3.15584C23.5417 3.20985 28.6047 16.1713 27.2276 19.3847C25.8504 22.5981 22.6371 25.6089 21.9215 26.8646C21.1924 28.1337 27.2006 24.9608 25.7154 26.9051C24.2302 28.8493 29.9009 27.9042 26.3095 31.7116C22.7181 35.5191 21.3679 36.6127 20.3823 38.6514C19.3967 40.6902 17.2904 46.0098 22.6371 44.3221C27.9837 42.6344 44.6986 37.3688 44.6986 37.3688Z" fill="#D30729"/>
<path d="M50.5328 35.8027C50.5328 35.8027 53.4221 39.0431 52.5581 43.0531C60.47 71.2983 88.9717 172.695 91.375 177.042C88.3912 175.125 83.8006 176.61 79.8987 174.639C71.4197 174.977 61.5231 178.379 54.9073 182.065C52.7606 185.751 47.8595 186.858 47.522 188.721C48.3051 176.516 18.3856 83.6387 10.4062 56.5411C6.39624 53.0172 8.12444 49.7903 7.90842 49.4123C13.6061 38.9756 50.5328 35.8027 50.5328 35.8027Z" fill="#EFDACA"/>
<path opacity="0.5" d="M47.4276 40.6765C47.2791 40.555 46.9955 40.4875 46.5905 40.447C41.8784 39.9879 21.1401 44.6865 12.5801 50.8972C13.6332 52.3284 28.6199 95.2228 28.4984 98.5577C28.3769 101.893 37.2609 122.725 37.1394 127.829C37.0179 132.933 40.8388 137.213 40.7173 141.02C40.5958 144.827 46.577 161.731 46.712 163.932C46.847 166.133 47.4546 166.673 47.8056 169.657C48.1567 172.627 49.6688 176.111 50.0064 179.445C50.3304 182.78 57.5808 177.15 58.3368 176.948C59.0929 176.745 51.3565 178.014 56.3251 174.666C61.2937 171.318 81.762 168.82 78.5082 170.413C75.2543 172.006 79.5748 171.777 83.8818 173.194C88.2023 174.612 84.6109 168.631 82.8016 164.526C80.9924 160.422 76.3614 146.34 73.9986 138.482C71.6359 130.624 67.3424 116.933 66.7753 111.06C66.2217 105.187 60.7401 93.1165 59.6465 87.3919C58.5529 81.6672 56.1496 75.362 54.7589 68.5437C53.3683 61.7254 50.803 55.6902 49.5878 51.1942" fill="#DD3C57"/>
<path d="M19.3173 51.8827C17.5891 50.1005 21.167 64.0746 24.4613 73.4987C27.7557 82.9228 33.3859 99.6647 34.52 104.35C35.6406 109.021 39.0565 119.971 40.2582 125.453C41.4598 130.934 41.5543 133.999 43.053 137.861C44.5382 141.722 48.1836 156.763 49.9118 162.582C51.64 168.401 52.1935 169.913 52.5581 171.236C52.9226 172.56 54.6373 171.385 56.8651 171.02C59.0928 170.656 55.0019 169.265 52.9226 164.027C50.8434 158.774 46.2124 140.925 45.1052 135.781C43.9981 130.624 40.2582 118.472 40.2582 118.472C40.2582 118.472 34.6415 98.0445 32.3868 90.8347C30.132 83.6249 26.5541 73.4042 25.5145 70.1368C24.4749 66.8559 24.2858 67.504 22.2066 57.1483C20.1274 46.7926 19.3173 51.8827 19.3173 51.8827Z" fill="white"/>
<path opacity="0.5" d="M45.3076 41.5006C42.7288 41.1226 33.4398 44.0119 30.699 45.2271C27.9581 46.4422 44.8216 82.3698 46.5363 94.3457C48.251 106.322 48.9531 98.4232 50.8433 112.843C52.7335 127.262 54.1377 128.883 56.757 140.264C59.3763 151.646 60.7804 156.817 62.6841 162.11C64.5879 167.389 64.4393 169.455 64.4393 169.455C64.4393 169.455 73.5799 167.335 76.4557 167.497C79.3451 167.659 82.2749 167.578 80.6682 169.077C79.0615 170.575 84.0976 171.224 84.0976 171.224C84.0976 171.224 81.6403 169.171 66.5321 117.001C51.4238 64.8313 54.2052 68.5847 50.9648 61.4154C47.7244 54.2461 47.0223 41.2711 45.3076 41.5006Z" fill="#D30729"/>
<path d="M16.2662 43.2417C16.9548 42.4317 13.6469 43.4038 13.8359 44.4569C14.376 47.4002 16.4012 48.7774 16.2662 52.2878C16.1447 55.5417 21.3293 54.151 19.3176 51.8827C15.8612 47.9673 14.7811 44.997 16.2662 43.2417Z" fill="#DD3C57"/>
<path d="M19.5078 56.3389C19.7778 62.2796 20.3179 69.4354 22.0731 67.1401C23.9498 64.6828 20.4529 59.1742 19.5078 56.3389Z" fill="#DD3C57"/>
</svg>
