<svg width="411" height="291" viewBox="0 0 411 291" fill="none" xmlns="http://www.w3.org/2000/svg">
    <path
        d="M410.852 280.633V269.191L405.347 271.497L358.513 211.174C356.409 208.465 353.181 206.88 349.751 206.909L60.1567 207.773C56.727 207.773 53.4702 209.387 51.3951 212.125L8.3364 268.528L0.525879 268.989V282.823C0.525879 282.823 0.583524 282.795 0.641166 282.766C1.15995 286.916 4.61847 290.547 9.46042 290.547H402.061C407.653 290.547 411.428 285.561 410.852 280.633Z"
        fill="#5596A5" />
    <path
        d="M402.004 284.812H9.43194C2.08256 284.812 -2.06767 276.396 2.37077 270.574L51.3666 206.39C53.4418 203.652 56.6985 202.038 60.1283 202.038L349.723 201.173C353.152 201.173 356.38 202.729 358.484 205.439L409.008 270.488C413.533 276.339 409.382 284.812 402.004 284.812Z"
        fill="#353535" />
    <path
        d="M358.138 213.912L53.7871 212.731V11.9341C53.7871 5.85283 58.7155 0.953239 64.7968 0.98206L347.243 2.07726C353.267 2.10608 358.167 7.00567 358.167 13.0293V213.912H358.138Z"
        fill="#1E1E1E" />
    <path
        d="M402.004 279.451H9.43194C2.08256 279.451 -2.06767 271.036 2.37077 265.214L51.3666 201.029C53.4418 198.291 56.6985 196.677 60.1283 196.677L349.723 195.812C353.152 195.812 356.38 197.369 358.484 200.078L409.008 265.127C413.533 270.978 409.382 279.451 402.004 279.451Z"
        fill="#F4F2F3" />
    <path d="M346.869 14.5566H65.0566V190.769H346.869V14.5566Z" fill="#64BDD1" />
    <path
        d="M258.359 273.601H153.162C150.684 273.601 149.185 270.863 150.54 268.759L157.572 257.836C158.148 256.942 159.128 256.395 160.195 256.395H252.682C253.863 256.395 254.93 257.057 255.477 258.095L261.126 269.018C262.221 271.122 260.694 273.601 258.359 273.601Z"
        fill="#9E9A97" />
    <path
        d="M258.359 271.266H153.162C150.684 271.266 149.185 268.528 150.54 266.424L157.572 255.501C158.148 254.607 159.128 254.06 160.195 254.06H252.682C253.863 254.06 254.93 254.723 255.477 255.76L261.126 266.683C262.221 268.759 260.694 271.266 258.359 271.266Z"
        fill="#D0CCC9" />
    <path
        d="M367.275 250.169L45.6889 249.967C43.1814 249.967 41.7404 247.114 43.2102 245.097L67.0165 212.471C67.5929 211.693 68.5152 211.203 69.4951 211.203L340.932 211.001C341.854 211.001 342.748 211.434 343.324 212.154L369.667 245.154C371.281 247.201 369.84 250.169 367.275 250.169Z"
        fill="#9E9A97" />
    <path
        d="M367.275 247.806L45.6889 247.604C43.1814 247.604 41.7404 244.751 43.2102 242.733L67.0165 210.137C67.5929 209.358 68.5152 208.868 69.4951 208.868L340.932 208.667C341.854 208.667 342.748 209.099 343.324 209.82L369.667 242.82C371.281 244.837 369.84 247.835 367.275 247.806Z"
        fill="#D0CCC9" />
</svg>