<svg xmlns="http://www.w3.org/2000/svg" viewBox="0 0 138.31 153.88"><defs><style>.cls-1{isolation:isolate;}.cls-2{fill:#9d996d;}.cls-3{fill:#e2e1c5;}.cls-4,.cls-5{fill:#bdb783;}.cls-4{opacity:0.17;}.cls-18,.cls-24,.cls-4,.cls-5{mix-blend-mode:multiply;}.cls-6{fill:#d51c23;}.cls-7{fill:#ed1c25;}.cls-23,.cls-8{fill:#fff;mix-blend-mode:screen;}.cls-8{opacity:0.51;}.cls-9{fill:#00764e;}.cls-10{fill:#009363;}.cls-11{fill:#e6c327;}.cls-12{fill:#fff200;}.cls-13{fill:#008ba7;}.cls-14{fill:#00accf;}.cls-15{fill:#561a54;}.cls-16{fill:#752f72;}.cls-17,.cls-18{fill:#f1f2e0;}.cls-19{fill:#daab3c;}.cls-20{fill:#ebc54f;}.cls-21{fill:#d9ac6a;}.cls-22{fill:#c0995e;}.cls-23{opacity:0.38;}.cls-24{fill:none;stroke:#f1f2e0;stroke-miterlimit:10;}</style></defs><g class="cls-1"><g id="Layer_2" data-name="Layer 2"><g id="TV"><path class="cls-2" d="M111.88,27.36s29,18.5,26.25,61.25-42,59.25-47.25,60.75-34.25,7-60.25-14c0,0,19.75,13,40.25,11.25s37-15.25,43.5-24,18.75-26.5,18.5-44.75S120.88,33.86,111.88,27.36Z"/><path class="cls-3" d="M120.88,38.11C101.63,8.86,75.63,8.86,75.63,8.86c-31.5.5-29.75,28.75-30.5,37.25S37.38,66.86,24.38,68.36,6.13,78.11,5.63,91.61s7.5,37.25,37,50,57,.75,74.5-21.75S140.13,67.36,120.88,38.11Zm-60.25,62.5s0,19.5-20.75,18-18.25-22.75-18-26,3.75-19.25,22.5-17S60.63,100.61,60.63,100.61Z"/><path class="cls-2" d="M33.13,116.86a26.69,26.69,0,0,1-4.5-19.75c2-11.5,13.75-20.5,25.25-17.25-3.25-3.67-10.25-5.75-19.75-3.75s-13,14-12.75,18.75S21.38,113.11,33.13,116.86Z"/><path class="cls-4" d="M51.38,19.61s10.5-8.75,14.5-7,4,4.25,8.75,2.75a16.26,16.26,0,0,1,17.75,6.5c4.75,7,3.25,10.75,4,14.5s4.5,4.75,8.25,4.25,11.5.5,15.75,5.25a17.43,17.43,0,0,1,1.75,20.25c-4.25,7.25-17.25,6-17.75,9.5s14,4.5,17.75,11.75,2.25,15.75-4.5,23-22.5-7.25-26-4.25,5.25,12.75,3.5,19.75-4,11-11.5,12.5-11-1.75-16.25-4.5-9-7-18-6.5-34.75-4.25-43-26.25c1.5,22.25,28.25,37.25,35.25,40s30.75,11.5,51,0,33.25-31.5,38.25-47.25,2-39.25-7.25-53-23.75-28-40.5-31.5S54.63,13.61,51.38,19.61Z"/><ellipse class="cls-5" cx="80.54" cy="31.02" rx="12" ry="13.36" transform="translate(1.66 66.04) rotate(-45)"/><circle class="cls-6" cx="79.63" cy="29.86" r="12"/><path class="cls-7" d="M88.11,21.37a12,12,0,0,0-17,17C75.83,43,81.36,41,86.05,36.27S92.8,26.06,88.11,21.37Z"/><path class="cls-8" d="M76,20.86s-5.16,1-5.66,7.16,2.33,8.17,2.33,8.17,2.5,2,1.17-3S73,24.36,76,20.86Z"/><ellipse class="cls-5" cx="107.71" cy="56.69" rx="12" ry="13.36" transform="translate(-8.54 92.76) rotate(-45)"/><circle class="cls-9" cx="106.8" cy="55.52" r="12"/><path class="cls-10" d="M115.28,47a12,12,0,0,0-17,17c4.69,4.69,10.22,2.62,14.9-2.07S120,51.72,115.28,47Z"/><path class="cls-8" d="M103.13,46.52s-5.17,1-5.67,7.17,2.34,8.17,2.34,8.17,2.5,2,1.16-3S100.13,50,103.13,46.52Z"/><ellipse class="cls-5" cx="107.87" cy="95.19" rx="12" ry="13.36" transform="translate(-35.71 104.16) rotate(-45)"/><circle class="cls-11" cx="106.96" cy="94.02" r="12"/><path class="cls-12" d="M115.45,85.54a12,12,0,0,0-17,17c4.68,4.69,10.21,2.62,14.9-2.07S120.13,90.22,115.45,85.54Z"/><path class="cls-8" d="M103.3,85s-5.17,1-5.67,7.17,2.33,8.17,2.33,8.17,2.5,2,1.17-3S100.3,88.52,103.3,85Z"/><ellipse class="cls-5" cx="79.21" cy="122.85" rx="12" ry="13.36" transform="translate(-63.67 91.99) rotate(-45)"/><circle class="cls-13" cx="78.3" cy="121.69" r="12"/><path class="cls-14" d="M86.78,113.21a12,12,0,1,0-17,17c4.69,4.68,10.22,2.61,14.9-2.07S91.47,117.89,86.78,113.21Z"/><path class="cls-8" d="M74.63,112.69s-5.17,1-5.67,7.17S71.3,128,71.3,128s2.5,2,1.16-3S71.63,116.19,74.63,112.69Z"/><ellipse class="cls-5" cx="59.54" cy="57.02" rx="12" ry="13.36" transform="translate(-22.88 58.8) rotate(-45)"/><circle class="cls-15" cx="58.63" cy="55.86" r="12"/><path class="cls-16" d="M67.11,47.37a12,12,0,0,0-17,17C54.83,69,60.36,67,65.05,62.27S71.8,52.06,67.11,47.37Z"/><path class="cls-8" d="M55,46.86s-5.16,1-5.66,7.16,2.33,8.17,2.33,8.17,2.5,2,1.17-3S52,50.36,55,46.86Z"/><path class="cls-17" d="M26.77,61.69s9.5-5.84,9.16-19.84S22.27,6.52,7.27.69c2.16,10.83-4.5,24.83-4.5,24.83s-6,13.5-.34,25.33,10,11,10,11Z"/><path class="cls-7" d="M19.93,24.52s2.67.33,2.67-3.33.83-6.17,3.33-4.67c-4.16-4.83-10.5-12.17-15.66-15s-3-.83-3-.83S7.77,9.52,6.93,13a55.72,55.72,0,0,1-2.16,6.83s-.34,4.67,2,3.5,3-10.83,4.5-8.5S12.43,25,14.6,23.35s1.33-5.33,3-3.16S17.77,24.69,19.93,24.52Z"/><path class="cls-18" d="M11.6,62.35s13.33-3.5,13.83-19.83S7.27.69,7.27.69,19.6,3.85,31.27,25s.33,32.83-3.67,36.5A125.85,125.85,0,0,1,11.6,62.35Z"/><rect class="cls-19" x="8.43" y="61.85" width="21.33" height="5.67" rx="2.83" transform="translate(38.2 129.37) rotate(-180)"/><rect class="cls-20" x="8.43" y="61.85" width="21.33" height="3.33" rx="1.66" transform="translate(38.2 127.03) rotate(-180)"/><path class="cls-21" d="M20.6,153.85s10-.16,8.5-16.33-4.67-35-4.83-45.17,2.16-24.83,2.16-24.83H11.77a105.8,105.8,0,0,1,2.66,27c-.33,15.83-2.33,43.17-2.33,43.17S10.93,153,20.6,153.85Z"/><path class="cls-22" d="M20.6,153.85s6.5-3.33,4-22.16-5.67-33.34-5.67-42,4-14.34,2-17.84-6.16,8.84-6.66,14.67c-1-15.33-3-19-3-19H26.93a112.67,112.67,0,0,0-2,29.33c1,16.5,5.67,36,4.5,47S20.6,153.85,20.6,153.85Z"/><path class="cls-23" d="M17.93,145.35s2-2.16,1.5-11.16a158.48,158.48,0,0,0-3-20.5S14.1,125.52,14.6,135,17.93,145.35,17.93,145.35Z"/><path class="cls-24" d="M26.43,59s18.17-20.67-10-50"/><path class="cls-24" d="M23.27,58.69s8.83-10.84,3.5-27.17"/><path class="cls-24" d="M17.93,55.35s5.34-9.66,1.17-25.16"/><path class="cls-24" d="M15.6,40.35s1.67-15.5-5-30"/></g></g></g></svg>