<svg xmlns="http://www.w3.org/2000/svg" xmlns:xlink="http://www.w3.org/1999/xlink" viewBox="0 0 156.75 190.23"><defs><style>.cls-1{isolation:isolate;}.cls-2{fill:url(#linear-gradient);}.cls-3{fill:#a7afba;}.cls-4{fill:url(#linear-gradient-2);}.cls-5{fill:url(#linear-gradient-3);}.cls-6{fill:url(#linear-gradient-4);}.cls-7{fill:url(#linear-gradient-5);}.cls-8{fill:url(#linear-gradient-6);}.cls-9{fill:url(#linear-gradient-7);}.cls-10{fill:#fff;}.cls-11{fill:url(#linear-gradient-8);}.cls-12{fill:url(#linear-gradient-9);}.cls-13{fill:url(#radial-gradient);}.cls-14{fill:url(#linear-gradient-10);}.cls-15{fill:url(#linear-gradient-11);}.cls-16{fill:#e7e9ec;}.cls-17{fill:#cfd3da;}.cls-18{fill:url(#linear-gradient-12);}.cls-19{fill:#c4c46a;}.cls-20{fill:url(#linear-gradient-14);}.cls-21{fill:#848448;}.cls-107,.cls-22{fill:#5f6d82;}.cls-23{fill:url(#linear-gradient-15);}.cls-24{fill:url(#linear-gradient-16);}.cls-25{fill:url(#linear-gradient-17);}.cls-26{fill:#a79ea7;}.cls-27{fill:#f0f0d8;}.cls-28{fill:url(#linear-gradient-18);}.cls-29{fill:url(#linear-gradient-19);}.cls-30{fill:#d8eff4;}.cls-31{opacity:0.75;fill:url(#linear-gradient-20);}.cls-107,.cls-173,.cls-177,.cls-308,.cls-31,.cls-310,.cls-68,.cls-69{mix-blend-mode:multiply;}.cls-32{fill:url(#linear-gradient-21);}.cls-33{fill:url(#linear-gradient-22);}.cls-34{fill:url(#linear-gradient-23);}.cls-35{fill:url(#linear-gradient-24);}.cls-36{fill:#fcfbf9;}.cls-37{fill:#beb491;}.cls-38{fill:#f4f2ec;}.cls-39{fill:#d6cfb9;}.cls-40{fill:url(#linear-gradient-25);}.cls-41{fill:url(#linear-gradient-26);}.cls-42{fill:url(#linear-gradient-27);}.cls-43{fill:url(#linear-gradient-28);}.cls-44{fill:url(#linear-gradient-29);}.cls-45{fill:url(#linear-gradient-30);}.cls-46{fill:url(#linear-gradient-31);}.cls-47{fill:url(#linear-gradient-32);}.cls-48{fill:url(#linear-gradient-33);}.cls-49{fill:#ccc4a8;}.cls-50{fill:url(#linear-gradient-34);}.cls-51{fill:url(#linear-gradient-35);}.cls-52{fill:url(#linear-gradient-36);}.cls-53{fill:url(#linear-gradient-37);}.cls-54{fill:url(#linear-gradient-38);}.cls-55{fill:url(#linear-gradient-39);}.cls-56{fill:url(#linear-gradient-40);}.cls-57{fill:url(#linear-gradient-41);}.cls-58{fill:url(#linear-gradient-42);}.cls-59{fill:url(#linear-gradient-43);}.cls-60{fill:url(#linear-gradient-44);}.cls-61{fill:url(#linear-gradient-45);}.cls-62{fill:url(#linear-gradient-46);}.cls-63{fill:url(#linear-gradient-47);}.cls-64,.cls-68{fill:#bab08a;}.cls-65{fill:#ceeaf0;}.cls-66{fill:url(#linear-gradient-48);}.cls-67{fill:url(#linear-gradient-49);}.cls-173,.cls-177,.cls-69{opacity:0.6;}.cls-69{fill:url(#linear-gradient-50);}.cls-70{fill:url(#linear-gradient-51);}.cls-71{fill:url(#linear-gradient-52);}.cls-72{fill:url(#linear-gradient-53);}.cls-73{fill:url(#linear-gradient-54);}.cls-74{fill:url(#linear-gradient-55);}.cls-75{fill:url(#linear-gradient-56);}.cls-76{fill:url(#linear-gradient-57);}.cls-77{fill:url(#linear-gradient-58);}.cls-309,.cls-311,.cls-78{mix-blend-mode:screen;}.cls-79{fill:#090909;}.cls-80{fill:#121212;}.cls-81{fill:#1a1a1a;}.cls-82{fill:#232323;}.cls-83{fill:#2c2c2c;}.cls-84{fill:#353535;}.cls-85{fill:#3e3e3e;}.cls-86{fill:#464646;}.cls-87{fill:#4f4f4f;}.cls-88{fill:#585858;}.cls-89{fill:#616161;}.cls-90{fill:#6a6a6a;}.cls-91{fill:#727272;}.cls-92{fill:#7b7b7b;}.cls-93{fill:#848484;}.cls-94{fill:#8d8d8d;}.cls-95{fill:#959595;}.cls-96{fill:#9e9e9e;}.cls-97{fill:#a7a7a7;}.cls-98{fill:#b0b0b0;}.cls-99{fill:#b9b9b9;}.cls-100{fill:#c1c1c1;}.cls-101{fill:#cacaca;}.cls-102{fill:#d3d3d3;}.cls-103{fill:#dcdcdc;}.cls-104{fill:#e5e5e5;}.cls-105{fill:#ededed;}.cls-106{fill:#f6f6f6;}.cls-107{opacity:0.55;}.cls-108{fill:url(#linear-gradient-59);}.cls-109{fill:#b5bcc6;}.cls-110{fill:#bac0c9;}.cls-111{fill:#bfc5cd;}.cls-112{fill:#c4c9d1;}.cls-113{fill:#c9cdd5;}.cls-114{fill:#cdd2d8;}.cls-115{fill:#d2d6dc;}.cls-116{fill:#d7dae0;}.cls-117{fill:#dcdfe4;}.cls-118{fill:#e1e3e7;}.cls-119{fill:#e5e8eb;}.cls-120{fill:#eaecef;}.cls-121{fill:#eff0f3;}.cls-122{fill:#97a0ae;}.cls-123{fill:#939dab;}.cls-124{fill:#9099a8;}.cls-125{fill:#8c96a5;}.cls-126{fill:#8893a2;}.cls-127{fill:#848f9f;}.cls-128{fill:#818c9c;}.cls-129{fill:#7d889a;}.cls-130{fill:#798597;}.cls-131{fill:#768294;}.cls-132{fill:#727e91;}.cls-133{fill:#6e7b8e;}.cls-134{fill:#6b788b;}.cls-135{fill:#677488;}.cls-136{fill:#b3bac4;}.cls-137{fill:#b0b7c2;}.cls-138{fill:#aeb5c0;}.cls-139{fill:#abb3be;}.cls-140{fill:#a9b0bc;}.cls-141{fill:#a6aeba;}.cls-142{fill:#a4acb8;}.cls-143{fill:#a1a9b6;}.cls-144{fill:#9fa7b4;}.cls-145{fill:#9ca5b2;}.cls-146{fill:#99a2b0;}.cls-147{fill:#c5cad2;}.cls-148{fill:#bdc3cb;}.cls-149{fill:#b4bbc5;}.cls-150{fill:#acb3be;}.cls-151{fill:#a3abb8;}.cls-152{fill:#9ba4b1;}.cls-153{fill:#929caa;}.cls-154{fill:#8a94a4;}.cls-155{fill:#828d9d;}.cls-156{fill:#798596;}.cls-157{fill:#717d90;}.cls-158{fill:#b0b7c1;}.cls-159{fill:#aab1bd;}.cls-160{fill:#9ea7b4;}.cls-161{fill:#99a2af;}.cls-162{fill:#939cab;}.cls-163{fill:#8d97a6;}.cls-164{fill:#8792a2;}.cls-165{fill:#7c8899;}.cls-166{fill:#ccd0d7;}.cls-167{fill:#d5d9df;}.cls-168{fill:#d9dce1;}.cls-169{fill:#dfe2e6;}.cls-170{fill:#e2e5e9;}.cls-171{fill:#e9ebee;}.cls-172{fill:#ecedf0;}.cls-173{fill:url(#linear-gradient-60);}.cls-174{fill:url(#linear-gradient-61);}.cls-175{fill:url(#linear-gradient-62);}.cls-176{fill:#f2f0e9;opacity:0.76;mix-blend-mode:lighten;}.cls-177{fill:url(#linear-gradient-63);}.cls-178{fill:url(#linear-gradient-64);}.cls-179{fill:#040404;}.cls-180{fill:#080808;}.cls-181{fill:#0b0c0c;}.cls-182{fill:#0f0f0f;}.cls-183{fill:#131313;}.cls-184{fill:#171717;}.cls-185{fill:#1b1b1b;}.cls-186{fill:#1f1f1f;}.cls-187{fill:#222323;}.cls-188{fill:#262627;}.cls-189{fill:#2a2a2b;}.cls-190{fill:#2e2e2e;}.cls-191{fill:#323232;}.cls-192{fill:#353636;}.cls-193{fill:#393a3a;}.cls-194{fill:#3d3d3e;}.cls-195{fill:#414142;}.cls-196{fill:#454546;}.cls-197{fill:#49494a;}.cls-198{fill:#4c4d4d;}.cls-199{fill:#505151;}.cls-200{fill:#545455;}.cls-201{fill:#585859;}.cls-202{fill:#5c5c5d;}.cls-203{fill:#5f6061;}.cls-204{fill:#636465;}.cls-205{fill:#676868;}.cls-206{fill:#6b6b6c;}.cls-207{fill:#6f6f70;}.cls-208{fill:#737374;}.cls-209{fill:#767778;}.cls-210{fill:#7a7b7c;}.cls-211{fill:#7e7f80;}.cls-212{fill:#828384;}.cls-213{fill:#868687;}.cls-214{fill:#898a8b;}.cls-215{fill:#8d8e8f;}.cls-216{fill:#919293;}.cls-217{fill:#959697;}.cls-218{fill:#999a9b;}.cls-219{fill:#9d9d9f;}.cls-220{fill:#a0a1a3;}.cls-221{fill:#a4a5a6;}.cls-222{fill:#a8a9aa;}.cls-223{fill:#acadae;}.cls-224{fill:#b0b1b2;}.cls-225{fill:#b3b4b6;}.cls-226{fill:#b7b8ba;}.cls-227{fill:#bbbcbe;}.cls-228{fill:#bfc0c1;}.cls-229{fill:#c3c4c5;}.cls-230{fill:#c7c8c9;}.cls-231{fill:#cacbcd;}.cls-232{fill:#cecfd1;}.cls-233{fill:#d2d3d5;}.cls-234{fill:#d6d7d9;}.cls-235{fill:#dadbdd;}.cls-236{fill:#dddfe0;}.cls-237{fill:#e1e3e4;}.cls-238{fill:#e5e6e8;}.cls-239{fill:#e9eaec;}.cls-240{fill:#edeef0;}.cls-241{fill:#f1f2f4;}.cls-242{fill:url(#linear-gradient-65);}.cls-243{fill:#b9bfc8;}.cls-244{fill:#bcc2cb;}.cls-245{fill:#c2c8d0;}.cls-246{fill:#949eac;}.cls-247{fill:#929baa;}.cls-248{fill:#8f99a8;}.cls-249{fill:#8a95a4;}.cls-250{fill:#8892a2;}.cls-251{fill:#8590a0;}.cls-252{fill:#838e9e;}.cls-253{fill:#808b9c;}.cls-254{fill:#7e899a;}.cls-255{fill:#7b8798;}.cls-256{fill:#798496;}.cls-257{fill:#748092;}.cls-258{fill:#717e90;}.cls-259{fill:#6f7b8e;}.cls-260{fill:#6c798c;}.cls-261{fill:#69778a;}.cls-262{fill:#b4bac4;}.cls-263{fill:#b2b9c3;}.cls-264{fill:#b1b7c2;}.cls-265{fill:#afb6c1;}.cls-266{fill:#adb5bf;}.cls-267{fill:#aab2bd;}.cls-268{fill:#a5adb9;}.cls-269{fill:#a2aab7;}.cls-270{fill:#a1a9b5;}.cls-271{fill:#9da6b3;}.cls-272{fill:#9ca4b2;}.cls-273{fill:#9aa3b0;}.cls-274{fill:#c0c6ce;}.cls-275{fill:#bbc1ca;}.cls-276{fill:#abb2bd;}.cls-277{fill:#a6adb9;}.cls-278{fill:#a0a9b5;}.cls-279{fill:#969fad;}.cls-280{fill:#909aa9;}.cls-281{fill:#8b95a4;}.cls-282{fill:#8690a0;}.cls-283{fill:#808c9c;}.cls-284{fill:#b2b8c3;}.cls-285{fill:#9ba3b1;}.cls-286{fill:#8b95a5;}.cls-287{fill:#848e9f;}.cls-288{fill:#788496;}.cls-289{fill:#748193;}.cls-290{fill:#c8ccd4;}.cls-291{fill:#caced5;}.cls-292{fill:#ced2d9;}.cls-293{fill:#d0d4db;}.cls-294{fill:#d3d6dc;}.cls-295{fill:#d5d8de;}.cls-296{fill:#dbdee3;}.cls-297{fill:#dde0e5;}.cls-298{fill:#e0e2e7;}.cls-299{fill:#e2e4e8;}.cls-300{fill:#e4e6ea;}.cls-301{fill:#e6e8ec;}.cls-302{fill:#e8eaed;}.cls-303{fill:#ebecef;}.cls-304{fill:#edeef1;}.cls-305{fill:url(#linear-gradient-66);}.cls-306{fill:url(#linear-gradient-67);}.cls-307{fill:#7f8a9b;}.cls-308{opacity:0.25;fill:url(#linear-gradient-68);}.cls-309{fill:url(#radial-gradient-2);}.cls-310{fill:url(#radial-gradient-3);}.cls-311{fill:url(#linear-gradient-69);}</style><linearGradient id="linear-gradient" x1="121.39" y1="8.7" x2="120.91" y2="7.97" gradientTransform="translate(28.09 -69.73) rotate(36.07)" gradientUnits="userSpaceOnUse"><stop offset="0"/><stop offset="0.3" stop-color="#444649"/><stop offset="0.83" stop-color="#b9bfc8"/></linearGradient><linearGradient id="linear-gradient-2" x1="106.72" y1="20.12" x2="106.15" y2="19.31" gradientUnits="userSpaceOnUse"><stop offset="0"/><stop offset="0.29" stop-color="#2f3135"/><stop offset="1" stop-color="#9fa7b4"/></linearGradient><linearGradient id="linear-gradient-3" x1="20.58" y1="7.94" x2="21.43" y2="7.04" gradientTransform="translate(12.57 -12.98) rotate(47.97)" xlink:href="#linear-gradient"/><linearGradient id="linear-gradient-4" x1="105.62" y1="18.73" x2="106.09" y2="19.41" gradientUnits="userSpaceOnUse"><stop offset="0.13" stop-color="#fff"/><stop offset="0.14" stop-color="#fdfefe"/><stop offset="0.29" stop-color="#dee1e5"/><stop offset="0.45" stop-color="#c6cbd2"/><stop offset="0.61" stop-color="#b5bbc5"/><stop offset="0.79" stop-color="#aab2bd"/><stop offset="1" stop-color="#a7afba"/></linearGradient><linearGradient id="linear-gradient-5" x1="47.01" y1="35.44" x2="48.52" y2="33.93" gradientTransform="matrix(1, 0, 0, 1, 0, 0)" xlink:href="#linear-gradient"/><linearGradient id="linear-gradient-6" x1="39.3" y1="24.95" x2="40.35" y2="23.84" xlink:href="#linear-gradient-4"/><linearGradient id="linear-gradient-7" x1="87.91" y1="34.06" x2="86.43" y2="32.08" xlink:href="#linear-gradient-2"/><linearGradient id="linear-gradient-8" x1="30.67" y1="18.64" x2="31.65" y2="17.59" gradientTransform="translate(22.63 -16.8) rotate(46.07)" xlink:href="#linear-gradient"/><linearGradient id="linear-gradient-9" x1="31.44" y1="17.82" x2="32.28" y2="16.91" xlink:href="#linear-gradient-4"/><radialGradient id="radial-gradient" cx="46.86" cy="20.32" r="23.95" gradientTransform="matrix(0.8, 0.03, -0.04, 1.11, 22.11, 11.33)" gradientUnits="userSpaceOnUse"><stop offset="0" stop-color="#bdc3cc"/><stop offset="0.31" stop-color="#5f6d82"/><stop offset="0.85"/></radialGradient><linearGradient id="linear-gradient-10" x1="130.05" y1="4.12" x2="128.61" y2="1.08" gradientTransform="matrix(1, 0, 0, 1, 0, 0)" xlink:href="#linear-gradient"/><linearGradient id="linear-gradient-11" x1="16.13" y1="3.53" x2="18.6" y2="5.29" gradientTransform="matrix(1, 0, 0, 1, 0, 0)" xlink:href="#linear-gradient"/><linearGradient id="linear-gradient-12" x1="32.05" y1="157.99" x2="36.18" y2="159.87" gradientUnits="userSpaceOnUse"><stop offset="0" stop-color="#dfdbc9"/><stop offset="1" stop-color="#bab08a"/></linearGradient><linearGradient id="linear-gradient-14" x1="24.84" y1="160.02" x2="48.48" y2="160.02" gradientUnits="userSpaceOnUse"><stop offset="0" stop-color="#5f6d82"/><stop offset="1" stop-color="#bab08a"/></linearGradient><linearGradient id="linear-gradient-15" x1="74.76" y1="158.35" x2="70.54" y2="159.53" xlink:href="#linear-gradient-14"/><linearGradient id="linear-gradient-16" x1="117.79" y1="164.68" x2="124.91" y2="162.43" xlink:href="#linear-gradient-12"/><linearGradient id="linear-gradient-17" x1="100.28" y1="161.94" x2="123.83" y2="161.94" xlink:href="#linear-gradient-14"/><linearGradient id="linear-gradient-18" x1="75.23" y1="134.95" x2="75.23" y2="143.95" gradientUnits="userSpaceOnUse"><stop offset="0" stop-color="#5f6d82"/><stop offset="1" stop-color="#83cada"/></linearGradient><linearGradient id="linear-gradient-19" x1="75.57" y1="146.95" x2="75.57" y2="138.69" xlink:href="#linear-gradient-18"/><linearGradient id="linear-gradient-20" x1="91.89" y1="157.03" x2="86.27" y2="110.16" gradientUnits="userSpaceOnUse"><stop offset="0" stop-color="#5f6d82"/><stop offset="1" stop-color="#64bdd1"/></linearGradient><linearGradient id="linear-gradient-21" x1="152.41" y1="42.14" x2="155.03" y2="45.89" gradientUnits="userSpaceOnUse"><stop offset="0" stop-color="#d8eff4"/><stop offset="1" stop-color="#64bdd1"/></linearGradient><linearGradient id="linear-gradient-22" x1="3.01" y1="95.24" x2="13.91" y2="95.24" gradientUnits="userSpaceOnUse"><stop offset="0" stop-color="#d8eff4"/><stop offset="0.68" stop-color="#64bdd1"/><stop offset="1" stop-color="#5f6d82"/></linearGradient><linearGradient id="linear-gradient-23" x1="78.47" y1="49.88" x2="83.72" y2="127.88" gradientUnits="userSpaceOnUse"><stop offset="0" stop-color="#8dcedd"/><stop offset="0.29" stop-color="#74c4d6"/><stop offset="1" stop-color="#93d1df"/></linearGradient><linearGradient id="linear-gradient-24" x1="78.88" y1="85.71" x2="76.91" y2="63.03" gradientUnits="userSpaceOnUse"><stop offset="0" stop-color="#f0f8fa"/><stop offset="0.09" stop-color="#e1f2f6"/><stop offset="0.36" stop-color="#bce2eb"/><stop offset="0.61" stop-color="#a1d7e3"/><stop offset="0.83" stop-color="#91d0df"/><stop offset="1" stop-color="#8bcedd"/></linearGradient><linearGradient id="linear-gradient-25" x1="96.16" y1="117.05" x2="96.42" y2="62.39" gradientUnits="userSpaceOnUse"><stop offset="0" stop-color="#e0dbca"/><stop offset="1" stop-color="#d2cbb3"/></linearGradient><linearGradient id="linear-gradient-26" x1="94.75" y1="58.27" x2="99.18" y2="62.03" gradientUnits="userSpaceOnUse"><stop offset="0" stop-color="#beb491"/><stop offset="0.37" stop-color="#c3ba99"/><stop offset="0.95" stop-color="#d1cab0"/><stop offset="1" stop-color="#d2cbb2"/></linearGradient><linearGradient id="linear-gradient-27" x1="98.25" y1="119.59" x2="92.67" y2="125.7" gradientUnits="userSpaceOnUse"><stop offset="0" stop-color="#e0dbca"/><stop offset="1" stop-color="#f4f2ec"/></linearGradient><linearGradient id="linear-gradient-28" x1="98.18" y1="119.89" x2="93.12" y2="125.43" gradientUnits="userSpaceOnUse"><stop offset="0" stop-color="#ddd8c5"/><stop offset="1" stop-color="#eeece3"/></linearGradient><linearGradient id="linear-gradient-29" x1="98.1" y1="120.19" x2="93.56" y2="125.17" gradientUnits="userSpaceOnUse"><stop offset="0" stop-color="#dad5c1"/><stop offset="1" stop-color="#e9e5d9"/></linearGradient><linearGradient id="linear-gradient-30" x1="98.02" y1="120.5" x2="94" y2="124.91" gradientUnits="userSpaceOnUse"><stop offset="0" stop-color="#d7d1bc"/><stop offset="1" stop-color="#e3dfcf"/></linearGradient><linearGradient id="linear-gradient-31" x1="97.95" y1="120.8" x2="94.44" y2="124.65" gradientUnits="userSpaceOnUse"><stop offset="0" stop-color="#d5ceb7"/><stop offset="1" stop-color="#ddd8c5"/></linearGradient><linearGradient id="linear-gradient-32" x1="97.87" y1="121.11" x2="94.88" y2="124.39" gradientUnits="userSpaceOnUse"><stop offset="0" stop-color="#d2cbb2"/><stop offset="1" stop-color="#d7d1bc"/></linearGradient><linearGradient id="linear-gradient-33" x1="97.79" y1="121.41" x2="95.32" y2="124.12" gradientUnits="userSpaceOnUse"><stop offset="0" stop-color="#cfc8ad"/><stop offset="1" stop-color="#d2cbb2"/></linearGradient><linearGradient id="linear-gradient-34" x1="25.22" y1="125.3" x2="19.41" y2="120.15" gradientUnits="userSpaceOnUse"><stop offset="0" stop-color="#f4f2ec"/><stop offset="1" stop-color="#d6cfb9"/></linearGradient><linearGradient id="linear-gradient-35" x1="24.92" y1="125.14" x2="19.5" y2="120.33" gradientUnits="userSpaceOnUse"><stop offset="0" stop-color="#eeece3"/><stop offset="1" stop-color="#d4ceb6"/></linearGradient><linearGradient id="linear-gradient-36" x1="24.61" y1="124.98" x2="19.59" y2="120.52" gradientUnits="userSpaceOnUse"><stop offset="0" stop-color="#e9e5d9"/><stop offset="1" stop-color="#d3ccb4"/></linearGradient><linearGradient id="linear-gradient-37" x1="24.31" y1="124.82" x2="19.68" y2="120.71" gradientUnits="userSpaceOnUse"><stop offset="0" stop-color="#e3dfcf"/><stop offset="1" stop-color="#d2cbb2"/></linearGradient><linearGradient id="linear-gradient-38" x1="24.01" y1="124.66" x2="19.77" y2="120.9" gradientUnits="userSpaceOnUse"><stop offset="0" stop-color="#ddd8c5"/><stop offset="1" stop-color="#d0c9af"/></linearGradient><linearGradient id="linear-gradient-39" x1="23.71" y1="124.5" x2="19.86" y2="121.09" gradientUnits="userSpaceOnUse"><stop offset="0" stop-color="#d7d1bc"/><stop offset="1" stop-color="#cfc7ad"/></linearGradient><linearGradient id="linear-gradient-40" x1="23.4" y1="124.34" x2="19.95" y2="121.27" gradientUnits="userSpaceOnUse"><stop offset="0" stop-color="#d2cbb2"/><stop offset="1" stop-color="#cdc6ab"/></linearGradient><linearGradient id="linear-gradient-41" x1="19.66" y1="62.84" x2="15.63" y2="68.47" gradientUnits="userSpaceOnUse"><stop offset="0" stop-color="#beb491"/><stop offset="1" stop-color="#d6cfb9"/></linearGradient><linearGradient id="linear-gradient-42" x1="19.48" y1="62.99" x2="15.73" y2="68.23" gradientUnits="userSpaceOnUse"><stop offset="0" stop-color="#beb490"/><stop offset="1" stop-color="#d2cbb2"/></linearGradient><linearGradient id="linear-gradient-43" x1="19.3" y1="63.14" x2="15.82" y2="67.99" gradientUnits="userSpaceOnUse"><stop offset="0" stop-color="#bdb38f"/><stop offset="1" stop-color="#cec6ab"/></linearGradient><linearGradient id="linear-gradient-44" x1="19.11" y1="63.29" x2="15.92" y2="67.75" gradientUnits="userSpaceOnUse"><stop offset="0" stop-color="#bdb28e"/><stop offset="1" stop-color="#cac2a5"/></linearGradient><linearGradient id="linear-gradient-45" x1="18.93" y1="63.43" x2="16.01" y2="67.51" gradientUnits="userSpaceOnUse"><stop offset="0" stop-color="#bcb28d"/><stop offset="1" stop-color="#c6bd9e"/></linearGradient><linearGradient id="linear-gradient-46" x1="18.75" y1="63.58" x2="16.11" y2="67.27" gradientUnits="userSpaceOnUse"><stop offset="0" stop-color="#bbb18c"/><stop offset="1" stop-color="#c2b997"/></linearGradient><linearGradient id="linear-gradient-47" x1="18.57" y1="63.73" x2="16.21" y2="67.03" gradientUnits="userSpaceOnUse"><stop offset="0" stop-color="#bbb08b"/><stop offset="1" stop-color="#beb490"/></linearGradient><linearGradient id="linear-gradient-48" x1="117.89" y1="59.32" x2="140.48" y2="79.2" gradientUnits="userSpaceOnUse"><stop offset="0" stop-color="#5f6d82"/><stop offset="0.12" stop-color="#6a7d90"/><stop offset="0.52" stop-color="#8cb0bf"/><stop offset="0.83" stop-color="#a2cfdb"/><stop offset="1" stop-color="#aadbe6"/></linearGradient><linearGradient id="linear-gradient-49" x1="127.28" y1="66.34" x2="139.14" y2="82.14" gradientUnits="userSpaceOnUse"><stop offset="0" stop-color="#d2d28e"/><stop offset="0.26" stop-color="#c2c280"/><stop offset="0.77" stop-color="#99995b"/><stop offset="1" stop-color="#848448"/></linearGradient><linearGradient id="linear-gradient-50" x1="116.35" y1="129.91" x2="120.66" y2="134.6" xlink:href="#linear-gradient-18"/><linearGradient id="linear-gradient-51" x1="124.51" y1="119" x2="124.69" y2="122.93" gradientUnits="userSpaceOnUse"><stop offset="0" stop-color="#5f6d82"/><stop offset="0.14" stop-color="#5f7085"/><stop offset="0.23" stop-color="#60788d"/><stop offset="0.31" stop-color="#61879c"/><stop offset="0.38" stop-color="#629cb1"/><stop offset="0.45" stop-color="#64b7cc"/><stop offset="0.46" stop-color="#64bdd1"/><stop offset="1" stop-color="#d8eff4"/></linearGradient><linearGradient id="linear-gradient-52" x1="125.19" y1="114.2" x2="125.35" y2="117.66" xlink:href="#linear-gradient-51"/><linearGradient id="linear-gradient-53" x1="125.69" y1="109.18" x2="125.84" y2="112.54" xlink:href="#linear-gradient-51"/><linearGradient id="linear-gradient-54" x1="126.46" y1="104.18" x2="126.61" y2="107.46" xlink:href="#linear-gradient-51"/><linearGradient id="linear-gradient-55" x1="126.95" y1="98.94" x2="127.13" y2="102.78" xlink:href="#linear-gradient-51"/><linearGradient id="linear-gradient-56" x1="127.64" y1="93.76" x2="127.82" y2="97.7" xlink:href="#linear-gradient-51"/><linearGradient id="linear-gradient-57" x1="128.18" y1="88.8" x2="128.35" y2="92.56" xlink:href="#linear-gradient-51"/><linearGradient id="linear-gradient-58" x1="113.62" y1="127.4" x2="118.42" y2="131.76" gradientUnits="userSpaceOnUse"><stop offset="0" stop-color="#fff"/><stop offset="0.03" stop-color="#dee1e5"/><stop offset="0.15" stop-color="#5f6d82"/><stop offset="0.5" stop-color="#c4c9d1"/><stop offset="0.53" stop-color="#b2b9c3"/><stop offset="0.61" stop-color="#949dac"/><stop offset="0.69" stop-color="#7d8899"/><stop offset="0.78" stop-color="#6c798c"/><stop offset="0.88" stop-color="#627084"/><stop offset="1" stop-color="#5f6d82"/></linearGradient><linearGradient id="linear-gradient-59" x1="115.21" y1="127.91" x2="116.82" y2="131.28" gradientUnits="userSpaceOnUse"><stop offset="0" stop-color="#e7e9ec"/><stop offset="0.14" stop-color="#dcdfe3"/><stop offset="0.39" stop-color="#bfc4cd"/><stop offset="0.71" stop-color="#9099a8"/><stop offset="1" stop-color="#5f6d82"/></linearGradient><linearGradient id="linear-gradient-60" x1="131.37" y1="129.91" x2="135.68" y2="134.6" xlink:href="#linear-gradient-18"/><linearGradient id="linear-gradient-61" x1="128.64" y1="127.4" x2="133.44" y2="131.76" xlink:href="#linear-gradient-58"/><linearGradient id="linear-gradient-62" x1="130.23" y1="127.91" x2="131.84" y2="131.28" xlink:href="#linear-gradient-59"/><linearGradient id="linear-gradient-63" x1="143.34" y1="49.4" x2="151.29" y2="58.04" xlink:href="#linear-gradient-18"/><linearGradient id="linear-gradient-64" x1="140.69" y1="48.69" x2="148.52" y2="53.45" gradientUnits="userSpaceOnUse"><stop offset="0" stop-color="#fff"/><stop offset="0.08" stop-color="#dee1e5"/><stop offset="0.38" stop-color="#5f6d82"/><stop offset="0.58" stop-color="#c4c9d1"/><stop offset="0.61" stop-color="#b2b9c3"/><stop offset="0.67" stop-color="#949dac"/><stop offset="0.74" stop-color="#7d8899"/><stop offset="0.82" stop-color="#6c798c"/><stop offset="0.9" stop-color="#627084"/><stop offset="1" stop-color="#5f6d82"/></linearGradient><linearGradient id="linear-gradient-65" x1="143.06" y1="49.1" x2="146.37" y2="53.17" gradientUnits="userSpaceOnUse"><stop offset="0.15" stop-color="#fff"/><stop offset="0.16" stop-color="#dee1e5"/><stop offset="0.21" stop-color="#5f6d82"/><stop offset="0.44" stop-color="#c4c9d1"/><stop offset="1" stop-color="#5f6d82"/></linearGradient><linearGradient id="linear-gradient-66" x1="129.64" y1="61.89" x2="115.4" y2="54.16" gradientTransform="translate(3.39 17.27) rotate(-2.83)" gradientUnits="userSpaceOnUse"><stop offset="0" stop-color="#c4c9d1"/><stop offset="0.03" stop-color="#b2b9c3"/><stop offset="0.1" stop-color="#949dac"/><stop offset="0.17" stop-color="#7d8899"/><stop offset="0.25" stop-color="#6c798c"/><stop offset="0.33" stop-color="#627084"/><stop offset="0.44" stop-color="#5f6d82"/><stop offset="0.66" stop-color="#fff"/><stop offset="0.73" stop-color="#dee1e5"/><stop offset="1" stop-color="#5f6d82"/></linearGradient><linearGradient id="linear-gradient-67" x1="127.28" y1="51" x2="118.68" y2="65.88" gradientTransform="matrix(0.48, 0.88, -0.88, 0.48, 120.86, -66.61)" gradientUnits="userSpaceOnUse"><stop offset="0" stop-color="#8f99a8"/><stop offset="0.44" stop-color="#778395"/><stop offset="0.45" stop-color="#8993a3"/><stop offset="0.46" stop-color="#a8b0bc"/><stop offset="0.47" stop-color="#c4c9d1"/><stop offset="0.48" stop-color="#dadde2"/><stop offset="0.5" stop-color="#ebecef"/><stop offset="0.52" stop-color="#f6f7f8"/><stop offset="0.55" stop-color="#fdfdfe"/><stop offset="0.63" stop-color="#fff"/><stop offset="0.7" stop-color="#e8eaed"/><stop offset="0.77" stop-color="#d7dbe0"/><stop offset="0.82" stop-color="#d1d5db"/><stop offset="0.87" stop-color="#cbcfd6"/><stop offset="0.95" stop-color="#b9c0c8"/><stop offset="1" stop-color="#a7afba"/></linearGradient><linearGradient id="linear-gradient-68" x1="57.9" y1="73.12" x2="57.53" y2="57.75" gradientUnits="userSpaceOnUse"><stop offset="0.08" stop-color="#fff"/><stop offset="0.19" stop-color="#f5f6f7"/><stop offset="0.38" stop-color="#dbdee3"/><stop offset="0.62" stop-color="#b1b8c2"/><stop offset="0.9" stop-color="#778395"/><stop offset="1" stop-color="#5f6d82"/></linearGradient><radialGradient id="radial-gradient-2" cx="57.11" cy="92.82" r="23.45" gradientUnits="userSpaceOnUse"><stop offset="0" stop-color="#fff"/><stop offset="0.09" stop-color="#f8f8f8"/><stop offset="0.22" stop-color="#e4e4e4"/><stop offset="0.37" stop-color="#c4c4c4"/><stop offset="0.54" stop-color="#989898"/><stop offset="0.73" stop-color="#5f5f5f"/><stop offset="0.93" stop-color="#1a1a1a"/><stop offset="1"/></radialGradient><radialGradient id="radial-gradient-3" cx="57.6" cy="92.43" r="30.76" gradientUnits="userSpaceOnUse"><stop offset="0" stop-color="#fff"/><stop offset="0.05" stop-color="#e7e9ec"/><stop offset="0.13" stop-color="#c3c8d0"/><stop offset="0.22" stop-color="#a4acb8"/><stop offset="0.32" stop-color="#8a95a4"/><stop offset="0.43" stop-color="#778395"/><stop offset="0.55" stop-color="#69768a"/><stop offset="0.71" stop-color="#616f84"/><stop offset="1" stop-color="#5f6d82"/></radialGradient><linearGradient id="linear-gradient-69" x1="50.58" y1="67.57" x2="61.94" y2="100.64" gradientUnits="userSpaceOnUse"><stop offset="0" stop-color="#d7dae0"/><stop offset="1" stop-color="#5f6d82"/></linearGradient></defs><g class="cls-1"><g id="Layer_2" data-name="Layer 2"><g id="Layer_1-2" data-name="Layer 1"><rect class="cls-2" x="112.55" y="7.81" width="17.11" height="0.91" transform="translate(18.36 72.89) rotate(-36.07)"/><polygon class="cls-3" points="114.91 13.6 113.92 12.34 96.81 24.2 96.32 23.56 73.83 39.8 77.04 41.82 98.27 26.08 97.83 25.51 114.91 13.6"/><polygon class="cls-4" points="97.93 25.89 97.59 25.4 114.31 13.79 114.2 13.66 114.71 13.39 115.19 13.91 97.93 25.89"/><rect class="cls-5" x="20.42" y="3.28" width="0.91" height="8.7" transform="translate(1.23 18.02) rotate(-47.97)"/><polygon class="cls-3" points="40.23 23.75 39.71 24.3 24.5 9.88 23.56 10.98 38.59 25.47 38.05 26.04 56.83 44.05 59.37 41.69 40.23 23.75"/><polygon class="cls-6" points="97.5 25.29 97.09 24.49 113.99 12.59 114.46 13.2 97.5 25.29"/><polygon class="cls-7" points="56.62 44.26 37.84 26.26 39.23 24.77 58.02 42.78 56.62 44.26"/><polygon class="cls-8" points="38.13 26.51 37.84 26.26 40.16 23.73 40.45 23.98 38.13 26.51"/><polygon class="cls-9" points="77.22 42.06 76.59 41.3 97.77 25.65 96.81 24.2 97.12 23.98 98.69 26.14 77.22 42.06"/><rect class="cls-10" x="112.8" y="7.93" width="16.73" height="0.3" transform="translate(18.88 73.53) rotate(-36.43)"/><rect class="cls-11" x="30.77" y="7.78" width="0.6" height="20.85" transform="translate(-3.6 27.95) rotate(-46.07)"/><polygon class="cls-12" points="38.85 24.81 23.84 10.85 24.5 10.17 39.64 24.14 38.85 24.81"/><path class="cls-13" d="M70.52,45.85q5.66-.43,11.3-.83a15.09,15.09,0,0,0-13.33-9.8C61.24,35,55,40.17,53.24,47.37,58.88,46.82,64.67,46.31,70.52,45.85Z"/><polygon class="cls-14" points="131.33 3.42 128.62 0 127.77 2.69 128.49 3.66 131.33 3.42"/><polygon class="cls-15" points="17.5 1.83 14.7 5.18 17.51 5.47 18.31 4.56 17.5 1.83"/><polygon points="128.39 3.9 127.69 2.99 127.86 2.54 128.6 3.45 130.96 3.03 131.39 3.51 128.39 3.9"/><polygon class="cls-16" points="23.86 10.51 18.36 5.45 18.32 4.97 24.12 10.22 23.86 10.51"/><polygon points="17.63 5.79 14.53 5.37 15.04 4.8 17.49 5.25 18.22 4.3 18.39 4.82 17.63 5.79"/><polygon class="cls-17" points="128.73 0.35 128.03 2.67 128.24 2.95 129.36 1.18 128.73 0.35"/><polygon class="cls-17" points="14.83 5.43 17.61 2.17 17.5 1.83 14.53 5.37 14.83 5.43"/><polygon class="cls-18" points="48.48 141.25 32.11 141.37 20.52 176.97 25.71 178.79 48.48 141.25"/><polygon class="cls-19" points="20.34 187.64 25.71 178.79 20.52 176.97 17.4 186.53 20.34 187.64"/><polygon class="cls-18" points="48.48 141.25 32.11 141.37 20.52 176.97 25.71 178.79 48.48 141.25"/><polygon class="cls-19" points="20.34 187.64 25.71 178.79 20.52 176.97 17.4 186.53 20.34 187.64"/><path class="cls-20" d="M25.71,178.79l22.77-37.54-16.37.12-1.38,4.24c5-2.56,9.7-1.23,8.36,5.85-.52,2.73-2.05,5.41-3.86,8.63-.76,1.36-6.18,10.95-10.39,18.39l.87.31Z"/><path class="cls-21" d="M20.34,187.64l5.37-8.85h0l-.87-.31-5.05,9Z"/><path class="cls-22" d="M70.1,141.49l5.76,34.3a2.68,2.68,0,0,0,1.5.4,2.13,2.13,0,0,0,1.31-.52l5.89-34.55Z"/><polygon class="cls-23" points="75.86 175.79 76.43 176.04 73.15 141.41 70.11 141.49 75.86 175.79"/><path class="cls-24" d="M118.44,147.72c-4-3.32-8.49-.68-8.34,4.15s3.71,9.56,5.67,13.84c1.54,3.36,5,10.37,8.06,16.53l5.15-1.48-8-29.64A11.1,11.1,0,0,0,118.44,147.72Z"/><path class="cls-25" d="M115.77,165.71c-2-4.28-5.52-9.07-5.67-13.84s4.38-7.47,8.34-4.15a11.1,11.1,0,0,1,2.54,3.4l-2.66-9.87-18,.24,22.14,41.15,1.41-.4C120.78,176.08,117.31,169.07,115.77,165.71Z"/><path class="cls-19" d="M127.62,190l3.61-.85L129,180.76l-5.15,1.48C125.27,185.17,126.62,187.91,127.62,190Z"/><polygon class="cls-26" points="127.62 189.97 127.62 189.97 126.5 190.23 127.62 189.97"/><path class="cls-21" d="M127.62,190c-1-2.06-2.35-4.8-3.79-7.73l-1.41.4,4.08,7.59Z"/><polygon class="cls-27" points="22.39 177.6 18.33 186.87 17.96 186.72 21.7 177.31 22.39 177.6"/><polygon class="cls-27" points="124.93 181.98 127.9 189.83 127.53 189.98 124.23 182.26 124.93 181.98"/><path class="cls-28" d="M18.61,135.82c.5,3,1.75,6.66,8,6.75,32.5.5,71.5.75,98.25,0,6.79-.19,6.75-5,7-7.5Z"/><path class="cls-29" d="M124.09,139.42c-26.23-.6-64.48-.4-96.36,0-3.11,0-5,.82-6.09,1.88a9.13,9.13,0,0,0,5,1.27c32.5.5,71.5.75,98.25,0a7.74,7.74,0,0,0,4.63-1.36C128.55,140.23,126.93,139.49,124.09,139.42Z"/><path class="cls-30" d="M4.21,52.74c19.41-3.05,44.49-5.83,70.71-8,26.8-2.25,53.55-4,77.88-4.69,2.36-.07,4.35,2.33,3.88,5.44-4.22,28.19-11.18,64.63-17.1,87.62a5.22,5.22,0,0,1-4.5,3.63c-38.64,1-91.15,1.39-121.23,0-2-.09-3.55-2.3-3.94-3.86-4.76-19-8.25-52.59-9.89-74C-.19,56.13,1.13,53.22,4.21,52.74Z"/><path class="cls-31" d="M156.73,44.09l-2.62,2.48-7,39-134,46.25-2.28,2.91a4.25,4.25,0,0,0,3,2c30.26,2,82.63,1.77,121.23,0a5.28,5.28,0,0,0,4.5-3.63c5.92-23,12.88-59.43,17.1-87.62A6.4,6.4,0,0,0,156.73,44.09Z"/><path class="cls-32" d="M153.48,40.08l-3.31,3.18,2.62,4.88,3.92-2.91C157,42.54,155.47,40.43,153.48,40.08Z"/><path class="cls-33" d="M4.11,58.32.5,55.72A6.83,6.83,0,0,0,0,58.83c1.64,21.4,5.13,55,9.89,74a5.82,5.82,0,0,0,.94,1.93l2.26-2.93Z"/><path class="cls-10" d="M1.2,59.91a11.51,11.51,0,0,1,.07-4.29c.69-1.89,3-2.47,7.3-3.08C17.46,51.26,29,49.87,38,48.93c12.13-1.28,24.2-2.54,36.38-3.29q-14.3,1.53-28.57,3.08Q36.16,49.79,26.54,51c-6.36.82-14.13,2.07-20.48,2.95C1.9,54.55,1.93,56.26,2,59.63,2.08,63.34,3.56,79.9,3.56,79.9,2.58,72.35,1.88,66.44,1.2,59.91Z"/><path class="cls-34" d="M67.49,136.14c-21.82,0-40.27-.33-53.36-.95-1.14-.05-2.3-1.68-2.56-2.73-4.46-17.8-8-49.76-9.85-73.74-.11-1.48.38-4.09,2.93-4.49,18.74-2.94,43.16-5.72,70.6-8C104.78,43.73,131,42.15,153,41.53h.06a2.12,2.12,0,0,1,1.59.78,3.68,3.68,0,0,1,.71,2.94c-4.47,29.82-11.49,65.79-17.07,87.46a3.71,3.71,0,0,1-3.09,2.51C113.91,135.8,89.22,136.14,67.49,136.14Z"/><path class="cls-35" d="M103.81,81.9C78,110.14,38.34,80.61,19.68,81c-4.42.09-8.56,10.26-9,6.46-.44-3.57-1.43-4.2-6.3-.68-.35-2.62-.88-8-1.05-9.88,1.2.7,5.57,2.35,6.57-1.8,3.53-14.79,2.49.88,9.45,2C32.48,79.2,55.39,78.55,69,78.19c9-.25,15.24-1.1,23.93-4.38,6.76-2.55,10.59-15.27,16.32-14.24-.06,7.86-.22,16.94-.42,26.17C108.16,79.18,105.32,80.25,103.81,81.9Zm38.13-19.42c-5.49-9.73-19.33-11.2-26.47-.43-3.59,5.41-5.47,1.92-6,6,0,3.87-.12,7.91-.21,12,1,.45,2.2-.81,3.78-2.36s3.75,3.19,7.5,4.88C123.76,84.08,138,61.48,141,73.88c.73,3-1.58,6.82.89,4.75,2.62-2.2,7.42-6.91,8.26-1.76.58-3.22,1.15-6.45,1.71-9.67C153,60.63,145.05,68,141.94,62.48Z"/><path d="M51.23,130.23c-13.41,0-26.19-.11-36-.31h-.31l0-.31c-2.46-16.93-4.64-48.37-5.44-69.36l0-.34.34,0c27.18-4,70.83-7.46,95.32-7.62h.36l0,.36c1,19.36.1,57.65-.93,76.58l0,.35h-.35C90.44,130,71.65,130.23,51.23,130.23Z"/><path class="cls-36" d="M9.81,60.23c27.67-4,71.49-7.46,95.27-7.62.94,19,.16,56.57-.93,76.54-25.95.86-66.21.86-88.9.39C12.77,112.45,10.59,80.58,9.81,60.23Z"/><path class="cls-22" d="M9.44,60.24l0-.34.34,0c25.85-3.77,66.61-7.11,91.6-7.57,1-.05,2.1-.1,3.16-.17-8-.07-15.94.38-23.9.8s-15.91,1-23.85,1.59S40.88,55.84,33,56.66,17.11,58.41,9.22,59.54l-.16.2c.48,11.58,1.2,23.16,2.08,34.71q.67,8.67,1.5,17.33c.53,5.29,1.11,10.79,2,16.07C12.27,110.58,10.21,80.53,9.44,60.24Z"/><path class="cls-37" d="M104.74,70.63c0-6.49-.15-12.43-.37-17.26C80,53.59,37.5,57,10.59,60.87c.17,4.46.41,9.37.69,14.49Z"/><path class="cls-38" d="M14.65,118.55c.4,3.77.82,7.23,1.25,10.25,9.7.2,22.22.3,35.33.3,20.07,0,38.56-.24,52.21-.67.19-3.53.37-7.69.53-12.24Z"/><path class="cls-39" d="M24.26,71.26,10.59,60.87C11.4,81.56,13.51,112,15.9,128.8l10.51-11.35Z"/><path class="cls-40" d="M104.37,53.37,91.7,65.57l-3.92,49.35,15.66,13.51C104.44,109.53,105.25,72.66,104.37,53.37Z"/><path class="cls-41" d="M100.2,53.43,87,63.88c1.84.13,6.16,4.25,6.36,6.29l11.08-15.11c0-.58,0-1.15-.07-1.69Z"/><path class="cls-42" d="M93.12,110.69c-.2,1.81-6.83,8.9-7.79,9l14.27,8.82,3.84-.11c.06-1.12.12-2.3.17-3.53Z"/><path class="cls-43" d="M93,111.31c-.2,1.81-6.06,8.1-7,8.23l14,9,3.48-.1c0-1,.11-2.09.16-3.18Z"/><path class="cls-44" d="M92.8,111.92c-.2,1.82-5.3,7.32-6.25,7.45l13.77,9.15,3.12-.09c0-.85.09-1.87.14-2.83Z"/><path class="cls-45" d="M92.64,112.54c-.2,1.82-4.53,6.52-5.49,6.65l13.53,9.33,2.76-.09c0-.71.08-1.66.12-2.48Z"/><path class="cls-46" d="M92.48,113.16c-.21,1.81-3.76,5.72-4.72,5.85l13.28,9.5,2.4-.08c0-.57.07-1.44.1-2.13Z"/><path class="cls-47" d="M92.31,113.78c-.2,1.81-3,4.92-4,5l13,9.67c.57,0,1.51,0,2-.07,0-.43.06-1.23.08-1.78Z"/><path class="cls-48" d="M92.15,114.39c-.2,1.82-2.22,4.13-3.18,4.26l12.79,9.84c.42,0,1.3,0,1.68-.06,0-.29,0-1,.06-1.43Z"/><path class="cls-49" d="M92,115c-.2,1.82-1.45,3.34-2.41,3.47l12.54,10c.27,0,1.08,0,1.32,0,0-.16,0-.8,0-1.07Z"/><path class="cls-50" d="M23.36,111.89l0,.5-7.95,12.86c.16,1.24.31,2.43.47,3.55l2.82.06,10.55-8.45C28.2,120.32,23.75,114.36,23.36,111.89Z"/><path class="cls-51" d="M23.53,112.25v.46l-8,12.9c.13,1.07.28,2.17.42,3.19l2.53,0,10.64-8.7C28,120.07,23.92,114.72,23.53,112.25Z"/><path class="cls-52" d="M23.69,112.61l0,.43L15.52,126c.12.89.25,1.9.38,2.82l2.25,0,10.71-8.95C27.8,119.82,24.08,115.08,23.69,112.61Z"/><path class="cls-53" d="M23.86,113l-.06.39-8.23,13c.09.71.21,1.63.33,2.45l2,0,10.8-9.19C27.6,119.56,24.25,115.44,23.86,113Z"/><path class="cls-54" d="M24,113.33l-.08.36-8.32,13c.07.53.17,1.36.28,2.08l1.67,0,10.89-9.45C27.4,119.31,24.41,115.8,24,113.33Z"/><path class="cls-55" d="M24.19,113.69l-.11.32-8.41,13.08c0,.35.13,1.09.23,1.71l1.38,0,11-9.69C27.2,119.06,24.58,116.16,24.19,113.69Z"/><path class="cls-56" d="M24.35,114.06l-.13.28-8.5,13.11c0,.18.1.83.18,1.35l1.09,0,11.07-9.94C27,118.81,24.74,116.52,24.35,114.06Z"/><path class="cls-49" d="M24.52,114.42l-.16.25-8.59,13.15s.06.56.13,1c.3,0,.8,0,.8,0l11.16-10.19C26.8,118.55,24.91,116.89,24.52,114.42Z"/><path class="cls-57" d="M10.66,62.75,21.49,73.67c.13-1.68,4-6.25,5.57-6.53L15,60.26c-1.5.2-3,.4-4.39.61C10.61,61.49,10.64,62.12,10.66,62.75Z"/><path class="cls-58" d="M10.66,62.6l11,10.79c.18-1.61,3.68-5.77,5.18-6.09l-12.18-7-4,.56C10.61,61.42,10.64,62.05,10.66,62.6Z"/><path class="cls-59" d="M10.65,62.44,21.74,73.1c.25-1.53,3.37-5.28,4.79-5.64L14.27,60.35l-3.68.52C10.61,61.35,10.63,62,10.65,62.44Z"/><path class="cls-60" d="M10.65,62.28,21.87,72.81c.3-1.46,3.05-4.79,4.4-5.19L13.91,60.4l-3.32.47C10.61,61.28,10.63,61.92,10.65,62.28Z"/><path class="cls-61" d="M10.64,62.13,22,72.52c.35-1.38,2.72-4.3,4-4.74L13.55,60.45c-.93.12-2.21.31-3,.42C10.6,61.22,10.63,61.85,10.64,62.13Z"/><path class="cls-62" d="M10.63,62,22.12,72.23c.42-1.3,2.41-3.81,3.62-4.3L13.19,60.5c-.79.1-2,.29-2.6.37C10.6,61.15,10.63,61.79,10.63,62Z"/><path class="cls-63" d="M10.63,61.81,22.25,72a9,9,0,0,1,3.22-3.86L12.84,60.54l-2.25.33C10.6,61.08,10.62,61.72,10.63,61.81Z"/><path class="cls-64" d="M10.62,61.65l11.75,10a8.56,8.56,0,0,1,2.84-3.41L12.48,60.59l-1.89.28C10.6,61,10.62,61.65,10.62,61.65Z"/><path d="M107.91,137.32l-.37,0c.8-19.88,2.48-75.49,1.86-95.1h.38C110.39,61.81,108.72,117.43,107.91,137.32Z"/><path class="cls-65" d="M108,135.79h.37c.81-20.59,2.33-72,1.85-92.21l-.38,0C110.3,63.8,108.77,115.22,108,135.79Z"/><ellipse class="cls-66" cx="129.25" cy="69.32" rx="15.44" ry="15.9"/><ellipse class="cls-21" cx="129.44" cy="69.28" rx="14.69" ry="14.96"/><ellipse class="cls-67" cx="129.88" cy="69.79" rx="14.25" ry="14.45"/><path class="cls-68" d="M133,62.15a1.42,1.42,0,0,0-.5-.15,8.57,8.57,0,0,0-10.74,8.47A8.8,8.8,0,0,0,125,77.28a20.71,20.71,0,0,0,1.65,2.94c.42,0,2.24-.18,2.78-.26a7.2,7.2,0,0,0,.64-.74h.32c4.73,0,8.26-4,8.26-8.82C138.64,66.52,136.06,63.79,133,62.15Z"/><path class="cls-69" d="M119.73,129.71a3.38,3.38,0,0,0-6.74.22A3.29,3.29,0,0,0,115.2,133a2.84,2.84,0,0,0,2.34,1.2,2.79,2.79,0,0,0,2.83-2.75A2.71,2.71,0,0,0,119.73,129.71Z"/><path class="cls-70" d="M112.86,122.44a1.41,1.41,0,1,1,0-2.81l23.48-.16a1.41,1.41,0,0,1,1.42,1.39,1.39,1.39,0,0,1-.41,1,1.36,1.36,0,0,1-1,.42l-23.49.16Z"/><path class="cls-71" d="M113,117.66a1.4,1.4,0,0,1-1.4-1.37,1.45,1.45,0,0,1,.38-1,1.42,1.42,0,0,1,1-.44l24.56-.65a1.4,1.4,0,0,1,1.39,1.37,1.38,1.38,0,0,1-.38,1,1.42,1.42,0,0,1-1,.44Z"/><path class="cls-72" d="M113,112.66a1.41,1.41,0,0,1,0-2.82l25.55-.79a1.41,1.41,0,0,1,0,2.81Z"/><path class="cls-73" d="M113.33,107.67a1.41,1.41,0,0,1-1-2.37,1.38,1.38,0,0,1,1-.44l26.45-.91a1.41,1.41,0,0,1,0,2.81Z"/><path class="cls-74" d="M113.39,102.46a1.41,1.41,0,0,1,0-2.81l27.31-.42a1.43,1.43,0,0,1,1.43,1.38,1.41,1.41,0,0,1-1.38,1.43l-27.31.42Z"/><path class="cls-75" d="M113.6,97.31a1.41,1.41,0,0,1,0-2.82l28.27-.37a1.41,1.41,0,0,1,0,2.81l-28.27.38Z"/><path class="cls-76" d="M113.71,92.36a1.41,1.41,0,0,1,0-2.81L142.79,89a1.43,1.43,0,0,1,1.44,1.38,1.39,1.39,0,0,1-.39,1,1.41,1.41,0,0,1-1,.43Z"/><path d="M112.86,122.06a1,1,0,1,1,0-2.06l23.48-.16h0a1,1,0,0,1,0,2.06l-23.49.16Zm.15-4.78a1,1,0,0,1,0-2.06l24.51-.66a1,1,0,0,1,1.06,1,1,1,0,0,1-1,1.05l-24.52.66Zm0-5a1,1,0,0,1,0-2.06l25.51-.8a1,1,0,0,1,1.06,1,1,1,0,0,1-1,1.06l-25.51.8Zm.32-5a1,1,0,0,1,0-2.06l26.41-.9h0a1,1,0,0,1,0,2.06l-26.41.9Zm.06-5.21a1,1,0,0,1-1-1,1,1,0,0,1,1-1l27.31-.41a1,1,0,1,1,0,2.06l-27.31.41Zm.21-5.15a1,1,0,0,1,0-2.06l28.26-.37h0a1,1,0,0,1,0,2.06l-28.27.37Zm.11-4.94a1,1,0,0,1-1-1,1,1,0,0,1,1-1l29.12-.59h0a1,1,0,0,1,0,2.06L113.73,92Z"/><path class="cls-77" d="M119.37,129.56a3.38,3.38,0,1,1-3.38-3.29A3.33,3.33,0,0,1,119.37,129.56Z"/><g class="cls-78"><path d="M115.91,126.62c.36.39,0,1.29-.74,2s-1.69,1-2,.61,0-1.29.75-2S115.55,126.24,115.91,126.62Z"/><path class="cls-79" d="M115.88,126.64c.35.38,0,1.26-.73,2s-1.66,1-2,.6,0-1.26.73-2S115.52,126.26,115.88,126.64Z"/><path class="cls-80" d="M115.84,126.66c.35.37,0,1.23-.72,1.92s-1.62.95-2,.58,0-1.23.72-1.92S115.49,126.29,115.84,126.66Z"/><path class="cls-81" d="M115.8,126.68c.34.36,0,1.2-.7,1.88s-1.59.94-1.93.57,0-1.21.7-1.88S115.46,126.31,115.8,126.68Z"/><path class="cls-82" d="M115.77,126.69c.33.36,0,1.19-.69,1.85s-1.56.92-1.9.56,0-1.18.69-1.85S115.43,126.34,115.77,126.69Z"/><path class="cls-83" d="M115.73,126.71c.32.35,0,1.16-.68,1.81s-1.53.9-1.85.55,0-1.16.67-1.81S115.4,126.36,115.73,126.71Z"/><path class="cls-84" d="M115.69,126.73c.32.34,0,1.13-.66,1.77s-1.5.88-1.82.54,0-1.14.67-1.78S115.37,126.39,115.69,126.73Z"/><path class="cls-85" d="M115.65,126.74c.32.34,0,1.12-.64,1.74s-1.47.86-1.78.53,0-1.11.65-1.74S115.34,126.41,115.65,126.74Z"/><path class="cls-86" d="M115.62,126.76c.3.33,0,1.09-.64,1.7s-1.43.84-1.74.52,0-1.09.64-1.7S115.31,126.44,115.62,126.76Z"/><path class="cls-87" d="M115.58,126.78c.3.32,0,1.06-.62,1.66s-1.4.82-1.7.5,0-1.06.62-1.66S115.28,126.46,115.58,126.78Z"/><path class="cls-88" d="M115.54,126.8c.29.31,0,1-.61,1.62s-1.37.8-1.66.49,0-1,.61-1.62S115.25,126.49,115.54,126.8Z"/><path class="cls-89" d="M115.51,126.81c.28.31,0,1-.6,1.59s-1.34.79-1.62.48,0-1,.59-1.58S115.22,126.51,115.51,126.81Z"/><path class="cls-90" d="M115.47,126.83c.28.3,0,1-.58,1.55s-1.31.77-1.59.47,0-1,.58-1.55S115.19,126.53,115.47,126.83Z"/><path class="cls-91" d="M115.43,126.85c.27.29,0,1-.57,1.51s-1.27.75-1.54.46,0-1,.57-1.51S115.16,126.56,115.43,126.85Z"/><path class="cls-92" d="M115.39,126.87c.27.28,0,.94-.55,1.47s-1.24.73-1.51.45,0-.94.56-1.47S115.13,126.58,115.39,126.87Z"/><path class="cls-93" d="M115.36,126.88c.25.28,0,.92-.54,1.44s-1.22.71-1.47.44,0-.92.54-1.44S115.1,126.61,115.36,126.88Z"/><path class="cls-94" d="M115.32,126.9c.25.27,0,.89-.53,1.4s-1.18.69-1.43.43,0-.9.53-1.4S115.07,126.63,115.32,126.9Z"/><path class="cls-95" d="M115.28,126.92c.25.26,0,.87-.51,1.36s-1.15.67-1.39.41,0-.86.51-1.35S115,126.66,115.28,126.92Z"/><path class="cls-96" d="M115.25,126.94c.23.25,0,.84-.5,1.32s-1.12.65-1.36.4,0-.84.5-1.32S115,126.68,115.25,126.94Z"/><path class="cls-97" d="M115.21,127c.23.25,0,.82-.49,1.29s-1.08.64-1.31.39,0-.82.49-1.28S115,126.71,115.21,127Z"/><path class="cls-98" d="M115.17,127c.22.24,0,.79-.47,1.24s-1,.63-1.28.39,0-.79.48-1.24S115,126.73,115.17,127Z"/><path class="cls-99" d="M115.13,127c.22.23,0,.77-.45,1.2s-1,.61-1.24.38,0-.77.46-1.21S114.92,126.76,115.13,127Z"/><path class="cls-100" d="M115.1,127c.21.23,0,.75-.45,1.17s-1,.59-1.2.37,0-.75.45-1.17S114.89,126.78,115.1,127Z"/><path class="cls-101" d="M115.06,127c.2.22,0,.72-.43,1.13s-1,.57-1.16.36,0-.73.43-1.14S114.86,126.81,115.06,127Z"/><path class="cls-102" d="M115,127c.2.21,0,.7-.42,1.09s-.92.55-1.12.34,0-.69.42-1.09S114.83,126.83,115,127Z"/><path class="cls-103" d="M115,127.06c.18.2,0,.67-.41,1.05s-.89.53-1.08.33,0-.67.4-1S114.8,126.86,115,127.06Z"/><path class="cls-104" d="M115,127.07c.18.2,0,.65-.39,1s-.87.51-1,.32,0-.65.4-1S114.77,126.88,115,127.07Z"/><path class="cls-105" d="M114.91,127.09c.18.19,0,.63-.38,1s-.83.5-1,.31,0-.62.38-1S114.74,126.91,114.91,127.09Z"/><path class="cls-106" d="M114.87,127.11c.17.18,0,.6-.36.94s-.8.48-1,.3,0-.6.37-.94S114.71,126.93,114.87,127.11Z"/><path class="cls-10" d="M114.84,127.13c.16.17,0,.57-.35.9s-.77.46-.93.29,0-.58.35-.91S114.68,127,114.84,127.13Z"/></g><path class="cls-10" d="M113.41,131.55a3.11,3.11,0,0,1-.73-2,3.28,3.28,0,0,1,.65-2,3.35,3.35,0,0,1,1.74-1.17,3.2,3.2,0,0,1,2.05.11,3.52,3.52,0,0,0-2,0,3.28,3.28,0,0,0-1.63,1.15,3.16,3.16,0,0,0-.66,1.89A3.34,3.34,0,0,0,113.41,131.55Z"/><path class="cls-107" d="M119.37,129.56a3.29,3.29,0,0,0-.37-1.5,3.35,3.35,0,0,1,0,2.47,4,4,0,0,1-1.81-1.93l-2.44,1.89a4.1,4.1,0,0,1,.79,2.23,3.84,3.84,0,0,1-2.08-1,3.39,3.39,0,0,0,2.51,1.1A3.33,3.33,0,0,0,119.37,129.56Z"/><path class="cls-108" d="M117.68,129.56a1.69,1.69,0,1,1-1.69-1.64A1.67,1.67,0,0,1,117.68,129.56Z"/><path class="cls-109" d="M117.15,130.41l-1.15-.85.43,1.35A1.47,1.47,0,0,0,117.15,130.41Z"/><path class="cls-110" d="M117.14,130.42l-1.14-.86.45,1.34A1.42,1.42,0,0,0,117.14,130.42Z"/><path class="cls-111" d="M117.14,130.43l-1.14-.87.47,1.33A1.4,1.4,0,0,0,117.14,130.43Z"/><path class="cls-112" d="M117.13,130.44l-1.13-.88.49,1.32A1.35,1.35,0,0,0,117.13,130.44Z"/><path class="cls-113" d="M117.12,130.45l-1.12-.89.51,1.32A1.31,1.31,0,0,0,117.12,130.45Z"/><path class="cls-114" d="M117.11,130.45l-1.11-.89.53,1.31A1.21,1.21,0,0,0,117.11,130.45Z"/><path class="cls-115" d="M117.1,130.46l-1.1-.9.55,1.3A1.21,1.21,0,0,0,117.1,130.46Z"/><path class="cls-116" d="M117.1,130.47l-1.1-.91.57,1.29A1.22,1.22,0,0,0,117.1,130.47Z"/><path class="cls-117" d="M117.09,130.48l-1.09-.92.59,1.28A1.17,1.17,0,0,0,117.09,130.48Z"/><path class="cls-118" d="M117.08,130.49l-1.08-.93.61,1.27A1.12,1.12,0,0,0,117.08,130.49Z"/><path class="cls-119" d="M117.07,130.49l-1.07-.93.64,1.26A1,1,0,0,0,117.07,130.49Z"/><path class="cls-120" d="M117.06,130.5l-1.06-.94.66,1.26A1.09,1.09,0,0,0,117.06,130.5Z"/><path class="cls-121" d="M117.06,130.51l-1.06-.95.68,1.25A1.29,1.29,0,0,0,117.06,130.51Z"/><path class="cls-109" d="M117.15,130.41a1.28,1.28,0,0,0,.27-.59l-1.42-.26Z"/><path class="cls-122" d="M116.83,128.4l-.83,1.16,1.42.26a1.15,1.15,0,0,0,0-.26A1.42,1.42,0,0,0,116.83,128.4Z"/><path class="cls-123" d="M116.85,128.42l-.85,1.14,1.43.24a2.46,2.46,0,0,0,0-.26A1.39,1.39,0,0,0,116.85,128.42Z"/><path class="cls-124" d="M116.87,128.43l-.87,1.13,1.43.22a1.22,1.22,0,0,0,0-.27A1.38,1.38,0,0,0,116.87,128.43Z"/><path class="cls-125" d="M116.89,128.45l-.89,1.11,1.43.2a1.22,1.22,0,0,0,0-.27A1.37,1.37,0,0,0,116.89,128.45Z"/><path class="cls-126" d="M116.91,128.46l-.91,1.1,1.43.18a2.44,2.44,0,0,0,0-.27A1.38,1.38,0,0,0,116.91,128.46Z"/><path class="cls-127" d="M116.93,128.48l-.93,1.08,1.43.16a1.22,1.22,0,0,0,0-.27A1.35,1.35,0,0,0,116.93,128.48Z"/><path class="cls-128" d="M117,128.5l-1,1.06,1.44.14a1.2,1.2,0,0,0,0-.27A1.32,1.32,0,0,0,117,128.5Z"/><path class="cls-129" d="M117,128.51l-1,1.05,1.44.12a1.31,1.31,0,0,0,0-.28A1.37,1.37,0,0,0,117,128.51Z"/><path class="cls-130" d="M117,128.53l-1,1,1.44.1a1.34,1.34,0,0,0,0-.28A1.37,1.37,0,0,0,117,128.53Z"/><path class="cls-131" d="M117,128.55l-1,1,1.44.08a1.34,1.34,0,0,0,0-.28A1.3,1.3,0,0,0,117,128.55Z"/><path class="cls-132" d="M117,128.56l-1,1,1.44.06a1.31,1.31,0,0,0,0-.28A1.39,1.39,0,0,0,117,128.56Z"/><path class="cls-133" d="M117,128.58l-1,1,1.44,0a.88.88,0,0,0,0-.28A1.33,1.33,0,0,0,117,128.58Z"/><path class="cls-134" d="M117.06,128.59l-1.06,1,1.45,0a1,1,0,0,0,0-.29A1.48,1.48,0,0,0,117.06,128.59Z"/><path class="cls-135" d="M117.08,128.61l-1.08.95h1.45a1,1,0,0,0,0-.29A1.5,1.5,0,0,0,117.08,128.61Z"/><path class="cls-109" d="M114.68,129l1.32.61-.09-1.41A1.45,1.45,0,0,0,114.68,129Z"/><path class="cls-109" d="M116,129.56l.83-1.16a1.49,1.49,0,0,0-.84-.26,1.18,1.18,0,0,0-.27,0Z"/><path class="cls-136" d="M116,129.56l.83-1.16a1.49,1.49,0,0,0-.84-.26,1.09,1.09,0,0,0-.26,0Z"/><path class="cls-137" d="M116,129.56l.83-1.16a1.49,1.49,0,0,0-.84-.26l-.24,0Z"/><path class="cls-138" d="M116,129.56l.83-1.16a1.49,1.49,0,0,0-.84-.26l-.23,0Z"/><path class="cls-139" d="M116,129.56l.83-1.16a1.49,1.49,0,0,0-.84-.26l-.21,0Z"/><path class="cls-140" d="M116,129.56l.83-1.16a1.49,1.49,0,0,0-.84-.26l-.19,0Z"/><path class="cls-141" d="M116,129.56l.83-1.16a1.49,1.49,0,0,0-.84-.26l-.18,0Z"/><path class="cls-142" d="M116,129.56l.83-1.16a1.49,1.49,0,0,0-.84-.26l-.16,0Z"/><path class="cls-143" d="M116,129.56l.83-1.16a1.49,1.49,0,0,0-.84-.26h-.15Z"/><path class="cls-144" d="M116,129.56l.83-1.16a1.49,1.49,0,0,0-.84-.26h-.13Z"/><path class="cls-145" d="M116,129.56l.83-1.16a1.49,1.49,0,0,0-.84-.26h-.11Z"/><path class="cls-146" d="M116,129.56l.83-1.16a1.49,1.49,0,0,0-.84-.26h-.1Z"/><path class="cls-122" d="M116,129.56l.83-1.16a1.49,1.49,0,0,0-.84-.26h-.08Z"/><path class="cls-147" d="M114.68,129a1.4,1.4,0,0,0-.14.61,1.47,1.47,0,0,0,.29.84l1.17-.84Z"/><path class="cls-147" d="M115.61,130.92l.39-1.36-1,1.06A1.53,1.53,0,0,0,115.61,130.92Z"/><path class="cls-147" d="M114.81,130.37a1.59,1.59,0,0,0,.37.36l.82-1.17Z"/><path class="cls-148" d="M114.82,130.38a1.34,1.34,0,0,0,.34.33l.84-1.15Z"/><path class="cls-149" d="M114.82,130.39a1.64,1.64,0,0,0,.33.31l.85-1.14Z"/><path class="cls-150" d="M114.83,130.4a1.66,1.66,0,0,0,.3.29l.87-1.13Z"/><path class="cls-151" d="M114.84,130.41a1.21,1.21,0,0,0,.28.27l.88-1.12Z"/><path class="cls-152" d="M114.84,130.42a1.33,1.33,0,0,0,.27.25l.89-1.11Z"/><path class="cls-153" d="M114.85,130.42a1.09,1.09,0,0,0,.24.24l.91-1.1Z"/><path class="cls-154" d="M114.85,130.43a1.65,1.65,0,0,0,.23.22l.92-1.09Z"/><path class="cls-155" d="M114.86,130.44a1.86,1.86,0,0,0,.2.2l.94-1.08Z"/><path class="cls-156" d="M114.87,130.45a1,1,0,0,0,.18.18l1-1.07Z"/><path class="cls-157" d="M114.87,130.46l.16.16,1-1.06Z"/><path class="cls-109" d="M114.82,128.73a1.72,1.72,0,0,0-.22.45l1.4.38Z"/><path class="cls-158" d="M114.81,128.74a1.57,1.57,0,0,0-.21.43l1.4.39Z"/><path class="cls-159" d="M114.81,128.74a1.49,1.49,0,0,0-.2.42l1.39.4Z"/><path class="cls-142" d="M114.8,128.75a1.57,1.57,0,0,0-.19.39l1.39.42Z"/><path class="cls-160" d="M114.8,128.76a1.42,1.42,0,0,0-.19.37l1.39.43Z"/><path class="cls-161" d="M114.79,128.77a1.43,1.43,0,0,0-.17.35l1.38.44Z"/><path class="cls-162" d="M114.79,128.77a1.53,1.53,0,0,0-.17.34l1.38.45Z"/><path class="cls-163" d="M114.78,128.78a2,2,0,0,0-.15.32l1.37.46Z"/><path class="cls-164" d="M114.78,128.79a1.54,1.54,0,0,0-.15.29l1.37.48Z"/><path class="cls-155" d="M114.77,128.8a1.13,1.13,0,0,0-.13.27l1.36.49Z"/><path class="cls-165" d="M114.77,128.8a1.56,1.56,0,0,0-.13.26l1.36.5Z"/><path class="cls-131" d="M114.77,128.81a1,1,0,0,0-.13.24l1.36.51Z"/><path class="cls-157" d="M114.76,128.82a.8.8,0,0,0-.11.21l1.35.53Z"/><path class="cls-109" d="M116,131a1.61,1.61,0,0,0,.44-.06l-.43-1.35-.39,1.36A1.58,1.58,0,0,0,116,131Z"/><path class="cls-147" d="M114.81,130.37l1.19-.82-1.46-.05A1.57,1.57,0,0,0,114.81,130.37Z"/><path class="cls-113" d="M114.8,130.36l1.2-.81-1.45,0A1.53,1.53,0,0,0,114.8,130.36Z"/><path class="cls-166" d="M114.8,130.35l1.2-.8h-1.45A1.44,1.44,0,0,0,114.8,130.35Z"/><path class="cls-17" d="M114.79,130.34l1.21-.79-1.44,0A1.42,1.42,0,0,0,114.79,130.34Z"/><path class="cls-115" d="M114.79,130.33l1.21-.78-1.44,0A1.32,1.32,0,0,0,114.79,130.33Z"/><path class="cls-167" d="M114.78,130.32l1.22-.77-1.44.06A1.38,1.38,0,0,0,114.78,130.32Z"/><path class="cls-168" d="M114.78,130.31l1.22-.76-1.43.08A1.29,1.29,0,0,0,114.78,130.31Z"/><path class="cls-117" d="M114.77,130.3l1.23-.74-1.43.09A1.27,1.27,0,0,0,114.77,130.3Z"/><path class="cls-169" d="M114.77,130.29l1.23-.73-1.43.12A1.26,1.26,0,0,0,114.77,130.29Z"/><path class="cls-170" d="M114.76,130.28l1.24-.72-1.42.14A1.13,1.13,0,0,0,114.76,130.28Z"/><path class="cls-119" d="M114.76,130.27l1.24-.71-1.42.16A1.15,1.15,0,0,0,114.76,130.27Z"/><path class="cls-171" d="M114.75,130.26l1.25-.7-1.42.18A1.14,1.14,0,0,0,114.75,130.26Z"/><path class="cls-172" d="M114.75,130.25l1.25-.69-1.41.2A1,1,0,0,0,114.75,130.25Z"/><path class="cls-121" d="M114.74,130.24l1.26-.68-1.41.23A1,1,0,0,0,114.74,130.24Z"/><path d="M115.85,126.27h-.09v1.28a.23.23,0,0,0,.1.19.17.17,0,0,1,0-.07Z"/><path class="cls-117" d="M116.2,126.27v1.28a.22.22,0,0,1-.22.23.21.21,0,0,1-.12,0c0,.09.11.11.21.11s.21-.06.21-.18v-1.29Z"/><path class="cls-173" d="M134.75,129.71a3.38,3.38,0,0,0-6.74.22,3.28,3.28,0,0,0,2.21,3.08,2.84,2.84,0,0,0,2.34,1.2,2.79,2.79,0,0,0,2.83-2.75A2.71,2.71,0,0,0,134.75,129.71Z"/><path class="cls-174" d="M134.38,129.56a3.37,3.37,0,1,1-3.37-3.29A3.33,3.33,0,0,1,134.38,129.56Z"/><g class="cls-78"><path d="M130.93,126.62c.36.39,0,1.29-.74,2s-1.69,1-2.05.61,0-1.29.74-2S130.57,126.24,130.93,126.62Z"/><path class="cls-79" d="M130.89,126.64c.36.38,0,1.26-.73,2s-1.65,1-2,.6,0-1.26.73-2S130.54,126.26,130.89,126.64Z"/><path class="cls-80" d="M130.86,126.66c.34.37,0,1.23-.72,1.92s-1.62.95-2,.58,0-1.23.72-1.92S130.51,126.29,130.86,126.66Z"/><path class="cls-81" d="M130.82,126.68c.34.36,0,1.2-.7,1.88s-1.6.94-1.94.57,0-1.21.71-1.88S130.48,126.31,130.82,126.68Z"/><path class="cls-82" d="M130.78,126.69c.33.36,0,1.19-.69,1.85s-1.56.92-1.89.56,0-1.18.69-1.85S130.45,126.34,130.78,126.69Z"/><path class="cls-83" d="M130.75,126.71c.32.35,0,1.16-.68,1.81s-1.53.9-1.86.55,0-1.16.68-1.81S130.42,126.36,130.75,126.71Z"/><path class="cls-84" d="M130.71,126.73c.32.34,0,1.13-.66,1.77s-1.5.88-1.82.54,0-1.14.66-1.78S130.39,126.39,130.71,126.73Z"/><path class="cls-85" d="M130.67,126.74c.31.34,0,1.12-.65,1.74s-1.46.86-1.78.53,0-1.11.65-1.74S130.36,126.41,130.67,126.74Z"/><path class="cls-86" d="M130.63,126.76c.31.33,0,1.09-.63,1.7s-1.44.84-1.74.52,0-1.09.63-1.7S130.33,126.44,130.63,126.76Z"/><path class="cls-87" d="M130.6,126.78c.29.32,0,1.06-.63,1.66s-1.4.82-1.7.5,0-1.06.63-1.66S130.3,126.46,130.6,126.78Z"/><path class="cls-88" d="M130.56,126.8c.29.31,0,1-.61,1.62s-1.37.8-1.66.49,0-1,.61-1.62S130.27,126.49,130.56,126.8Z"/><path class="cls-89" d="M130.52,126.81c.29.31,0,1-.59,1.59s-1.34.79-1.63.48,0-1,.6-1.58S130.24,126.51,130.52,126.81Z"/><path class="cls-90" d="M130.49,126.83c.27.3,0,1-.59,1.55s-1.3.77-1.58.47,0-1,.58-1.55S130.21,126.53,130.49,126.83Z"/><path class="cls-91" d="M130.45,126.85c.27.29,0,1-.57,1.51s-1.27.75-1.55.46,0-1,.57-1.51S130.18,126.56,130.45,126.85Z"/><path class="cls-92" d="M130.41,126.87c.26.28,0,.94-.55,1.47s-1.25.73-1.51.45,0-.94.55-1.47S130.15,126.58,130.41,126.87Z"/><path class="cls-93" d="M130.37,126.88c.26.28,0,.92-.54,1.44s-1.21.71-1.47.44,0-.92.55-1.44S130.12,126.61,130.37,126.88Z"/><path class="cls-94" d="M130.34,126.9c.25.27,0,.89-.53,1.4s-1.18.69-1.43.43,0-.9.53-1.4S130.09,126.63,130.34,126.9Z"/><path class="cls-95" d="M130.3,126.92c.24.26,0,.87-.51,1.36s-1.15.67-1.4.41,0-.86.52-1.35S130.06,126.66,130.3,126.92Z"/><path class="cls-96" d="M130.26,126.94c.24.25,0,.84-.5,1.32s-1.11.65-1.35.4,0-.84.5-1.32S130,126.68,130.26,126.94Z"/><path class="cls-97" d="M130.23,127c.22.25,0,.82-.49,1.29s-1.09.64-1.31.39,0-.82.48-1.28S130,126.71,130.23,127Z"/><path class="cls-98" d="M130.19,127c.22.24,0,.79-.47,1.24s-1.06.63-1.28.39,0-.79.47-1.24S130,126.73,130.19,127Z"/><path class="cls-99" d="M130.15,127c.22.23,0,.77-.46,1.2s-1,.61-1.23.38,0-.77.45-1.21S129.94,126.76,130.15,127Z"/><path class="cls-100" d="M130.11,127c.21.23,0,.75-.44,1.17s-1,.59-1.2.37,0-.75.45-1.17S129.91,126.78,130.11,127Z"/><path class="cls-101" d="M130.08,127c.2.22,0,.72-.44,1.13s-.95.57-1.15.36,0-.73.43-1.14S129.88,126.81,130.08,127Z"/><path class="cls-102" d="M130,127c.19.21,0,.7-.42,1.09s-.93.55-1.12.34,0-.69.42-1.09S129.85,126.83,130,127Z"/><path class="cls-103" d="M130,127.06c.19.2,0,.67-.4,1.05s-.9.53-1.08.33,0-.67.4-1S129.82,126.86,130,127.06Z"/><path class="cls-104" d="M130,127.07c.18.2,0,.65-.4,1s-.86.51-1,.32,0-.65.39-1S129.79,126.88,130,127.07Z"/><path class="cls-105" d="M129.93,127.09c.17.19,0,.63-.38,1s-.83.5-1,.31,0-.62.37-1S129.76,126.91,129.93,127.09Z"/><path class="cls-106" d="M129.89,127.11c.17.18,0,.6-.36.94s-.8.48-1,.3,0-.6.37-.94S129.73,126.93,129.89,127.11Z"/><path class="cls-10" d="M129.85,127.13c.16.17,0,.57-.35.9s-.76.46-.92.29,0-.58.35-.91S129.7,127,129.85,127.13Z"/></g><path class="cls-10" d="M128.43,131.55a3.05,3.05,0,0,1-.73-2,3.22,3.22,0,0,1,.65-2,3.32,3.32,0,0,1,1.73-1.17,3.23,3.23,0,0,1,2.06.11,3.56,3.56,0,0,0-2,0,3.37,3.37,0,0,0-1.63,1.15,3.22,3.22,0,0,0-.65,1.89A3.27,3.27,0,0,0,128.43,131.55Z"/><path class="cls-107" d="M134.38,129.56a3.17,3.17,0,0,0-.37-1.5,3.35,3.35,0,0,1,0,2.47,4,4,0,0,1-1.81-1.93l-2.44,1.89a4.1,4.1,0,0,1,.79,2.23,3.87,3.87,0,0,1-2.09-1,3.43,3.43,0,0,0,2.52,1.1A3.33,3.33,0,0,0,134.38,129.56Z"/><path class="cls-175" d="M132.7,129.56a1.69,1.69,0,1,1-1.69-1.64A1.67,1.67,0,0,1,132.7,129.56Z"/><path class="cls-109" d="M132.17,130.41l-1.16-.85.43,1.35A1.46,1.46,0,0,0,132.17,130.41Z"/><path class="cls-110" d="M132.16,130.42l-1.15-.86.45,1.34A1.5,1.5,0,0,0,132.16,130.42Z"/><path class="cls-111" d="M132.15,130.43l-1.14-.87.47,1.33A1.31,1.31,0,0,0,132.15,130.43Z"/><path class="cls-112" d="M132.14,130.44l-1.13-.88.5,1.32A1.27,1.27,0,0,0,132.14,130.44Z"/><path class="cls-113" d="M132.14,130.45l-1.13-.89.52,1.32A1.31,1.31,0,0,0,132.14,130.45Z"/><path class="cls-114" d="M132.13,130.45l-1.12-.89.54,1.31A1.26,1.26,0,0,0,132.13,130.45Z"/><path class="cls-115" d="M132.12,130.46l-1.11-.9.56,1.3A1.26,1.26,0,0,0,132.12,130.46Z"/><path class="cls-116" d="M132.11,130.47l-1.1-.91.58,1.29A1.14,1.14,0,0,0,132.11,130.47Z"/><path class="cls-117" d="M132.1,130.48l-1.09-.92.6,1.28A1.14,1.14,0,0,0,132.1,130.48Z"/><path class="cls-118" d="M132.1,130.49l-1.09-.93.62,1.27A1.18,1.18,0,0,0,132.1,130.49Z"/><path class="cls-119" d="M132.09,130.49l-1.08-.93.64,1.26A1,1,0,0,0,132.09,130.49Z"/><path class="cls-120" d="M132.08,130.5l-1.07-.94.66,1.26A1.12,1.12,0,0,0,132.08,130.5Z"/><path class="cls-121" d="M132.07,130.51l-1.06-.95.68,1.25A1.17,1.17,0,0,0,132.07,130.51Z"/><path class="cls-109" d="M132.17,130.41a1.39,1.39,0,0,0,.27-.59l-1.43-.26Z"/><path class="cls-122" d="M131.85,128.4l-.84,1.16,1.43.26a1.15,1.15,0,0,0,0-.26A1.42,1.42,0,0,0,131.85,128.4Z"/><path class="cls-123" d="M131.87,128.42l-.86,1.14,1.43.24a1.18,1.18,0,0,0,0-.26A1.36,1.36,0,0,0,131.87,128.42Z"/><path class="cls-124" d="M131.89,128.43l-.88,1.13,1.43.22a1.23,1.23,0,0,0,0-.27A1.38,1.38,0,0,0,131.89,128.43Z"/><path class="cls-125" d="M131.9,128.45l-.89,1.11,1.44.2a2.44,2.44,0,0,0,0-.27A1.35,1.35,0,0,0,131.9,128.45Z"/><path class="cls-126" d="M131.92,128.46l-.91,1.1,1.44.18a2.44,2.44,0,0,0,0-.27A1.36,1.36,0,0,0,131.92,128.46Z"/><path class="cls-127" d="M131.94,128.48l-.93,1.08,1.44.16a1.22,1.22,0,0,0,0-.27A1.31,1.31,0,0,0,131.94,128.48Z"/><path class="cls-128" d="M132,128.5l-1,1.06,1.44.14a1.22,1.22,0,0,0,0-.27A1.33,1.33,0,0,0,132,128.5Z"/><path class="cls-129" d="M132,128.51l-1,1.05,1.44.12a.88.88,0,0,0,0-.28A1.34,1.34,0,0,0,132,128.51Z"/><path class="cls-130" d="M132,128.53l-1,1,1.45.1a1.4,1.4,0,0,0-.46-1.13Z"/><path class="cls-131" d="M132,128.55l-1,1,1.45.08a.9.9,0,0,0,0-.28A1.29,1.29,0,0,0,132,128.55Z"/><path class="cls-132" d="M132,128.56l-1,1,1.45.06a.88.88,0,0,0,0-.28A1.44,1.44,0,0,0,132,128.56Z"/><path class="cls-133" d="M132.06,128.58l-1.05,1,1.45,0a.88.88,0,0,0,0-.28A1.4,1.4,0,0,0,132.06,128.58Z"/><path class="cls-134" d="M132.08,128.59l-1.07,1,1.45,0a1,1,0,0,0,0-.29A1.58,1.58,0,0,0,132.08,128.59Z"/><path class="cls-135" d="M132.1,128.61l-1.09.95h1.46a1.5,1.5,0,0,0,0-.29A1.61,1.61,0,0,0,132.1,128.61Z"/><path class="cls-109" d="M129.7,129l1.31.61-.09-1.41A1.45,1.45,0,0,0,129.7,129Z"/><path class="cls-109" d="M131,129.56l.84-1.16a1.52,1.52,0,0,0-.84-.26,1.27,1.27,0,0,0-.28,0Z"/><path class="cls-136" d="M131,129.56l.84-1.16a1.52,1.52,0,0,0-.84-.26,1.09,1.09,0,0,0-.26,0Z"/><path class="cls-137" d="M131,129.56l.84-1.16a1.52,1.52,0,0,0-.84-.26l-.24,0Z"/><path class="cls-138" d="M131,129.56l.84-1.16a1.52,1.52,0,0,0-.84-.26l-.23,0Z"/><path class="cls-139" d="M131,129.56l.84-1.16a1.52,1.52,0,0,0-.84-.26l-.21,0Z"/><path class="cls-140" d="M131,129.56l.84-1.16a1.52,1.52,0,0,0-.84-.26l-.2,0Z"/><path class="cls-141" d="M131,129.56l.84-1.16a1.52,1.52,0,0,0-.84-.26l-.18,0Z"/><path class="cls-142" d="M131,129.56l.84-1.16a1.52,1.52,0,0,0-.84-.26l-.17,0Z"/><path class="cls-143" d="M131,129.56l.84-1.16a1.52,1.52,0,0,0-.84-.26h-.15Z"/><path class="cls-144" d="M131,129.56l.84-1.16a1.52,1.52,0,0,0-.84-.26h-.13Z"/><path class="cls-145" d="M131,129.56l.84-1.16a1.52,1.52,0,0,0-.84-.26h-.12Z"/><path class="cls-146" d="M131,129.56l.84-1.16a1.52,1.52,0,0,0-.84-.26h-.1Z"/><path class="cls-122" d="M131,129.56l.84-1.16a1.52,1.52,0,0,0-.84-.26h-.09Z"/><path class="cls-147" d="M129.7,129a1.27,1.27,0,0,0-.14.61,1.4,1.4,0,0,0,.29.84l1.16-.84Z"/><path class="cls-147" d="M130.63,130.92l.38-1.36-1,1.06A1.46,1.46,0,0,0,130.63,130.92Z"/><path class="cls-147" d="M129.83,130.37a1.54,1.54,0,0,0,.36.36l.82-1.17Z"/><path class="cls-148" d="M129.83,130.38a1.38,1.38,0,0,0,.35.33l.83-1.15Z"/><path class="cls-149" d="M129.84,130.39a1.24,1.24,0,0,0,.33.31l.84-1.14Z"/><path class="cls-150" d="M129.85,130.4a1.19,1.19,0,0,0,.3.29l.86-1.13Z"/><path class="cls-151" d="M129.85,130.41a1.27,1.27,0,0,0,.29.27l.87-1.12Z"/><path class="cls-152" d="M129.86,130.42a1.25,1.25,0,0,0,.26.25l.89-1.11Z"/><path class="cls-153" d="M129.86,130.42a1.16,1.16,0,0,0,.25.24l.9-1.1Z"/><path class="cls-154" d="M129.87,130.43a1.13,1.13,0,0,0,.22.22l.92-1.09Z"/><path class="cls-155" d="M129.88,130.44a1.24,1.24,0,0,0,.2.2l.93-1.08Z"/><path class="cls-156" d="M129.88,130.45a1.51,1.51,0,0,0,.18.18l.95-1.07Z"/><path class="cls-157" d="M129.89,130.46l.16.16,1-1.06Z"/><path class="cls-109" d="M129.83,128.73a2.1,2.1,0,0,0-.22.45l1.4.38Z"/><path class="cls-158" d="M129.83,128.74a1.57,1.57,0,0,0-.21.43l1.39.39Z"/><path class="cls-159" d="M129.82,128.74a1.82,1.82,0,0,0-.2.42l1.39.4Z"/><path class="cls-142" d="M129.82,128.75a1.57,1.57,0,0,0-.19.39l1.38.42Z"/><path class="cls-160" d="M129.82,128.76a1.42,1.42,0,0,0-.19.37l1.38.43Z"/><path class="cls-161" d="M129.81,128.77a1.42,1.42,0,0,0-.18.35l1.38.44Z"/><path class="cls-162" d="M129.81,128.77a1.53,1.53,0,0,0-.17.34l1.37.45Z"/><path class="cls-163" d="M129.8,128.78a1.36,1.36,0,0,0-.16.32l1.37.46Z"/><path class="cls-164" d="M129.8,128.79a1.11,1.11,0,0,0-.15.29l1.36.48Z"/><path class="cls-155" d="M129.79,128.8a1.1,1.1,0,0,0-.14.27l1.36.49Z"/><path class="cls-165" d="M129.79,128.8a1,1,0,0,0-.13.26l1.35.5Z"/><path class="cls-131" d="M129.78,128.81a1.76,1.76,0,0,0-.12.24l1.35.51Z"/><path class="cls-157" d="M129.78,128.82a.8.8,0,0,0-.11.21l1.34.53Z"/><path class="cls-109" d="M131,131a1.49,1.49,0,0,0,.43-.06l-.43-1.35-.38,1.36A1.58,1.58,0,0,0,131,131Z"/><path class="cls-147" d="M129.83,130.37l1.18-.82-1.45-.05A1.49,1.49,0,0,0,129.83,130.37Z"/><path class="cls-113" d="M129.82,130.36l1.19-.81-1.45,0A1.54,1.54,0,0,0,129.82,130.36Z"/><path class="cls-166" d="M129.82,130.35l1.19-.8h-1.44A1.36,1.36,0,0,0,129.82,130.35Z"/><path class="cls-17" d="M129.81,130.34l1.2-.79-1.44,0A1.43,1.43,0,0,0,129.81,130.34Z"/><path class="cls-115" d="M129.81,130.33l1.2-.78-1.44,0A1.33,1.33,0,0,0,129.81,130.33Z"/><path class="cls-167" d="M129.8,130.32l1.21-.77-1.43.06A1.29,1.29,0,0,0,129.8,130.32Z"/><path class="cls-168" d="M129.8,130.31l1.21-.76-1.43.08A1.22,1.22,0,0,0,129.8,130.31Z"/><path class="cls-117" d="M129.79,130.3l1.22-.74-1.42.09A1.18,1.18,0,0,0,129.79,130.3Z"/><path class="cls-169" d="M129.79,130.29l1.22-.73-1.42.12A1.08,1.08,0,0,0,129.79,130.29Z"/><path class="cls-170" d="M129.78,130.28l1.23-.72-1.42.14A1.14,1.14,0,0,0,129.78,130.28Z"/><path class="cls-119" d="M129.77,130.27l1.24-.71-1.41.16A1,1,0,0,0,129.77,130.27Z"/><path class="cls-171" d="M129.77,130.26l1.24-.7-1.41.18A1.14,1.14,0,0,0,129.77,130.26Z"/><path class="cls-172" d="M129.76,130.25l1.25-.69-1.41.2A1.13,1.13,0,0,0,129.76,130.25Z"/><path class="cls-121" d="M129.76,130.24l1.25-.68-1.4.23A1,1,0,0,0,129.76,130.24Z"/><path d="M130.86,126.27h-.08v1.28a.23.23,0,0,0,.1.19.19.19,0,0,1,0-.07Z"/><path class="cls-117" d="M131.21,126.27v1.28a.22.22,0,0,1-.22.23.21.21,0,0,1-.11,0c0,.09.11.11.2.11s.22-.06.22-.18v-1.29Z"/><path d="M123,57.23l.07.15a.14.14,0,0,1,.2.07l1.3,2.73.14-.07-1.3-2.73A.32.32,0,0,0,123,57.23Z"/><path d="M123.79,56.86a.34.34,0,0,0-.15.18.3.3,0,0,0,0,.23l.21.45.15-.07-.22-.45a.15.15,0,0,1,.07-.19.13.13,0,0,1,.19.07l.49,1a.15.15,0,0,1-.06.2l-.07,0,.07.14.07,0a.14.14,0,0,1,.19.06l.51,1.08a.15.15,0,0,1-.07.19.13.13,0,0,1-.19-.07l-.21-.44-.14.07.21.44a.3.3,0,0,0,.4.15.31.31,0,0,0,.14-.41l-.51-1.08a.33.33,0,0,0-.19-.16.36.36,0,0,0,0-.25l-.5-1A.3.3,0,0,0,123.79,56.86Z"/><path d="M142.52,62.84a15.45,15.45,0,0,1,.77,11.3,14.89,14.89,0,0,1-2.82,5.07,14.56,14.56,0,0,1-4.57,3.56,14.29,14.29,0,0,1-5.61,1.47,14.74,14.74,0,0,1-10.65-3.8,15,15,0,0,1-3.46-4.62,15.16,15.16,0,0,1,2.09-16.42,14.55,14.55,0,0,1,4.59-3.58,14.08,14.08,0,0,1,5.61-1.51,14.34,14.34,0,0,1,5.74.85A15,15,0,0,1,142.52,62.84Zm0,0a14.73,14.73,0,0,0-3.43-4.58,14.41,14.41,0,0,0-4.93-2.87,14.45,14.45,0,0,0-18.37,9.18,15.33,15.33,0,0,0-.78,5.63,14.92,14.92,0,0,0,1.38,5.52,14.37,14.37,0,0,0,8.27,7.55,14.14,14.14,0,0,0,11.13-.78,15,15,0,0,0,6.73-19.65Z"/><path d="M118.51,61.26l.13.1a.15.15,0,0,1,.21,0l2.33,1.89.1-.13L119,61.21A.31.31,0,0,0,118.51,61.26Z"/><path d="M119,60.6a.33.33,0,0,0,0,.44l.38.3.1-.12-.38-.31a.15.15,0,0,1,0-.21.14.14,0,0,1,.2,0l.61.49a1.62,1.62,0,0,1,.3.52,1.12,1.12,0,0,0,.36.59l.79.65.38-.49-.57-.45-.1.12.44.36-.17.23-.67-.54a1,1,0,0,1-.31-.52,1.65,1.65,0,0,0-.36-.59l-.6-.5A.31.31,0,0,0,119,60.6Z"/><path d="M116.2,66.68l.16,0a.14.14,0,0,1,.18-.11l2.9.66,0-.16-2.9-.66A.31.31,0,0,0,116.2,66.68Z"/><path d="M116.28,66.31l.16,0a.14.14,0,0,1,.18-.12l2.9.66,0-.15-2.9-.67A.32.32,0,0,0,116.28,66.31Z"/><path d="M119.59,72a.3.3,0,0,0-.37-.23l-2.67.64a.31.31,0,0,0,.14.61l2.67-.64A.31.31,0,0,0,119.59,72Zm-2.94.86a.15.15,0,0,1-.18-.11.16.16,0,0,1,.11-.19l2.68-.64a.16.16,0,0,1,.18.12.15.15,0,0,1-.12.18Z"/><path d="M119.4,71.19l-.15,0a.16.16,0,0,1-.11.19l-2.9.69,0,.16,2.89-.7A.31.31,0,0,0,119.4,71.19Z"/><path d="M121.56,75.81a.32.32,0,0,0-.45,0l-1.07.88a.32.32,0,0,0-.07.45.27.27,0,0,0,.12.09l-.8.66a.15.15,0,0,1-.21,0,.15.15,0,0,1,0-.22l.39-.33-.1-.12-.39.33a.31.31,0,0,0,.39.49l1-.86.24-.2.83-.68A.33.33,0,0,0,121.56,75.81ZM120.32,77a.15.15,0,1,1-.18-.23l1.07-.88a.17.17,0,0,1,.23,0,.18.18,0,0,1,0,.23l-.82.68Z"/><path d="M125.1,78.66a.3.3,0,0,0-.4.14l-.42.91a.36.36,0,0,0,0,.25.26.26,0,0,0-.18.16l-.57,1.22a.32.32,0,0,0,.15.41.3.3,0,0,0,.4-.15l.56-1.22a.31.31,0,0,1,.19-.41l.42-.91A.3.3,0,0,0,125.1,78.66Zm-.6,1.65-.56,1.22a.14.14,0,0,1-.19.07.13.13,0,0,1-.07-.19l.56-1.22a.13.13,0,0,1,.19-.07A.15.15,0,0,1,124.5,80.31Zm-.07-.53.42-.91a.13.13,0,0,1,.19-.06.15.15,0,0,1,.07.19l-.42.91a.15.15,0,0,1-.26-.13Z"/><polygon points="129.21 80.33 129.36 80.33 129.36 79.84 129.65 79.83 129.23 82.95 129.39 82.97 129.83 79.67 129.2 79.68 129.21 80.33"/><path d="M133.92,78.57a.32.32,0,0,0-.14.42l.6,1.21.14.29.46,1a.31.31,0,1,0,.54-.27l-.61-1.25a.31.31,0,0,0-.42-.17.24.24,0,0,0-.1.1l-.46-.94a.16.16,0,0,1,.06-.21.15.15,0,0,1,.21.07l.22.46.14-.07-.22-.46A.31.31,0,0,0,133.92,78.57Zm.64,1.33a.16.16,0,0,1,.21.1l.61,1.25a.16.16,0,0,1,0,.23.16.16,0,0,1-.21-.1l-.47-1-.14-.29A.17.17,0,0,1,134.56,79.9Z"/><path d="M138.37,76.42a.2.2,0,0,0-.06.14l-.88-.7.22-.28-.13-.1-.31.41,1.21,1,.1-.13a.14.14,0,1,1,.17-.23l1.14.9a.14.14,0,0,1,0,.2.13.13,0,0,1-.2,0l-.38-.3-.1.12.39.31a.29.29,0,0,0,.42-.06.31.31,0,0,0,0-.43l-1.14-.9A.29.29,0,0,0,138.37,76.42Z"/><polygon points="139.42 71.27 139.38 71.42 141.4 71.86 141.36 72.05 139.38 71.47 139.34 71.63 141.48 72.25 141.55 71.89 142.51 72.1 142.55 71.95 141.58 71.74 141.6 71.67 141.44 71.64 141.43 71.7 139.42 71.27"/><path d="M142.48,66.06a.3.3,0,0,0-.14-.19.31.31,0,0,0-.23,0l-.47.12,0,.15.47-.12a.14.14,0,0,1,.17.11.14.14,0,0,1-.1.18l-1.1.27a.14.14,0,0,1-.17-.11l0-.07-.15,0,0,.07a.15.15,0,0,1-.1.18l-1.14.28a.15.15,0,0,1-.17-.1.15.15,0,0,1,.1-.18l.47-.12,0-.15-.47.11a.32.32,0,0,0-.22.38.3.3,0,0,0,.36.22l1.13-.28a.32.32,0,0,0,.2-.16.29.29,0,0,0,.24,0l1.1-.28A.3.3,0,0,0,142.48,66.06Z"/><path d="M139.78,60.59a.3.3,0,0,0-.43,0l-.37.31.1.13.37-.32a.15.15,0,0,1,.19.23l-.6.5a1.7,1.7,0,0,1-.56.2,1.07,1.07,0,0,0-.64.23l-.79.66.39.47.55-.47-.1-.12-.43.36-.18-.22.65-.56a1.08,1.08,0,0,1,.57-.19,1.91,1.91,0,0,0,.64-.23l.6-.51A.32.32,0,0,0,139.78,60.59Z"/><path d="M134.87,56.79l-.07.15a.17.17,0,0,1,.08.21l-1.24,2.75.14.07L135,57.21A.33.33,0,0,0,134.87,56.79Z"/><path d="M129.36,57.23a.16.16,0,0,1-.07.22.16.16,0,0,1-.22-.08.16.16,0,0,1,.07-.22A.16.16,0,0,1,129.36,57.23Z"/><path class="cls-176" d="M118.4,67.35A8.07,8.07,0,0,1,119,64a10.77,10.77,0,0,1,3-4.33,10.88,10.88,0,0,1,4.76-2.08,11,11,0,0,1,2.15-.07c1,0,1.22.93.68,1.2a33.31,33.31,0,0,0-6,3.71,37,37,0,0,0-4.32,5.17C119,68,118.44,67.92,118.4,67.35Z"/><circle cx="116.09" cy="125.53" r="0.42"/><circle cx="131" cy="125.53" r="0.42"/><circle cx="139.48" cy="54.53" r="0.42"/><circle cx="149.79" cy="54.57" r="0.42"/><path class="cls-177" d="M150.24,53.33a5.48,5.48,0,0,0,.32-1.82,5.29,5.29,0,1,0-5.29,5.36,5.42,5.42,0,0,0,1.57-.24,3.53,3.53,0,0,0,2,1.21,2.13,2.13,0,0,0,2.79-2A3.21,3.21,0,0,0,150.24,53.33Z"/><path class="cls-178" d="M149.86,51.13a5.15,5.15,0,1,1-5.15-5.22A5.18,5.18,0,0,1,149.86,51.13Z"/><path class="cls-107" d="M149.86,51.14h0c0-.11,0-.22,0-.33A5.34,5.34,0,0,0,149.4,49a5.24,5.24,0,0,0-1.1-1.53,5.43,5.43,0,0,1,1.26,3.4s0,0,0,.07a7.38,7.38,0,0,1-3.21-1.57l-3.13,3.51a4.88,4.88,0,0,1,1.47,3.27,5.35,5.35,0,0,1-2.88-.68,5.06,5.06,0,0,0,1.71.8,5.32,5.32,0,0,0,1.2.13h.05c.22,0,.44,0,.66-.05a5.13,5.13,0,0,0,3.28-1.88A5.32,5.32,0,0,0,149.86,51.14Z"/><g class="cls-78"><path d="M146.12,49c-.61,1.06-3.37,3-4.8,3-1.17,0-2.18-1-1.18-2.95a6.15,6.15,0,0,1,4.55-2.9C146.65,46,146.88,47.64,146.12,49Z"/><path class="cls-179" d="M146.08,48.94c-.6,1-3.34,2.94-4.76,3-1.16,0-2.16-1-1.16-2.91a6.1,6.1,0,0,1,4.51-2.88C146.61,46,146.84,47.63,146.08,48.94Z"/><path class="cls-180" d="M146,48.92c-.6,1-3.31,2.91-4.72,2.93-1.15,0-2.13-1-1.15-2.89a6.06,6.06,0,0,1,4.48-2.85C146.57,46,146.79,47.62,146,48.92Z"/><path class="cls-181" d="M146,48.89c-.59,1-3.29,2.89-4.68,2.91-1.14,0-2.11-1-1.13-2.86a6.06,6.06,0,0,1,4.44-2.83C146.53,46,146.75,47.61,146,48.89Z"/><path class="cls-182" d="M146,48.87c-.6,1-3.27,2.86-4.65,2.89-1.12,0-2.09-1-1.12-2.83a6,6,0,0,1,4.4-2.81C146.49,46.05,146.71,47.6,146,48.87Z"/><path class="cls-183" d="M145.93,48.85c-.59,1-3.24,2.84-4.61,2.86-1.11,0-2.07-.94-1.1-2.8a6,6,0,0,1,4.36-2.78C146.45,46.05,146.66,47.59,145.93,48.85Z"/><path class="cls-184" d="M145.89,48.83c-.58,1-3.21,2.81-4.57,2.83-1.1,0-2-.93-1.09-2.76a5.93,5.93,0,0,1,4.33-2.76C146.41,46.06,146.62,47.58,145.89,48.83Z"/><path class="cls-185" d="M145.85,48.8c-.58,1-3.18,2.79-4.53,2.82-1.09,0-2-.92-1.07-2.74a5.88,5.88,0,0,1,4.29-2.74C146.37,46.06,146.58,47.57,145.85,48.8Z"/><path class="cls-186" d="M145.81,48.78c-.57,1-3.16,2.76-4.49,2.79-1.08,0-2-.9-1.06-2.7a5.84,5.84,0,0,1,4.26-2.72C146.33,46.07,146.53,47.56,145.81,48.78Z"/><path class="cls-187" d="M145.77,48.76c-.57,1-3.13,2.73-4.45,2.76-1.07,0-2-.89-1-2.67a5.8,5.8,0,0,1,4.22-2.69C146.29,46.08,146.49,47.55,145.77,48.76Z"/><path class="cls-188" d="M145.74,48.73c-.57,1-3.11,2.72-4.41,2.75-1.07,0-2-.88-1-2.65a5.77,5.77,0,0,1,4.18-2.66C146.25,46.08,146.45,47.54,145.74,48.73Z"/><path class="cls-189" d="M145.7,48.71c-.56.95-3.08,2.69-4.37,2.72-1.06,0-2-.87-1-2.61a5.75,5.75,0,0,1,4.15-2.65C146.21,46.09,146.4,47.53,145.7,48.71Z"/><path class="cls-190" d="M145.66,48.69c-.56.94-3,2.66-4.33,2.69-1.05,0-1.93-.85-1-2.58a5.72,5.72,0,0,1,4.11-2.62C146.18,46.09,146.36,47.51,145.66,48.69Z"/><path class="cls-191" d="M145.62,48.67a7.79,7.79,0,0,1-4.29,2.67c-1,0-1.91-.84-1-2.55a5.65,5.65,0,0,1,4.07-2.6C146.14,46.1,146.32,47.5,145.62,48.67Z"/><path class="cls-192" d="M145.58,48.64a7.69,7.69,0,0,1-4.25,2.65c-1,0-1.89-.83-1-2.52a5.64,5.64,0,0,1,4-2.57C146.1,46.1,146.27,47.49,145.58,48.64Z"/><path class="cls-193" d="M145.55,48.62a7.66,7.66,0,0,1-4.22,2.62c-1,0-1.87-.81-1-2.49a5.64,5.64,0,0,1,4-2.55C146.06,46.11,146.23,47.48,145.55,48.62Z"/><path class="cls-194" d="M145.51,48.6a7.58,7.58,0,0,1-4.18,2.6c-1,0-1.85-.81-1-2.46a5.59,5.59,0,0,1,4-2.53C146,46.12,146.19,47.47,145.51,48.6Z"/><path class="cls-195" d="M145.47,48.58a7.58,7.58,0,0,1-4.14,2.57c-1,0-1.83-.79-.94-2.43a5.55,5.55,0,0,1,3.93-2.5C146,46.12,146.14,47.46,145.47,48.58Z"/><path class="cls-196" d="M145.43,48.55a7.48,7.48,0,0,1-4.1,2.55c-1,0-1.81-.77-.92-2.39a5.51,5.51,0,0,1,3.88-2.49C145.94,46.13,146.1,47.45,145.43,48.55Z"/><path class="cls-197" d="M145.39,48.53a7.49,7.49,0,0,1-4.06,2.53c-1,0-1.79-.77-.91-2.37a5.47,5.47,0,0,1,3.85-2.46C145.9,46.13,146.06,47.44,145.39,48.53Z"/><path class="cls-198" d="M145.35,48.51a7.4,7.4,0,0,1-4,2.5c-1,0-1.77-.75-.9-2.34a5.48,5.48,0,0,1,3.82-2.43C145.86,46.14,146,47.43,145.35,48.51Z"/><path class="cls-199" d="M145.32,48.48a7.33,7.33,0,0,1-4,2.48c-1,0-1.74-.74-.88-2.3a5.38,5.38,0,0,1,3.78-2.41C145.82,46.14,146,47.42,145.32,48.48Z"/><path class="cls-200" d="M145.28,48.46a7.34,7.34,0,0,1-3.95,2.46c-.94,0-1.72-.73-.87-2.28a5.43,5.43,0,0,1,3.74-2.39C145.78,46.15,145.93,47.41,145.28,48.46Z"/><path class="cls-201" d="M145.24,48.44a7.28,7.28,0,0,1-3.91,2.43c-.93,0-1.7-.71-.85-2.24a5.33,5.33,0,0,1,3.7-2.37C145.74,46.15,145.88,47.4,145.24,48.44Z"/><path class="cls-202" d="M145.2,48.42a7.3,7.3,0,0,1-3.87,2.41c-.92,0-1.68-.71-.84-2.22a5.34,5.34,0,0,1,3.67-2.34C145.7,46.16,145.84,47.39,145.2,48.42Z"/><path class="cls-203" d="M145.16,48.39a7.22,7.22,0,0,1-3.83,2.39c-.91,0-1.66-.69-.82-2.19a5.28,5.28,0,0,1,3.63-2.31C145.66,46.17,145.8,47.38,145.16,48.39Z"/><path class="cls-204" d="M145.13,48.37a7.18,7.18,0,0,1-3.79,2.36c-.9.05-1.65-.67-.82-2.15a5.3,5.3,0,0,1,3.6-2.3C145.62,46.17,145.75,47.37,145.13,48.37Z"/><path class="cls-205" d="M145.09,48.35a7.16,7.16,0,0,1-3.75,2.34c-.89,0-1.63-.67-.8-2.13a5.2,5.2,0,0,1,3.55-2.27C145.59,46.18,145.71,47.35,145.09,48.35Z"/><path class="cls-206" d="M145.05,48.32a7.06,7.06,0,0,1-3.71,2.32c-.88,0-1.61-.65-.79-2.09a5.16,5.16,0,0,1,3.52-2.25C145.55,46.18,145.67,47.34,145.05,48.32Z"/><path class="cls-207" d="M145,48.3a7.07,7.07,0,0,1-3.67,2.29c-.87,0-1.59-.64-.77-2.06a5.18,5.18,0,0,1,3.48-2.23C145.51,46.19,145.62,47.33,145,48.3Z"/><path class="cls-208" d="M145,48.28a7,7,0,0,1-3.63,2.27c-.86.05-1.56-.63-.76-2A5.11,5.11,0,0,1,144,46.31C145.47,46.19,145.58,47.32,145,48.28Z"/><path class="cls-209" d="M144.93,48.26a6.93,6.93,0,0,1-3.59,2.24c-.85,0-1.54-.61-.75-2A5.13,5.13,0,0,1,144,46.32C145.43,46.2,145.54,47.31,144.93,48.26Z"/><path class="cls-210" d="M144.9,48.23a6.86,6.86,0,0,1-3.56,2.22c-.84.06-1.52-.6-.73-2A5.05,5.05,0,0,1,144,46.33C145.39,46.21,145.49,47.3,144.9,48.23Z"/><path class="cls-211" d="M144.86,48.21a7,7,0,0,1-3.52,2.2c-.83.05-1.5-.59-.72-1.94A5.09,5.09,0,0,1,144,46.33C145.35,46.21,145.45,47.29,144.86,48.21Z"/><path class="cls-212" d="M144.82,48.19a6.89,6.89,0,0,1-3.48,2.17c-.82.06-1.48-.58-.7-1.91a5,5,0,0,1,3.3-2.11C145.31,46.22,145.41,47.28,144.82,48.19Z"/><path class="cls-213" d="M144.78,48.17a6.8,6.8,0,0,1-3.44,2.14c-.81.06-1.46-.56-.69-1.87a5,5,0,0,1,3.27-2.09C145.27,46.22,145.36,47.27,144.78,48.17Z"/><path class="cls-214" d="M144.74,48.14a6.71,6.71,0,0,1-3.4,2.13c-.8.06-1.44-.55-.67-1.85a4.92,4.92,0,0,1,3.22-2.06C145.23,46.23,145.32,47.26,144.74,48.14Z"/><path class="cls-215" d="M144.71,48.12a6.75,6.75,0,0,1-3.37,2.1c-.78.06-1.42-.54-.66-1.82a5,5,0,0,1,3.19-2C145.19,46.23,145.28,47.25,144.71,48.12Z"/><path class="cls-216" d="M144.67,48.1a6.7,6.7,0,0,1-3.33,2.07c-.77.07-1.4-.52-.64-1.78a4.84,4.84,0,0,1,3.15-2C145.15,46.24,145.23,47.24,144.67,48.1Z"/><path class="cls-217" d="M144.63,48.07a6.68,6.68,0,0,1-3.29,2.06c-.76.06-1.38-.52-.63-1.76a4.87,4.87,0,0,1,3.12-2C145.11,46.24,145.19,47.23,144.63,48.07Z"/><path class="cls-218" d="M144.59,48.05a6.58,6.58,0,0,1-3.25,2c-.75.07-1.35-.5-.61-1.72a4.75,4.75,0,0,1,3.08-2C145.07,46.25,145.15,47.22,144.59,48.05Z"/><path class="cls-219" d="M144.55,48a6.62,6.62,0,0,1-3.21,2c-.74.06-1.33-.49-.6-1.7a4.83,4.83,0,0,1,3-2C145,46.26,145.1,47.21,144.55,48Z"/><path class="cls-220" d="M144.51,48a6.53,6.53,0,0,1-3.16,2c-.74.07-1.32-.48-.6-1.67a4.82,4.82,0,0,1,3-1.92C145,46.26,145.06,47.2,144.51,48Z"/><path class="cls-221" d="M144.48,48a6.5,6.5,0,0,1-3.13,2c-.73.07-1.3-.46-.58-1.63a4.77,4.77,0,0,1,3-1.9C145,46.27,145,47.18,144.48,48Z"/><path class="cls-222" d="M144.44,48a6.55,6.55,0,0,1-3.09,1.94c-.72.06-1.28-.46-.57-1.61a4.79,4.79,0,0,1,2.94-1.88C144.92,46.27,145,47.17,144.44,48Z"/><path class="cls-223" d="M144.4,47.94a6.53,6.53,0,0,1-3.05,1.91c-.71.07-1.26-.44-.55-1.57a4.74,4.74,0,0,1,2.9-1.86C144.88,46.28,144.93,47.16,144.4,47.94Z"/><path class="cls-224" d="M144.36,47.91a6.34,6.34,0,0,1-3,1.89c-.7.07-1.24-.42-.54-1.54a4.74,4.74,0,0,1,2.86-1.83C144.84,46.28,144.89,47.15,144.36,47.91Z"/><path class="cls-225" d="M144.32,47.89a6.34,6.34,0,0,1-3,1.87c-.68.07-1.22-.42-.52-1.52a4.65,4.65,0,0,1,2.82-1.8C144.8,46.29,144.84,47.14,144.32,47.89Z"/><path class="cls-226" d="M144.28,47.87a6.34,6.34,0,0,1-2.93,1.84c-.67.07-1.2-.4-.51-1.48a4.67,4.67,0,0,1,2.79-1.79C144.76,46.3,144.8,47.13,144.28,47.87Z"/><path class="cls-227" d="M144.25,47.85a6.41,6.41,0,0,1-2.9,1.81c-.66.08-1.17-.39-.49-1.45a4.58,4.58,0,0,1,2.75-1.76C144.72,46.3,144.76,47.12,144.25,47.85Z"/><path class="cls-228" d="M144.21,47.82a6.34,6.34,0,0,1-2.86,1.8c-.65.07-1.15-.38-.48-1.42a4.59,4.59,0,0,1,2.71-1.74C144.68,46.31,144.71,47.11,144.21,47.82Z"/><path class="cls-229" d="M144.17,47.8a6.22,6.22,0,0,1-2.82,1.77c-.64.08-1.13-.36-.46-1.39a4.5,4.5,0,0,1,2.67-1.71C144.64,46.31,144.67,47.1,144.17,47.8Z"/><path class="cls-230" d="M144.13,47.78a6.12,6.12,0,0,1-2.78,1.74c-.63.08-1.11-.35-.45-1.35a4.56,4.56,0,0,1,2.64-1.7C144.6,46.32,144.63,47.09,144.13,47.78Z"/><path class="cls-231" d="M144.09,47.75a6.25,6.25,0,0,1-2.74,1.73c-.62.08-1.09-.34-.44-1.33a4.53,4.53,0,0,1,2.61-1.67C144.56,46.32,144.58,47.08,144.09,47.75Z"/><path class="cls-232" d="M144.06,47.73a6.24,6.24,0,0,1-2.71,1.7c-.61.08-1.07-.33-.42-1.3a4.52,4.52,0,0,1,2.57-1.64C144.52,46.33,144.54,47.07,144.06,47.73Z"/><path class="cls-233" d="M144,47.71a6.14,6.14,0,0,1-2.67,1.67c-.6.09-1-.31-.41-1.26a4.52,4.52,0,0,1,2.53-1.63C144.48,46.33,144.5,47.06,144,47.71Z"/><path class="cls-234" d="M144,47.69a6.12,6.12,0,0,1-2.63,1.65c-.59.08-1-.3-.39-1.24a4.55,4.55,0,0,1,2.49-1.6C144.44,46.34,144.45,47.05,144,47.69Z"/><path class="cls-235" d="M143.94,47.66a6,6,0,0,1-2.59,1.63c-.58.09-1-.29-.38-1.2a4.43,4.43,0,0,1,2.46-1.58C144.41,46.35,144.41,47,143.94,47.66Z"/><path class="cls-236" d="M143.9,47.64a6.21,6.21,0,0,1-2.54,1.61c-.57.08-1-.28-.37-1.18a4.43,4.43,0,0,1,2.42-1.55C144.37,46.35,144.37,47,143.9,47.64Z"/><path class="cls-237" d="M143.86,47.62a6.12,6.12,0,0,1-2.5,1.58c-.56.09-1-.27-.36-1.15a4.47,4.47,0,0,1,2.39-1.53C144.33,46.36,144.32,47,143.86,47.62Z"/><path class="cls-238" d="M143.83,47.6a6.12,6.12,0,0,1-2.47,1.55c-.55.09-1-.25-.34-1.11a4.43,4.43,0,0,1,2.34-1.51C144.29,46.36,144.28,47,143.83,47.6Z"/><path class="cls-239" d="M143.79,47.57a6.24,6.24,0,0,1-2.43,1.54c-.54.09-.93-.24-.33-1.09a4.41,4.41,0,0,1,2.31-1.48C144.25,46.37,144.24,47,143.79,47.57Z"/><path class="cls-240" d="M143.75,47.55a6,6,0,0,1-2.39,1.51c-.53.09-.91-.23-.31-1.05a4.36,4.36,0,0,1,2.27-1.46C144.21,46.37,144.19,47,143.75,47.55Z"/><path class="cls-241" d="M143.71,47.53A6.08,6.08,0,0,1,141.36,49c-.52.1-.89-.21-.3-1a4.42,4.42,0,0,1,2.24-1.44C144.17,46.38,144.15,47,143.71,47.53Z"/></g><path class="cls-242" d="M147.36,51.13a2.65,2.65,0,1,1-2.65-2.68A2.67,2.67,0,0,1,147.36,51.13Z"/><path class="cls-109" d="M146.52,52.51l-1.8-1.33.67,2.11A2.27,2.27,0,0,0,146.52,52.51Z"/><path class="cls-243" d="M146.51,52.52l-1.79-1.34.69,2.1A2.22,2.22,0,0,0,146.51,52.52Z"/><path class="cls-244" d="M146.51,52.53l-1.79-1.35.71,2.09A2.26,2.26,0,0,0,146.51,52.53Z"/><path class="cls-111" d="M146.5,52.54l-1.78-1.36.74,2.08A2.16,2.16,0,0,0,146.5,52.54Z"/><path class="cls-245" d="M146.49,52.55l-1.77-1.37.76,2.07A2.11,2.11,0,0,0,146.49,52.55Z"/><path class="cls-147" d="M146.48,52.55l-1.76-1.37.78,2.06A2,2,0,0,0,146.48,52.55Z"/><path class="cls-113" d="M146.47,52.56l-1.75-1.38.8,2A1.93,1.93,0,0,0,146.47,52.56Z"/><path class="cls-166" d="M146.47,52.57l-1.75-1.39.82,2A2,2,0,0,0,146.47,52.57Z"/><path class="cls-17" d="M146.46,52.58l-1.74-1.4.85,2A2,2,0,0,0,146.46,52.58Z"/><path class="cls-115" d="M146.45,52.59l-1.73-1.41.87,2A2,2,0,0,0,146.45,52.59Z"/><path class="cls-167" d="M146.44,52.6l-1.72-1.42.89,2A2,2,0,0,0,146.44,52.6Z"/><path class="cls-168" d="M146.43,52.61l-1.71-1.43.91,2A1.82,1.82,0,0,0,146.43,52.61Z"/><path class="cls-117" d="M146.42,52.61l-1.7-1.43.93,2A1.71,1.71,0,0,0,146.42,52.61Z"/><path class="cls-169" d="M146.42,52.62l-1.7-1.44.95,2A1.81,1.81,0,0,0,146.42,52.62Z"/><path class="cls-170" d="M146.41,52.63l-1.69-1.45,1,2A1.77,1.77,0,0,0,146.41,52.63Z"/><path class="cls-119" d="M146.4,52.64l-1.68-1.46,1,2A1.72,1.72,0,0,0,146.4,52.64Z"/><path class="cls-171" d="M146.39,52.65l-1.67-1.47,1,2A1.81,1.81,0,0,0,146.39,52.65Z"/><path class="cls-172" d="M146.38,52.66l-1.66-1.48,1,2A1.63,1.63,0,0,0,146.38,52.66Z"/><path class="cls-121" d="M146.37,52.67l-1.65-1.49,1.06,2A1.58,1.58,0,0,0,146.37,52.67Z"/><path class="cls-109" d="M146.52,52.51a2.21,2.21,0,0,0,.43-.93l-2.23-.4Z"/><path class="cls-122" d="M146,49.37l-1.3,1.81,2.23.4a2.71,2.71,0,0,0,0-.4A2.2,2.2,0,0,0,146,49.37Z"/><path class="cls-246" d="M146,49.39l-1.32,1.79,2.23.38a1.84,1.84,0,0,0,0-.41A2.15,2.15,0,0,0,146,49.39Z"/><path class="cls-247" d="M146.06,49.4l-1.34,1.78,2.23.36a1.39,1.39,0,0,0,0-.41A2.17,2.17,0,0,0,146.06,49.4Z"/><path class="cls-248" d="M146.08,49.42l-1.36,1.76,2.23.34a1.89,1.89,0,0,0,0-.41A2.14,2.14,0,0,0,146.08,49.42Z"/><path class="cls-163" d="M146.1,49.44l-1.38,1.74,2.24.32a2.88,2.88,0,0,0,0-.42A2.13,2.13,0,0,0,146.1,49.44Z"/><path class="cls-249" d="M146.13,49.46l-1.41,1.72,2.24.29a2.75,2.75,0,0,0,0-.41A2.14,2.14,0,0,0,146.13,49.46Z"/><path class="cls-250" d="M146.15,49.47l-1.43,1.71,2.24.27a1.88,1.88,0,0,0,0-.41A2.14,2.14,0,0,0,146.15,49.47Z"/><path class="cls-251" d="M146.17,49.49l-1.45,1.69,2.24.25a2,2,0,0,0,0-.42A2.11,2.11,0,0,0,146.17,49.49Z"/><path class="cls-252" d="M146.19,49.51l-1.47,1.67,2.24.23a2,2,0,0,0,0-.42A2.11,2.11,0,0,0,146.19,49.51Z"/><path class="cls-253" d="M146.21,49.53l-1.49,1.65,2.25.21a2,2,0,0,0,0-.42A2.1,2.1,0,0,0,146.21,49.53Z"/><path class="cls-254" d="M146.23,49.54l-1.51,1.64,2.25.19a1.56,1.56,0,0,0,0-.43A2.1,2.1,0,0,0,146.23,49.54Z"/><path class="cls-255" d="M146.25,49.56l-1.53,1.62,2.25.17a1.56,1.56,0,0,0,0-.43A2.09,2.09,0,0,0,146.25,49.56Z"/><path class="cls-256" d="M146.27,49.58l-1.55,1.6,2.25.15a1.55,1.55,0,0,0,0-.43A2.11,2.11,0,0,0,146.27,49.58Z"/><path class="cls-131" d="M146.29,49.6l-1.57,1.58,2.25.12a1.57,1.57,0,0,0,0-.43A2.13,2.13,0,0,0,146.29,49.6Z"/><path class="cls-257" d="M146.31,49.61l-1.59,1.57,2.26.1a2.27,2.27,0,0,0-.67-1.67Z"/><path class="cls-258" d="M146.33,49.63l-1.61,1.55,2.26.08a1.59,1.59,0,0,0,0-.43A2.11,2.11,0,0,0,146.33,49.63Z"/><path class="cls-259" d="M146.35,49.65l-1.63,1.53,2.26.06a1.69,1.69,0,0,0,0-.44A2.16,2.16,0,0,0,146.35,49.65Z"/><path class="cls-260" d="M146.37,49.67l-1.65,1.51,2.26,0a1.63,1.63,0,0,0,0-.44A2.31,2.31,0,0,0,146.37,49.67Z"/><path class="cls-261" d="M146.39,49.68l-1.67,1.5,2.27,0a1.65,1.65,0,0,0-.05-.44A2.32,2.32,0,0,0,146.39,49.68Z"/><path class="cls-135" d="M146.41,49.7l-1.69,1.48H147a1.77,1.77,0,0,0-.05-.45A2.4,2.4,0,0,0,146.41,49.7Z"/><path class="cls-109" d="M142.67,50.24l2.05.94L144.58,49A2.24,2.24,0,0,0,142.67,50.24Z"/><path class="cls-109" d="M144.72,51.18l1.3-1.81a2.32,2.32,0,0,0-1.3-.4,2.74,2.74,0,0,0-.43,0Z"/><path class="cls-262" d="M144.72,51.18l1.3-1.81a2.32,2.32,0,0,0-1.3-.4,1.87,1.87,0,0,0-.42,0Z"/><path class="cls-263" d="M144.72,51.18l1.3-1.81a2.32,2.32,0,0,0-1.3-.4,2.5,2.5,0,0,0-.4,0Z"/><path class="cls-264" d="M144.72,51.18l1.3-1.81a2.32,2.32,0,0,0-1.3-.4,2.47,2.47,0,0,0-.39,0Z"/><path class="cls-265" d="M144.72,51.18l1.3-1.81a2.32,2.32,0,0,0-1.3-.4,2.13,2.13,0,0,0-.37,0Z"/><path class="cls-266" d="M144.72,51.18l1.3-1.81a2.32,2.32,0,0,0-1.3-.4,2.1,2.1,0,0,0-.36,0Z"/><path class="cls-150" d="M144.72,51.18l1.3-1.81a2.32,2.32,0,0,0-1.3-.4,1.79,1.79,0,0,0-.34,0Z"/><path class="cls-267" d="M144.72,51.18l1.3-1.81a2.32,2.32,0,0,0-1.3-.4,1.84,1.84,0,0,0-.33,0Z"/><path class="cls-140" d="M144.72,51.18l1.3-1.81a2.32,2.32,0,0,0-1.3-.4l-.31,0Z"/><path class="cls-3" d="M144.72,51.18l1.3-1.81a2.32,2.32,0,0,0-1.3-.4l-.29,0Z"/><path class="cls-268" d="M144.72,51.18l1.3-1.81a2.32,2.32,0,0,0-1.3-.4l-.28,0Z"/><path class="cls-142" d="M144.72,51.18l1.3-1.81a2.32,2.32,0,0,0-1.3-.4l-.26,0Z"/><path class="cls-269" d="M144.72,51.18l1.3-1.81a2.32,2.32,0,0,0-1.3-.4l-.25,0Z"/><path class="cls-270" d="M144.72,51.18l1.3-1.81a2.32,2.32,0,0,0-1.3-.4l-.23,0Z"/><path class="cls-144" d="M144.72,51.18l1.3-1.81a2.32,2.32,0,0,0-1.3-.4h-.22Z"/><path class="cls-271" d="M144.72,51.18l1.3-1.81a2.32,2.32,0,0,0-1.3-.4h-.2Z"/><path class="cls-272" d="M144.72,51.18l1.3-1.81a2.32,2.32,0,0,0-1.3-.4h-.18Z"/><path class="cls-273" d="M144.72,51.18l1.3-1.81a2.32,2.32,0,0,0-1.3-.4h-.17Z"/><path class="cls-161" d="M144.72,51.18l1.3-1.81a2.32,2.32,0,0,0-1.3-.4h-.15Z"/><path class="cls-122" d="M144.72,51.18l1.3-1.81a2.32,2.32,0,0,0-1.3-.4h-.14Z"/><path class="cls-147" d="M142.67,50.24a2,2,0,0,0-.22.94,2.25,2.25,0,0,0,.45,1.31l1.82-1.31Z"/><path class="cls-147" d="M144.12,53.31l.6-2.13-1.5,1.65A2.24,2.24,0,0,0,144.12,53.31Z"/><path class="cls-147" d="M142.87,52.45a2.49,2.49,0,0,0,.57.55l1.28-1.82Z"/><path class="cls-274" d="M142.88,52.46a2.33,2.33,0,0,0,.55.53l1.29-1.81Z"/><path class="cls-275" d="M142.88,52.47a2.21,2.21,0,0,0,.54.51l1.3-1.8Z"/><path class="cls-109" d="M142.89,52.47a2,2,0,0,0,.51.5l1.32-1.79Z"/><path class="cls-158" d="M142.89,52.48a2.09,2.09,0,0,0,.5.48l1.33-1.78Z"/><path class="cls-276" d="M142.9,52.49a2.29,2.29,0,0,0,.47.46l1.35-1.77Z"/><path class="cls-277" d="M142.91,52.5a2.1,2.1,0,0,0,.45.44l1.36-1.76Z"/><path class="cls-278" d="M142.91,52.51a2.22,2.22,0,0,0,.44.42l1.37-1.75Z"/><path class="cls-152" d="M142.92,52.52a2.24,2.24,0,0,0,.41.4l1.39-1.74Z"/><path class="cls-279" d="M142.93,52.52a1.57,1.57,0,0,0,.39.38l1.4-1.72Z"/><path class="cls-280" d="M142.93,52.53a1.82,1.82,0,0,0,.37.36l1.42-1.71Z"/><path class="cls-281" d="M142.94,52.54a1.42,1.42,0,0,0,.35.34l1.43-1.7Z"/><path class="cls-282" d="M142.94,52.55a2,2,0,0,0,.33.32l1.45-1.69Z"/><path class="cls-283" d="M143,52.56a1.79,1.79,0,0,0,.31.3l1.46-1.68Z"/><path class="cls-255" d="M143,52.57a1.57,1.57,0,0,0,.29.28l1.47-1.67Z"/><path class="cls-131" d="M143,52.57a1.69,1.69,0,0,0,.27.27l1.49-1.66Z"/><path class="cls-157" d="M143,52.58a1.45,1.45,0,0,0,.25.25l1.5-1.65Z"/><path class="cls-109" d="M142.88,49.89a2.53,2.53,0,0,0-.34.7l2.18.59Z"/><path class="cls-284" d="M142.88,49.89a2.77,2.77,0,0,0-.34.69l2.18.6Z"/><path class="cls-138" d="M142.87,49.9a2.54,2.54,0,0,0-.32.66l2.17.62Z"/><path class="cls-159" d="M142.87,49.91a2,2,0,0,0-.32.64l2.17.63Z"/><path class="cls-141" d="M142.86,49.92a2.56,2.56,0,0,0-.31.62l2.17.64Z"/><path class="cls-269" d="M142.86,49.92a2.17,2.17,0,0,0-.3.61l2.16.65Z"/><path class="cls-160" d="M142.85,49.93a2.61,2.61,0,0,0-.29.58l2.16.67Z"/><path class="cls-285" d="M142.85,49.94a2.09,2.09,0,0,0-.28.56l2.15.68Z"/><path class="cls-122" d="M142.84,50a2.26,2.26,0,0,0-.27.54l2.15.69Z"/><path class="cls-162" d="M142.84,50a1.93,1.93,0,0,0-.26.52l2.14.7Z"/><path class="cls-248" d="M142.83,50a2.32,2.32,0,0,0-.25.5l2.14.72Z"/><path class="cls-286" d="M142.83,50a2.14,2.14,0,0,0-.24.48l2.13.73Z"/><path class="cls-164" d="M142.82,50a2,2,0,0,0-.23.46l2.13.74Z"/><path class="cls-287" d="M142.82,50a1.43,1.43,0,0,0-.22.43l2.12.76Z"/><path class="cls-253" d="M142.81,50a2,2,0,0,0-.21.42l2.12.77Z"/><path class="cls-165" d="M142.81,50a1.81,1.81,0,0,0-.21.4l2.12.78Z"/><path class="cls-288" d="M142.8,50a1.66,1.66,0,0,0-.19.38l2.11.79Z"/><path class="cls-289" d="M142.8,50a1.77,1.77,0,0,0-.19.35l2.11.81Z"/><path class="cls-157" d="M142.79,50a1.62,1.62,0,0,0-.17.33l2.1.82Z"/><path class="cls-109" d="M144.72,53.39a2.47,2.47,0,0,0,.67-.1l-.67-2.11-.6,2.13A2.35,2.35,0,0,0,144.72,53.39Z"/><path class="cls-147" d="M142.87,52.45l1.85-1.28-2.26-.08A2.34,2.34,0,0,0,142.87,52.45Z"/><path class="cls-290" d="M142.86,52.44l1.86-1.27-2.26-.06A2.31,2.31,0,0,0,142.86,52.44Z"/><path class="cls-291" d="M142.86,52.43l1.86-1.26-2.26,0A2.31,2.31,0,0,0,142.86,52.43Z"/><path class="cls-166" d="M142.85,52.42l1.87-1.25h-2.25A2.2,2.2,0,0,0,142.85,52.42Z"/><path class="cls-292" d="M142.85,52.41l1.87-1.24h-2.25A2.18,2.18,0,0,0,142.85,52.41Z"/><path class="cls-293" d="M142.84,52.4l1.88-1.23-2.25,0A2.34,2.34,0,0,0,142.84,52.4Z"/><path class="cls-294" d="M142.84,52.38l1.88-1.21-2.24.06A2.08,2.08,0,0,0,142.84,52.38Z"/><path class="cls-295" d="M142.83,52.37l1.89-1.2-2.24.08A2.14,2.14,0,0,0,142.83,52.37Z"/><path class="cls-116" d="M142.83,52.36l1.89-1.19-2.24.11A2.06,2.06,0,0,0,142.83,52.36Z"/><path class="cls-168" d="M142.82,52.35l1.9-1.18-2.23.13A2,2,0,0,0,142.82,52.35Z"/><path class="cls-296" d="M142.81,52.34l1.91-1.17-2.23.15A2,2,0,0,0,142.81,52.34Z"/><path class="cls-297" d="M142.81,52.33l1.91-1.16-2.22.18A1.92,1.92,0,0,0,142.81,52.33Z"/><path class="cls-298" d="M142.8,52.32l1.92-1.15-2.22.2A2,2,0,0,0,142.8,52.32Z"/><path class="cls-299" d="M142.8,52.31l1.92-1.14-2.22.22A1.86,1.86,0,0,0,142.8,52.31Z"/><path class="cls-300" d="M142.79,52.3l1.93-1.13-2.21.25A1.86,1.86,0,0,0,142.79,52.3Z"/><path class="cls-301" d="M142.79,52.29l1.93-1.11-2.21.26A1.75,1.75,0,0,0,142.79,52.29Z"/><path class="cls-302" d="M142.78,52.28l1.94-1.1-2.21.28A1.85,1.85,0,0,0,142.78,52.28Z"/><path class="cls-303" d="M142.78,52.27l1.94-1.09-2.2.31A1.64,1.64,0,0,0,142.78,52.27Z"/><path class="cls-304" d="M142.77,52.26l1.95-1.08-2.2.33A1.75,1.75,0,0,0,142.77,52.26Z"/><path class="cls-121" d="M142.76,52.24l2-1.06-2.2.35A1.81,1.81,0,0,0,142.76,52.24Z"/><path class="cls-10" d="M140.83,54.62a5.11,5.11,0,0,1-.93-1.53,5.18,5.18,0,0,1-.35-1.79,5.33,5.33,0,0,1,1.16-3.42,5.69,5.69,0,0,1,1.38-1.21,5,5,0,0,1,1.72-.64,5.24,5.24,0,0,1,1.81,0,4.76,4.76,0,0,1,1.68.64,5.36,5.36,0,0,0-3.43-.35A5.25,5.25,0,0,0,141,48.12a5.3,5.3,0,0,0-1.16,3.19A5.53,5.53,0,0,0,140.83,54.62Z"/><path class="cls-265" d="M146.72,49.3a2.71,2.71,0,0,1,.5.79,3.28,3.28,0,0,1,.19.93,2.79,2.79,0,0,1-.59,1.79,2.72,2.72,0,0,1-.72.63,2.55,2.55,0,0,1-.89.35,2.7,2.7,0,0,1-.94,0,2.52,2.52,0,0,1-.88-.32,2.77,2.77,0,0,0,1.79.16,2.6,2.6,0,0,0,1.48-1,2.76,2.76,0,0,0,.6-1.66A2.9,2.9,0,0,0,146.72,49.3Z"/><path d="M141.76,52.69a.39.39,0,0,1,.29-.07.36.36,0,0,0-.47,0l-1.44,1,.18.09Z"/><path class="cls-121" d="M142.29,52.77a.41.41,0,0,0-.24-.15s0,0,0,.05a.38.38,0,0,1-.08.53l-1.49,1,.18.1,1.49-1.05A.38.38,0,0,0,142.29,52.77Z"/><path class="cls-22" d="M142.1,52.67s0,0,0-.05a.39.39,0,0,0-.29.07l-1.44,1-.18-.09a5.09,5.09,0,0,0,.39.63l1.49-1A.38.38,0,0,0,142.1,52.67Z"/><path class="cls-305" d="M137.25,69.08a8.17,8.17,0,0,1-7.59,8.7,8,8,0,0,1-7.3-4.08,8.63,8.63,0,0,1-1.11-3.83,8.16,8.16,0,0,1,7.59-8.7,7.66,7.66,0,0,1,2.3.23A8.26,8.26,0,0,1,137.25,69.08Z"/><path class="cls-10" d="M122.5,73.71a8,8,0,0,1-1-2.16,8.48,8.48,0,0,1-.29-2.36,8.39,8.39,0,0,1,1.43-4.51,7.91,7.91,0,0,1,3.73-2.93,7.54,7.54,0,0,1,2.34-.46,7.17,7.17,0,0,1,2.35.31,7.83,7.83,0,0,0-8.1,3.29,8.24,8.24,0,0,0-1.46,4.31A8.88,8.88,0,0,0,122.5,73.71Z"/><path class="cls-107" d="M136.82,67a7.8,7.8,0,0,0-1.06-2.12,9,9,0,0,1,1.18,4.49,8.34,8.34,0,0,1-1.23,4.41,7.79,7.79,0,0,1-3.36,3.07,6.42,6.42,0,0,1-1.13.43l3.61-8.3c0-.06-.36-5.71-.35-5.77a7.61,7.61,0,0,0-1.59-1.12l-.08,0a4,4,0,0,0-.51-.24h0a.72.72,0,0,0-.39.36l-7,14.3h0a7.71,7.71,0,0,0,4.74,1.33,8.21,8.21,0,0,0,2.81-.67A8.11,8.11,0,0,0,136,74a8.53,8.53,0,0,0,.78-7Z"/><rect class="cls-306" x="120.4" y="67.91" width="17.69" height="2.81" rx="0.74" transform="translate(10.29 155.1) rotate(-64)"/><path d="M126.23,74.79a.42.42,0,0,1,.26-.23.45.45,0,0,0-.51.23L124.89,77h.25Z"/><path class="cls-121" d="M126.82,74.57a.47.47,0,0,0-.33,0l.09,0a.43.43,0,0,1,.2.58l-1.11,2.26h.24L127,75.15A.43.43,0,0,0,126.82,74.57Z"/><path class="cls-307" d="M126.58,74.58l-.09,0a.42.42,0,0,0-.26.23L125.14,77h-.25a7.22,7.22,0,0,0,.78.41l1.11-2.26A.43.43,0,0,0,126.58,74.58Z"/><path class="cls-10" d="M124.43,76c.52-1.24,1.08-2.47,1.65-3.7s1.15-2.44,1.73-3.66S129,66.2,129.63,65l.93-1.8c.33-.59.64-1.19,1-1.78-.26.62-.54,1.24-.8,1.86l-.85,1.84c-.56,1.23-1.15,2.44-1.73,3.66s-1.2,2.42-1.82,3.62S125.09,74.8,124.43,76Z"/><path class="cls-22" d="M127,77.16c.52-1.25,1.08-2.48,1.65-3.7s1.14-2.45,1.73-3.66,1.19-2.43,1.82-3.63l.93-1.8c.32-.59.64-1.19,1-1.78-.26.62-.54,1.24-.81,1.86l-.84,1.84c-.56,1.23-1.15,2.45-1.74,3.66s-1.19,2.43-1.81,3.63S127.63,76,127,77.16Z"/><path class="cls-308" d="M23.58,72.4a2.64,2.64,0,0,1,2-2.46c12.71-2.53,30.8-4.13,46.85-4.13,6.07,0,11.49.23,16.15.68a2.16,2.16,0,0,1,2.09,1.89c.13.89.26,1.88.39,2.94l13.69-.69c0-6.49-.15-12.43-.37-17.26C80,53.59,37.5,57,10.59,60.87c.17,4.46.41,9.37.69,14.49l12.09-.61C23.43,74,23.5,73.18,23.58,72.4Z"/><path class="cls-22" d="M93.91,117.65c2.3-13.9,2.5-41.73.39-53.18a2.17,2.17,0,0,0-1.89-1.78,170.38,170.38,0,0,0-19.31-.94c-17.59,0-37.56,1.81-50.88,4.61a2.5,2.5,0,0,0-1.91,2.12c-2.15,17.39,0,37.58,2.65,50.68a3.16,3.16,0,0,0,3,2.67c9.85.85,19.63,1.28,29.09,1.28a242.69,242.69,0,0,0,36.2-2.5A3.18,3.18,0,0,0,93.91,117.65Z"/><path d="M94.66,64.4a2.51,2.51,0,0,0-2.2-2.08,171.22,171.22,0,0,0-19.36-1c-17.61,0-37.61,1.81-50.95,4.62a2.87,2.87,0,0,0-2.21,2.44c-2.16,17.44,0,37.68,2.66,50.8a3.5,3.5,0,0,0,3.29,3c9.85.86,19.65,1.29,29.12,1.29A243.53,243.53,0,0,0,91.27,121a3.52,3.52,0,0,0,3-3.27C96.59,103.78,96.79,75.88,94.66,64.4ZM55,123.11c-9.46,0-19.24-.43-29.09-1.28a3.16,3.16,0,0,1-3-2.67c-2.69-13.1-4.8-33.29-2.65-50.68a2.5,2.5,0,0,1,1.91-2.12c13.32-2.8,33.29-4.61,50.88-4.61a170.38,170.38,0,0,1,19.31.94,2.17,2.17,0,0,1,1.89,1.78c2.11,11.45,1.91,39.28-.39,53.18a3.18,3.18,0,0,1-2.7,3A242.69,242.69,0,0,1,55,123.11Z"/><path class="cls-144" d="M55,121.43c-9.41,0-19.15-.43-28.94-1.28a1.49,1.49,0,0,1-1.45-1.33C22,105.85,19.86,85.87,22,68.68a.8.8,0,0,1,.58-.67c13.21-2.78,33.05-4.58,50.53-4.58a171.88,171.88,0,0,1,19.12.93.49.49,0,0,1,.42.42c2.09,11.3,1.88,38.83-.4,52.6-.2,1.24-.73,1.48-1.28,1.57A242.13,242.13,0,0,1,55,121.43Z"/><path class="cls-309" d="M58.64,93.41c4.38-.18,23.81-.59,28.66-.59-4.83,0-24.14-.41-28.61-.59.48-1.13,2.9-3.89,7.19-8.18-4.33,4.33-7.1,6.8-8.21,7.31-.2-2.52-.56-10.21-.56-12.28,0,2.1-.37,10-.56,12.4-1-.3-3.13-2-6.46-4.94,3.22,2.88,5.06,4.79,5.49,5.69-4.38.18-23.81.59-28.66.59,4.83,0,24.14.41,28.61.59-.48,1.13-2.9,3.89-7.19,8.18,4.33-4.33,7.11-6.8,8.22-7.31.19,2.53.55,10.21.55,12.28,0-2.1.38-10,.56-12.4,1,.3,3.13,2,6.47,4.94C60.92,96.22,59.07,94.31,58.64,93.41Z"/><path class="cls-310" d="M55,121.43c-9.41,0-19.15-.43-28.94-1.28a1.49,1.49,0,0,1-1.45-1.33C22,105.85,19.86,85.87,22,68.68a.8.8,0,0,1,.58-.67c13.21-2.78,33.05-4.58,50.53-4.58a171.88,171.88,0,0,1,19.12.93.49.49,0,0,1,.42.42c2.09,11.3,1.88,38.83-.4,52.6-.2,1.24-.73,1.48-1.28,1.57A242.13,242.13,0,0,1,55,121.43Z"/><path class="cls-311" d="M28.61,104.57c4-4,.25-12.75,3.5-21C35.12,75.94,74,73.26,91.86,81c-.18-4.27-.71-9.25-1.2-12.66a2.16,2.16,0,0,0-2.09-1.89c-4.66-.45-10.08-.68-16.15-.68-16.05,0-34.14,1.6-46.85,4.13a2.64,2.64,0,0,0-2,2.46,164.91,164.91,0,0,0,.8,34.89A9.94,9.94,0,0,0,28.61,104.57Z"/></g></g></g></svg>