<svg xmlns="http://www.w3.org/2000/svg" viewBox="0 0 1500.9 1471.76"><defs><style>.cls-1{isolation:isolate;}.cls-2,.cls-5{fill:#c1272d;}.cls-10,.cls-11,.cls-2,.cls-3,.cls-4,.cls-8,.cls-9{fill-rule:evenodd;}.cls-3,.cls-6{fill:#e42413;}.cls-4,.cls-7{fill:#ed1c24;}.cls-18,.cls-8{fill:#fff;}.cls-8{opacity:0.15;mix-blend-mode:screen;}.cls-12,.cls-9{fill:#f96f01;}.cls-10,.cls-13{fill:#f9830e;}.cls-11,.cls-14{fill:#f99b1c;}.cls-15{fill:#f6ad06;}.cls-16{fill:#ffe218;}.cls-17{fill:#aa6a2c;}</style></defs><g class="cls-1"><g id="Layer_2" data-name="Layer 2"><g id="SWEETS"><path class="cls-2" d="M1467.08,662.94c-60.85,81.21-215.06,159.34-292,101.68S1129.14,547.74,1188,465.05c74-104,66-4.29,87.83-9.37,113.79-26.54,45,47.9,88.06,44.51,70.86-5.58,18.7,53,86.51,47.43C1531.75,540.9,1497.51,622.34,1467.08,662.94Z"/><path class="cls-3" d="M1456.77,647.24C1401,721.66,1255.65,786.58,1184,732.87s-29.14-219,26.62-293.45c30.71-41,36.58,32.58,69.35,24.8,89.28-21.2,29,46.92,78.82,48.33,70.77,2,20.14,56.2,83.22,50.23S1489.65,603.35,1456.77,647.24Z"/><path class="cls-4" d="M1435.31,618.05c-46.82,62.48-175.61,124.71-235.8,79.61s-29-180.44,17.84-242.92c25.85-34.5,2.31,25.48,63.9,15.44,56.71-9.25,35.21,46.35,61.73,44.93,59.23-3.17,26.53,43.82,76.24,39.72S1462.1,582.3,1435.31,618.05Z"/><ellipse class="cls-5" cx="1045.81" cy="933.99" rx="256.47" ry="252.28" transform="translate(-48.47 1810.7) rotate(-80.47)"/><circle class="cls-6" cx="1032.33" cy="909.97" r="235.01"/><circle class="cls-7" cx="1022.37" cy="893.44" r="197.32"/><path class="cls-2" d="M873.17,1412.59c62.57-83.51,96.87-257,19.91-314.62S669.55,1118.11,605,1200.09c-81.22,103.14,13.71,65.56,14.67,88.29,5,118.69,58.8,29.51,67.15,72.4,13.75,70.63,56.68,2.34,69.59,70C771.9,1512,841.89,1454.34,873.17,1412.59Z"/><path class="cls-3" d="M855.1,1407.24c57.33-76.52,81.17-237.41,9.49-291.12s-221.08,37.14-278.41,113.66c-31.57,42.14,41.61,25.87,42.91,60.08,3.53,93.24,53.51,14.2,68.38,62.27,21.1,68.28,60.15,2.8,71.42,66S821.28,1452.38,855.1,1407.24Z"/><path class="cls-4" d="M820.87,1395.09c48.15-64.25,73.85-208.21,13.66-253.31s-183.47,25.75-231.61,90c-26.59,35.48,25.42-5.37,32.32,57.58,6.35,58,54.65,20.41,60.45,46.65,12.95,58.6,49.83,12.72,59.3,62.33S793.33,1431.85,820.87,1395.09Z"/><path class="cls-8" d="M1065.18,717.52c-100.5-8.38-204,39-213.11,188.19S885,747.76,1065.18,717.52Z"/><path class="cls-8" d="M1197.12,662.66c40.31-76.3,53.76-179.4,26-189.15S1200.54,661.15,1197.12,662.66Z"/><path class="cls-8" d="M1237.93,686.82C1322.55,670,1411,615.32,1401,587.58S1241.25,688.53,1237.93,686.82Z"/><path class="cls-8" d="M1217.68,675.85c55-57,110.19-142.9,102-157.28S1220,675.29,1217.68,675.85Z"/><path class="cls-8" d="M857.12,1197.91c-55.34,66.21-90,164.24-64.82,179.57S853.46,1198.67,857.12,1197.91Z"/><path class="cls-8" d="M822.25,1165.76c-86.29-1.14-184.2,33.85-180.21,63.06S819.35,1163.4,822.25,1165.76Z"/><path class="cls-8" d="M839.76,1180.71c-65.63,44.31-137.57,116.79-132.5,132.58S837.39,1180.78,839.76,1180.71Z"/><path class="cls-9" d="M1250,261.76c-66.54,8.16-175.53-37.65-184.77-110.84S1145,12.2,1211.23,2.13c83.39-12.66,33,34.81,45.66,44.39,65.89,50-1.21,50.2,20.6,72.57,35.92,36.84-16,38.1,18.51,73.23C1337.4,234.47,1283.25,257.67,1250,261.76Z"/><path class="cls-10" d="M1252.47,247.79c-61,7.48-159.64-40.24-168.24-108.42S1172.86,9,1233.84,1.48c33.58-4.12,2,37.49,21,51.81,51.87,39-8.28,40.7,14.48,69.39,32.33,40.73-16.8,40.56,15.65,72.83S1288.43,243.38,1252.47,247.79Z"/><path class="cls-11" d="M1256,220.55c-51.2,6.28-140.81-33.55-148-90.8s70.68-110.22,121.88-116.5c28.27-3.47-10.82,14.57,22.83,43.88,31,27-5.11,43.89,8,58,29.33,31.57-8,37.7,17.28,63.45S1285.31,217,1256,220.55Z"/><path class="cls-8" d="M1123.21,110.18c54.6-17.12,109.09-63.27,100.57-83.95S1125.52,111.31,1123.21,110.18Z"/><path class="cls-8" d="M1131.11,145.66c47.66,38.67,114.77,59.84,123,39.8S1131.87,148.41,1131.11,145.66Z"/><path class="cls-8" d="M1126.71,128.59c52.47,1.12,118.56-12.61,121.41-24.73S1128.06,129.59,1126.71,128.59Z"/><ellipse class="cls-12" cx="727.58" cy="205.93" rx="368.93" ry="141.13" transform="translate(-21.76 104.62) rotate(-8.1)"/><ellipse class="cls-13" cx="742.05" cy="189.86" rx="339.17" ry="131.04" transform="translate(-18.85 102) rotate(-7.77)"/><ellipse class="cls-14" cx="751.38" cy="178.57" rx="284.78" ry="110.03" transform="translate(-17.24 103.16) rotate(-7.77)"/><path class="cls-8" d="M985.34,107.67C903.71,70.37,757.49,59,583.65,128.15S788.7,62.67,985.34,107.67Z"/><path class="cls-9" d="M255.08,401.12C321,393.1,414,321,404.46,245.76S293.11,126.84,227,132.9c-83.18,7.62-22.94,42.72-32.64,55.34-50.63,65.84,13.78,49.75-1.52,77.34-25.19,45.45,24.91,34.11.66,77.49C164.37,395.15,222.14,405.13,255.08,401.12Z"/><path class="cls-10" d="M249.19,387.81c60.37-7.35,143-78.88,134.13-148.94S265.51,130.39,205.14,137.74c-33.25,4,7.53,37.85-7.13,56.75-39.95,51.51,18.18,38.56,3.55,72.68-20.77,48.46,26.31,36.36,3.3,76.42S213.58,392.14,249.19,387.81Z"/><path class="cls-11" d="M238.93,361.52c50.69-6.17,126.64-67.64,119.18-126.47s-95.5-92.72-146.2-86.55c-28,3.41,14.05,11.9-10.86,49.29-22.93,34.43,15.93,42.51,6.89,59.8-20.19,38.59,17.15,35.64-.63,67.45S209.93,365.05,238.93,361.52Z"/><path class="cls-8" d="M343.44,277.93C288.58,281,229,312.88,233.7,335.61S341.42,276.21,343.44,277.93Z"/><path class="cls-8" d="M341.8,240.66c-39-50.64-99.45-88.85-110.64-71S341.52,237.72,341.8,240.66Z"/><path class="cls-8" d="M343.15,258.74c-49.81-14.55-115.06-17.81-119.78-6.5S342,257.4,343.15,258.74Z"/><path class="cls-15" d="M555.93,1071.07c58.3-30.8-132-515.93-161.71-554.43S42.2,755.35,2.6,858.76,386.52,1121.67,555.93,1071.07Z"/><path class="cls-16" d="M510.83,925.86c4.4-12.1-90.33-395.08-132-390.52-70.4,7.7-323,236.49-321.22,272.81C58.74,831,434.48,973.36,510.83,925.86Z"/><path class="cls-17" d="M551.53,1061.17c18.41-10.13-33.44-121.31-39.27-126.66s23.87,103.56,14,117.86S529.53,1073.27,551.53,1061.17Z"/><path class="cls-17" d="M48.8,817c-13.2,4.4-42.56,66-36.13,77S40,837.86,48.8,817Z"/><path class="cls-17" d="M507.53,1057.87C427.22,1040.27,57.6,834.56,57.6,834.56S296.31,997.36,507.53,1057.87Z"/><path class="cls-17" d="M449.22,1051.27C395,1039.56,145.61,902.76,145.61,902.76S306.69,1011,449.22,1051.27Z"/><path class="cls-18" d="M384.32,552.94c-38.5-13.2-313.52,215.61-308,253,16.5,16.5,34.1,17.6,49.51,23.11s-33-13.59-23.11-40.71C119.21,743.25,313.92,590.34,384.32,552.94Z"/></g></g></g></svg>