<svg width="798" height="798" viewBox="0 0 798 798" fill="none" xmlns="http://www.w3.org/2000/svg">
<path d="M370.261 111.827C370.261 111.827 313.548 27.5572 214.343 0C152.504 73.9083 139.387 91.159 148.536 145.832C157.685 200.506 177.857 216.709 177.857 216.709L370.261 111.827Z" fill="#F78B31"/>
<path d="M311.556 138.722C311.556 138.722 268.237 88.1826 245.695 88.1826C223.153 88.1826 186.998 142.856 224.476 190.42C261.954 237.983 311.556 138.722 311.556 138.722Z" fill="#7D2524"/>
<path d="M424.381 111.827C424.381 111.827 481.093 27.5572 580.354 0C642.137 73.9083 655.255 91.159 646.161 145.832C637.067 200.506 616.785 216.709 616.785 216.709L424.381 111.827Z" fill="#F78B31"/>
<path d="M483.188 138.722C483.188 138.722 526.673 88.1826 548.939 88.1826C571.205 88.1826 607.691 142.856 570.213 190.42C532.735 237.983 483.188 138.722 483.188 138.722Z" fill="#7D2524"/>
<path d="M794.471 514.161C794.471 309.632 495.421 105.323 399.081 105.323C302.742 105.323 3.69141 309.632 3.69141 514.161C3.69141 718.69 180.719 798 399.081 798C617.444 798 794.471 718.635 794.471 514.161Z" fill="#FFD1A4"/>
<path d="M785.492 484.289C785.492 294.696 493.387 105.323 399.086 105.323C304.786 105.323 12.6797 294.696 12.6797 484.289C12.6797 673.882 185.573 747.35 399.086 747.35C612.599 747.35 785.492 673.827 785.492 484.289Z" fill="#F78B31"/>
<path d="M398.642 199.514C398.642 199.514 273.092 197.474 190.035 286.594C106.978 375.714 170.8 484.069 170.8 484.069C170.8 484.069 230.544 605.32 317.624 602.565C404.705 599.809 402.666 594.463 402.666 594.463C402.666 594.463 460.426 608.627 498.895 599.478C537.365 590.329 610.281 541.774 633.595 473.983C656.908 406.192 663.963 348.433 623.454 300.814C582.945 253.195 484.731 191.412 398.642 199.514Z" fill="#FFEDBF"/>
<path d="M222.438 299.766C222.438 299.766 289.291 258.21 401.669 258.21C514.047 258.21 573.846 298.719 573.846 298.719C573.846 298.719 573.846 334.157 547.502 348.322C521.157 362.486 482.687 360.447 461.413 395.886C440.139 431.324 437.108 449.622 406.023 449.622C374.939 449.622 365.514 443.559 353.334 421.293C341.154 399.027 328.863 374.777 302.408 364.581C275.954 354.384 257.876 359.51 243.712 346.338C229.547 333.165 222.438 299.766 222.438 299.766Z" fill="#7D2524"/>
<path d="M330.793 604.549C330.793 604.549 357.138 648.089 401.67 648.089C446.202 648.089 461.414 604.549 461.414 604.549L402.662 594.463L330.793 604.549Z" fill="#7D2524"/>
<path d="M332.838 695.708C332.838 695.708 358.135 737.209 397.652 737.209C437.169 737.209 462.412 697.747 462.412 697.747C462.412 697.747 395.613 735.225 332.838 695.708Z" fill="#7D2524"/>
<path d="M118.885 267.414C118.885 267.414 77.8795 334.048 80.8557 392.469C83.8319 450.89 158.842 574.842 158.842 574.842C158.842 574.842 109.625 441.631 111.665 382.218C113.704 322.804 148.591 239.747 148.591 239.747L118.885 267.414Z" fill="#321006"/>
<path d="M71.6987 321.757C71.6987 321.757 53.2905 418.868 57.369 459.047C61.4474 499.225 93.2484 570.763 93.2484 570.763C93.2484 570.763 36.7562 505.177 32.788 462.133C28.8197 419.089 45.0785 355.542 45.0785 355.542L71.6987 321.757Z" fill="#321006"/>
<path d="M7.16486 450.89C7.16486 450.89 33.7851 586.14 74.7901 624.059C50.2091 610.721 15.3769 562.551 15.3769 562.551L0 482.635L7.16486 450.89Z" fill="#321006"/>
<path d="M678.735 267.414C678.735 267.414 719.74 334.048 716.654 392.469C713.567 450.89 638.777 574.842 638.777 574.842C638.777 574.842 687.994 441.631 685.955 382.218C683.916 322.804 649.029 239.747 649.029 239.747L678.735 267.414Z" fill="#321006"/>
<path d="M725.688 321.757C725.688 321.757 744.097 419.089 740.018 459.047C735.94 499.004 704.139 570.763 704.139 570.763C704.139 570.763 760.521 505.177 764.764 462.133C769.008 419.089 752.474 355.542 752.474 355.542L725.688 321.757Z" fill="#321006"/>
<path d="M790.451 450.89C790.451 450.89 763.831 586.14 722.826 624.059C747.407 610.721 782.239 562.551 782.239 562.551L797.616 482.635L790.451 450.89Z" fill="#321006"/>
<path d="M315.584 126.762C315.584 126.762 322.198 147.485 340.937 141.423C359.675 135.36 347.495 113.094 347.495 113.094L315.584 126.762Z" fill="#321006"/>
<path d="M377.371 104.331C377.371 104.331 381.45 131.888 399.417 131.888C417.384 131.888 419.203 105.543 419.203 105.543C419.203 105.543 404.983 94.9062 394.346 94.9062C391.001 95.147 387.749 96.115 384.817 97.7429C381.885 99.3707 379.344 101.619 377.371 104.331Z" fill="#321006"/>
<path d="M454.303 114.417C454.303 114.417 443.281 134.203 457.39 141.974C471.499 149.745 483.679 127.81 483.679 127.81L454.303 114.417Z" fill="#321006"/>
<path d="M396.662 448.961V601.517" stroke="#7D2524" stroke-width="1.47" stroke-miterlimit="10"/>
<path d="M387.558 177.083C390.7 166.942 353.883 155.478 350.687 165.674C349.937 168.095 349.673 170.64 349.907 173.163C350.141 175.687 350.87 178.139 352.053 180.381C353.235 182.622 354.847 184.609 356.797 186.228C358.747 187.846 360.997 189.065 363.418 189.814C365.839 190.563 368.384 190.828 370.907 190.594C373.431 190.359 375.883 189.63 378.125 188.448C380.366 187.266 382.353 185.654 383.972 183.703C385.59 181.753 386.809 179.504 387.558 177.083Z" fill="#0A361F"/>
<path d="M415.292 177.083C412.15 166.942 448.966 155.478 452.163 165.674C453.676 170.563 453.184 175.854 450.797 180.381C448.409 184.908 444.321 188.301 439.432 189.814C434.542 191.327 429.252 190.835 424.725 188.448C420.198 186.06 416.804 181.972 415.292 177.083Z" fill="#0A361F"/>
<path d="M357.471 175.98C359.297 175.98 360.778 174.499 360.778 172.673C360.778 170.847 359.297 169.366 357.471 169.366C355.645 169.366 354.164 170.847 354.164 172.673C354.164 174.499 355.645 175.98 357.471 175.98Z" fill="white"/>
<path d="M425.707 175.98C427.534 175.98 429.014 174.499 429.014 172.673C429.014 170.847 427.534 169.366 425.707 169.366C423.881 169.366 422.4 170.847 422.4 172.673C422.4 174.499 423.881 175.98 425.707 175.98Z" fill="white"/>
</svg>
