<svg width="415" height="384" viewBox="0 0 415 384" fill="none" xmlns="http://www.w3.org/2000/svg">
    <path
        d="M402.922 164.018C402.922 163.937 402.922 163.856 402.841 163.856C402.599 162.722 402.275 161.67 401.952 160.779C399.689 154.707 395.406 153.654 395.406 153.654C395.406 153.654 403.084 148.31 395.406 125.882C395.244 125.397 395.082 124.911 394.84 124.425C394.759 124.263 394.759 124.182 394.678 124.02C394.517 123.615 394.355 123.21 394.193 122.806C394.193 122.725 394.112 122.644 394.112 122.563C393.87 122.077 393.628 121.672 393.385 121.267C393.304 121.186 393.304 121.105 393.223 120.943C393.062 120.62 392.819 120.215 392.577 119.891C392.496 119.81 392.496 119.729 392.415 119.648C392.173 119.243 391.849 118.838 391.607 118.433C391.607 118.352 391.526 118.352 391.526 118.271C391.284 117.948 390.96 117.543 390.718 117.219C390.637 117.138 390.556 117.057 390.556 116.976C389.91 116.166 389.263 115.438 388.617 114.79C388.536 114.709 388.536 114.709 388.455 114.628C387.728 113.899 387 113.252 386.192 112.523C383.767 110.499 381.181 108.798 378.514 107.422C377.625 115.276 375.685 119.567 375.524 119.891C375.524 119.972 375.443 120.053 375.362 120.134C375.281 120.296 371.967 125.963 365.744 130.659C368.735 132.846 371.563 136.003 373.745 140.456C377.463 148.148 375.766 155.111 372.856 160.05C373.665 160.455 374.392 160.941 375.2 161.589C379.888 165.232 382.797 171.305 383.767 179.644C385.384 193.166 380.696 201.425 376.413 205.959C375.685 206.768 374.958 207.416 374.23 208.064L375.2 211.788C375.2 211.788 376.978 211.384 379.645 210.169C380.05 210.007 380.454 209.845 380.858 209.602C380.939 209.602 380.939 209.521 381.019 209.521C381.181 209.44 381.343 209.359 381.585 209.278C381.666 209.197 381.828 209.197 381.908 209.116C382.07 209.035 382.232 208.955 382.393 208.874C382.636 208.712 382.878 208.631 383.121 208.469C383.282 208.388 383.363 208.307 383.525 208.226C383.687 208.145 383.848 207.983 384.091 207.902C384.252 207.821 384.333 207.74 384.495 207.659C384.818 207.497 385.06 207.254 385.384 207.092C385.465 207.011 385.545 207.011 385.626 206.93C385.869 206.768 386.111 206.606 386.434 206.364C386.515 206.283 386.677 206.202 386.758 206.121C387 205.959 387.323 205.716 387.566 205.554C387.647 205.473 387.728 205.473 387.808 205.392C388.132 205.149 388.455 204.825 388.778 204.582C388.859 204.501 388.94 204.42 389.021 204.339C389.263 204.097 389.586 203.854 389.829 203.611C389.91 203.53 389.991 203.449 390.071 203.368C390.395 203.044 390.718 202.72 391.122 202.396L391.203 202.315C391.526 201.991 391.849 201.667 392.092 201.344C392.173 201.263 392.254 201.182 392.334 201.101C392.658 200.777 392.981 200.453 393.223 200.048L393.304 199.967C393.628 199.562 393.951 199.158 394.274 198.753C394.355 198.672 394.436 198.591 394.517 198.429C394.759 198.105 395.001 197.7 395.325 197.376C395.406 197.295 395.486 197.214 395.567 197.052C395.891 196.567 396.214 196.162 396.456 195.676C396.537 195.595 396.537 195.514 396.618 195.433C396.86 195.028 397.103 194.623 397.345 194.138C397.426 193.976 397.507 193.895 397.588 193.733C397.83 193.247 398.154 192.761 398.396 192.275C398.396 192.275 398.396 192.194 398.477 192.194C398.719 191.628 398.962 191.142 399.285 190.575C399.366 190.413 399.447 190.251 399.447 190.089C399.608 189.603 399.851 189.199 400.012 188.713C400.093 188.551 400.093 188.47 400.174 188.308C400.417 187.741 400.578 187.093 400.821 186.446C400.901 186.284 400.901 186.203 400.982 186.041C401.144 185.555 401.306 184.988 401.467 184.422C401.548 184.26 401.548 184.017 401.629 183.855C401.791 183.207 401.952 182.478 402.114 181.831C403.73 173.815 403.73 168.147 402.922 164.018Z"
        fill="#93C01F" />
    <path
        d="M295.43 287.734C294.621 288.381 291.146 290.568 279.023 292.592C262.293 295.345 249.523 279.232 249.28 278.908C249.2 278.746 249.038 278.665 248.957 278.503C246.128 275.589 242.976 267.006 244.593 260.124C245.482 256.157 247.826 253.647 251.624 252.351C264.556 247.898 270.213 252.027 270.456 252.189L270.375 252.108L273.204 248.789L277.568 248.141C277.568 248.141 277.568 248.95 277.568 248.627C277.568 248.546 277.73 248.06 278.295 247.412C279.427 246.036 282.66 243.364 291.308 240.935C305.532 237.048 311.19 243.202 311.755 243.769C312.725 245.145 314.342 245.793 316.039 245.469C317.736 245.226 319.029 243.85 319.514 242.23C320.807 237.453 324.525 229.842 328.081 228.871C328.89 228.628 329.617 228.385 330.344 228.223C336.325 226.442 338.507 225.794 345.135 230.409C346.509 231.381 348.206 231.462 349.661 230.733C351.116 230.004 352.005 228.466 352.005 226.846C352.005 222.555 361.218 210.41 366.633 210.41C370.351 210.41 375.281 211.949 378.029 215.43C380.373 218.426 380.858 222.636 379.565 227.98C375.847 242.797 355.48 248.869 355.237 248.95C353.621 249.436 352.489 250.732 352.166 252.351C352.166 252.513 348.933 268.221 333.335 277.937C317.575 287.815 300.44 285.224 300.279 285.224C298.986 284.981 297.693 285.386 296.723 286.195C296.157 286.519 295.753 287.086 295.43 287.734Z"
        fill="#E5007E" />
    <path
        d="M290.499 271.379C290.014 271.379 289.529 271.379 289.044 271.298C284.842 270.893 282.417 268.95 282.175 268.707C281.043 267.736 280.881 266.035 281.851 264.902C282.821 263.768 284.438 263.606 285.569 264.578C285.892 264.821 291.954 269.355 302.38 260.692C303.511 259.72 305.209 259.882 306.179 261.097C307.148 262.23 306.987 263.93 305.774 264.902C299.551 270.084 294.217 271.379 290.499 271.379Z"
        fill="#41256B" />
    <path
        d="M375.362 183.207C375.362 183.046 375.362 182.803 375.362 182.641C375.282 181.993 375.282 181.345 375.201 180.698C373.503 167.014 366.714 166.933 365.664 167.014C363.724 167.338 361.865 166.285 361.057 164.504C360.249 162.642 360.814 160.537 362.431 159.241C363.158 158.594 370.028 152.683 365.987 144.262C363.239 138.595 359.36 136.409 356.208 135.68C353.702 136.409 351.035 136.894 348.045 136.894C344.084 136.894 339.72 136.085 335.032 134.061C322.99 146.691 306.179 145.153 296.642 141.752C289.287 148.392 275.386 155.76 262.212 148.23C258.09 151.549 253.403 153.25 248.392 153.25C246.21 153.25 243.947 152.926 241.684 152.278C241.603 156.407 240.795 161.023 239.017 166.285C233.359 182.884 217.68 191.061 209.032 194.462C213.719 201.911 220.912 216.323 216.548 230.492C214.932 235.836 211.78 240.613 207.254 244.661C209.678 247.9 212.669 250.734 216.306 252.515C216.791 252.758 217.356 253.001 217.841 253.244C218.003 253.325 218.245 253.406 218.407 253.487C218.73 253.649 219.054 253.73 219.296 253.892C219.539 253.973 219.781 254.054 220.023 254.216C220.266 254.297 220.508 254.458 220.832 254.539C221.074 254.62 221.317 254.701 221.559 254.863C221.802 254.944 222.044 255.025 222.206 255.106C222.448 255.187 222.771 255.268 223.014 255.43C223.175 255.511 223.418 255.592 223.58 255.673C223.903 255.754 224.145 255.835 224.388 255.997C224.549 256.078 224.711 256.078 224.873 256.159C225.196 256.24 225.438 256.321 225.762 256.402C225.923 256.483 226.085 256.483 226.247 256.564C226.57 256.645 226.812 256.725 227.136 256.806C227.297 256.806 227.378 256.887 227.54 256.887C227.863 256.968 228.186 257.049 228.51 257.13C228.591 257.13 228.671 257.211 228.833 257.211C229.156 257.292 229.48 257.373 229.803 257.454C229.884 257.454 229.965 257.454 230.045 257.535C230.369 257.616 230.692 257.697 231.015 257.778C231.096 257.778 231.177 257.778 231.177 257.859C231.5 257.94 231.823 258.021 232.147 258.021H232.227C232.551 258.102 232.874 258.102 233.197 258.183H233.278C233.601 258.264 233.925 258.264 234.248 258.345C234.571 258.426 234.895 258.426 235.218 258.426C235.541 258.426 235.864 258.507 236.188 258.507C236.188 258.426 236.188 258.426 236.188 258.345C237.804 251.463 242.169 246.524 248.877 244.257C259.222 240.694 266.496 241.504 270.86 242.88C273.204 239.48 278.296 235.593 289.045 232.597C300.683 229.44 308.523 231.545 313.211 234.136C315.474 229.035 319.515 222.315 325.657 220.614C326.385 220.371 327.112 220.209 327.758 219.966C333.093 218.347 337.942 216.89 344.973 220.29C348.772 211.789 358.228 201.749 366.553 201.749C367.119 201.749 367.684 201.749 368.331 201.83C368.573 201.668 368.816 201.425 368.977 201.263C368.977 201.263 369.058 201.263 369.058 201.182C369.301 200.939 369.543 200.777 369.705 200.534C370.19 200.049 370.594 199.482 371.079 198.915C371.079 198.834 371.16 198.834 371.16 198.753C371.321 198.51 371.483 198.267 371.645 198.024C371.725 197.943 371.725 197.863 371.806 197.782C371.968 197.539 372.129 197.296 372.291 197.053C372.372 196.972 372.372 196.891 372.453 196.81C372.614 196.486 372.776 196.162 372.938 195.838C372.938 195.838 372.938 195.757 373.019 195.757C373.18 195.353 373.342 195.029 373.503 194.624C373.503 194.543 373.584 194.462 373.584 194.3C373.665 193.976 373.827 193.733 373.908 193.409C373.988 193.247 373.988 193.085 374.069 193.005C374.15 192.681 374.231 192.438 374.312 192.114C374.392 191.952 374.392 191.79 374.473 191.628C374.554 191.304 374.635 190.98 374.716 190.575C374.716 190.414 374.797 190.333 374.797 190.171C374.877 189.685 374.958 189.199 375.039 188.632C375.039 188.551 375.039 188.389 375.039 188.308C375.12 187.904 375.12 187.499 375.12 187.013C375.12 186.851 375.12 186.608 375.12 186.446C375.12 186.041 375.12 185.717 375.12 185.313C375.12 185.07 375.12 184.908 375.12 184.665C375.362 184.017 375.362 183.612 375.362 183.207Z"
        fill="#009EE2" />
    <path
        d="M237.966 227.171C236.511 227.171 235.379 226.037 235.299 224.661C235.299 224.013 234.571 209.682 242.896 201.99C246.937 198.266 252.352 196.808 258.979 197.699C275.144 199.885 282.094 190.007 283.549 187.659C283.549 185.959 283.226 181.101 280.316 178.348C278.78 176.809 276.598 176.162 273.77 176.404C272.315 176.485 271.022 175.433 270.86 173.894C270.779 172.437 271.83 171.142 273.365 170.98C277.73 170.656 281.367 171.789 284.034 174.461C287.752 178.105 288.641 183.611 288.802 186.525C292.197 187.659 301.411 189.764 314.908 185.797C327.273 182.153 329.456 176.728 328.971 174.38V174.461L334.143 172.923C334.224 173.247 335.113 176.404 333.012 180.21C330.506 184.825 324.93 188.469 316.443 190.979C301.815 195.27 291.55 193.084 287.267 191.707C284.115 196.079 275.305 205.472 258.252 203.124C253.241 202.476 249.442 203.366 246.533 206.038C240.067 211.949 240.633 224.337 240.633 224.418C240.714 225.875 239.582 227.171 238.127 227.252C238.046 227.171 237.966 227.171 237.966 227.171Z"
        fill="#41256B" />
    <path
        d="M259.625 66.2891C262.939 72.1188 266.253 83.2112 261.323 101.753C256.554 119.484 245.886 126.448 237.804 129.2C236.51 129.605 235.217 130.01 233.924 130.253C234.409 130.82 234.975 131.468 235.46 132.115C237.399 134.706 239.258 138.107 240.39 142.398C241.683 143.046 243.057 143.532 244.431 143.856C249.846 145.232 254.372 143.775 258.332 139.564C259.868 137.945 262.373 137.702 264.232 139.078C277.244 149.118 291.711 134.139 292.277 133.492C293.57 132.115 295.591 131.71 297.288 132.52C298.096 132.925 317.898 141.75 330.263 125.881C331.556 124.261 333.819 123.695 335.678 124.666C344.245 129.12 352.085 129.039 359.117 124.504C364.127 121.266 367.037 116.732 367.522 115.841C368.088 114.464 373.018 101.672 367.199 79.4867C361.38 57.3828 336.567 54.8728 335.517 54.7918C333.254 54.5489 331.556 52.6867 331.556 50.4196C331.556 50.4196 331.395 47.2619 328.97 43.2945C325.656 37.7887 319.595 33.1736 311.432 29.854C302.057 26.0485 291.469 26.8582 282.579 28.8824C283.306 34.2262 283.306 39.8129 282.417 43.7803C280.235 55.0347 267.303 62.6456 259.625 66.2891Z"
        fill="#D41C17" />
    <path
        d="M286.943 108.23C285.73 108.23 284.599 107.339 284.356 106.125C284.276 105.801 276.84 70.5801 309.573 60.7021C311.028 60.2972 312.482 61.1069 312.886 62.4834C313.291 63.9408 312.482 65.3982 311.108 65.803C300.844 68.8797 294.136 75.0332 290.903 84.1825C295.995 80.7009 306.825 75.6 321.615 81.6725C322.989 82.2393 323.636 83.7777 323.07 85.1541C322.504 86.5305 320.969 87.1783 319.595 86.6115C312.402 83.6967 305.532 83.4538 299.147 85.8828C294.298 87.7451 291.55 90.4979 291.55 90.5789C290.903 91.2266 290.095 91.4695 289.287 91.3886C288.317 98.8375 289.61 104.829 289.61 104.91C289.933 106.367 289.044 107.825 287.589 108.149C287.266 108.23 287.104 108.23 286.943 108.23Z"
        fill="#41256B" />
    <path
        d="M176.623 249.194C177.512 249.194 178.401 249.194 179.29 249.113C179.775 248.709 180.26 248.385 180.906 248.223C196.101 243.77 205.153 236.887 207.981 227.819C212.669 212.516 198.606 195.027 198.444 194.866C197.475 193.732 197.232 192.113 197.717 190.736C198.202 189.279 199.333 188.226 200.788 187.902C201.031 187.821 224.226 181.911 230.531 163.45C238.936 138.755 220.913 130.902 220.185 130.578C218.084 129.687 217.033 127.42 217.68 125.315C218.326 123.129 220.428 121.833 222.691 122.238C223.58 122.4 245.967 125.882 252.918 99.6484C259.061 76.6537 250.817 68.719 250.089 68.0712C248.796 67.0996 248.15 65.5613 248.392 64.0229C248.635 62.4036 249.766 61.1081 251.302 60.5413C257.04 58.4362 272.234 51.0682 274.012 42.2428C274.74 38.8422 274.659 33.7412 273.932 29.1261C273.851 28.8022 273.77 28.4784 273.608 28.1545C272.234 23.7013 269.567 19.653 265.284 16.7382C265.203 16.6572 265.122 16.6572 265.041 16.5762C264.718 16.3333 264.314 16.0904 263.91 15.9285C263.748 15.8475 263.587 15.7666 263.425 15.6856C263.263 15.6046 263.021 15.4427 262.778 15.3617C262.536 15.2808 262.293 15.1188 262.051 15.0379C261.808 14.9569 261.566 14.795 261.323 14.714C261.081 14.633 260.758 14.4711 260.515 14.3901C260.354 14.3092 260.192 14.2282 260.03 14.2282C259.626 14.0663 259.222 13.9043 258.818 13.8234C258.656 13.7424 258.576 13.7424 258.414 13.6614C258.091 13.5805 257.687 13.4185 257.363 13.3376C257.202 13.3376 257.121 13.2566 256.959 13.2566C256.474 13.1756 255.989 13.0137 255.504 12.9327C255.343 12.9327 255.262 12.8517 255.1 12.8517C254.615 12.7708 254.211 12.6898 253.726 12.6088C253.645 12.6088 253.565 12.6088 253.403 12.5279C252.837 12.4469 252.271 12.3659 251.706 12.3659C251.544 12.3659 251.382 12.3659 251.302 12.3659C250.736 12.285 250.089 12.285 249.524 12.204C248.715 12.204 247.988 12.123 247.261 12.123C246.937 12.123 246.533 12.123 246.21 12.123C245.967 12.123 245.644 12.123 245.402 12.123C245.078 12.123 244.674 12.123 244.351 12.204C244.109 12.204 243.866 12.204 243.543 12.285C243.219 12.285 242.896 12.3659 242.573 12.3659C242.33 12.3659 242.088 12.4469 241.846 12.4469C241.522 12.4469 241.199 12.5279 240.876 12.6088C240.633 12.6088 240.472 12.6898 240.229 12.6898C239.825 12.7708 239.502 12.8517 239.098 12.8517C238.936 12.8517 238.774 12.9327 238.693 12.9327C238.209 13.0137 237.724 13.1756 237.239 13.2566C237.077 13.2566 236.996 13.3376 236.915 13.3376C236.592 13.4185 236.269 13.4995 235.946 13.5805C235.784 13.6614 235.622 13.6614 235.461 13.7424C235.218 13.8234 234.976 13.9043 234.652 13.9853C234.491 14.0663 234.329 14.1472 234.167 14.1472C233.925 14.2282 233.683 14.3092 233.521 14.3901C233.359 14.4711 233.198 14.5521 233.036 14.633C232.794 14.714 232.632 14.795 232.389 14.8759C232.228 14.9569 232.066 15.0379 231.904 15.1188C231.743 15.1998 231.5 15.2808 231.339 15.3617C231.177 15.4427 231.015 15.5237 230.854 15.6046C230.692 15.6856 230.531 15.7666 230.369 15.9285C230.207 16.0095 230.046 16.0904 229.965 16.1714C229.803 16.2524 229.641 16.3333 229.48 16.4953C229.318 16.5762 229.237 16.6572 229.076 16.7382C228.914 16.8191 228.752 16.9001 228.672 17.062C228.51 17.143 228.429 17.224 228.348 17.3049C228.187 17.3859 228.106 17.4669 227.944 17.6288C227.863 17.7098 227.702 17.7907 227.621 17.8717C227.459 17.9527 227.378 18.1146 227.217 18.1956C227.136 18.2765 226.974 18.3575 226.894 18.4385C226.813 18.5194 226.651 18.6814 226.57 18.7623C226.489 18.8433 226.409 18.9243 226.328 19.0052C226.247 19.0862 226.085 19.2481 226.005 19.3291C225.924 19.4101 225.843 19.491 225.762 19.572C225.681 19.653 225.6 19.8149 225.52 19.8959C225.439 19.9768 225.358 20.0578 225.277 20.1388C225.196 20.2197 225.115 20.3007 225.035 20.4626C224.954 20.5436 224.873 20.6246 224.873 20.7056C224.792 20.7865 224.711 20.8675 224.631 21.0294C224.55 21.1104 224.55 21.1913 224.469 21.2723C224.388 21.3533 224.307 21.4343 224.226 21.5962C224.146 21.6772 224.146 21.7581 224.065 21.7581C223.984 21.8391 223.903 21.9201 223.903 22.001C223.903 22.082 223.822 22.082 223.822 22.163C223.742 22.2439 223.742 22.3249 223.661 22.4059C223.661 22.4868 223.58 22.4868 223.58 22.5678C223.499 22.6488 223.499 22.7297 223.418 22.8107L223.337 22.8917C223.257 22.9726 223.257 23.0536 223.176 23.1346V23.2155C223.095 23.2965 223.095 23.3775 223.014 23.4584C222.852 23.7823 222.772 24.0252 222.772 24.0252C222.772 24.0252 222.691 23.8633 222.448 23.5394C222.368 23.4584 222.368 23.3775 222.287 23.2965C222.287 23.2965 222.287 23.2155 222.206 23.2155C222.125 23.1346 222.125 23.0536 222.044 22.9726L221.963 22.8917C221.883 22.8107 221.802 22.7297 221.721 22.6488L221.64 22.5678C221.559 22.4868 221.479 22.4059 221.398 22.2439L221.317 22.163C221.236 22.082 221.155 21.9201 220.994 21.8391C220.751 21.5962 220.428 21.2723 220.105 20.9484L220.024 20.8675C219.943 20.7865 219.781 20.6246 219.7 20.5436C219.62 20.4626 219.539 20.3817 219.458 20.3007C219.377 20.2197 219.216 20.0578 219.054 19.9768C218.973 19.8959 218.892 19.8149 218.811 19.7339C218.65 19.653 218.569 19.491 218.407 19.4101C218.326 19.3291 218.165 19.2481 218.084 19.1672C217.922 19.0862 217.842 18.9243 217.68 18.8433C217.599 18.7623 217.437 18.6814 217.357 18.6004C217.195 18.5194 217.033 18.3575 216.953 18.2765C216.791 18.1956 216.71 18.1146 216.548 18.0336C216.387 17.9527 216.225 17.7907 216.063 17.7098C215.902 17.6288 215.821 17.5478 215.659 17.4669C215.498 17.3859 215.336 17.224 215.174 17.143C215.013 17.062 214.851 16.9811 214.69 16.9001C214.528 16.8191 214.366 16.6572 214.205 16.5762C214.043 16.4953 213.8 16.3333 213.639 16.2524C213.316 16.0904 213.073 15.9285 212.75 15.7666C212.507 15.6856 212.265 15.5237 212.103 15.4427C211.942 15.3617 211.78 15.2808 211.538 15.1998C211.295 15.1188 211.133 15.0379 210.891 14.8759C210.729 14.795 210.487 14.714 210.325 14.633C210.083 14.5521 209.84 14.4711 209.679 14.3901C209.436 14.3092 209.274 14.2282 209.032 14.1472C208.79 14.0663 208.547 13.9853 208.305 13.9043C208.062 13.8234 207.901 13.7424 207.658 13.7424C207.416 13.6614 207.173 13.5805 206.85 13.4995C206.607 13.4185 206.446 13.4185 206.203 13.3376C205.961 13.2566 205.638 13.1756 205.314 13.1756C205.072 13.0947 204.829 13.0946 204.668 13.0137C204.344 12.9327 204.021 12.9327 203.698 12.8517C203.455 12.8517 203.294 12.7708 203.051 12.7708C202.647 12.6898 202.324 12.6898 201.92 12.6088C201.758 12.6088 201.516 12.5279 201.354 12.5279C200.222 12.3659 199.01 12.285 197.717 12.285C197.555 12.285 197.394 12.285 197.232 12.285C196.747 12.285 196.262 12.285 195.777 12.285C195.616 12.285 195.454 12.285 195.292 12.285C194.807 12.285 194.323 12.285 193.838 12.3659C193.676 12.3659 193.433 12.3659 193.272 12.3659C192.787 12.3659 192.221 12.4469 191.736 12.4469C191.575 12.4469 191.413 12.4469 191.251 12.5279C190.524 12.6088 189.797 12.6898 189.069 12.7708C163.934 16.0904 156.821 28.6403 156.821 28.6403C156.821 28.6403 156.256 28.3974 155.205 27.9116C155.205 27.9116 155.205 27.9116 155.124 27.9116C155.043 27.9116 154.882 27.8306 154.801 27.7497H154.72C154.639 27.6687 154.478 27.6687 154.397 27.5877H154.316C153.912 27.4258 153.508 27.2639 153.023 27.1019H152.942C152.78 27.021 152.699 27.021 152.538 26.94C152.457 26.94 152.376 26.859 152.295 26.859C152.215 26.7781 152.053 26.7781 151.891 26.6971C151.81 26.6971 151.73 26.6161 151.649 26.6161C151.487 26.6161 151.406 26.5352 151.245 26.5352C151.164 26.5352 151.083 26.4542 150.921 26.4542C150.76 26.4542 150.679 26.3732 150.517 26.3732C150.436 26.3732 150.275 26.2923 150.194 26.2923C150.032 26.2923 149.952 26.2113 149.79 26.2113C149.547 26.1303 149.305 26.0494 149.062 26.0494C148.982 26.0494 148.82 25.9684 148.739 25.9684C148.578 25.9684 148.416 25.8874 148.254 25.8874C148.093 25.8874 148.012 25.8065 147.85 25.8065C147.689 25.8065 147.527 25.7255 147.365 25.7255C147.204 25.7255 147.123 25.6445 146.961 25.6445C146.799 25.6445 146.638 25.5636 146.476 25.5636C146.315 25.5636 146.234 25.4826 146.072 25.4826C145.91 25.4826 145.749 25.4016 145.506 25.4016C145.345 25.4016 145.264 25.3207 145.102 25.3207C144.86 25.2397 144.617 25.2397 144.294 25.1587C144.213 25.1587 144.132 25.1587 144.052 25.0778C143.809 24.9968 143.486 24.9968 143.243 24.9158C143.163 24.9158 143.001 24.8349 142.92 24.8349C142.678 24.8349 142.516 24.7539 142.273 24.7539C142.112 24.7539 142.031 24.6729 141.869 24.6729C141.627 24.6729 141.465 24.592 141.223 24.592C141.061 24.592 140.9 24.511 140.819 24.511C140.576 24.511 140.415 24.43 140.172 24.43C140.01 24.43 139.93 24.43 139.768 24.3491C139.526 24.3491 139.283 24.2681 138.96 24.2681C138.879 24.2681 138.798 24.2681 138.637 24.2681C138.313 24.2681 137.909 24.1871 137.505 24.1871C137.424 24.1871 137.343 24.1871 137.182 24.1871C136.939 24.1871 136.616 24.1062 136.374 24.1062C136.212 24.1062 136.131 24.1062 135.969 24.1062C135.727 24.1062 135.485 24.1062 135.242 24.1062C135.08 24.1062 134.919 24.1062 134.757 24.1062C134.515 24.1062 134.272 24.1062 134.03 24.1062C133.868 24.1062 133.706 24.1062 133.626 24.1062C133.383 24.1062 133.06 24.1062 132.817 24.1062C132.737 24.1062 132.575 24.1062 132.494 24.1062C132.009 24.1062 131.443 24.1062 130.878 24.1062C130.797 24.1062 130.635 24.1062 130.554 24.1062C129.989 24.1062 129.423 24.1871 128.938 24.1871C128.857 24.1871 128.857 24.1871 128.776 24.1871C128.211 24.1871 127.726 24.2681 127.16 24.3491C127.079 24.3491 126.998 24.3491 126.917 24.3491C126.352 24.43 125.786 24.511 125.22 24.511C125.139 24.511 124.978 24.511 124.897 24.592C123.685 24.7539 122.553 24.9968 121.341 25.2397C121.26 25.2397 121.098 25.3207 121.017 25.3207C120.452 25.4826 119.805 25.5636 119.239 25.7255C119.159 25.7255 119.078 25.8065 118.997 25.8065C118.431 25.9684 117.785 26.1303 117.219 26.2923H117.138C116.491 26.4542 115.926 26.6971 115.279 26.859C115.198 26.859 115.037 26.94 114.956 26.94C114.309 27.1829 113.744 27.3448 113.097 27.5877C113.016 27.5877 112.935 27.6687 112.935 27.6687C112.37 27.9116 111.723 28.1545 111.157 28.3974C111.076 28.3974 110.996 28.4784 110.996 28.4784C110.349 28.7213 109.783 29.0451 109.137 29.369C109.056 29.45 108.894 29.45 108.813 29.5309C108.167 29.8548 107.52 30.1787 106.955 30.5026C106.955 30.5026 106.874 30.5026 106.874 30.5835C106.227 30.9074 105.661 31.3122 105.015 31.6361C104.934 31.7171 104.853 31.7171 104.772 31.798C104.126 32.2029 103.56 32.5267 102.913 32.9316C102.833 33.0125 102.671 33.0935 102.59 33.1745C101.944 33.5793 101.297 34.0651 100.731 34.4699C99.9231 34.389 99.1957 34.389 98.3874 34.308C98.2258 34.308 97.9833 34.308 97.8217 34.308C97.256 34.308 96.6902 34.308 96.1244 34.308C95.882 34.308 95.5587 34.308 95.3162 34.308C94.9929 34.308 94.6697 34.308 94.2656 34.308C93.9423 34.308 93.6998 34.308 93.3765 34.308C93.0532 34.308 92.7299 34.308 92.4067 34.389C92.0834 34.389 91.8409 34.389 91.5176 34.4699C91.1943 34.4699 90.8711 34.5509 90.5478 34.5509C90.2245 34.5509 89.982 34.6319 89.6587 34.6319C89.3354 34.6319 89.0122 34.7128 88.6889 34.7128C88.3656 34.7128 88.1231 34.7938 87.7998 34.7938C87.4766 34.7938 87.1533 34.8748 86.9108 34.8748C86.5875 34.9557 86.2642 34.9557 85.9409 35.0367C85.456 35.1177 84.8903 35.1986 84.4053 35.2796C84.082 35.3606 83.7588 35.3606 83.5163 35.4415C83.2738 35.5225 82.9506 35.5225 82.7081 35.6035C82.3848 35.6844 82.1423 35.7654 81.819 35.7654C81.5766 35.8464 81.2533 35.9273 81.0108 35.9273C80.7684 36.0083 80.4451 36.0893 80.2026 36.1702C79.9602 36.2512 79.7177 36.3322 79.3944 36.4131C79.1519 36.4941 78.8287 36.5751 78.5862 36.656C78.3437 36.737 78.1013 36.818 77.8588 36.899C77.6163 36.9799 77.2931 37.0609 77.0506 37.1418C76.8081 37.2228 76.5657 37.3038 76.3232 37.3848C76.0807 37.4657 75.7574 37.5467 75.515 37.7086C75.2725 37.7896 75.03 37.8706 74.7876 37.9515C74.5451 38.0325 74.3027 38.1944 73.9794 38.2754C73.7369 38.3564 73.4944 38.4373 73.3328 38.5993C73.0903 38.6802 72.8479 38.8422 72.6054 38.9231C72.3629 39.0041 72.2013 39.0851 71.9588 39.247C71.7164 39.328 71.4739 39.4899 71.2314 39.5709C70.989 39.6518 70.8273 39.7328 70.5849 39.8947C70.3424 40.0567 70.0999 40.1376 69.8575 40.2996C69.6958 40.3805 69.4534 40.4615 69.2917 40.6234C69.0493 40.7854 68.726 40.9473 68.4835 41.1092C68.3219 41.1902 68.1602 41.2712 67.9986 41.3521C67.5945 41.595 67.2712 41.8379 66.8671 41.9999C66.7863 42.0808 66.6246 42.1618 66.5438 42.2428C66.2205 42.4857 65.8972 42.6476 65.5739 42.8905C65.4123 42.9715 65.2507 43.1334 65.1698 43.2144C64.9274 43.3763 64.6849 43.5382 64.4424 43.7002C64.2808 43.7811 64.1192 43.9431 63.9575 44.024C63.715 44.186 63.5534 44.3479 63.3109 44.5098C63.1493 44.6718 62.9876 44.7527 62.826 44.9147C62.6644 45.0766 62.4219 45.2386 62.2603 45.4005C62.0986 45.5624 61.937 45.6434 61.7753 45.8053C61.6137 45.9673 61.452 46.1292 61.2904 46.2911C61.1288 46.4531 60.9671 46.534 60.8863 46.696C60.7246 46.8579 60.563 47.0198 60.4014 47.1818C60.2397 47.3437 60.1589 47.5056 59.9972 47.5866C59.8356 47.7485 59.674 47.9105 59.5123 48.0724C59.3507 48.2343 59.2699 48.3963 59.1082 48.4772C58.9466 48.6392 58.7849 48.8011 58.7041 48.963C58.5425 49.125 58.4616 49.2869 58.3 49.4488C58.1384 49.6108 58.0575 49.7727 57.8959 49.9346C57.8151 50.0966 57.6534 50.2585 57.5726 50.4204C57.411 50.5824 57.3301 50.7443 57.1685 50.9872C57.0877 51.1491 56.926 51.3111 56.8452 51.392C56.6836 51.554 56.6028 51.7969 56.4411 51.9588C56.3603 52.1207 56.2795 52.2017 56.1986 52.3636C56.037 52.6065 55.8754 52.9304 55.7945 53.1733C55.7945 53.2543 55.7137 53.3352 55.7137 53.3352C54.2589 56.2501 53.2082 59.0029 52.5617 61.5939C51.7535 64.5897 51.4302 67.2616 51.3494 69.5287C51.3494 69.8525 51.3494 70.1764 51.3494 70.5003C51.3494 74.2247 51.9151 76.4918 51.9151 76.4918H51.8343H51.7535H51.6726C51.5918 76.4918 51.511 76.4918 51.4302 76.4918C51.1877 76.4918 50.8644 76.4918 50.4603 76.4918C50.4603 76.4918 50.4603 76.4918 50.3795 76.4918C50.2179 76.4918 50.0562 76.4918 49.8137 76.4918C49.7329 76.4918 49.7329 76.4918 49.6521 76.4918C49.4905 76.4918 49.3288 76.4918 49.1672 76.4918C49.0864 76.4918 49.0055 76.4918 48.9247 76.4918C48.7631 76.4918 48.6014 76.4918 48.4398 76.5728C48.359 76.5728 48.2781 76.5728 48.1165 76.5728C47.9549 76.5728 47.7932 76.5728 47.5508 76.6537C47.4699 76.6537 47.3083 76.6537 47.2275 76.6537C47.0658 76.6537 46.8234 76.7347 46.6617 76.7347C46.5809 76.7347 46.4193 76.7347 46.3384 76.8157C46.096 76.8157 45.9343 76.8966 45.6919 76.8966C45.611 76.8966 45.4494 76.8967 45.3686 76.9776C45.1261 77.0586 44.8836 77.0586 44.6412 77.1395C44.5603 77.1395 44.4795 77.1395 44.3179 77.2205C43.9946 77.3015 43.6713 77.3824 43.348 77.4634H43.2672C42.8631 77.5444 42.5398 77.6254 42.1357 77.7063C42.0549 77.7063 42.0549 77.7063 41.9741 77.7063C41.6508 77.7873 41.3275 77.8683 41.0042 78.0302C40.9234 78.0302 40.7617 78.1112 40.6809 78.1112C40.4385 78.1921 40.1152 78.2731 39.8727 78.354C39.7111 78.435 39.5494 78.435 39.4686 78.516C39.2261 78.597 38.9837 78.6779 38.6604 78.7589C38.4987 78.8399 38.3371 78.8399 38.1755 78.9208C37.933 79.0018 37.6905 79.0828 37.4481 79.2447C37.2864 79.3257 37.1248 79.4066 36.9631 79.4876C36.7207 79.5686 36.4782 79.7305 36.2357 79.8115C36.0741 79.8924 35.9125 79.9734 35.7508 80.0544C35.5083 80.2163 35.2659 80.2973 35.0234 80.4592C34.8618 80.5402 34.7001 80.6211 34.5385 80.7021C34.296 80.864 33.9727 81.026 33.7303 81.1879C33.5686 81.2689 33.407 81.3498 33.3262 81.4308C33.0029 81.5927 32.6796 81.8356 32.4371 81.9976C32.3563 82.0785 32.1947 82.1595 32.1138 82.1595C31.7097 82.4024 31.3056 82.7263 30.9015 83.0501L30.8207 83.1311C30.4974 83.374 30.0933 83.6979 29.77 83.9408C29.6084 84.0217 29.5276 84.1837 29.3659 84.2646C29.1235 84.5075 28.881 84.7504 28.5577 84.9933C28.3961 85.1553 28.2344 85.2362 28.1536 85.3982C27.9111 85.6411 27.6687 85.884 27.4262 86.1269C27.2646 86.2888 27.1029 86.4508 26.9413 86.6127C26.6988 86.8556 26.5372 87.0985 26.2947 87.3414C26.1331 87.5033 25.9714 87.6653 25.8906 87.9082C25.6481 88.1511 25.4865 88.394 25.3248 88.6369C25.1632 88.7988 25.0016 89.0417 24.9207 89.2036C24.7591 89.4465 24.5166 89.7704 24.355 90.0133C24.1933 90.2562 24.1125 90.4181 23.9509 90.661C23.7892 90.9849 23.5468 91.2278 23.3851 91.5517C23.3043 91.7946 23.1427 91.9565 23.0618 92.1994C22.9002 92.5233 22.6577 92.9281 22.4961 93.252C22.4153 93.4139 22.3345 93.6568 22.1728 93.8188C21.9303 94.3046 21.6879 94.8713 21.4454 95.4381C21.4454 95.5191 21.3646 95.5191 21.3646 95.6C19.9906 99.0006 19.1824 102.077 18.8591 104.83C17.8085 113.413 21.203 118.433 23.7084 121.024C25.0824 122.4 26.2947 123.048 26.2947 123.048C26.2947 123.048 7.14001 135.841 11.5044 154.139C12.3934 157.864 13.7674 161.102 15.303 163.936C20.7988 173.976 29.0426 178.591 30.4974 179.401C30.6591 179.482 30.7399 179.482 30.7399 179.482C30.7399 179.482 30.7399 201.181 45.1261 209.763C46.096 210.33 47.1466 210.816 48.1973 211.302C48.8439 211.545 49.4905 211.788 50.137 212.031C50.2987 212.112 50.5411 212.192 50.7028 212.192C51.1877 212.354 51.6726 212.516 52.1576 212.678C52.3192 212.759 52.5617 212.759 52.7233 212.84C54.0165 213.164 55.2288 213.488 56.4411 213.731C56.6028 213.731 56.7644 213.812 56.926 213.812C57.411 213.893 57.8151 213.974 58.2192 214.055C58.3808 214.055 58.5425 214.136 58.7041 214.136C59.8356 214.298 60.9671 214.379 62.0986 214.46C62.2603 214.46 62.4219 214.46 62.5835 214.46C62.9876 214.46 63.3918 214.46 63.7959 214.46C63.9575 214.46 64.1191 214.46 64.2808 214.46C65.3315 214.46 66.3013 214.379 67.2712 214.298C67.4328 214.298 67.5945 214.298 67.6753 214.298C67.9986 214.298 68.3219 214.217 68.726 214.217C68.8876 214.217 68.9684 214.217 69.1301 214.136C69.5342 214.055 70.0191 214.055 70.4232 213.974H70.504C70.9081 213.893 71.3123 213.812 71.7164 213.731C71.878 213.731 71.9588 213.65 72.1205 213.65C72.3629 213.569 72.6862 213.569 72.9287 213.488C73.0095 213.488 73.1712 213.407 73.252 213.407C73.5753 213.326 73.8985 213.245 74.2218 213.164C74.3027 213.164 74.3027 213.164 74.3835 213.164C74.7068 213.083 74.9492 213.002 75.2725 212.921C75.3533 212.921 75.515 212.84 75.5958 212.84C75.7574 212.759 75.9999 212.759 76.1615 212.678C76.2424 212.678 76.3232 212.597 76.4848 212.597C76.7273 212.516 76.8889 212.435 77.1314 212.354C77.2122 212.354 77.293 212.273 77.3739 212.273C77.5355 212.192 77.6972 212.112 77.8588 212.112C77.9396 212.112 78.0204 212.031 78.1013 212.031C78.1821 211.95 78.3437 211.95 78.4245 211.869C78.5054 211.869 78.5862 211.788 78.667 211.788C78.7478 211.707 78.8287 211.707 78.9095 211.707C78.9903 211.626 79.0711 211.626 79.1519 211.626C79.2328 211.626 79.2328 211.545 79.3136 211.545C79.3944 211.545 79.3944 211.464 79.4752 211.464C79.4752 211.464 79.4752 211.464 79.556 211.464C79.6369 211.383 79.7177 211.383 79.7177 211.383C79.7177 211.383 82.8697 218.427 90.3861 225.471C96.4477 231.139 105.257 236.806 117.461 238.75C118.27 238.912 118.997 238.993 119.805 239.074C119.967 239.074 120.048 239.074 120.209 239.154C121.664 239.397 123.119 239.559 124.493 239.721C124.574 239.721 124.735 239.721 124.816 239.802C126.109 239.964 127.402 240.126 128.615 240.207C128.776 240.207 128.857 240.207 129.019 240.207C129.585 240.288 130.15 240.288 130.716 240.369C131.282 240.45 131.767 240.45 132.332 240.45C132.494 240.45 132.656 240.45 132.737 240.45C133.221 240.45 133.626 240.531 134.111 240.531C134.191 240.531 134.272 240.531 134.353 240.531C134.757 240.531 135.161 240.531 135.565 240.612C135.727 240.612 135.889 240.612 136.05 240.612C136.454 240.612 136.778 240.612 137.101 240.612C137.263 240.612 137.343 240.612 137.505 240.612C137.828 240.612 138.152 240.612 138.475 240.612C138.637 240.612 138.798 240.612 138.879 240.612C139.202 240.612 139.526 240.612 139.768 240.612C139.93 240.612 140.01 240.612 140.091 240.612C140.415 240.612 140.657 240.612 140.98 240.612C141.142 240.612 141.223 240.612 141.384 240.612C141.627 240.612 141.95 240.612 142.193 240.531C142.273 240.531 142.435 240.531 142.516 240.531C142.758 240.531 143.001 240.531 143.243 240.45C143.324 240.45 143.486 240.45 143.567 240.45C143.809 240.45 144.052 240.369 144.294 240.369C144.375 240.369 144.456 240.369 144.536 240.369C144.779 240.369 144.941 240.288 145.183 240.288C145.264 240.288 145.345 240.288 145.426 240.288C145.668 240.288 145.83 240.207 146.072 240.207C146.153 240.207 146.153 240.207 146.234 240.207C146.395 240.207 146.638 240.126 146.8 240.126C146.88 240.126 146.961 240.126 146.961 240.126C147.123 240.126 147.284 240.045 147.527 240.045H147.608C147.769 240.045 147.931 239.964 148.093 239.964C148.173 239.964 148.173 239.964 148.254 239.964C148.578 239.883 148.901 239.802 149.143 239.721H149.224C149.467 239.64 149.709 239.559 149.871 239.478C149.871 239.478 149.871 239.478 149.952 239.478C150.113 239.397 150.275 239.316 150.436 239.235C150.76 239.074 150.921 238.993 150.921 238.993C150.436 238.183 160.216 249.194 176.623 249.194Z"
        fill="#FFEC00" />
    <path
        d="M81.0113 213.811C79.4757 210.329 78.1018 206.281 77.4552 201.828C76.647 196.403 77.7785 192.112 80.6881 188.954C82.8702 186.606 85.4565 185.715 85.4565 185.715L89.4168 184.501L86.6688 181.343C86.588 181.262 78.0209 171.384 77.536 153.814C77.2936 144.503 80.4456 139.645 83.2743 137.216C85.0524 136.244 102.752 127.257 118.997 137.216C129.504 143.693 130.151 155.434 130.151 155.919C130.232 157.377 131.444 158.591 132.98 158.51C134.434 158.429 135.647 157.215 135.566 155.677C135.566 155.029 134.838 140.617 121.826 132.601C109.218 124.828 96.2058 126.771 88.2045 129.362C86.1839 126.447 81.4963 117.703 86.6688 107.015C91.1949 97.6232 100.409 97.4613 104.935 98.028C105.096 98.109 105.339 98.109 105.5 98.109C106.713 98.2709 107.44 98.5138 107.602 98.5138L111.562 99.6474C112.693 100.538 114.31 100.457 115.28 99.4045C115.845 98.7568 129.585 83.9398 144.375 96.1658C145.507 97.1374 147.204 96.9755 148.174 95.8419C149.144 94.7084 148.982 93.0081 147.851 92.0365C132.899 79.6485 117.381 89.0407 111.319 95.761L111.239 95.8419L110.834 94.8703C110.754 94.7894 106.389 83.7779 110.834 73.9809C115.199 64.3458 127.403 62.4026 131.363 63.2122L134.192 63.86L134.434 61.9977C134.758 61.8358 135 61.5929 135.162 61.269C135.404 60.8642 141.789 52.2007 158.923 54.1439C174.926 56.0062 174.603 63.5361 174.603 63.779C174.441 65.2364 175.492 66.6129 177.027 66.7748C178.482 66.9367 179.856 65.8842 180.018 64.3458C180.098 63.779 181.149 51.2291 159.57 48.8001C150.679 47.7475 144.214 49.2859 139.607 51.3911C143.244 47.3427 147.851 44.0231 150.437 42.4037C157.792 37.6267 170.723 37.3838 170.885 37.3838C172.34 37.3838 173.552 36.1693 173.552 34.6309C173.552 33.1735 172.34 31.959 170.885 31.959C170.319 31.959 156.337 32.2019 147.608 37.7886C142.597 41.0273 134.758 46.9379 131.121 54.3868C129.181 49.124 123.685 41.9179 112.451 41.0273C96.125 39.8128 90.9524 49.4479 90.7099 49.8527C90.0633 51.1482 90.5483 52.7675 91.8414 53.4962C93.1346 54.1439 94.751 53.6581 95.4784 52.3627C95.4784 52.2817 99.1962 45.4805 112.047 46.4521C123.523 47.3427 126.11 56.1681 126.514 57.7875C119.644 58.5971 110.188 62.3216 105.985 71.7138C104.288 75.4383 103.641 79.2437 103.561 82.7253C100.409 78.2721 95.5592 74.4667 88.3661 73.9809C71.2319 72.7664 66.7059 84.5875 66.5443 85.0733C66.0594 86.4498 66.7059 87.9881 68.1607 88.5549C69.5347 89.0407 71.0703 88.393 71.6361 86.9356C71.6361 86.8546 74.9497 78.434 88.0428 79.4056C97.2565 80.0534 100.974 87.8262 102.348 92.3604H102.267C95.3167 92.3604 86.6688 94.9513 82.062 104.586C78.5867 111.873 78.7483 118.432 80.0415 123.452C76.0812 121.508 70.9087 120.213 64.847 121.185C49.8143 123.695 48.9252 134.22 48.9252 134.625C48.8444 136.083 49.9759 137.378 51.4307 137.459C52.8855 137.54 54.1786 136.406 54.2594 134.949C54.2594 134.868 54.8252 128.31 65.7361 126.447C73.2525 125.152 79.1524 128.634 82.3853 131.225C81.3346 131.872 80.2031 132.763 79.0716 133.896C75.9196 137.054 72.121 143.046 72.4443 153.814C72.6867 163.206 75.0306 170.574 77.4552 175.756C71.7977 172.518 63.1498 169.603 53.3704 173.651C51.9964 174.218 51.3499 175.756 51.9156 177.133C52.4814 178.509 54.017 179.157 55.3909 178.59C66.221 174.056 75.7579 180.614 78.9908 183.286C74.8689 186.606 71.0703 192.759 72.4443 202.395C72.9292 205.957 73.8182 209.277 74.9497 212.272C77.9401 211.463 79.6374 210.572 79.6374 210.572C79.6374 210.572 79.8798 211.949 81.0113 213.811Z"
        fill="#41256B" />
    <path
        d="M225.034 361.982C225.034 361.982 228.591 372.103 241.603 372.103C244.189 372.103 247.179 371.698 250.574 370.726C271.022 364.897 262.94 357.61 262.94 357.61C262.94 357.61 244.836 314.211 242.653 284.577C242.653 284.496 242.573 284.496 242.573 284.415C242.33 284.173 242.169 283.93 241.926 283.687C241.845 283.606 241.845 283.525 241.764 283.444C241.603 283.282 241.441 283.039 241.36 282.877C241.28 282.715 241.118 282.553 241.037 282.391C240.956 282.229 240.875 282.148 240.714 281.986C240.552 281.744 240.39 281.501 240.31 281.339C240.229 281.258 240.229 281.177 240.148 281.096C239.986 280.853 239.825 280.529 239.663 280.286C239.663 280.205 239.582 280.205 239.582 280.124C239.421 279.8 239.259 279.476 239.097 279.234C239.097 279.234 239.097 279.153 239.017 279.153C238.855 278.829 238.693 278.424 238.532 278.1C237.077 274.861 236.026 270.975 235.622 267.088V267.008C233.844 266.846 231.985 266.684 230.126 266.279C228.752 266.036 227.297 265.712 225.843 265.307C225.358 265.145 224.873 265.064 224.388 264.902H224.307C223.822 264.74 223.418 264.659 222.933 264.498H222.852C222.367 264.336 221.963 264.174 221.478 264.012C220.993 263.85 220.508 263.688 220.023 263.526C219.943 263.526 219.862 263.445 219.781 263.445C219.377 263.283 218.973 263.121 218.569 262.959H218.488C218.003 262.797 217.518 262.554 217.033 262.392C216.791 262.311 216.548 262.23 216.387 262.069C216.144 261.988 215.821 261.826 215.578 261.664C215.174 261.502 214.77 261.259 214.285 261.097C214.204 261.016 214.123 261.016 214.043 260.935C213.558 260.692 212.992 260.449 212.507 260.206C207.496 257.777 203.455 253.81 200.222 249.6C196.666 251.705 192.625 253.567 188.099 255.105C197.393 266.279 215.174 291.136 219.458 321.013L225.034 361.982Z"
        fill="#EE7D00" />
    <path
        d="M408.984 150.82C410.438 144.586 410.358 135.436 405.832 122.239C402.195 111.47 394.112 102.888 382.474 96.977C382.151 90.7425 381.019 84.1842 379.322 77.4639C373.18 54.1454 353.459 45.8058 342.144 42.891C338.831 34.4704 330.829 24.1876 314.503 17.5483C308.28 15.0384 301.41 13.7429 293.894 13.7429C289.287 13.7429 284.438 14.2287 279.427 15.2003C273.284 6.6178 263.02 1.51688 250.008 0.950109C248.957 0.869142 247.987 0.869141 247.017 0.869141C235.702 0.869141 227.539 4.02685 221.882 8.15617C216.144 4.35072 207.657 0.950109 195.857 0.950109C193.109 0.950109 190.281 1.11204 187.371 1.51688C169.833 3.78395 159.326 10.1803 153.426 15.4432C148.334 13.9048 141.06 12.3665 132.655 12.3665C119.885 12.3665 108.166 15.848 97.6593 22.6493C97.0936 22.6493 96.447 22.6493 95.8812 22.6493C73.6553 22.6493 54.1773 32.5272 46.2568 47.83C42.7007 54.7122 41.2459 61.1086 40.8418 66.2905C29.2035 69.0433 17.3228 76.4923 11.4228 91.0664C6.08858 104.264 7.54337 114.466 11.2612 121.591C3.9064 129.769 -2.31686 141.995 1.07765 156.245C4.71461 171.467 14.1707 180.616 20.3132 185.231C21.8488 197.457 27.9912 214.379 44.2363 220.937C50.702 223.609 57.4102 224.905 64.1992 224.905C68.1595 224.905 71.7156 224.419 74.706 223.771C81.1717 232.597 94.0223 245.551 115.521 248.952C124.169 250.328 131.766 251.057 138.07 251.057C142.03 251.057 145.263 250.814 147.93 250.328C153.588 254.62 163.448 260.125 176.864 260.125C177.188 260.125 177.592 260.125 177.915 260.125C185.593 269.032 204.424 293.484 208.546 322.632L214.366 363.52C214.446 364.249 214.608 364.897 214.85 365.625C217.113 372.103 225.357 383.114 241.683 383.114C245.482 383.114 249.523 382.548 253.645 381.333C261.727 378.985 272.719 374.775 275.143 364.573C276.275 359.553 274.739 355.1 272.557 351.942C268.435 341.821 260.757 320.77 256.554 301.742C261.484 303.929 267.142 305.386 273.284 305.386C275.467 305.386 277.649 305.224 279.75 304.819C285.165 303.929 295.025 302.228 301.733 297.856C302.461 297.856 303.188 297.856 303.997 297.856C312.968 297.856 326.465 296.156 339.558 287.897C354.025 278.829 360.572 266.117 363.4 258.506C372.21 254.782 388.212 245.713 392.496 228.71C393.87 223.366 393.951 218.751 393.304 214.865C400.982 209.278 409.388 199.805 412.863 184.016C416.419 166.932 413.267 156.731 408.984 150.82ZM282.579 43.8626C283.387 39.8143 283.468 34.3085 282.74 28.9647C291.631 26.9405 302.218 26.1308 311.594 29.9363C319.757 33.2559 325.818 37.952 329.132 43.3768C331.557 47.4252 331.718 50.5019 331.718 50.5019C331.718 52.769 333.496 54.6312 335.678 54.8741C336.729 54.9551 361.541 57.4651 367.361 79.569C373.18 101.673 368.25 114.547 367.684 115.923C367.118 116.814 364.208 121.348 359.278 124.587C358.874 124.83 358.47 125.072 358.147 125.315C357.985 125.396 357.904 125.477 357.743 125.558C357.5 125.72 357.177 125.882 356.935 125.963C356.773 126.044 356.611 126.125 356.45 126.206C356.046 126.368 355.722 126.53 355.318 126.692C351.924 128.068 348.287 128.392 344.569 127.825C344.407 127.825 344.246 127.744 344.084 127.744C343.841 127.663 343.518 127.663 343.276 127.582C343.114 127.582 342.952 127.502 342.71 127.421C342.468 127.34 342.225 127.259 341.902 127.259C341.498 127.178 341.094 127.016 340.689 126.854C340.528 126.773 340.285 126.692 340.124 126.692C339.8 126.611 339.558 126.449 339.235 126.368C339.073 126.287 338.831 126.206 338.669 126.125C338.346 125.963 338.022 125.882 337.699 125.72C337.537 125.639 337.376 125.558 337.214 125.477C336.729 125.234 336.244 124.992 335.759 124.749C333.9 123.777 331.637 124.263 330.344 125.963C317.979 141.833 298.177 133.007 297.369 132.602C295.672 131.793 293.651 132.198 292.358 133.574C291.712 134.222 277.325 149.12 264.313 139.161C262.535 137.784 259.949 138.027 258.413 139.647C254.453 143.938 249.927 145.314 244.512 143.938C243.057 143.614 241.683 143.047 240.471 142.48C240.309 141.833 240.148 141.266 239.905 140.699C239.824 140.537 239.824 140.375 239.743 140.213C239.582 139.808 239.42 139.404 239.259 138.999C239.178 138.837 239.097 138.675 239.097 138.513C238.935 138.108 238.693 137.622 238.531 137.218C238.45 137.137 238.45 137.056 238.369 136.975C238.127 136.489 237.885 135.922 237.561 135.436C236.915 134.303 236.187 133.25 235.541 132.279C235.056 131.631 234.571 130.983 234.005 130.416C235.217 130.173 236.511 129.769 237.885 129.364C240.713 128.392 243.865 126.935 246.937 124.668C247.26 124.425 247.583 124.182 247.906 123.939C247.987 123.858 247.987 123.858 248.068 123.777C248.391 123.534 248.634 123.291 248.957 123.048C249.038 123.048 249.038 122.967 249.119 122.967C249.765 122.401 250.493 121.753 251.139 121.105C251.22 121.024 251.301 120.943 251.301 120.943C251.543 120.7 251.867 120.376 252.109 120.134C252.19 120.053 252.271 119.972 252.352 119.891C252.998 119.162 253.564 118.433 254.21 117.624C254.291 117.543 254.372 117.462 254.372 117.381C254.615 117.057 254.857 116.733 255.1 116.409C255.18 116.328 255.261 116.166 255.342 116.085C255.584 115.761 255.827 115.356 256.069 114.952C256.15 114.871 256.15 114.79 256.231 114.709C256.473 114.223 256.797 113.818 257.039 113.332C257.12 113.251 257.12 113.089 257.201 113.008C257.443 112.604 257.605 112.28 257.847 111.875C257.928 111.713 258.009 111.551 258.09 111.389C258.252 110.984 258.494 110.579 258.656 110.175C258.736 110.013 258.817 109.932 258.817 109.77C259.06 109.203 259.302 108.717 259.545 108.15C259.545 108.069 259.626 107.988 259.626 107.827C259.787 107.341 260.03 106.855 260.191 106.369C260.272 106.207 260.353 105.964 260.353 105.802C260.515 105.398 260.676 104.912 260.757 104.507C260.838 104.345 260.838 104.102 260.919 103.94C261.08 103.292 261.323 102.645 261.484 101.997C266.415 83.4555 263.101 72.363 259.787 66.5334C267.304 62.647 280.235 55.0361 282.579 43.8626ZM360.976 164.422C361.784 166.204 363.643 167.256 365.582 166.932C366.633 166.851 373.422 166.932 375.119 180.616C376.493 192.194 372.048 198.429 368.33 201.586C367.765 201.505 367.118 201.505 366.552 201.505C358.228 201.505 348.772 211.545 344.973 220.047C337.942 216.646 333.092 218.104 327.758 219.723C327.111 219.966 326.384 220.128 325.657 220.371C319.433 222.152 315.473 228.872 313.21 233.892C308.523 231.301 300.683 229.196 289.045 232.354C278.295 235.269 273.204 239.236 270.86 242.637C266.415 241.179 259.221 240.369 248.876 244.013C242.168 246.361 237.804 251.219 236.187 258.101C236.187 258.182 236.187 258.182 236.187 258.263C231.257 257.939 224.549 256.401 216.144 252.353C212.507 250.571 209.516 247.738 207.092 244.499C211.618 240.45 214.77 235.673 216.386 230.33C220.75 216.241 213.557 201.748 208.87 194.299C217.518 190.899 233.197 182.721 238.854 166.123C240.632 160.941 241.441 156.245 241.521 152.115C243.785 152.763 246.048 153.087 248.23 153.087C253.241 153.087 257.928 151.387 262.05 148.067C275.224 155.597 289.125 148.229 296.48 141.59C306.017 144.99 322.828 146.529 334.87 133.898C339.639 135.922 344.003 136.732 347.883 136.732C350.792 136.732 353.54 136.246 356.046 135.517C359.198 136.246 363.077 138.432 365.825 144.1C369.866 152.52 363.077 158.431 362.269 159.079C360.733 160.455 360.167 162.641 360.976 164.422ZM379.484 227.901C375.766 242.718 355.399 248.79 355.156 248.871C353.54 249.357 352.409 250.652 352.085 252.272C352.085 252.434 348.852 268.141 333.254 277.857C317.494 287.735 300.36 285.144 300.198 285.144C298.905 284.901 297.612 285.306 296.642 286.116C296.076 286.602 295.672 287.168 295.429 287.735C294.621 288.383 291.146 290.569 279.023 292.593C262.293 295.346 249.523 279.234 249.28 278.91C249.2 278.748 249.038 278.667 248.957 278.505C246.856 276.319 244.593 271.056 244.269 265.712C244.269 265.55 244.269 265.388 244.269 265.307C244.269 264.983 244.269 264.579 244.269 264.255C244.269 264.174 244.269 264.093 244.269 264.012C244.269 263.688 244.269 263.364 244.269 263.04C244.269 262.959 244.269 262.878 244.269 262.716C244.269 262.312 244.35 261.988 244.431 261.583C244.431 261.502 244.431 261.421 244.431 261.34C244.512 260.935 244.593 260.53 244.674 260.206C244.754 259.721 244.916 259.235 245.078 258.83C245.239 258.425 245.401 257.939 245.643 257.534C246.856 255.105 248.876 253.405 251.705 252.353C262.05 248.79 267.789 250.733 269.728 251.705C270.052 251.867 270.294 252.029 270.456 252.11L270.536 252.191L270.456 252.11L271.021 251.381L273.284 248.709L277.649 248.061C277.649 248.061 277.649 248.871 277.649 248.547C277.649 248.466 277.81 247.98 278.376 247.333C279.508 245.956 282.74 243.284 291.388 240.855C301.572 238.102 307.391 240.369 310.058 242.151C310.462 242.394 310.785 242.637 311.028 242.879C311.109 242.96 311.19 242.96 311.19 243.041C311.19 243.041 311.19 243.041 311.27 243.041C311.351 243.122 311.351 243.122 311.432 243.203C311.513 243.284 311.513 243.284 311.513 243.284L311.594 243.365L311.675 243.446C312.644 244.823 314.261 245.47 315.958 245.147C317.655 244.904 318.948 243.527 319.433 241.908C319.514 241.584 319.676 241.179 319.757 240.774V240.693C319.918 240.289 319.999 239.884 320.161 239.56C321.858 234.945 324.929 229.439 328 228.548C328.809 228.305 329.536 228.063 330.263 227.901C336.244 226.119 338.426 225.472 345.054 230.087C346.428 231.058 348.125 231.139 349.58 230.411C350.146 230.087 350.63 229.763 350.954 229.277C351.439 228.71 351.762 227.982 351.843 227.253C351.843 227.01 351.924 226.767 351.924 226.524C351.924 224.743 353.459 221.747 355.641 218.751C355.803 218.508 356.046 218.266 356.207 217.942C356.288 217.861 356.288 217.78 356.369 217.699C356.53 217.537 356.611 217.375 356.773 217.132C356.854 217.051 356.935 216.97 357.015 216.889C357.177 216.727 357.258 216.565 357.419 216.403C357.5 216.322 357.581 216.241 357.662 216.16C357.824 215.998 357.985 215.837 358.066 215.675C358.147 215.594 358.228 215.513 358.309 215.432C358.47 215.27 358.632 215.027 358.874 214.865C358.955 214.784 358.955 214.784 359.036 214.703C359.278 214.46 359.44 214.217 359.682 214.055C359.763 213.974 359.763 213.974 359.844 213.893C360.006 213.731 360.167 213.569 360.329 213.407C360.41 213.327 360.491 213.246 360.572 213.165C360.733 213.003 360.895 212.922 360.976 212.76C361.056 212.679 361.137 212.598 361.218 212.517C361.38 212.436 361.541 212.274 361.622 212.193C361.703 212.112 361.784 212.031 361.865 212.031C362.026 211.869 362.188 211.788 362.35 211.707C362.43 211.626 362.511 211.626 362.511 211.545C362.754 211.383 362.915 211.221 363.158 211.14L363.239 211.059C363.4 210.978 363.562 210.817 363.804 210.736C363.885 210.736 363.966 210.655 364.047 210.655C364.208 210.574 364.289 210.493 364.451 210.493C364.532 210.493 364.613 210.412 364.693 210.412C364.855 210.331 364.936 210.331 365.098 210.25C365.178 210.25 365.259 210.169 365.34 210.169C365.502 210.169 365.582 210.088 365.744 210.088C365.825 210.088 365.906 210.088 365.906 210.088C366.067 210.088 366.31 210.007 366.471 210.007C366.714 210.007 367.037 210.007 367.28 210.007C367.361 210.007 367.441 210.007 367.522 210.007C367.765 210.007 368.007 210.007 368.25 210.088C368.33 210.088 368.411 210.088 368.492 210.088C369.139 210.169 369.785 210.25 370.432 210.412C373.26 211.14 376.089 212.598 377.948 214.865C380.292 218.346 380.777 222.557 379.484 227.901ZM179.289 249.114C178.4 249.195 177.43 249.195 176.622 249.195C160.215 249.195 150.436 238.183 150.436 238.183C150.436 238.183 147.769 240.127 137.908 240.127C132.978 240.127 126.189 239.641 117.137 238.183C89.8196 233.811 79.3936 210.817 79.3936 210.817C79.3936 210.817 73.332 213.974 64.1184 213.974C59.5116 213.974 54.0965 213.165 48.2774 210.817C30.7391 203.691 30.7391 179.077 30.7391 179.077C30.7391 179.077 15.9488 171.952 11.5844 153.735C7.22008 135.517 26.3748 122.643 26.3748 122.643C26.3748 122.643 13.2817 115.518 21.4447 95.1957C28.8802 76.8971 47.8733 76.0065 51.4294 76.0065C51.8335 76.0065 52.076 76.0065 52.076 76.0065C52.076 76.0065 49.3281 65.5618 55.8746 52.8499C61.2088 42.4862 76.2416 33.5798 95.8004 33.5798C97.4168 33.5798 99.0333 33.6608 100.731 33.7417C111.641 25.726 122.956 23.297 132.574 23.297C146.395 23.297 156.497 28.236 156.497 28.236C156.497 28.236 163.61 15.6051 188.745 12.3665C191.251 12.0426 193.594 11.8807 195.777 11.8807C215.497 11.8807 222.609 23.8638 222.609 23.8638C222.609 23.8638 226.65 11.7997 246.937 11.7997C247.745 11.7997 248.553 11.7997 249.442 11.8807C263.828 12.5284 270.941 19.4915 273.527 27.9121C273.608 28.236 273.688 28.5599 273.85 28.9647C274.577 33.5798 274.658 38.6807 273.931 42.0813C272.072 50.9067 256.878 58.2747 251.22 60.3799C249.684 60.9466 248.553 62.2421 248.311 63.8615C248.068 65.4808 248.715 67.0192 250.008 67.9098C250.735 68.5575 258.979 76.4923 252.837 99.4869C245.805 125.801 223.498 122.239 222.609 122.077C220.427 121.672 218.245 122.967 217.598 125.153C216.952 127.34 218.083 129.607 220.104 130.416C220.912 130.74 238.935 138.594 230.449 163.289C224.145 181.668 200.949 187.66 200.707 187.741C199.252 188.065 198.04 189.198 197.635 190.575C197.151 192.032 197.474 193.571 198.363 194.704C198.524 194.866 212.587 212.436 207.9 227.658C205.071 236.726 196.019 243.608 180.825 248.061C180.34 248.385 179.774 248.709 179.289 249.114ZM262.939 357.61C262.939 357.61 270.941 364.897 250.574 370.726C247.179 371.698 244.189 372.103 241.602 372.103C228.59 372.103 225.034 361.982 225.034 361.982L219.215 321.094C214.931 291.217 197.151 266.36 187.856 255.186C192.382 253.567 196.423 251.705 199.979 249.681C203.212 253.891 207.253 257.777 212.264 260.287C220.508 264.336 228.348 266.603 235.622 267.089C236.268 274.052 239.097 280.853 242.572 284.496C242.572 284.496 242.653 284.577 242.653 284.658C244.835 314.211 262.939 357.61 262.939 357.61ZM402.033 181.749C398.8 196.647 389.991 204.42 383.363 208.307C381.747 206.606 379.888 205.311 377.867 204.339C381.666 199.562 385.222 191.627 383.767 179.644C382.717 171.224 379.888 165.151 375.2 161.589C374.392 160.941 373.584 160.455 372.856 160.05C375.766 155.111 377.382 148.229 373.745 140.456C371.563 135.922 368.734 132.764 365.744 130.659C371.967 125.963 375.281 120.214 375.362 120.134C375.443 120.053 375.443 119.972 375.523 119.891C375.685 119.567 377.625 115.275 378.514 107.422C385.626 111.146 392.496 116.976 395.486 125.882C403.164 148.31 395.486 153.654 395.486 153.654C395.486 153.654 407.529 156.488 402.033 181.749Z"
        fill="#41256B" />
</svg>