<svg width="77" height="124" viewBox="0 0 77 124" fill="none" xmlns="http://www.w3.org/2000/svg">
    <path
        d="M37.0344 112.982C37.0344 112.982 40.5905 123.103 53.6028 123.103C56.1891 123.103 59.1795 122.698 62.574 121.726C83.0218 115.897 74.9397 108.61 74.9397 108.61C74.9397 108.61 56.8357 65.2113 54.6535 35.5774C54.6535 35.4964 54.5727 35.4964 54.5727 35.4154C54.3302 35.1725 54.1685 34.9296 53.9261 34.6867C53.8453 34.6058 53.8453 34.5248 53.7645 34.4438C53.6028 34.2819 53.4412 34.039 53.3603 33.877C53.2795 33.7151 53.1179 33.5532 53.0371 33.3912C52.9562 33.2293 52.8754 33.1483 52.7138 32.9864C52.5521 32.7435 52.3905 32.5006 52.3097 32.3387C52.2288 32.2577 52.2288 32.1767 52.148 32.0958C51.9864 31.8529 51.8247 31.529 51.6631 31.2861C51.6631 31.2051 51.5823 31.2051 51.5823 31.1242C51.4206 30.8003 51.259 30.4764 51.0973 30.2335C51.0973 30.2335 51.0973 30.1526 51.0165 30.1526C50.8549 29.8287 50.6932 29.4239 50.5316 29.1C49.0768 25.8613 48.0261 21.9749 47.622 18.0885V18.0075C45.8439 17.8456 43.9851 17.6836 42.1262 17.2788C40.7522 17.0359 39.2974 16.712 37.8426 16.3072C37.3577 16.1453 36.8728 16.0643 36.3878 15.9024H36.307C35.8221 15.7404 35.418 15.6595 34.933 15.4975H34.8522C34.3673 15.3356 33.9632 15.1737 33.4783 15.0117C32.9933 14.8498 32.5084 14.6879 32.0235 14.5259C31.9427 14.5259 31.8618 14.445 31.781 14.445C31.3769 14.283 30.9728 14.1211 30.5687 13.9592H30.4879C30.0029 13.7972 29.518 13.5543 29.0331 13.3924C28.7906 13.3114 28.5482 13.2305 28.3865 13.0685C28.1441 12.9876 27.8208 12.8256 27.5783 12.6637C27.1742 12.5018 26.7701 12.2589 26.2852 12.0969C26.2043 12.016 26.1235 12.016 26.0427 11.935C25.5577 11.6921 24.992 11.4492 24.5071 11.2063C19.4961 8.77728 15.4551 4.80989 12.2222 0.599609C8.66607 2.70475 4.625 4.56698 0.098999 6.10535C9.39347 17.2788 27.1742 42.1357 31.4577 72.0125L37.0344 112.982Z"
        fill="#EE7D00" />
</svg>