<svg width="39" height="105" viewBox="0 0 39 105" fill="none" xmlns="http://www.w3.org/2000/svg">
    <path
        d="M37.922 57.0178C37.922 56.9369 37.922 56.8559 37.8412 56.8559C37.5987 55.7224 37.2754 54.6698 36.9521 53.7791C34.6891 47.7066 30.4056 46.654 30.4056 46.654C30.4056 46.654 38.0837 41.3102 30.4056 18.8824C30.244 18.3966 30.0823 17.9108 29.8399 17.4249C29.759 17.263 29.759 17.182 29.6782 17.0201C29.5166 16.6153 29.3549 16.2104 29.1933 15.8056C29.1933 15.7246 29.1124 15.6437 29.1124 15.5627C28.87 15.0769 28.6275 14.6721 28.3851 14.2672C28.3043 14.1863 28.3043 14.1053 28.2234 13.9434C28.0618 13.6195 27.8193 13.2147 27.5769 12.8908C27.496 12.8098 27.496 12.7289 27.4152 12.6479C27.1728 12.2431 26.8495 11.8382 26.607 11.4334C26.607 11.3524 26.5262 11.3524 26.5262 11.2715C26.2837 10.9476 25.9605 10.5428 25.718 10.2189C25.6372 10.1379 25.5563 10.057 25.5563 9.97599C24.9098 9.16632 24.2632 8.43762 23.6166 7.78988C23.5358 7.70891 23.5358 7.70891 23.4549 7.62795C22.7276 6.89924 22.0002 6.2515 21.192 5.5228C18.7673 3.49862 16.181 1.79831 13.5139 0.421875C12.6249 8.27568 10.6852 12.5669 10.5235 12.8908C10.5235 12.9718 10.4427 13.0527 10.3619 13.1337C10.2811 13.2956 6.96739 18.9633 0.744141 23.6594C3.73453 25.8455 6.5633 29.0032 8.74548 33.4564C12.4633 41.1483 10.766 48.1115 7.85642 53.0504C8.66463 53.4553 9.39205 53.9411 10.2003 54.5888C14.8879 58.2323 17.7975 64.3049 18.7673 72.6445C20.3837 86.166 15.6961 94.4246 11.4126 98.9587C10.6852 99.7684 9.95778 100.416 9.23039 101.064L10.2003 104.788C10.2003 104.788 11.9783 104.384 14.6454 103.169C15.0495 103.007 15.4537 102.845 15.8578 102.602C15.9386 102.602 15.9386 102.521 16.0194 102.521C16.1811 102.44 16.3427 102.359 16.5851 102.278C16.6659 102.197 16.8276 102.197 16.9084 102.116C17.0701 102.035 17.2317 101.955 17.3933 101.874C17.6358 101.712 17.8783 101.631 18.1208 101.469C18.2824 101.388 18.3632 101.307 18.5249 101.226C18.6865 101.145 18.8482 100.983 19.0906 100.902C19.2523 100.821 19.3331 100.74 19.4947 100.659C19.818 100.497 20.0605 100.254 20.3837 100.092C20.4646 100.011 20.5454 100.011 20.6262 99.9303C20.8687 99.7684 21.1111 99.6065 21.4344 99.3636C21.5152 99.2826 21.6769 99.2016 21.7577 99.1207C22.0002 98.9587 22.3235 98.7159 22.5659 98.5539C22.6468 98.4729 22.7276 98.4729 22.8084 98.392C23.1317 98.1491 23.455 97.8252 23.7783 97.5823C23.8591 97.5013 23.9399 97.4204 24.0207 97.3394C24.2632 97.0965 24.5865 96.8536 24.8289 96.6107C24.9097 96.5297 24.9906 96.4488 25.0714 96.3678C25.3947 96.0439 25.718 95.7201 26.1221 95.3962L26.2029 95.3152C26.5262 94.9914 26.8494 94.6675 27.0919 94.3436C27.1727 94.2626 27.2536 94.1817 27.3344 94.1007C27.6577 93.7769 27.981 93.453 28.2234 93.0481L28.3042 92.9672C28.6275 92.5624 28.9508 92.1575 29.2741 91.7527C29.3549 91.6717 29.4357 91.5907 29.5166 91.4288C29.759 91.1049 30.0015 90.7001 30.3248 90.3762C30.4056 90.2953 30.4865 90.2143 30.5673 90.0524C30.8906 89.5666 31.2138 89.1617 31.4563 88.6759C31.5371 88.595 31.5371 88.514 31.6179 88.433C31.8604 88.0282 32.1028 87.6234 32.3453 87.1376C32.4261 86.9756 32.507 86.8947 32.5878 86.7327C32.8303 86.2469 33.1536 85.7611 33.396 85.2753C33.396 85.2753 33.396 85.1944 33.4768 85.1944C33.7193 84.6276 33.9618 84.1418 34.285 83.575C34.3659 83.4131 34.4467 83.2511 34.4467 83.0892C34.6083 82.6034 34.8508 82.1986 35.0125 81.7128C35.0933 81.5508 35.0932 81.4699 35.1741 81.3079C35.4165 80.7412 35.5782 80.0934 35.8207 79.4457C35.9015 79.2838 35.9014 79.2028 35.9823 79.0409C36.1439 78.5551 36.3056 77.9883 36.4672 77.4215C36.548 77.2596 36.5481 77.0167 36.6289 76.8547C36.7905 76.207 36.9521 75.4783 37.1138 74.8306C38.7302 66.8148 38.7302 61.1471 37.922 57.0178Z"
        fill="#93C01F" />
</svg>