<svg width="137" height="83" viewBox="0 0 137 83" fill="none" xmlns="http://www.w3.org/2000/svg">
    <path
        d="M51.4295 77.7337C50.6213 78.3814 47.146 80.5675 35.0228 82.5917C18.2927 85.3446 5.52294 69.2321 5.28048 68.9083C5.19966 68.7463 5.03802 68.6654 4.9572 68.5034C2.12845 65.5886 -1.02358 57.0061 0.592846 50.1239C1.48188 46.1565 3.82569 43.6465 7.6243 42.3511C20.5557 37.8979 26.2132 42.0272 26.4557 42.1891L26.3749 42.1082L29.2036 38.7885L33.568 38.1408C33.568 38.1408 33.568 38.9504 33.568 38.6266C33.568 38.5456 33.7296 38.0598 34.2954 37.4121C35.4269 36.0356 38.6597 33.3637 47.3076 30.9347C61.5322 27.0483 67.1897 33.2018 67.7555 33.7686C68.7253 35.145 70.3417 35.7927 72.039 35.4689C73.7362 35.226 75.0294 33.8495 75.5143 32.2302C76.8074 27.4531 80.5252 19.8422 84.0814 18.8706C84.8896 18.6277 85.617 18.3848 86.3444 18.2229C92.3252 16.4416 94.5073 15.7939 101.135 20.409C102.509 21.3806 104.206 21.4616 105.661 20.7329C107.116 20.0042 108.005 18.4658 108.005 16.8465C108.005 12.5552 117.218 0.410156 122.633 0.410156C126.351 0.410156 131.281 1.94851 134.029 5.4301C136.373 8.42588 136.858 12.6362 135.565 17.98C131.847 32.7969 111.48 38.8695 111.237 38.9505C109.621 39.4363 108.489 40.7317 108.166 42.3511C108.166 42.513 104.933 58.2206 89.3348 67.9366C73.5746 77.8146 56.4405 75.2237 56.2788 75.2237C54.9857 74.9808 53.6925 75.3856 52.7227 76.1953C52.1569 76.5192 51.7528 77.0859 51.4295 77.7337Z"
        fill="#E5007E" />
    <path
        d="M46.4992 61.3793C46.0142 61.3793 45.5293 61.3793 45.0444 61.2983C40.8417 60.8935 38.417 58.9503 38.1746 58.7074C37.0431 57.7358 36.8814 56.0355 37.8513 54.9019C38.8212 53.7684 40.4376 53.6065 41.5691 54.5781C41.8924 54.821 47.954 59.3551 58.3799 50.6917C59.5114 49.7201 61.2087 49.882 62.1785 51.0965C63.1484 52.23 62.9867 53.9303 61.7744 54.9019C55.5512 60.0838 50.217 61.3793 46.4992 61.3793Z"
        fill="#41256B" />
</svg>