<svg width="138" height="118" viewBox="0 0 138 118" fill="none" xmlns="http://www.w3.org/2000/svg">
    <path
        d="M26.6253 39.2891C29.939 45.1188 33.2526 56.2112 28.3225 74.7527C23.5541 92.4844 12.8857 99.4476 4.80352 102.2C3.51037 102.605 2.21722 103.01 0.924072 103.253C1.409 103.82 1.97475 104.468 2.45967 105.115C4.39939 107.706 6.25829 111.107 7.38979 115.398C8.68293 116.046 10.0569 116.532 11.4309 116.856C16.8459 118.232 21.3719 116.775 25.3322 112.564C26.8678 110.945 29.3732 110.702 31.2321 112.078C44.2444 122.118 58.7114 107.139 59.2772 106.492C60.5703 105.115 62.5908 104.71 64.2881 105.52C65.0963 105.925 84.8976 114.75 97.2633 98.8808C98.5564 97.2615 100.819 96.6947 102.678 97.6663C111.245 102.12 119.085 102.039 126.117 97.5044C131.127 94.2657 134.037 89.7316 134.522 88.8409C135.088 87.4645 140.018 74.6717 134.199 52.4867C128.38 30.3828 103.567 27.8728 102.517 27.7918C100.254 27.5489 98.5564 25.6867 98.5564 23.4196C98.5564 23.4196 98.3948 20.2619 95.9701 16.2945C92.6564 10.7887 86.5948 6.17362 78.4318 2.85397C69.0566 -0.951476 58.469 -0.141803 49.5786 1.88237C50.306 7.22619 50.306 12.8129 49.4169 16.7803C47.2348 28.0347 34.3033 35.6456 26.6253 39.2891Z"
        fill="#D41C17" />
    <path
        d="M53.9428 81.2297C52.7305 81.2297 51.599 80.3391 51.3565 79.1246C51.2757 78.8007 43.8401 43.5801 76.5728 33.7021C78.0276 33.2972 79.4824 34.1069 79.8865 35.4834C80.2906 36.9408 79.4824 38.3982 78.1084 38.803C67.8441 41.8797 61.1359 48.0332 57.903 57.1825C62.9948 53.7009 73.8249 48.6 88.6152 54.6725C89.9892 55.2393 90.6358 56.7777 90.07 58.1541C89.5043 59.5305 87.9686 60.1783 86.5947 59.6115C79.4016 56.6967 72.5317 56.4538 66.1468 58.8828C61.2976 60.7451 58.5496 63.4979 58.5496 63.5789C57.9031 64.2266 57.0948 64.4695 56.2866 64.3886C55.3168 71.8375 56.6099 77.8291 56.6099 77.9101C56.9332 79.3675 56.0441 80.8249 54.5894 81.1487C54.2661 81.2297 54.1044 81.2297 53.9428 81.2297Z"
        fill="#41256B" />
</svg>