<svg width="169" height="125" viewBox="0 0 169 125" fill="none" xmlns="http://www.w3.org/2000/svg">
    <path
        d="M168.362 49.2075C168.362 49.0456 168.362 48.8027 168.362 48.6407C168.282 47.993 168.282 47.3452 168.201 46.6975C166.503 33.0141 159.714 32.9331 158.664 33.0141C156.724 33.338 154.865 32.2854 154.057 30.5041C153.249 28.6419 153.814 26.5367 155.431 25.2413C156.158 24.5935 163.028 18.6829 158.987 10.2624C156.239 4.59469 152.36 2.40859 149.208 1.67989C146.702 2.40859 144.035 2.89439 141.045 2.89439C137.084 2.89439 132.72 2.08472 128.032 0.0605469C115.99 12.6914 99.1791 11.153 89.6422 7.75241C82.2875 14.3917 68.3862 21.7597 55.2123 14.2298C51.0904 17.5494 46.4027 19.2497 41.3918 19.2497C39.2096 19.2497 36.9466 18.9258 34.6836 18.2781C34.6028 22.4074 33.7946 27.0225 32.0165 32.2854C26.359 48.8836 10.6796 57.0613 2.03174 60.4619C6.71939 67.9109 13.9125 82.323 9.54813 96.4922C7.9317 101.836 4.77966 106.613 0.253662 110.661C2.67831 113.9 5.66871 116.734 9.30568 118.515C9.79061 118.758 10.3564 119.001 10.8413 119.244C11.0029 119.325 11.2454 119.406 11.407 119.487C11.7303 119.649 12.0536 119.73 12.2961 119.892C12.5385 119.973 12.781 120.054 13.0235 120.216C13.2659 120.297 13.5084 120.458 13.8317 120.539C14.0741 120.62 14.3166 120.701 14.5591 120.863C14.8015 120.944 15.044 121.025 15.2056 121.106C15.4481 121.187 15.7714 121.268 16.0138 121.43C16.1755 121.511 16.418 121.592 16.5796 121.673C16.9029 121.754 17.1454 121.835 17.3878 121.997C17.5495 122.078 17.7111 122.078 17.8728 122.159C18.196 122.24 18.4385 122.321 18.7618 122.402C18.9234 122.483 19.0851 122.483 19.2467 122.564C19.57 122.645 19.8125 122.725 20.1357 122.806C20.2974 122.806 20.3782 122.887 20.5399 122.887C20.8631 122.968 21.1864 123.049 21.5097 123.13C21.5905 123.13 21.6714 123.211 21.833 123.211C22.1563 123.292 22.4796 123.373 22.8028 123.454C22.8837 123.454 22.9645 123.454 23.0453 123.535C23.3686 123.616 23.6919 123.697 24.0152 123.778C24.096 123.778 24.1768 123.778 24.1768 123.859C24.5001 123.94 24.8234 124.021 25.1467 124.021H25.2275C25.5508 124.102 25.8741 124.102 26.1974 124.183H26.2782C26.6015 124.264 26.9247 124.264 27.248 124.345C27.5713 124.426 27.8946 124.426 28.2179 124.426C28.5412 124.426 28.8645 124.507 29.1878 124.507C29.1878 124.426 29.1878 124.426 29.1878 124.345C30.8042 117.463 35.1685 112.524 41.8767 110.257C52.2219 106.694 59.4958 107.504 63.8602 108.88C66.204 105.48 71.2957 101.593 82.045 98.5973C93.6833 95.4396 101.523 97.5448 106.211 100.136C108.474 95.0348 112.515 88.3146 118.657 86.6142C119.385 86.3713 120.112 86.2094 120.758 85.9665C126.093 84.3472 130.942 82.8897 137.973 86.2904C141.772 77.7888 151.228 67.7489 159.553 67.7489C160.119 67.7489 160.684 67.7489 161.331 67.8299C161.573 67.668 161.816 67.425 161.977 67.2631C161.977 67.2631 162.058 67.2631 162.058 67.1822C162.301 66.9393 162.543 66.7773 162.705 66.5344C163.19 66.0486 163.594 65.4818 164.079 64.9151C164.079 64.8341 164.16 64.8341 164.16 64.7532C164.321 64.5103 164.483 64.2673 164.645 64.0244C164.725 63.9435 164.725 63.8625 164.806 63.7815C164.968 63.5386 165.129 63.2957 165.291 63.0528C165.372 62.9719 165.372 62.8909 165.453 62.8099C165.614 62.4861 165.776 62.1622 165.938 61.8383C165.938 61.8383 165.938 61.7574 166.019 61.7574C166.18 61.3525 166.342 61.0287 166.503 60.6238C166.503 60.5429 166.584 60.4619 166.584 60.3C166.665 59.9761 166.827 59.7332 166.908 59.4093C166.988 59.2474 166.988 59.0855 167.069 59.0045C167.15 58.6806 167.231 58.4377 167.312 58.1139C167.392 57.9519 167.392 57.79 167.473 57.6281C167.554 57.3042 167.635 56.9803 167.716 56.5755C167.716 56.4136 167.797 56.3326 167.797 56.1707C167.877 55.6849 167.958 55.1991 168.039 54.6323C168.039 54.5513 168.039 54.3894 168.039 54.3084C168.12 53.9036 168.12 53.4988 168.12 53.013C168.12 52.851 168.12 52.6081 168.12 52.4462C168.12 52.0413 168.12 51.7175 168.12 51.3126C168.12 51.0697 168.12 50.9078 168.12 50.6649C168.362 50.0172 168.362 49.6123 168.362 49.2075Z"
        fill="#009EE2" />
    <path
        d="M30.9657 93.1707C29.5109 93.1707 28.3794 92.0372 28.2986 90.6608C28.2986 90.0131 27.5712 75.6819 35.8958 67.99C39.9369 64.2655 45.3519 62.8081 51.9792 63.6988C68.1435 65.8849 75.0942 56.0069 76.549 53.6589C76.549 51.9586 76.2257 47.1005 73.3161 44.3477C71.7805 42.8093 69.5983 42.1615 66.7696 42.4044C65.3148 42.4854 64.0216 41.4328 63.86 39.8945C63.7792 38.4371 64.8299 37.1416 66.3655 36.9796C70.7298 36.6558 74.3668 37.7893 77.0339 40.4612C80.7517 44.1048 81.6407 49.6105 81.8024 52.5253C85.1969 53.6589 94.4105 55.764 107.908 51.7966C120.273 48.1531 122.456 42.7283 121.971 40.3803V40.4612L127.143 38.9229C127.224 39.2467 128.113 42.4044 126.012 46.2099C123.506 50.825 117.93 54.4685 109.443 56.9785C94.8146 61.2698 84.5503 59.0836 80.2668 57.7072C77.1147 62.0794 68.3052 71.4716 51.2519 69.1236C46.2409 68.4758 42.4423 69.3665 39.5327 72.0384C33.067 77.949 33.6328 90.3369 33.6328 90.4179C33.7136 91.8753 32.5821 93.1708 31.1273 93.2517C31.0465 93.1708 30.9657 93.1707 30.9657 93.1707Z"
        fill="#41256B" />
</svg>